<svg width="123" height="41" viewBox="0 0 123 41" fill="none" xmlns="http://www.w3.org/2000/svg">
<path d="M9.99501 5.81927C9.99501 7.02174 9.64037 7.97935 8.93009 8.69368C8.12332 9.54307 7.07184 9.96805 5.77921 9.96805C4.54133 9.96805 3.48885 9.53747 2.62333 8.67516C1.75625 7.81343 1.32357 6.74487 1.32357 5.46993C1.32357 4.19441 1.75625 3.12643 2.62333 2.26412C3.48885 1.40238 4.54133 0.971231 5.77921 0.971231C6.39343 0.971231 6.9815 1.09179 7.53983 1.33234C8.09816 1.57347 8.546 1.89353 8.88106 2.2944L8.12718 3.05179C7.55942 2.37062 6.77766 2.03031 5.77921 2.03031C4.87639 2.03031 4.09578 2.3488 3.43696 2.9862C2.778 3.62432 2.44866 4.45175 2.44866 5.46993C2.44866 6.4881 2.778 7.31553 3.43696 7.95365C4.09578 8.59106 4.87639 8.90954 5.77921 8.90954C6.73692 8.90954 7.5354 8.58933 8.17464 7.94806C8.5896 7.53025 8.8296 6.94954 8.89378 6.20378H5.77921V5.16938H9.93526C9.97542 5.39429 9.99501 5.61015 9.99501 5.81927Z" fill="white"/>
<path d="M9.99501 5.81927L9.85179 5.81897C9.85065 6.99402 9.50887 7.90671 8.82875 8.5919L8.82718 8.59305C8.046 9.41316 7.0414 9.8225 5.77893 9.82422C4.57407 9.8225 3.56561 9.40986 2.72354 8.57339C1.88332 7.73519 1.4678 6.71199 1.46623 5.46962C1.4678 4.22668 1.88332 3.20405 2.72354 2.36643C3.56561 1.52938 4.57407 1.11617 5.77893 1.11445C6.37471 1.11445 6.94205 1.23113 7.48309 1.46379C8.0247 1.69817 8.45253 2.00532 8.77129 2.38667L8.88106 2.2944L8.77972 2.19262L8.02584 2.95059L8.12718 3.05179L8.23697 2.95963C7.64276 2.24472 6.80869 1.88433 5.77893 1.88648C4.84266 1.88533 4.01902 2.22118 3.33776 2.88284C2.64992 3.54665 2.30429 4.42059 2.30544 5.46962C2.30429 6.51866 2.64992 7.3926 3.33776 8.05641C4.01902 8.71806 4.84266 9.05392 5.77893 9.05277C6.76838 9.05449 7.6116 8.71749 8.27542 8.04923C8.71883 7.60286 8.97012 6.98455 9.03601 6.21582L9.04931 6.05995H5.92187V5.3126H9.93498L9.93526 5.16938L9.79418 5.19434C9.83335 5.41192 9.85179 5.61875 9.85179 5.81897L9.99501 5.81927L10.1377 5.81897C10.1377 5.6008 10.1175 5.37662 10.0756 5.14338L10.0545 5.02555H5.63599V6.347H8.8935L8.89378 6.20378L8.75113 6.19113C8.6881 6.91336 8.4591 7.45718 8.0733 7.84628C7.45908 8.46072 6.70534 8.76399 5.77893 8.76571C4.90956 8.76457 4.17198 8.46402 3.53603 7.85016C2.90622 7.23845 2.59289 6.45752 2.59132 5.46962C2.59289 4.48173 2.90622 3.7008 3.53603 3.08909C4.17198 2.47522 4.90956 2.17468 5.77893 2.17353C6.74551 2.17583 7.47537 2.49647 8.01755 3.14406L8.11804 3.26405L9.07446 2.30256L8.99013 2.20209C8.63892 1.7817 8.17107 1.448 7.59587 1.20028C7.01967 0.951831 6.41159 0.827395 5.77893 0.827395C4.50817 0.826247 3.41152 1.27477 2.52199 2.16234C1.62918 3.04818 1.1792 4.16166 1.18034 5.46962C1.1792 6.77701 1.62917 7.89106 2.52256 8.77748C3.41152 9.66448 4.50817 10.1124 5.77893 10.1113C7.10229 10.1124 8.20009 9.67108 9.03315 8.79255L8.93009 8.69368L9.03087 8.79485C9.77131 8.05196 10.1387 7.04842 10.1377 5.81897L9.99501 5.81927Z" fill="white"/>
<path d="M16.583 2.22233H12.6773V4.95278H16.1995V5.98761H12.6773V8.71806H16.583V9.77599H11.5762V1.16439H16.583V2.22233Z" fill="white"/>
<path d="M16.5853 2.22268V2.07915H12.5366V5.09665H16.0589V5.844L12.5366 5.84443V8.86194H16.4424V9.63282H11.7214V1.30827H16.4424V2.22268H16.5853H16.7283V1.02121H11.4355V9.91987H16.7283V8.57488H12.8225V6.13149H16.3448V4.8096H12.8225V2.3662H16.7283V2.22268H16.5853Z" fill="white"/>
<path d="M21.2333 9.77599H20.1305V2.22233H17.735V1.16439H23.6287V2.22233H21.2333V9.77599Z" fill="white"/>
<path d="M21.2333 9.77599L21.233 9.63282H20.2731V2.07915H17.8777V1.30827H23.4855V2.07915H21.09V9.77635L21.2333 9.77599L21.3759 9.77635V2.3662H23.7714V1.02121H17.5918V2.3662H19.9872V9.91987H21.3759V9.77635L21.2333 9.77599Z" fill="white"/>
<path d="M27.8913 9.77599V1.16439H28.9929V9.77599H27.8913Z" fill="white"/>
<path d="M27.8913 9.77599L28.0339 9.77635V1.30827H28.8497V9.63282H27.891L27.8913 9.77599L27.891 9.91987H29.1356V1.02121H27.7481V9.91987H27.891L27.8913 9.77599Z" fill="white"/>
<path d="M33.8789 9.77599H32.7761V2.22233H30.3809V1.16439H36.2744V2.22233H33.8789V9.77599Z" fill="white"/>
<path d="M33.8813 9.77635V9.63282H32.9214V2.07915H30.5261V1.30827H36.1338V2.07915H33.7383V9.77635H33.8813H34.0242V2.3662H36.4196V1.02121H30.2402V2.3662H32.6355V9.91987H34.0242V9.77635H33.8813Z" fill="white"/>
<path d="M41.958 7.9419C42.5928 8.58719 43.3695 8.90955 44.2881 8.90955C45.2066 8.90955 45.9838 8.58719 46.6176 7.9419C47.253 7.2966 47.5713 6.47176 47.5713 5.46994C47.5713 4.46813 47.253 3.64328 46.6176 2.99798C45.9838 2.35269 45.2066 2.03033 44.2881 2.03033C43.3695 2.03033 42.5928 2.35269 41.958 2.99798C41.3242 3.64328 41.006 4.46813 41.006 5.46994C41.006 6.47176 41.3242 7.2966 41.958 7.9419ZM47.4328 8.66283C46.5896 9.53347 45.541 9.96806 44.2881 9.96806C43.0339 9.96806 41.9858 9.53347 41.1445 8.66283C40.3007 7.79321 39.8809 6.72867 39.8809 5.46994C39.8809 4.21121 40.3007 3.14653 41.1445 2.27705C41.9858 1.40627 43.0339 0.971245 44.2881 0.971245C45.5344 0.971245 46.5801 1.40857 47.4272 2.28265C48.2732 3.15672 48.6964 4.21911 48.6964 5.46994C48.6964 6.72867 48.2742 7.79321 47.4328 8.66283Z" fill="white"/>
<path d="M41.958 7.9419L41.856 8.04248C42.5144 8.71361 43.3358 9.05449 44.2878 9.05277C45.2392 9.05449 46.0617 8.71361 46.7189 8.04248C47.3816 7.37078 47.715 6.50173 47.714 5.46963C47.715 4.43753 47.3816 3.56847 46.7189 2.89677C46.0617 2.22564 45.2392 1.88476 44.2878 1.88648C43.3358 1.88476 42.5144 2.22564 41.856 2.89677C41.1949 3.56847 40.861 4.43753 40.8627 5.46963C40.861 6.50173 41.1949 7.37078 41.856 8.04248L41.958 7.9419L42.0593 7.84068C41.4529 7.22108 41.1498 6.44173 41.1486 5.46963C41.1498 4.49752 41.4529 3.71817 42.0593 3.09857C42.6712 2.47911 43.4021 2.17526 44.2878 2.17354C45.1727 2.17526 45.9053 2.47911 46.5157 3.09857C47.1232 3.71817 47.4264 4.49752 47.4275 5.46963C47.4264 6.44173 47.1232 7.22108 46.5157 7.84068C45.9053 8.46014 45.1727 8.76399 44.2878 8.76571C43.4021 8.76399 42.6712 8.46014 42.0593 7.84068L41.958 7.9419ZM47.4328 8.66283L47.3303 8.56277C46.5107 9.40599 45.5084 9.8225 44.2878 9.82422C43.0666 9.8225 42.0643 9.40599 41.2462 8.56277C40.4283 7.71668 40.0247 6.69635 40.0235 5.46963C40.0247 4.2429 40.4283 3.22257 41.2462 2.37648C42.0643 1.53326 43.0666 1.11618 44.2878 1.11445C45.5005 1.11618 46.5005 1.53499 47.3247 2.38265C48.1455 3.23262 48.5515 4.25137 48.5532 5.46963C48.5515 6.69635 48.1466 7.71668 47.3303 8.56277L47.4328 8.66283L47.5353 8.76227C48.4018 7.86867 48.8401 6.76022 48.8391 5.46963C48.8401 4.18635 48.4001 3.08019 47.5296 2.18258C46.6586 1.28152 45.5675 0.825821 44.2878 0.8274C43.0013 0.825821 41.9069 1.27936 41.0414 2.17698C40.1732 3.07115 39.7365 4.17903 39.7376 5.46963C39.7365 6.76022 40.1732 7.86867 41.0414 8.76284C41.9069 9.66046 43.0013 10.1124 44.2878 10.1113C45.5737 10.1124 46.668 9.65989 47.5353 8.76227L47.4328 8.66283Z" fill="white"/>
<path d="M50.2428 9.77599V1.16439H51.5841L55.7523 7.86364H55.7997L55.7523 6.20404V1.16439H56.8551V9.77599H55.7048L51.3439 2.75209H51.2965L51.3439 4.41226V9.77599H50.2428Z" fill="white"/>
<path d="M50.2452 9.77635H50.3881V1.30827H51.507L55.6752 8.00752H55.9488L55.8975 6.20224V1.30827H56.7144V9.63282H55.7865L51.4256 2.60891H51.152L51.2033 4.4149V9.63282H50.2452V9.77635V9.91987H51.4892V4.41031L51.4417 2.74856L51.2988 2.75244V2.89596H51.3462V2.75244L51.225 2.82879L55.6278 9.91987H57.0003V1.02121H55.6116V6.20612L55.6591 7.86787L55.802 7.86399V7.72047H55.7546V7.86399L55.8758 7.78778L51.6656 1.02121H50.1022V9.91987H50.2452V9.77635Z" fill="white"/>
<path d="M95.0715 34.1749H97.7389V16.2323H95.0715V34.1749ZM119.096 22.6956L116.038 30.4746H115.947L112.774 22.6956H109.9L114.659 33.5682L111.946 39.616H114.729L122.062 22.6956H119.096ZM103.97 32.137C103.095 32.137 101.877 31.6985 101.877 30.6131C101.877 29.2283 103.395 28.6974 104.704 28.6974C105.878 28.6974 106.428 28.9513 107.142 29.2979C106.934 30.9596 105.509 32.137 103.97 32.137ZM104.291 22.3031C102.36 22.3031 100.36 23.1575 99.5328 25.0503L101.9 26.0427C102.406 25.0503 103.348 24.7268 104.337 24.7268C105.716 24.7268 107.119 25.5583 107.142 27.0356V27.22C106.658 26.943 105.625 26.5277 104.36 26.5277C101.808 26.5277 99.2097 27.9354 99.2097 30.5671C99.2097 32.9678 101.302 34.5146 103.647 34.5146C105.441 34.5146 106.428 33.7067 107.05 32.7605H107.142V34.1452H109.716V27.266C109.716 24.081 107.349 22.3031 104.291 22.3031ZM87.8072 24.8798H84.0135V18.7296H87.8072C89.8013 18.7296 90.9334 20.3873 90.9334 21.8046C90.9334 23.1951 89.8013 24.8798 87.8072 24.8798ZM87.7386 16.2323H81.3477V34.1749H84.0135V27.3771H87.7386C90.6947 27.3771 93.6007 25.228 93.6007 21.8046C93.6007 18.3814 90.6947 16.2323 87.7386 16.2323ZM52.8878 32.1403C51.0452 32.1403 49.5024 30.5912 49.5024 28.4635C49.5024 26.3135 51.0452 24.7409 52.8878 24.7409C54.7071 24.7409 56.1348 26.3135 56.1348 28.4635C56.1348 30.5912 54.7071 32.1403 52.8878 32.1403ZM55.9505 23.7003H55.8583C55.2598 22.9837 54.1079 22.3362 52.6573 22.3362C49.6175 22.3362 46.8312 25.0183 46.8312 28.4635C46.8312 31.8858 49.6175 34.5449 52.6573 34.5449C54.1079 34.5449 55.2598 33.8973 55.8583 33.1579H55.9505V34.0364C55.9505 36.3722 54.7071 37.6207 52.7036 37.6207C51.0686 37.6207 50.0553 36.441 49.6403 35.447L47.3148 36.4181C47.9826 38.0366 49.756 40.0253 52.7036 40.0253C55.8355 40.0253 58.4838 38.1751 58.4838 33.6664V22.7063H55.9505V23.7003ZM60.3258 34.1749H62.9972V16.2318H60.3258V34.1749ZM66.9352 28.2556C66.866 25.8969 68.7544 24.6948 70.113 24.6948C71.173 24.6948 72.0707 25.2263 72.3694 25.99L66.9352 28.2556ZM75.2254 26.2209C74.7194 24.8563 73.1756 22.3362 70.0208 22.3362C66.8889 22.3362 64.2869 24.8104 64.2869 28.4406C64.2869 31.8628 66.866 34.5449 70.3201 34.5449C73.107 34.5449 74.7194 32.8338 75.387 31.8397L73.3143 30.4521C72.6239 31.4697 71.679 32.1403 70.3201 32.1403C68.9616 32.1403 67.9946 31.5158 67.3725 30.2906L75.5013 26.9145L75.2254 26.2209ZM10.4609 24.2093V26.7989H16.6324C16.4481 28.2556 15.9646 29.3191 15.2275 30.0591C14.3297 30.9612 12.9249 31.9553 10.4609 31.9553C6.66102 31.9553 3.69053 28.8801 3.69053 25.0648C3.69053 21.2496 6.66102 18.174 10.4609 18.174C12.5105 18.174 14.007 18.9835 15.1125 20.024L16.9317 18.1975C15.3889 16.7173 13.3391 15.5843 10.4609 15.5843C5.25618 15.5843 0.880859 19.839 0.880859 25.0648C0.880859 30.2906 5.25618 34.5449 10.4609 34.5449C13.2705 34.5449 15.3889 33.6205 17.0468 31.8858C18.7509 30.1747 19.2808 27.77 19.2808 25.828C19.2808 25.2263 19.2349 24.6719 19.1423 24.2093H10.4609ZM26.2973 32.1403C24.4546 32.1403 22.8655 30.6142 22.8655 28.4406C22.8655 26.2439 24.4546 24.7409 26.2973 24.7409C28.1392 24.7409 29.7283 26.2439 29.7283 28.4406C29.7283 30.6142 28.1392 32.1403 26.2973 32.1403ZM26.2973 22.3362C22.9347 22.3362 20.1942 24.9028 20.1942 28.4406C20.1942 31.9553 22.9347 34.5449 26.2973 34.5449C29.6591 34.5449 32.3996 31.9553 32.3996 28.4406C32.3996 24.9028 29.6591 22.3362 26.2973 22.3362ZM39.6098 32.1403C37.7678 32.1403 36.1786 30.6142 36.1786 28.4406C36.1786 26.2439 37.7678 24.7409 39.6098 24.7409C41.4519 24.7409 43.041 26.2439 43.041 28.4406C43.041 30.6142 41.4519 32.1403 39.6098 32.1403ZM39.6098 22.3362C36.2474 22.3362 33.5074 24.9028 33.5074 28.4406C33.5074 31.9553 36.2474 34.5449 39.6098 34.5449C42.9718 34.5449 45.7123 31.9553 45.7123 28.4406C45.7123 24.9028 42.9718 22.3362 39.6098 22.3362Z" fill="white"/>
</svg>
