<svg width="122" height="40" viewBox="0 0 122 40" fill="none" xmlns="http://www.w3.org/2000/svg">
<path d="M9.49501 5.14984C9.49501 6.3523 9.14037 7.30991 8.43009 8.02424C7.62332 8.87363 6.57184 9.29862 5.27921 9.29862C4.04133 9.29862 2.98885 8.86804 2.12333 8.00573C1.25625 7.144 0.823568 6.07544 0.823568 4.80049C0.823568 3.52497 1.25625 2.45699 2.12333 1.59468C2.98885 0.732951 4.04133 0.301798 5.27921 0.301798C5.89343 0.301798 6.4815 0.422359 7.03983 0.662909C7.59816 0.904034 8.046 1.2241 8.38106 1.62497L7.62718 2.38236C7.05942 1.70118 6.27766 1.36088 5.27921 1.36088C4.37639 1.36088 3.59578 1.67937 2.93696 2.31677C2.278 2.95489 1.94866 3.78232 1.94866 4.80049C1.94866 5.81867 2.278 6.6461 2.93696 7.28422C3.59578 7.92162 4.37639 8.24011 5.27921 8.24011C6.23692 8.24011 7.0354 7.9199 7.67464 7.27862C8.0896 6.86082 8.3296 6.28011 8.39378 5.53435H5.27921V4.49995H9.43526C9.47542 4.72486 9.49501 4.94072 9.49501 5.14984Z" fill="white"/>
<path d="M9.49501 5.14984L9.35179 5.14953C9.35065 6.32459 9.00887 7.23727 8.32875 7.92247L8.32718 7.92362C7.546 8.74373 6.5414 9.15307 5.27893 9.15479C4.07407 9.15307 3.06561 8.74043 2.22354 7.90395C1.38332 7.06576 0.967798 6.04256 0.966225 4.80019C0.967798 3.55725 1.38332 2.53462 2.22354 1.697C3.06561 0.859949 4.07407 0.446737 5.27893 0.445015C5.87471 0.445015 6.44205 0.5617 6.98309 0.794357C7.5247 1.02874 7.95253 1.33588 8.27129 1.71723L8.38106 1.62497L8.27972 1.52319L7.52584 2.28115L7.62718 2.38236L7.73697 2.29019C7.14276 1.57529 6.30869 1.21489 5.27893 1.21704C4.34266 1.2159 3.51902 1.55175 2.83776 2.21341C2.14992 2.87722 1.80429 3.75115 1.80544 4.80019C1.80429 5.84923 2.14992 6.72316 2.83776 7.38697C3.51902 8.04863 4.34266 8.38448 5.27893 8.38333C6.26838 8.38506 7.1116 8.04805 7.77542 7.37979C8.21883 6.93343 8.47012 6.31511 8.53601 5.54639L8.54931 5.39052H5.42187V4.64317H9.43498L9.43526 4.49995L9.29418 4.5249C9.33335 4.74249 9.35179 4.94931 9.35179 5.14953L9.49501 5.14984L9.63768 5.14953C9.63768 4.93137 9.61752 4.70718 9.57564 4.47395L9.55448 4.35612H5.13599V5.67757H8.3935L8.39378 5.53435L8.25113 5.5217C8.1881 6.24393 7.9591 6.78775 7.5733 7.17685C6.95908 7.79128 6.20534 8.09456 5.27893 8.09628C4.40956 8.09513 3.67198 7.79459 3.03603 7.18072C2.40622 6.56901 2.09289 5.78808 2.09132 4.80019C2.09289 3.81229 2.40622 3.03137 3.03603 2.41965C3.67198 1.80579 4.40956 1.50525 5.27893 1.5041C6.24551 1.50639 6.97537 1.82703 7.51755 2.47462L7.61804 2.59461L8.57446 1.63313L8.49013 1.53266C8.13892 1.11227 7.67107 0.77857 7.09587 0.530842C6.51967 0.282398 5.91159 0.157961 5.27893 0.157961C4.00817 0.156813 2.91152 0.605333 2.02199 1.4929C1.12918 2.37875 0.679197 3.49223 0.680341 4.80019C0.679197 6.10757 1.12917 7.22163 2.02256 8.10805C2.91152 8.99504 4.00817 9.44299 5.27893 9.44184C6.60229 9.44299 7.70009 9.00165 8.53315 8.12312L8.43009 8.02424L8.53087 8.12542C9.27131 7.38252 9.63868 6.37898 9.63768 5.14953L9.49501 5.14984Z" fill="white"/>
<path d="M16.083 1.55289H12.1773V4.28334H15.6995V5.31817H12.1773V8.04862H16.083V9.10656H11.0762V0.494958H16.083V1.55289Z" fill="white"/>
<path d="M16.0853 1.55324V1.40972H12.0366V4.42722H15.5589V5.17457L12.0366 5.175V8.1925H15.9424V8.96339H11.2214V0.638834H15.9424V1.55324H16.0853H16.2283V0.351781H10.9355V9.25044H16.2283V7.90545H12.3225V5.46205H15.8448V4.14017H12.3225V1.69677H16.2283V1.55324H16.0853Z" fill="white"/>
<path d="M20.7333 9.10656H19.6305V1.55289H17.235V0.494958H23.1287V1.55289H20.7333V9.10656Z" fill="white"/>
<path d="M20.7333 9.10656L20.733 8.96339H19.7731V1.40972H17.3777V0.638834H22.9855V1.40972H20.59V9.10691L20.7333 9.10656L20.8759 9.10691V1.69677H23.2714V0.351781H17.0918V1.69677H19.4872V9.25044H20.8759V9.10691L20.7333 9.10656Z" fill="white"/>
<path d="M27.3913 9.10656V0.494958H28.4929V9.10656H27.3913Z" fill="white"/>
<path d="M27.3913 9.10656L27.5339 9.10691V0.638834H28.3497V8.96339H27.391L27.3913 9.10656L27.391 9.25044H28.6356V0.351781H27.2481V9.25044H27.391L27.3913 9.10656Z" fill="white"/>
<path d="M33.3789 9.10656H32.2761V1.55289H29.8809V0.494958H35.7744V1.55289H33.3789V9.10656Z" fill="white"/>
<path d="M33.3813 9.10691V8.96339H32.4214V1.40972H30.0261V0.638834H35.6338V1.40972H33.2383V9.10691H33.3813H33.5242V1.69677H35.9196V0.351781H29.7402V1.69677H32.1355V9.25044H33.5242V9.10691H33.3813Z" fill="white"/>
<path d="M41.458 7.27246C42.0928 7.91776 42.8695 8.24012 43.7881 8.24012C44.7066 8.24012 45.4838 7.91776 46.1176 7.27246C46.753 6.62717 47.0713 5.80232 47.0713 4.80051C47.0713 3.79869 46.753 2.97385 46.1176 2.32855C45.4838 1.68325 44.7066 1.36089 43.7881 1.36089C42.8695 1.36089 42.0928 1.68325 41.458 2.32855C40.8242 2.97385 40.506 3.79869 40.506 4.80051C40.506 5.80232 40.8242 6.62717 41.458 7.27246ZM46.9328 7.9934C46.0896 8.86403 45.041 9.29863 43.7881 9.29863C42.5339 9.29863 41.4858 8.86403 40.6445 7.9934C39.8007 7.12377 39.3809 6.05924 39.3809 4.80051C39.3809 3.54178 39.8007 2.4771 40.6445 1.60761C41.4858 0.736839 42.5339 0.301811 43.7881 0.301811C45.0344 0.301811 46.0801 0.739136 46.9272 1.61321C47.7732 2.48729 48.1964 3.54967 48.1964 4.80051C48.1964 6.05924 47.7742 7.12377 46.9328 7.9934Z" fill="white"/>
<path d="M41.458 7.27246L41.356 7.37305C42.0144 8.04418 42.8358 8.38506 43.7878 8.38333C44.7392 8.38506 45.5617 8.04418 46.2189 7.37305C46.8816 6.70134 47.215 5.83229 47.214 4.80019C47.215 3.76809 46.8816 2.89904 46.2189 2.22733C45.5617 1.5562 44.7392 1.21533 43.7878 1.21705C42.8358 1.21533 42.0144 1.5562 41.356 2.22733C40.6949 2.89904 40.361 3.76809 40.3627 4.80019C40.361 5.83229 40.6949 6.70134 41.356 7.37305L41.458 7.27246L41.5593 7.17125C40.9529 6.55165 40.6498 5.7723 40.6486 4.80019C40.6498 3.82809 40.9529 3.04874 41.5593 2.42913C42.1712 1.80967 42.9021 1.50583 43.7878 1.5041C44.6727 1.50583 45.4053 1.80967 46.0157 2.42913C46.6232 3.04874 46.9264 3.82809 46.9275 4.80019C46.9264 5.7723 46.6232 6.55165 46.0157 7.17125C45.4053 7.79071 44.6727 8.09456 43.7878 8.09628C42.9021 8.09456 42.1712 7.79071 41.5593 7.17125L41.458 7.27246ZM46.9328 7.9934L46.8303 7.89333C46.0107 8.73655 45.0084 9.15307 43.7878 9.15479C42.5666 9.15307 41.5643 8.73655 40.7462 7.89333C39.9283 7.04724 39.5247 6.02691 39.5235 4.80019C39.5247 3.57347 39.9283 2.55314 40.7462 1.70705C41.5643 0.863831 42.5666 0.446742 43.7878 0.44502C45.0005 0.446742 46.0005 0.865553 46.8247 1.71322C47.6455 2.56319 48.0515 3.58194 48.0532 4.80019C48.0515 6.02691 47.6466 7.04724 46.8303 7.89333L46.9328 7.9934L47.0353 8.09284C47.9018 7.19924 48.3401 6.09078 48.3391 4.80019C48.3401 3.51692 47.9001 2.41076 47.0296 1.51314C46.1586 0.612083 45.0675 0.156388 43.7878 0.157967C42.5013 0.156388 41.4069 0.60993 40.5414 1.50755C39.6732 2.40172 39.2365 3.5096 39.2376 4.80019C39.2365 6.09078 39.6732 7.19924 40.5414 8.09341C41.4069 8.99103 42.5013 9.44299 43.7878 9.44184C45.0737 9.44299 46.168 8.99045 47.0353 8.09284L46.9328 7.9934Z" fill="white"/>
<path d="M49.7428 9.10656V0.494958H51.0841L55.2523 7.19421H55.2997L55.2523 5.53461V0.494958H56.3551V9.10656H55.2048L50.8439 2.08265H50.7965L50.8439 3.74282V9.10656H49.7428Z" fill="white"/>
<path d="M49.7452 9.10691H49.8881V0.638834H51.007L55.1752 7.33809H55.4488L55.3975 5.53281V0.638834H56.2144V8.96339H55.2865L50.9256 1.93948H50.652L50.7033 3.74547V8.96339H49.7452V9.10691V9.25044H50.9892V3.74088L50.9417 2.07913L50.7988 2.083V2.22653H50.8462V2.083L50.725 2.15936L55.1278 9.25044H56.5003V0.351781H55.1116V5.53668L55.1591 7.19844L55.302 7.19456V7.05103H55.2546V7.19456L55.3758 7.11835L51.1656 0.351781H49.6022V9.25044H49.7452V9.10691Z" fill="white"/>
<path d="M94.5715 33.5055H97.2389V15.5629H94.5715V33.5055ZM118.596 22.0262L115.538 29.8052H115.447L112.274 22.0262H109.4L114.159 32.8988L111.446 38.9466H114.229L121.562 22.0262H118.596ZM103.47 31.4675C102.595 31.4675 101.377 31.0291 101.377 29.9437C101.377 28.5588 102.895 28.0279 104.204 28.0279C105.378 28.0279 105.928 28.2818 106.642 28.6284C106.434 30.2902 105.009 31.4675 103.47 31.4675ZM103.791 21.6337C101.86 21.6337 99.8604 22.4881 99.0328 24.3809L101.4 25.3732C101.906 24.3809 102.848 24.0574 103.837 24.0574C105.216 24.0574 106.619 24.8888 106.642 26.3662V26.5506C106.158 26.2736 105.125 25.8582 103.86 25.8582C101.308 25.8582 98.7097 27.2659 98.7097 29.8976C98.7097 32.2984 100.802 33.8452 103.147 33.8452C104.941 33.8452 105.928 33.0373 106.55 32.091H106.642V33.4758H109.216V26.5965C109.216 23.4115 106.849 21.6337 103.791 21.6337ZM87.3072 24.2104H83.5135V18.0601H87.3072C89.3013 18.0601 90.4334 19.7179 90.4334 21.1352C90.4334 22.5257 89.3013 24.2104 87.3072 24.2104ZM87.2386 15.5629H80.8477V33.5055H83.5135V26.7076H87.2386C90.1947 26.7076 93.1007 24.5586 93.1007 21.1352C93.1007 17.7119 90.1947 15.5629 87.2386 15.5629ZM52.3878 31.4708C50.5452 31.4708 49.0024 29.9218 49.0024 27.7941C49.0024 25.6441 50.5452 24.0715 52.3878 24.0715C54.2071 24.0715 55.6348 25.6441 55.6348 27.7941C55.6348 29.9218 54.2071 31.4708 52.3878 31.4708ZM55.4505 23.0309H55.3583C54.7598 22.3143 53.6079 21.6668 52.1573 21.6668C49.1175 21.6668 46.3312 24.3489 46.3312 27.7941C46.3312 31.2164 49.1175 33.8755 52.1573 33.8755C53.6079 33.8755 54.7598 33.2279 55.3583 32.4884H55.4505V33.367C55.4505 35.7027 54.2071 36.9513 52.2036 36.9513C50.5686 36.9513 49.5553 35.7716 49.1403 34.7776L46.8148 35.7487C47.4826 37.3672 49.256 39.3559 52.2036 39.3559C55.3355 39.3559 57.9838 37.5057 57.9838 32.997V22.0368H55.4505V23.0309ZM59.8258 33.5055H62.4972V15.5623H59.8258V33.5055ZM66.4352 27.5861C66.366 25.2274 68.2544 24.0254 69.613 24.0254C70.673 24.0254 71.5707 24.5569 71.8694 25.3206L66.4352 27.5861ZM74.7254 25.5515C74.2194 24.1869 72.6756 21.6668 69.5208 21.6668C66.3889 21.6668 63.7869 24.1409 63.7869 27.7711C63.7869 31.1934 66.366 33.8755 69.8201 33.8755C72.607 33.8755 74.2194 32.1644 74.887 31.1703L72.8143 29.7827C72.1239 30.8003 71.179 31.4708 69.8201 31.4708C68.4616 31.4708 67.4946 30.8464 66.8725 29.6212L75.0013 26.245L74.7254 25.5515ZM9.96085 23.5398V26.1295H16.1324C15.9481 27.5861 15.4646 28.6497 14.7275 29.3897C13.8297 30.2918 12.4249 31.2858 9.96085 31.2858C6.16102 31.2858 3.19053 28.2106 3.19053 24.3954C3.19053 20.5802 6.16102 17.5045 9.96085 17.5045C12.0105 17.5045 13.507 18.314 14.6125 19.3546L16.4317 17.5281C14.8889 16.0479 12.8391 14.9149 9.96085 14.9149C4.75618 14.9149 0.380859 19.1696 0.380859 24.3954C0.380859 29.6212 4.75618 33.8755 9.96085 33.8755C12.7705 33.8755 14.8889 32.951 16.5468 31.2164C18.2509 29.5052 18.7808 27.1006 18.7808 25.1585C18.7808 24.5569 18.7349 24.0024 18.6423 23.5398H9.96085ZM25.7973 31.4708C23.9546 31.4708 22.3655 29.9447 22.3655 27.7711C22.3655 25.5745 23.9546 24.0715 25.7973 24.0715C27.6392 24.0715 29.2283 25.5745 29.2283 27.7711C29.2283 29.9447 27.6392 31.4708 25.7973 31.4708ZM25.7973 21.6668C22.4347 21.6668 19.6942 24.2334 19.6942 27.7711C19.6942 31.2858 22.4347 33.8755 25.7973 33.8755C29.1591 33.8755 31.8996 31.2858 31.8996 27.7711C31.8996 24.2334 29.1591 21.6668 25.7973 21.6668ZM39.1098 31.4708C37.2678 31.4708 35.6786 29.9447 35.6786 27.7711C35.6786 25.5745 37.2678 24.0715 39.1098 24.0715C40.9519 24.0715 42.541 25.5745 42.541 27.7711C42.541 29.9447 40.9519 31.4708 39.1098 31.4708ZM39.1098 21.6668C35.7474 21.6668 33.0074 24.2334 33.0074 27.7711C33.0074 31.2858 35.7474 33.8755 39.1098 33.8755C42.4718 33.8755 45.2123 31.2858 45.2123 27.7711C45.2123 24.2334 42.4718 21.6668 39.1098 21.6668Z" fill="white"/>
</svg>
