<svg width="123" height="41" viewBox="0 0 123 41" fill="none" xmlns="http://www.w3.org/2000/svg">
<path d="M9.99501 5.81951C9.99501 7.02198 9.64037 7.97959 8.93009 8.69392C8.12332 9.54331 7.07184 9.96829 5.77921 9.96829C4.54133 9.96829 3.48885 9.53771 2.62333 8.67541C1.75625 7.81367 1.32357 6.74512 1.32357 5.47017C1.32357 4.19465 1.75625 3.12667 2.62333 2.26436C3.48885 1.40263 4.54133 0.971475 5.77921 0.971475C6.39343 0.971475 6.9815 1.09204 7.53983 1.33259C8.09816 1.57371 8.546 1.89378 8.88106 2.29465L8.12718 3.05204C7.55942 2.37086 6.77766 2.03056 5.77921 2.03056C4.87639 2.03056 4.09578 2.34904 3.43696 2.98645C2.778 3.62456 2.44866 4.45199 2.44866 5.47017C2.44866 6.48835 2.778 7.31578 3.43696 7.9539C4.09578 8.5913 4.87639 8.90979 5.77921 8.90979C6.73692 8.90979 7.5354 8.58958 8.17464 7.9483C8.5896 7.53049 8.8296 6.94979 8.89378 6.20402H5.77921V5.16963H9.93526C9.97542 5.39453 9.99501 5.6104 9.99501 5.81951Z" fill="white"/>
<path d="M9.99501 5.81951L9.85179 5.81921C9.85065 6.99426 9.50887 7.90695 8.82875 8.59215L8.82718 8.59329C8.046 9.41341 7.0414 9.82274 5.77893 9.82447C4.57407 9.82274 3.56561 9.41011 2.72354 8.57363C1.88332 7.73544 1.4678 6.71223 1.46623 5.46987C1.4678 4.22692 1.88332 3.2043 2.72354 2.36667C3.56561 1.52963 4.57407 1.11641 5.77893 1.11469C6.37471 1.11469 6.94205 1.23138 7.48309 1.46404C8.0247 1.69841 8.45253 2.00556 8.77129 2.38691L8.88106 2.29465L8.77972 2.19286L8.02584 2.95083L8.12718 3.05204L8.23697 2.95987C7.64276 2.24496 6.80869 1.88457 5.77893 1.88672C4.84266 1.88557 4.01902 2.22142 3.33776 2.88308C2.64992 3.54689 2.30429 4.42083 2.30544 5.46987C2.30429 6.5189 2.64992 7.39284 3.33776 8.05665C4.01902 8.71831 4.84266 9.05416 5.77893 9.05301C6.76838 9.05473 7.6116 8.71773 8.27542 8.04947C8.71883 7.6031 8.97012 6.98479 9.03601 6.21606L9.04931 6.06019H5.92187V5.31285H9.93498L9.93526 5.16963L9.79418 5.19458C9.83335 5.41217 9.85179 5.61899 9.85179 5.81921L9.99501 5.81951L10.1377 5.81921C10.1377 5.60105 10.1175 5.37686 10.0756 5.14363L10.0545 5.0258H5.63599V6.34725H8.8935L8.89378 6.20402L8.75113 6.19138C8.6881 6.9136 8.4591 7.45742 8.0733 7.84652C7.45908 8.46096 6.70534 8.76424 5.77893 8.76596C4.90956 8.76481 4.17198 8.46426 3.53603 7.8504C2.90622 7.23869 2.59289 6.45776 2.59132 5.46987C2.59289 4.48197 2.90622 3.70104 3.53603 3.08933C4.17198 2.47547 4.90956 2.17492 5.77893 2.17378C6.74551 2.17607 7.47537 2.49671 8.01755 3.1443L8.11804 3.26429L9.07446 2.3028L8.99013 2.20234C8.63892 1.78195 8.17107 1.44825 7.59587 1.20052C7.01967 0.952075 6.41159 0.827639 5.77893 0.827639C4.50817 0.826491 3.41152 1.27501 2.52199 2.16258C1.62918 3.04843 1.1792 4.16191 1.18034 5.46987C1.1792 6.77725 1.62917 7.89131 2.52256 8.77773C3.41152 9.66472 4.50817 10.1127 5.77893 10.1115C7.10229 10.1127 8.20009 9.67133 9.03315 8.7928L8.93009 8.69392L9.03087 8.79509C9.77131 8.0522 10.1387 7.04866 10.1377 5.81921L9.99501 5.81951Z" fill="white"/>
<path d="M16.583 2.22257H12.6773V4.95302H16.1995V5.98785H12.6773V8.7183H16.583V9.77624H11.5762V1.16464H16.583V2.22257Z" fill="white"/>
<path d="M16.5853 2.22292V2.07939H12.5366V5.0969H16.0589V5.84424L12.5366 5.84468V8.86218H16.4424V9.63306H11.7214V1.30851H16.4424V2.22292H16.5853H16.7283V1.02146H11.4355V9.92012H16.7283V8.57513H12.8225V6.13173H16.3448V4.80985H12.8225V2.36645H16.7283V2.22292H16.5853Z" fill="white"/>
<path d="M21.2333 9.77624H20.1305V2.22257H17.735V1.16464H23.6287V2.22257H21.2333V9.77624Z" fill="white"/>
<path d="M21.2333 9.77624L21.233 9.63306H20.2731V2.07939H17.8777V1.30851H23.4855V2.07939H21.09V9.77659L21.2333 9.77624L21.3759 9.77659V2.36645H23.7714V1.02146H17.5918V2.36645H19.9872V9.92012H21.3759V9.77659L21.2333 9.77624Z" fill="white"/>
<path d="M27.8913 9.77624V1.16464H28.9929V9.77624H27.8913Z" fill="white"/>
<path d="M27.8913 9.77624L28.0339 9.77659V1.30851H28.8497V9.63306H27.891L27.8913 9.77624L27.891 9.92012H29.1356V1.02146H27.7481V9.92012H27.891L27.8913 9.77624Z" fill="white"/>
<path d="M33.8789 9.77624H32.7761V2.22257H30.3809V1.16464H36.2744V2.22257H33.8789V9.77624Z" fill="white"/>
<path d="M33.8813 9.77659V9.63306H32.9214V2.07939H30.5261V1.30851H36.1338V2.07939H33.7383V9.77659H33.8813H34.0242V2.36645H36.4196V1.02146H30.2402V2.36645H32.6355V9.92012H34.0242V9.77659H33.8813Z" fill="white"/>
<path d="M41.958 7.94214C42.5928 8.58744 43.3695 8.9098 44.2881 8.9098C45.2066 8.9098 45.9838 8.58744 46.6176 7.94214C47.253 7.29685 47.5713 6.472 47.5713 5.47018C47.5713 4.46837 47.253 3.64352 46.6176 2.99823C45.9838 2.35293 45.2066 2.03057 44.2881 2.03057C43.3695 2.03057 42.5928 2.35293 41.958 2.99823C41.3242 3.64352 41.006 4.46837 41.006 5.47018C41.006 6.472 41.3242 7.29685 41.958 7.94214ZM47.4328 8.66308C46.5896 9.53371 45.541 9.96831 44.2881 9.96831C43.0339 9.96831 41.9858 9.53371 41.1445 8.66308C40.3007 7.79345 39.8809 6.72891 39.8809 5.47018C39.8809 4.21146 40.3007 3.14678 41.1445 2.27729C41.9858 1.40652 43.0339 0.971489 44.2881 0.971489C45.5344 0.971489 46.5801 1.40881 47.4272 2.28289C48.2732 3.15697 48.6964 4.21935 48.6964 5.47018C48.6964 6.72891 48.2742 7.79345 47.4328 8.66308Z" fill="white"/>
<path d="M41.958 7.94214L41.856 8.04273C42.5144 8.71386 43.3358 9.05473 44.2878 9.05301C45.2392 9.05473 46.0617 8.71386 46.7189 8.04273C47.3816 7.37102 47.715 6.50197 47.714 5.46987C47.715 4.43777 47.3816 3.56872 46.7189 2.89701C46.0617 2.22588 45.2392 1.885 44.2878 1.88673C43.3358 1.885 42.5144 2.22588 41.856 2.89701C41.1949 3.56872 40.861 4.43777 40.8627 5.46987C40.861 6.50197 41.1949 7.37102 41.856 8.04273L41.958 7.94214L42.0593 7.84093C41.4529 7.22132 41.1498 6.44198 41.1486 5.46987C41.1498 4.49776 41.4529 3.71842 42.0593 3.09881C42.6712 2.47935 43.4021 2.1755 44.2878 2.17378C45.1727 2.1755 45.9053 2.47935 46.5157 3.09881C47.1232 3.71842 47.4264 4.49776 47.4275 5.46987C47.4264 6.44198 47.1232 7.22132 46.5157 7.84093C45.9053 8.46039 45.1727 8.76424 44.2878 8.76596C43.4021 8.76424 42.6712 8.46039 42.0593 7.84093L41.958 7.94214ZM47.4328 8.66308L47.3303 8.56301C46.5107 9.40623 45.5084 9.82275 44.2878 9.82447C43.0666 9.82275 42.0643 9.40623 41.2462 8.56301C40.4283 7.71692 40.0247 6.69659 40.0235 5.46987C40.0247 4.24315 40.4283 3.22282 41.2462 2.37673C42.0643 1.53351 43.0666 1.11642 44.2878 1.1147C45.5005 1.11642 46.5005 1.53523 47.3247 2.3829C48.1455 3.23286 48.5515 4.25162 48.5532 5.46987C48.5515 6.69659 48.1466 7.71692 47.3303 8.56301L47.4328 8.66308L47.5353 8.76252C48.4018 7.86892 48.8401 6.76046 48.8391 5.46987C48.8401 4.1866 48.4001 3.08044 47.5296 2.18282C46.6586 1.28176 45.5675 0.826066 44.2878 0.827644C43.0013 0.826066 41.9069 1.27961 41.0414 2.17722C40.1732 3.07139 39.7365 4.17928 39.7376 5.46987C39.7365 6.76046 40.1732 7.86892 41.0414 8.76309C41.9069 9.6607 43.0013 10.1127 44.2878 10.1115C45.5737 10.1127 46.668 9.66013 47.5353 8.76252L47.4328 8.66308Z" fill="white"/>
<path d="M50.2428 9.77624V1.16464H51.5841L55.7523 7.86389H55.7997L55.7523 6.20429V1.16464H56.8551V9.77624H55.7048L51.3439 2.75233H51.2965L51.3439 4.4125V9.77624H50.2428Z" fill="white"/>
<path d="M50.2452 9.77659H50.3881V1.30851H51.507L55.6752 8.00777H55.9488L55.8975 6.20249V1.30851H56.7144V9.63306H55.7865L51.4256 2.60915H51.152L51.2033 4.41515V9.63306H50.2452V9.77659V9.92012H51.4892V4.41056L51.4417 2.7488L51.2988 2.75268V2.89621H51.3462V2.75268L51.225 2.82903L55.6278 9.92012H57.0003V1.02146H55.6116V6.20636L55.6591 7.86812L55.802 7.86424V7.72071H55.7546V7.86424L55.8758 7.78802L51.6656 1.02146H50.1022V9.92012H50.2452V9.77659Z" fill="white"/>
<path d="M95.0715 34.1752H97.7389V16.2326H95.0715V34.1752ZM119.096 22.6959L116.038 30.4749H115.947L112.774 22.6959H109.9L114.659 33.5685L111.946 39.6162H114.729L122.062 22.6959H119.096ZM103.97 32.1372C103.095 32.1372 101.877 31.6987 101.877 30.6134C101.877 29.2285 103.395 28.6976 104.704 28.6976C105.878 28.6976 106.428 28.9515 107.142 29.2981C106.934 30.9599 105.509 32.1372 103.97 32.1372ZM104.291 22.3033C102.36 22.3033 100.36 23.1578 99.5328 25.0506L101.9 26.0429C102.406 25.0506 103.348 24.7271 104.337 24.7271C105.716 24.7271 107.119 25.5585 107.142 27.0358V27.2203C106.658 26.9433 105.625 26.5279 104.36 26.5279C101.808 26.5279 99.2097 27.9356 99.2097 30.5673C99.2097 32.9681 101.302 34.5149 103.647 34.5149C105.441 34.5149 106.428 33.707 107.05 32.7607H107.142V34.1454H109.716V27.2662C109.716 24.0812 107.349 22.3033 104.291 22.3033ZM87.8072 24.8801H84.0135V18.7298H87.8072C89.8013 18.7298 90.9334 20.3875 90.9334 21.8049C90.9334 23.1954 89.8013 24.8801 87.8072 24.8801ZM87.7386 16.2326H81.3477V34.1752H84.0135V27.3773H87.7386C90.6947 27.3773 93.6007 25.2283 93.6007 21.8049C93.6007 18.3816 90.6947 16.2326 87.7386 16.2326ZM52.8878 32.1405C51.0452 32.1405 49.5024 30.5914 49.5024 28.4638C49.5024 26.3138 51.0452 24.7411 52.8878 24.7411C54.7071 24.7411 56.1348 26.3138 56.1348 28.4638C56.1348 30.5914 54.7071 32.1405 52.8878 32.1405ZM55.9505 23.7006H55.8583C55.2598 22.9839 54.1079 22.3365 52.6573 22.3365C49.6175 22.3365 46.8312 25.0186 46.8312 28.4638C46.8312 31.886 49.6175 34.5452 52.6573 34.5452C54.1079 34.5452 55.2598 33.8976 55.8583 33.1581H55.9505V34.0366C55.9505 36.3724 54.7071 37.6209 52.7036 37.6209C51.0686 37.6209 50.0553 36.4413 49.6403 35.4472L47.3148 36.4183C47.9826 38.0369 49.756 40.0256 52.7036 40.0256C55.8355 40.0256 58.4837 38.1754 58.4837 33.6666V22.7065H55.9505V23.7006ZM60.3258 34.1752H62.9972V16.232H60.3258V34.1752ZM66.9352 28.2558C66.866 25.8971 68.7544 24.6951 70.113 24.6951C71.173 24.6951 72.0707 25.2265 72.3694 25.9903L66.9352 28.2558ZM75.2254 26.2212C74.7194 24.8565 73.1756 22.3365 70.0208 22.3365C66.8889 22.3365 64.2869 24.8106 64.2869 28.4408C64.2869 31.8631 66.866 34.5452 70.3201 34.5452C73.107 34.5452 74.7194 32.834 75.387 31.84L73.3143 30.4524C72.6239 31.47 71.679 32.1405 70.3201 32.1405C68.9616 32.1405 67.9946 31.516 67.3725 30.2909L75.5013 26.9147L75.2254 26.2212ZM10.4609 24.2095V26.7992H16.6324C16.4481 28.2558 15.9646 29.3194 15.2275 30.0594C14.3297 30.9614 12.9249 31.9555 10.4609 31.9555C6.66102 31.9555 3.69053 28.8803 3.69053 25.0651C3.69053 21.2499 6.66102 18.1742 10.4609 18.1742C12.5105 18.1742 14.007 18.9837 15.1125 20.0243L16.9317 18.1978C15.3889 16.7176 13.3391 15.5846 10.4609 15.5846C5.25618 15.5846 0.880859 19.8393 0.880859 25.0651C0.880859 30.2909 5.25618 34.5452 10.4609 34.5452C13.2705 34.5452 15.3889 33.6207 17.0468 31.886C18.7509 30.1749 19.2808 27.7703 19.2808 25.8282C19.2808 25.2265 19.2349 24.6721 19.1423 24.2095H10.4609ZM26.2973 32.1405C24.4546 32.1405 22.8655 30.6144 22.8655 28.4408C22.8655 26.2442 24.4546 24.7411 26.2973 24.7411C28.1392 24.7411 29.7283 26.2442 29.7283 28.4408C29.7283 30.6144 28.1392 32.1405 26.2973 32.1405ZM26.2973 22.3365C22.9347 22.3365 20.1942 24.903 20.1942 28.4408C20.1942 31.9555 22.9347 34.5452 26.2973 34.5452C29.6591 34.5452 32.3996 31.9555 32.3996 28.4408C32.3996 24.903 29.6591 22.3365 26.2973 22.3365ZM39.6098 32.1405C37.7678 32.1405 36.1786 30.6144 36.1786 28.4408C36.1786 26.2442 37.7678 24.7411 39.6098 24.7411C41.4519 24.7411 43.041 26.2442 43.041 28.4408C43.041 30.6144 41.4519 32.1405 39.6098 32.1405ZM39.6098 22.3365C36.2474 22.3365 33.5074 24.903 33.5074 28.4408C33.5074 31.9555 36.2474 34.5452 39.6098 34.5452C42.9718 34.5452 45.7123 31.9555 45.7123 28.4408C45.7123 24.903 42.9718 22.3365 39.6098 22.3365Z" fill="white"/>
</svg>
