<svg width="122" height="40" viewBox="0 0 122 40" fill="none" xmlns="http://www.w3.org/2000/svg">
<path d="M9.49501 5.80194C9.49501 7.0044 9.14037 7.96201 8.43009 8.67634C7.62332 9.52573 6.57184 9.95072 5.27921 9.95072C4.04133 9.95072 2.98885 9.52014 2.12333 8.65783C1.25625 7.7961 0.823568 6.72754 0.823568 5.45259C0.823568 4.17707 1.25625 3.10909 2.12333 2.24678C2.98885 1.38505 4.04133 0.953897 5.27921 0.953897C5.89343 0.953897 6.4815 1.07446 7.03983 1.31501C7.59816 1.55613 8.046 1.8762 8.38106 2.27707L7.62718 3.03446C7.05942 2.35328 6.27766 2.01298 5.27921 2.01298C4.37639 2.01298 3.59578 2.33147 2.93696 2.96887C2.278 3.60699 1.94866 4.43442 1.94866 5.45259C1.94866 6.47077 2.278 7.2982 2.93696 7.93632C3.59578 8.57372 4.37639 8.89221 5.27921 8.89221C6.23692 8.89221 7.0354 8.572 7.67464 7.93072C8.0896 7.51292 8.3296 6.93221 8.39378 6.18645H5.27921V5.15205H9.43526C9.47542 5.37696 9.49501 5.59282 9.49501 5.80194Z" fill="white"/>
<path d="M9.49501 5.80194L9.35179 5.80163C9.35065 6.97668 9.00887 7.88937 8.32875 8.57457L8.32718 8.57572C7.546 9.39583 6.5414 9.80517 5.27893 9.80689C4.07407 9.80517 3.06561 9.39253 2.22354 8.55605C1.38332 7.71786 0.967798 6.69466 0.966225 5.45229C0.967798 4.20935 1.38332 3.18672 2.22354 2.3491C3.06561 1.51205 4.07407 1.09884 5.27893 1.09711C5.87471 1.09711 6.44205 1.2138 6.98309 1.44646C7.5247 1.68084 7.95253 1.98798 8.27129 2.36933L8.38106 2.27707L8.27972 2.17529L7.52584 2.93325L7.62718 3.03446L7.73697 2.94229C7.14276 2.22739 6.30869 1.86699 5.27893 1.86914C4.34266 1.868 3.51902 2.20385 2.83776 2.8655C2.14992 3.52932 1.80429 4.40325 1.80544 5.45229C1.80429 6.50133 2.14992 7.37526 2.83776 8.03907C3.51902 8.70073 4.34266 9.03658 5.27893 9.03543C6.26838 9.03716 7.1116 8.70015 7.77542 8.03189C8.21883 7.58552 8.47012 6.96721 8.53601 6.19848L8.54931 6.04261H5.42187V5.29527H9.43498L9.43526 5.15205L9.29418 5.177C9.33335 5.39459 9.35179 5.60141 9.35179 5.80163L9.49501 5.80194L9.63768 5.80163C9.63768 5.58347 9.61752 5.35928 9.57564 5.12605L9.55448 5.00822H5.13599V6.32967H8.3935L8.39378 6.18645L8.25113 6.1738C8.1881 6.89603 7.9591 7.43985 7.5733 7.82895C6.95908 8.44338 6.20534 8.74666 5.27893 8.74838C4.40956 8.74723 3.67198 8.44669 3.03603 7.83282C2.40622 7.22111 2.09289 6.44018 2.09132 5.45229C2.09289 4.46439 2.40622 3.68347 3.03603 3.07175C3.67198 2.45789 4.40956 2.15735 5.27893 2.1562C6.24551 2.15849 6.97537 2.47913 7.51755 3.12672L7.61804 3.24671L8.57446 2.28523L8.49013 2.18476C8.13892 1.76437 7.67107 1.43067 7.09587 1.18294C6.51967 0.934497 5.91159 0.810061 5.27893 0.810061C4.00817 0.808913 2.91152 1.25743 2.02199 2.145C1.12918 3.03085 0.679197 4.14433 0.680341 5.45229C0.679197 6.75967 1.12917 7.87373 2.02256 8.76015C2.91152 9.64714 4.00817 10.0951 5.27893 10.0939C6.60229 10.0951 7.70009 9.65375 8.53315 8.77522L8.43009 8.67634L8.53087 8.77752C9.27131 8.03462 9.63868 7.03108 9.63768 5.80163L9.49501 5.80194Z" fill="white"/>
<path d="M16.083 2.20499H12.1773V4.93544H15.6995V5.97027H12.1773V8.70072H16.083V9.75866H11.0762V1.14706H16.083V2.20499Z" fill="white"/>
<path d="M16.0853 2.20534V2.06182H12.0366V5.07932H15.5589V5.82666L12.0366 5.8271V8.8446H15.9424V9.61548H11.2214V1.29093H15.9424V2.20534H16.0853H16.2283V1.00388H10.9355V9.90254H16.2283V8.55755H12.3225V6.11415H15.8448V4.79227H12.3225V2.34887H16.2283V2.20534H16.0853Z" fill="white"/>
<path d="M20.7333 9.75866H19.6305V2.20499H17.235V1.14706H23.1287V2.20499H20.7333V9.75866Z" fill="white"/>
<path d="M20.7333 9.75866L20.733 9.61548H19.7731V2.06182H17.3777V1.29093H22.9855V2.06182H20.59V9.75901L20.7333 9.75866L20.8759 9.75901V2.34887H23.2714V1.00388H17.0918V2.34887H19.4872V9.90254H20.8759V9.75901L20.7333 9.75866Z" fill="white"/>
<path d="M27.3913 9.75866V1.14706H28.4929V9.75866H27.3913Z" fill="white"/>
<path d="M27.3913 9.75866L27.5339 9.75901V1.29093H28.3497V9.61548H27.391L27.3913 9.75866L27.391 9.90254H28.6356V1.00388H27.2481V9.90254H27.391L27.3913 9.75866Z" fill="white"/>
<path d="M33.3789 9.75866H32.2761V2.20499H29.8809V1.14706H35.7744V2.20499H33.3789V9.75866Z" fill="white"/>
<path d="M33.3813 9.75901V9.61548H32.4214V2.06182H30.0261V1.29093H35.6338V2.06182H33.2383V9.75901H33.3813H33.5242V2.34887H35.9196V1.00388H29.7402V2.34887H32.1355V9.90254H33.5242V9.75901H33.3813Z" fill="white"/>
<path d="M41.458 7.92456C42.0928 8.56986 42.8695 8.89222 43.7881 8.89222C44.7066 8.89222 45.4838 8.56986 46.1176 7.92456C46.753 7.27927 47.0713 6.45442 47.0713 5.45261C47.0713 4.45079 46.753 3.62595 46.1176 2.98065C45.4838 2.33535 44.7066 2.01299 43.7881 2.01299C42.8695 2.01299 42.0928 2.33535 41.458 2.98065C40.8242 3.62595 40.506 4.45079 40.506 5.45261C40.506 6.45442 40.8242 7.27927 41.458 7.92456ZM46.9328 8.6455C46.0896 9.51613 45.041 9.95073 43.7881 9.95073C42.5339 9.95073 41.4858 9.51613 40.6445 8.6455C39.8007 7.77587 39.3809 6.71133 39.3809 5.45261C39.3809 4.19388 39.8007 3.1292 40.6445 2.25971C41.4858 1.38894 42.5339 0.953911 43.7881 0.953911C45.0344 0.953911 46.0801 1.39124 46.9272 2.26531C47.7732 3.13939 48.1964 4.20177 48.1964 5.45261C48.1964 6.71133 47.7742 7.77587 46.9328 8.6455Z" fill="white"/>
<path d="M41.458 7.92456L41.356 8.02515C42.0144 8.69628 42.8358 9.03716 43.7878 9.03543C44.7392 9.03716 45.5617 8.69628 46.2189 8.02515C46.8816 7.35344 47.215 6.48439 47.214 5.45229C47.215 4.42019 46.8816 3.55114 46.2189 2.87943C45.5617 2.2083 44.7392 1.86743 43.7878 1.86915C42.8358 1.86743 42.0144 2.2083 41.356 2.87943C40.6949 3.55114 40.361 4.42019 40.3627 5.45229C40.361 6.48439 40.6949 7.35344 41.356 8.02515L41.458 7.92456L41.5593 7.82335C40.9529 7.20375 40.6498 6.4244 40.6486 5.45229C40.6498 4.48019 40.9529 3.70084 41.5593 3.08123C42.1712 2.46177 42.9021 2.15792 43.7878 2.1562C44.6727 2.15792 45.4053 2.46177 46.0157 3.08123C46.6232 3.70084 46.9264 4.48019 46.9275 5.45229C46.9264 6.4244 46.6232 7.20375 46.0157 7.82335C45.4053 8.44281 44.6727 8.74666 43.7878 8.74838C42.9021 8.74666 42.1712 8.44281 41.5593 7.82335L41.458 7.92456ZM46.9328 8.6455L46.8303 8.54543C46.0107 9.38865 45.0084 9.80517 43.7878 9.80689C42.5666 9.80517 41.5643 9.38865 40.7462 8.54543C39.9283 7.69934 39.5247 6.67901 39.5235 5.45229C39.5247 4.22557 39.9283 3.20524 40.7462 2.35915C41.5643 1.51593 42.5666 1.09884 43.7878 1.09712C45.0005 1.09884 46.0005 1.51765 46.8247 2.36532C47.6455 3.21529 48.0515 4.23404 48.0532 5.45229C48.0515 6.67901 47.6466 7.69934 46.8303 8.54543L46.9328 8.6455L47.0353 8.74494C47.9018 7.85134 48.3401 6.74288 48.3391 5.45229C48.3401 4.16902 47.9001 3.06286 47.0296 2.16524C46.1586 1.26418 45.0675 0.808487 43.7878 0.810066C42.5013 0.808487 41.4069 1.26203 40.5414 2.15965C39.6732 3.05382 39.2365 4.1617 39.2376 5.45229C39.2365 6.74288 39.6732 7.85134 40.5414 8.74551C41.4069 9.64313 42.5013 10.0951 43.7878 10.0939C45.0737 10.0951 46.168 9.64255 47.0353 8.74494L46.9328 8.6455Z" fill="white"/>
<path d="M49.7428 9.75866V1.14706H51.0841L55.2523 7.84631H55.2997L55.2523 6.18671V1.14706H56.3551V9.75866H55.2048L50.8439 2.73475H50.7965L50.8439 4.39492V9.75866H49.7428Z" fill="white"/>
<path d="M49.7452 9.75901H49.8881V1.29093H51.007L55.1752 7.99019H55.4488L55.3975 6.18491V1.29093H56.2144V9.61548H55.2865L50.9256 2.59157H50.652L50.7033 4.39757V9.61548H49.7452V9.75901V9.90254H50.9892V4.39298L50.9417 2.73123L50.7988 2.7351V2.87863H50.8462V2.7351L50.725 2.81146L55.1278 9.90254H56.5003V1.00388H55.1116V6.18878L55.1591 7.85054L55.302 7.84666V7.70313H55.2546V7.84666L55.3758 7.77045L51.1656 1.00388H49.6022V9.90254H49.7452V9.75901Z" fill="white"/>
<path d="M94.5715 34.1576H97.2389V16.215H94.5715V34.1576ZM118.596 22.6783L115.538 30.4573H115.447L112.274 22.6783H109.4L114.159 33.5509L111.446 39.5987H114.229L121.562 22.6783H118.596ZM103.47 32.1196C102.595 32.1196 101.377 31.6812 101.377 30.5958C101.377 29.2109 102.895 28.68 104.204 28.68C105.378 28.68 105.928 28.9339 106.642 29.2805C106.434 30.9423 105.009 32.1196 103.47 32.1196ZM103.791 22.2858C101.86 22.2858 99.8604 23.1402 99.0328 25.033L101.4 26.0253C101.906 25.033 102.848 24.7095 103.837 24.7095C105.216 24.7095 106.619 25.5409 106.642 27.0183V27.2027C106.158 26.9257 105.125 26.5103 103.86 26.5103C101.308 26.5103 98.7097 27.918 98.7097 30.5497C98.7097 32.9505 100.802 34.4973 103.147 34.4973C104.941 34.4973 105.928 33.6894 106.55 32.7431H106.642V34.1279H109.216V27.2486C109.216 24.0636 106.849 22.2858 103.791 22.2858ZM87.3072 24.8625H83.5135V18.7122H87.3072C89.3013 18.7122 90.4334 20.37 90.4334 21.7873C90.4334 23.1778 89.3013 24.8625 87.3072 24.8625ZM87.2386 16.215H80.8477V34.1576H83.5135V27.3597H87.2386C90.1947 27.3597 93.1007 25.2107 93.1007 21.7873C93.1007 18.364 90.1947 16.215 87.2386 16.215ZM52.3878 32.1229C50.5452 32.1229 49.0024 30.5739 49.0024 28.4462C49.0024 26.2962 50.5452 24.7236 52.3878 24.7236C54.2071 24.7236 55.6348 26.2962 55.6348 28.4462C55.6348 30.5739 54.2071 32.1229 52.3878 32.1229ZM55.4505 23.683H55.3583C54.7598 22.9664 53.6079 22.3189 52.1573 22.3189C49.1175 22.3189 46.3312 25.001 46.3312 28.4462C46.3312 31.8685 49.1175 34.5276 52.1573 34.5276C53.6079 34.5276 54.7598 33.88 55.3583 33.1405H55.4505V34.0191C55.4505 36.3548 54.2071 37.6034 52.2036 37.6034C50.5686 37.6034 49.5553 36.4237 49.1403 35.4296L46.8148 36.4007C47.4826 38.0193 49.256 40.008 52.2036 40.008C55.3355 40.008 57.9838 38.1578 57.9838 33.6491V22.6889H55.4505V23.683ZM59.8258 34.1576H62.4972V16.2144H59.8258V34.1576ZM66.4352 28.2382C66.366 25.8795 68.2544 24.6775 69.613 24.6775C70.673 24.6775 71.5707 25.209 71.8694 25.9727L66.4352 28.2382ZM74.7254 26.2036C74.2194 24.839 72.6756 22.3189 69.5208 22.3189C66.3889 22.3189 63.7869 24.793 63.7869 28.4232C63.7869 31.8455 66.366 34.5276 69.8201 34.5276C72.607 34.5276 74.2194 32.8165 74.887 31.8224L72.8143 30.4348C72.1239 31.4524 71.179 32.1229 69.8201 32.1229C68.4616 32.1229 67.4946 31.4985 66.8725 30.2733L75.0013 26.8971L74.7254 26.2036ZM9.96085 24.1919V26.7816H16.1324C15.9481 28.2382 15.4646 29.3018 14.7275 30.0418C13.8297 30.9439 12.4249 31.9379 9.96085 31.9379C6.16102 31.9379 3.19053 28.8627 3.19053 25.0475C3.19053 21.2323 6.16102 18.1566 9.96085 18.1566C12.0105 18.1566 13.507 18.9661 14.6125 20.0067L16.4317 18.1802C14.8889 16.7 12.8391 15.567 9.96085 15.567C4.75618 15.567 0.380859 19.8217 0.380859 25.0475C0.380859 30.2733 4.75618 34.5276 9.96085 34.5276C12.7705 34.5276 14.8889 33.6031 16.5468 31.8685C18.2509 30.1573 18.7808 27.7527 18.7808 25.8106C18.7808 25.209 18.7349 24.6545 18.6423 24.1919H9.96085ZM25.7973 32.1229C23.9546 32.1229 22.3655 30.5968 22.3655 28.4232C22.3655 26.2266 23.9546 24.7236 25.7973 24.7236C27.6392 24.7236 29.2283 26.2266 29.2283 28.4232C29.2283 30.5968 27.6392 32.1229 25.7973 32.1229ZM25.7973 22.3189C22.4347 22.3189 19.6942 24.8855 19.6942 28.4232C19.6942 31.9379 22.4347 34.5276 25.7973 34.5276C29.1591 34.5276 31.8996 31.9379 31.8996 28.4232C31.8996 24.8855 29.1591 22.3189 25.7973 22.3189ZM39.1098 32.1229C37.2678 32.1229 35.6786 30.5968 35.6786 28.4232C35.6786 26.2266 37.2678 24.7236 39.1098 24.7236C40.9519 24.7236 42.541 26.2266 42.541 28.4232C42.541 30.5968 40.9519 32.1229 39.1098 32.1229ZM39.1098 22.3189C35.7474 22.3189 33.0074 24.8855 33.0074 28.4232C33.0074 31.9379 35.7474 34.5276 39.1098 34.5276C42.4718 34.5276 45.2123 31.9379 45.2123 28.4232C45.2123 24.8855 42.4718 22.3189 39.1098 22.3189Z" fill="white"/>
</svg>
