<svg width="122" height="40" viewBox="0 0 122 40" fill="none" xmlns="http://www.w3.org/2000/svg">
<path d="M9.32704 5.11877C9.32704 6.32123 8.9724 7.27885 8.26212 7.99318C7.45536 8.84257 6.40387 9.26755 5.11124 9.26755C3.87336 9.26755 2.82088 8.83697 1.95537 7.97466C1.08828 7.11293 0.655599 6.04437 0.655599 4.76943C0.655599 3.49391 1.08828 2.42593 1.95537 1.56362C2.82088 0.701884 3.87336 0.270731 5.11124 0.270731C5.72547 0.270731 6.31353 0.391292 6.87186 0.631842C7.4302 0.872967 7.87803 1.19303 8.21309 1.5939L7.45921 2.35129C6.89145 1.67012 6.10969 1.32981 5.11124 1.32981C4.20842 1.32981 3.42782 1.6483 2.76899 2.2857C2.11003 2.92382 1.78069 3.75125 1.78069 4.76943C1.78069 5.7876 2.11003 6.61503 2.76899 7.25315C3.42782 7.89055 4.20842 8.20904 5.11124 8.20904C6.06896 8.20904 6.86743 7.88883 7.50667 7.24755C7.92163 6.82975 8.16163 6.24904 8.22581 5.50328H5.11124V4.46888H9.26729C9.30745 4.69379 9.32704 4.90965 9.32704 5.11877Z" fill="white"/>
<path d="M9.32704 5.11877L9.18382 5.11846C9.18268 6.29352 8.8409 7.20621 8.16078 7.8914L8.15921 7.89255C7.37803 8.71266 6.37343 9.122 5.11096 9.12372C3.9061 9.122 2.89764 8.70936 2.05557 7.87289C1.21536 7.03469 0.799829 6.01149 0.798256 4.76912C0.799829 3.52618 1.21536 2.50355 2.05557 1.66593C2.89764 0.828882 3.9061 0.41567 5.11096 0.413948C5.70675 0.413948 6.27408 0.530634 6.81512 0.76329C7.35673 0.99767 7.78456 1.30482 8.10332 1.68617L8.21309 1.5939L8.11175 1.49212L7.35787 2.25009L7.45921 2.35129L7.569 2.25913C6.97479 1.54422 6.14072 1.18382 5.11096 1.18598C4.17469 1.18483 3.35106 1.52068 2.66979 2.18234C1.98196 2.84615 1.63632 3.72009 1.63747 4.76912C1.63632 5.81816 1.98196 6.69209 2.66979 7.35591C3.35106 8.01756 4.17469 8.35341 5.11096 8.35227C6.10041 8.35399 6.94363 8.01699 7.60745 7.34873C8.05086 6.90236 8.30215 6.28405 8.36805 5.51532L8.38134 5.35945H5.2539V4.6121H9.26701L9.26729 4.46888L9.12621 4.49384C9.16538 4.71142 9.18382 4.91825 9.18382 5.11846L9.32704 5.11877L9.46971 5.11846C9.46971 4.9003 9.44955 4.67612 9.40767 4.44288L9.38651 4.32505H4.96802V5.6465H8.22553L8.22581 5.50328L8.08316 5.49063C8.02013 6.21286 7.79113 6.75668 7.40533 7.14578C6.79111 7.76022 6.03737 8.06349 5.11096 8.06521C4.24159 8.06406 3.50401 7.76352 2.86806 7.14966C2.23825 6.53794 1.92492 5.75702 1.92335 4.76912C1.92492 3.78123 2.23825 3.0003 2.86806 2.38859C3.50401 1.77472 4.24159 1.47418 5.11096 1.47303C6.07754 1.47533 6.8074 1.79597 7.34958 2.44356L7.45007 2.56355L8.4065 1.60206L8.32216 1.50159C7.97095 1.0812 7.5031 0.747503 6.9279 0.499776C6.3517 0.251331 5.74362 0.126894 5.11096 0.126894C3.8402 0.125746 2.74356 0.574266 1.85403 1.46184C0.961209 2.34768 0.511228 3.46116 0.512372 4.76912C0.511228 6.07651 0.961204 7.19056 1.85459 8.07698C2.74355 8.96398 3.8402 9.41192 5.11096 9.41078C6.43432 9.41192 7.53212 8.97058 8.36518 8.09205L8.26212 7.99318L8.3629 8.09435C9.10334 7.35145 9.47071 6.34791 9.46971 5.11846L9.32704 5.11877Z" fill="white"/>
<path d="M15.915 1.52183H12.0093V4.25228H15.5315V5.28711H12.0093V8.01756H15.915V9.07549H10.9082V0.463891H15.915V1.52183Z" fill="white"/>
<path d="M15.9174 1.52218V1.37865H11.8687V4.39615H15.3909V5.1435L11.8687 5.14393V8.16144H15.7744V8.93232H11.0535V0.607767H15.7744V1.52218H15.9174H16.0603V0.320714H10.7676V9.21937H16.0603V7.87438H12.1546V5.43099H15.6768V4.1091H12.1546V1.6657H16.0603V1.52218H15.9174Z" fill="white"/>
<path d="M20.5653 9.07549H19.4625V1.52183H17.0671V0.463891H22.9607V1.52183H20.5653V9.07549Z" fill="white"/>
<path d="M20.5653 9.07549L20.565 8.93232H19.6051V1.37865H17.2097V0.607767H22.8175V1.37865H20.4221V9.07585L20.5653 9.07549L20.708 9.07585V1.6657H23.1034V0.320714H16.9238V1.6657H19.3193V9.21937H20.708V9.07585L20.5653 9.07549Z" fill="white"/>
<path d="M27.2233 9.07549V0.463891H28.325V9.07549H27.2233Z" fill="white"/>
<path d="M27.2233 9.07549L27.366 9.07585V0.607767H28.1817V8.93232H27.223L27.2233 9.07549L27.223 9.21937H28.4676V0.320714H27.0801V9.21937H27.223L27.2233 9.07549Z" fill="white"/>
<path d="M33.211 9.07549H32.1082V1.52183H29.7129V0.463891H35.6064V1.52183H33.211V9.07549Z" fill="white"/>
<path d="M33.2133 9.07585V8.93232H32.2534V1.37865H29.8582V0.607767H35.4658V1.37865H33.0704V9.07585H33.2133H33.3562V1.6657H35.7517V0.320714H29.5723V1.6657H31.9676V9.21937H33.3562V9.07585H33.2133Z" fill="white"/>
<path d="M41.29 7.2414C41.9248 7.88669 42.7016 8.20905 43.6201 8.20905C44.5386 8.20905 45.3158 7.88669 45.9496 7.2414C46.585 6.5961 46.9033 5.77126 46.9033 4.76944C46.9033 3.76762 46.585 2.94278 45.9496 2.29748C45.3158 1.65219 44.5386 1.32983 43.6201 1.32983C42.7016 1.32983 41.9248 1.65219 41.29 2.29748C40.6562 2.94278 40.338 3.76762 40.338 4.76944C40.338 5.77126 40.6562 6.5961 41.29 7.2414ZM46.7648 7.96233C45.9216 8.83296 44.873 9.26756 43.6201 9.26756C42.3659 9.26756 41.3179 8.83296 40.4765 7.96233C39.6327 7.09271 39.2129 6.02817 39.2129 4.76944C39.2129 3.51071 39.6327 2.44603 40.4765 1.57655C41.3179 0.705772 42.3659 0.270744 43.6201 0.270744C44.8664 0.270744 45.9122 0.708069 46.7593 1.58215C47.6052 2.45622 48.0284 3.51861 48.0284 4.76944C48.0284 6.02817 47.6062 7.09271 46.7648 7.96233Z" fill="white"/>
<path d="M41.29 7.2414L41.1881 7.34198C41.8465 8.01311 42.6678 8.35399 43.6198 8.35227C44.5712 8.35399 45.3937 8.01311 46.051 7.34198C46.7136 6.67028 47.047 5.80122 47.046 4.76912C47.047 3.73702 46.7136 2.86797 46.051 2.19627C45.3937 1.52514 44.5712 1.18426 43.6198 1.18598C42.6678 1.18426 41.8465 1.52514 41.1881 2.19627C40.527 2.86797 40.193 3.73702 40.1948 4.76912C40.193 5.80122 40.527 6.67028 41.1881 7.34198L41.29 7.2414L41.3913 7.14018C40.785 6.52058 40.4818 5.74123 40.4806 4.76912C40.4818 3.79702 40.785 3.01767 41.3913 2.39807C42.0033 1.77861 42.7341 1.47476 43.6198 1.47304C44.5048 1.47476 45.2373 1.77861 45.8477 2.39807C46.4552 3.01767 46.7584 3.79702 46.7595 4.76912C46.7584 5.74123 46.4552 6.52058 45.8477 7.14018C45.2373 7.75964 44.5048 8.06349 43.6198 8.06521C42.7341 8.06349 42.0033 7.75964 41.3913 7.14018L41.29 7.2414ZM46.7648 7.96233L46.6623 7.86227C45.8427 8.70549 44.8404 9.122 43.6198 9.12372C42.3986 9.122 41.3963 8.70549 40.5783 7.86227C39.7604 7.01618 39.3567 5.99585 39.3556 4.76912C39.3567 3.5424 39.7604 2.52207 40.5783 1.67598C41.3963 0.832764 42.3986 0.415675 43.6198 0.413953C44.8325 0.415675 45.8326 0.834486 46.6568 1.68215C47.4775 2.53212 47.8835 3.55087 47.8852 4.76912C47.8835 5.99585 47.4787 7.01618 46.6623 7.86227L46.7648 7.96233L46.8673 8.06177C47.7338 7.16817 48.1721 6.05972 48.1711 4.76912C48.1721 3.48585 47.7321 2.37969 46.8616 1.48208C45.9906 0.581016 44.8996 0.125321 43.6198 0.1269C42.3333 0.125321 41.239 0.578863 40.3734 1.47648C39.5052 2.37065 39.0685 3.47853 39.0697 4.76912C39.0685 6.05972 39.5052 7.16817 40.3734 8.06234C41.239 8.95996 42.3333 9.41192 43.6198 9.41078C44.9057 9.41192 46.0001 8.95939 46.8673 8.06177L46.7648 7.96233Z" fill="white"/>
<path d="M49.5749 9.07549V0.463891H50.9161L55.0843 7.16314H55.1318L55.0843 5.50354V0.463891H56.1871V9.07549H55.0369L50.676 2.05158H50.6285L50.676 3.71176V9.07549H49.5749Z" fill="white"/>
<path d="M49.5772 9.07585H49.7201V0.607767H50.8391L55.0073 7.30702H55.2809L55.2295 5.50174V0.607767H56.0465V8.93232H55.1185L50.7576 1.90841H50.484L50.5353 3.7144V8.93232H49.5772V9.07585V9.21937H50.8212V3.70981L50.7738 2.04806L50.6308 2.05194V2.19546H50.6783V2.05194L50.5571 2.12829L54.9598 9.21937H56.3324V0.320714H54.9437V5.50562L54.9911 7.16737L55.1341 7.16349V7.01997H55.0866V7.16349L55.2078 7.08728L50.9976 0.320714H49.4343V9.21937H49.5772V9.07585Z" fill="white"/>
<path d="M94.4036 33.4744H97.0709V15.5318H94.4036V33.4744ZM118.428 21.9951L115.37 29.7741H115.279L112.106 21.9951H109.232L113.991 32.8677L111.278 38.9155H114.061L121.394 21.9951H118.428ZM103.302 31.4365C102.427 31.4365 101.209 30.998 101.209 29.9126C101.209 28.5278 102.727 27.9969 104.036 27.9969C105.21 27.9969 105.76 28.2508 106.474 28.5974C106.266 30.2591 104.841 31.4365 103.302 31.4365ZM103.623 21.6026C101.692 21.6026 99.6924 22.457 98.8648 24.3498L101.232 25.3422C101.738 24.3498 102.68 24.0263 103.669 24.0263C105.049 24.0263 106.451 24.8578 106.474 26.3351V26.5195C105.99 26.2425 104.957 25.8272 103.692 25.8272C101.14 25.8272 98.5418 27.2349 98.5418 29.8666C98.5418 32.2673 100.634 33.8141 102.979 33.8141C104.773 33.8141 105.76 33.0062 106.382 32.0599H106.474V33.4447H109.048V26.5655C109.048 23.3805 106.681 21.6026 103.623 21.6026ZM87.1393 24.1793H83.3456V18.0291H87.1393C89.1333 18.0291 90.2654 19.6868 90.2654 21.1041C90.2654 22.4946 89.1333 24.1793 87.1393 24.1793ZM87.0707 15.5318H80.6797V33.4744H83.3456V26.6766H87.0707C90.0267 26.6766 92.9327 24.5275 92.9327 21.1041C92.9327 17.6809 90.0267 15.5318 87.0707 15.5318ZM52.2199 31.4398C50.3772 31.4398 48.8344 29.8907 48.8344 27.763C48.8344 25.613 50.3772 24.0404 52.2199 24.0404C54.0391 24.0404 55.4668 25.613 55.4668 27.763C55.4668 29.8907 54.0391 31.4398 52.2199 31.4398ZM55.2826 22.9998H55.1904C54.5919 22.2832 53.4399 21.6357 51.9893 21.6357C48.9495 21.6357 46.1633 24.3178 46.1633 27.763C46.1633 31.1853 48.9495 33.8444 51.9893 33.8444C53.4399 33.8444 54.5919 33.1968 55.1904 32.4574H55.2826V33.3359C55.2826 35.6717 54.0391 36.9202 52.0356 36.9202C50.4006 36.9202 49.3873 35.7405 48.9724 34.7465L46.6468 35.7176C47.3147 37.3361 49.088 39.3248 52.0356 39.3248C55.1675 39.3248 57.8158 37.4746 57.8158 32.9659V22.0058H55.2826V22.9998ZM59.6579 33.4744H62.3292V15.5313H59.6579V33.4744ZM66.2672 27.5551C66.1981 25.1964 68.0865 23.9943 69.445 23.9943C70.5051 23.9943 71.4027 24.5258 71.7015 25.2895L66.2672 27.5551ZM74.5575 25.5204C74.0515 24.1558 72.5077 21.6357 69.3528 21.6357C66.2209 21.6357 63.6189 24.1099 63.6189 27.7401C63.6189 31.1623 66.1981 33.8444 69.6521 33.8444C72.4391 33.8444 74.0515 32.1333 74.719 31.1392L72.6463 29.7516C71.9559 30.7692 71.0111 31.4398 69.6521 31.4398C68.2936 31.4398 67.3266 30.8153 66.7045 29.5901L74.8333 26.214L74.5575 25.5204ZM9.79288 23.5088V26.0984H15.9644C15.7802 27.5551 15.2966 28.6186 14.5596 29.3586C13.6618 30.2607 12.2569 31.2548 9.79288 31.2548C5.99305 31.2548 3.02256 28.1796 3.02256 24.3643C3.02256 20.5491 5.99305 17.4735 9.79288 17.4735C11.8425 17.4735 13.339 18.283 14.4445 19.3235L16.2637 17.497C14.721 16.0168 12.6712 14.8838 9.79288 14.8838C4.58821 14.8838 0.212891 19.1385 0.212891 24.3643C0.212891 29.5901 4.58821 33.8444 9.79288 33.8444C12.6026 33.8444 14.721 32.92 16.3788 31.1853C18.083 29.4742 18.6129 27.0695 18.6129 25.1275C18.6129 24.5258 18.567 23.9714 18.4743 23.5088H9.79288ZM25.6293 31.4398C23.7866 31.4398 22.1976 29.9137 22.1976 27.7401C22.1976 25.5434 23.7866 24.0404 25.6293 24.0404C27.4713 24.0404 29.0604 25.5434 29.0604 27.7401C29.0604 29.9137 27.4713 31.4398 25.6293 31.4398ZM25.6293 21.6357C22.2667 21.6357 19.5263 24.2023 19.5263 27.7401C19.5263 31.2548 22.2667 33.8444 25.6293 33.8444C28.9912 33.8444 31.7317 31.2548 31.7317 27.7401C31.7317 24.2023 28.9912 21.6357 25.6293 21.6357ZM38.9418 31.4398C37.0999 31.4398 35.5106 29.9137 35.5106 27.7401C35.5106 25.5434 37.0999 24.0404 38.9418 24.0404C40.7839 24.0404 42.373 25.5434 42.373 27.7401C42.373 29.9137 40.7839 31.4398 38.9418 31.4398ZM38.9418 21.6357C35.5794 21.6357 32.8395 24.2023 32.8395 27.7401C32.8395 31.2548 35.5794 33.8444 38.9418 33.8444C42.3038 33.8444 45.0443 31.2548 45.0443 27.7401C45.0443 24.2023 42.3038 21.6357 38.9418 21.6357Z" fill="white"/>
</svg>
