<svg width="122" height="40" viewBox="0 0 122 40" fill="none" xmlns="http://www.w3.org/2000/svg">
<path d="M9.49501 5.64984C9.49501 6.8523 9.14037 7.80991 8.43009 8.52424C7.62332 9.37363 6.57184 9.79862 5.27921 9.79862C4.04133 9.79862 2.98885 9.36804 2.12333 8.50573C1.25625 7.644 0.823568 6.57544 0.823568 5.30049C0.823568 4.02497 1.25625 2.95699 2.12333 2.09468C2.98885 1.23295 4.04133 0.801798 5.27921 0.801798C5.89343 0.801798 6.4815 0.922359 7.03983 1.16291C7.59816 1.40403 8.046 1.7241 8.38106 2.12497L7.62718 2.88236C7.05942 2.20118 6.27766 1.86088 5.27921 1.86088C4.37639 1.86088 3.59578 2.17937 2.93696 2.81677C2.278 3.45489 1.94866 4.28232 1.94866 5.30049C1.94866 6.31867 2.278 7.1461 2.93696 7.78422C3.59578 8.42162 4.37639 8.74011 5.27921 8.74011C6.23692 8.74011 7.0354 8.4199 7.67464 7.77862C8.0896 7.36082 8.3296 6.78011 8.39378 6.03435H5.27921V4.99995H9.43526C9.47542 5.22486 9.49501 5.44072 9.49501 5.64984Z" fill="white"/>
<path d="M9.49501 5.64984L9.35179 5.64953C9.35065 6.82458 9.00887 7.73727 8.32875 8.42247L8.32718 8.42362C7.546 9.24373 6.5414 9.65307 5.27893 9.65479C4.07407 9.65307 3.06561 9.24043 2.22354 8.40395C1.38332 7.56576 0.967798 6.54256 0.966225 5.30019C0.967798 4.05725 1.38332 3.03462 2.22354 2.197C3.06561 1.35995 4.07407 0.946737 5.27893 0.945015C5.87471 0.945015 6.44205 1.0617 6.98309 1.29436C7.5247 1.52874 7.95253 1.83588 8.27129 2.21723L8.38106 2.12497L8.27972 2.02319L7.52584 2.78115L7.62718 2.88236L7.73697 2.79019C7.14276 2.07529 6.30869 1.71489 5.27893 1.71704C4.34266 1.7159 3.51902 2.05175 2.83776 2.71341C2.14992 3.37722 1.80429 4.25115 1.80544 5.30019C1.80429 6.34923 2.14992 7.22316 2.83776 7.88697C3.51902 8.54863 4.34266 8.88448 5.27893 8.88333C6.26838 8.88506 7.1116 8.54805 7.77542 7.87979C8.21883 7.43343 8.47012 6.81511 8.53601 6.04639L8.54931 5.89052H5.42187V5.14317H9.43498L9.43526 4.99995L9.29418 5.0249C9.33335 5.24249 9.35179 5.44931 9.35179 5.64953L9.49501 5.64984L9.63768 5.64953C9.63768 5.43137 9.61752 5.20718 9.57564 4.97395L9.55448 4.85612H5.13599V6.17757H8.3935L8.39378 6.03435L8.25113 6.0217C8.1881 6.74393 7.9591 7.28775 7.5733 7.67685C6.95908 8.29128 6.20534 8.59456 5.27893 8.59628C4.40956 8.59513 3.67198 8.29459 3.03603 7.68072C2.40622 7.06901 2.09289 6.28808 2.09132 5.30019C2.09289 4.31229 2.40622 3.53137 3.03603 2.91965C3.67198 2.30579 4.40956 2.00525 5.27893 2.0041C6.24551 2.00639 6.97537 2.32703 7.51755 2.97462L7.61804 3.09461L8.57446 2.13313L8.49013 2.03266C8.13892 1.61227 7.67107 1.27857 7.09587 1.03084C6.51967 0.782398 5.91159 0.657961 5.27893 0.657961C4.00817 0.656813 2.91152 1.10533 2.02199 1.9929C1.12918 2.87875 0.679197 3.99223 0.680341 5.30019C0.679197 6.60757 1.12917 7.72163 2.02256 8.60805C2.91152 9.49504 4.00817 9.94299 5.27893 9.94184C6.60229 9.94299 7.70009 9.50165 8.53315 8.62312L8.43009 8.52424L8.53087 8.62542C9.27131 7.88252 9.63868 6.87898 9.63768 5.64953L9.49501 5.64984Z" fill="white"/>
<path d="M16.083 2.05289H12.1773V4.78334H15.6995V5.81817H12.1773V8.54862H16.083V9.60656H11.0762V0.994958H16.083V2.05289Z" fill="white"/>
<path d="M16.0853 2.05324V1.90972H12.0366V4.92722H15.5589V5.67456L12.0366 5.675V8.6925H15.9424V9.46339H11.2214V1.13883H15.9424V2.05324H16.0853H16.2283V0.851781H10.9355V9.75044H16.2283V8.40545H12.3225V5.96205H15.8448V4.64017H12.3225V2.19677H16.2283V2.05324H16.0853Z" fill="white"/>
<path d="M20.7333 9.60656H19.6305V2.05289H17.235V0.994958H23.1287V2.05289H20.7333V9.60656Z" fill="white"/>
<path d="M20.7333 9.60656L20.733 9.46339H19.7731V1.90972H17.3777V1.13883H22.9855V1.90972H20.59V9.60691L20.7333 9.60656L20.8759 9.60691V2.19677H23.2714V0.851781H17.0918V2.19677H19.4872V9.75044H20.8759V9.60691L20.7333 9.60656Z" fill="white"/>
<path d="M27.3913 9.60656V0.994958H28.4929V9.60656H27.3913Z" fill="white"/>
<path d="M27.3913 9.60656L27.5339 9.60691V1.13883H28.3497V9.46339H27.391L27.3913 9.60656L27.391 9.75044H28.6356V0.851781H27.2481V9.75044H27.391L27.3913 9.60656Z" fill="white"/>
<path d="M33.3789 9.60656H32.2761V2.05289H29.8809V0.994958H35.7744V2.05289H33.3789V9.60656Z" fill="white"/>
<path d="M33.3813 9.60691V9.46339H32.4214V1.90972H30.0261V1.13883H35.6338V1.90972H33.2383V9.60691H33.3813H33.5242V2.19677H35.9196V0.851781H29.7402V2.19677H32.1355V9.75044H33.5242V9.60691H33.3813Z" fill="white"/>
<path d="M41.458 7.77246C42.0928 8.41776 42.8695 8.74012 43.7881 8.74012C44.7066 8.74012 45.4838 8.41776 46.1176 7.77246C46.753 7.12717 47.0713 6.30232 47.0713 5.30051C47.0713 4.29869 46.753 3.47385 46.1176 2.82855C45.4838 2.18325 44.7066 1.86089 43.7881 1.86089C42.8695 1.86089 42.0928 2.18325 41.458 2.82855C40.8242 3.47385 40.506 4.29869 40.506 5.30051C40.506 6.30232 40.8242 7.12717 41.458 7.77246ZM46.9328 8.4934C46.0896 9.36403 45.041 9.79863 43.7881 9.79863C42.5339 9.79863 41.4858 9.36403 40.6445 8.4934C39.8007 7.62377 39.3809 6.55924 39.3809 5.30051C39.3809 4.04178 39.8007 2.9771 40.6445 2.10761C41.4858 1.23684 42.5339 0.801811 43.7881 0.801811C45.0344 0.801811 46.0801 1.23914 46.9272 2.11321C47.7732 2.98729 48.1964 4.04967 48.1964 5.30051C48.1964 6.55924 47.7742 7.62377 46.9328 8.4934Z" fill="white"/>
<path d="M41.458 7.77246L41.356 7.87305C42.0144 8.54418 42.8358 8.88506 43.7878 8.88333C44.7392 8.88506 45.5617 8.54418 46.2189 7.87305C46.8816 7.20134 47.215 6.33229 47.214 5.30019C47.215 4.26809 46.8816 3.39904 46.2189 2.72733C45.5617 2.0562 44.7392 1.71533 43.7878 1.71705C42.8358 1.71533 42.0144 2.0562 41.356 2.72733C40.6949 3.39904 40.361 4.26809 40.3627 5.30019C40.361 6.33229 40.6949 7.20134 41.356 7.87305L41.458 7.77246L41.5593 7.67125C40.9529 7.05165 40.6498 6.2723 40.6486 5.30019C40.6498 4.32809 40.9529 3.54874 41.5593 2.92913C42.1712 2.30967 42.9021 2.00583 43.7878 2.0041C44.6727 2.00583 45.4053 2.30967 46.0157 2.92913C46.6232 3.54874 46.9264 4.32809 46.9275 5.30019C46.9264 6.2723 46.6232 7.05165 46.0157 7.67125C45.4053 8.29071 44.6727 8.59456 43.7878 8.59628C42.9021 8.59456 42.1712 8.29071 41.5593 7.67125L41.458 7.77246ZM46.9328 8.4934L46.8303 8.39333C46.0107 9.23655 45.0084 9.65307 43.7878 9.65479C42.5666 9.65307 41.5643 9.23655 40.7462 8.39333C39.9283 7.54724 39.5247 6.52691 39.5235 5.30019C39.5247 4.07347 39.9283 3.05314 40.7462 2.20705C41.5643 1.36383 42.5666 0.946742 43.7878 0.94502C45.0005 0.946742 46.0005 1.36555 46.8247 2.21322C47.6455 3.06319 48.0515 4.08194 48.0532 5.30019C48.0515 6.52691 47.6466 7.54724 46.8303 8.39333L46.9328 8.4934L47.0353 8.59284C47.9018 7.69924 48.3401 6.59078 48.3391 5.30019C48.3401 4.01692 47.9001 2.91076 47.0296 2.01314C46.1586 1.11208 45.0675 0.656388 43.7878 0.657967C42.5013 0.656388 41.4069 1.10993 40.5414 2.00755C39.6732 2.90172 39.2365 4.0096 39.2376 5.30019C39.2365 6.59078 39.6732 7.69924 40.5414 8.59341C41.4069 9.49103 42.5013 9.94299 43.7878 9.94184C45.0737 9.94299 46.168 9.49045 47.0353 8.59284L46.9328 8.4934Z" fill="white"/>
<path d="M49.7428 9.60656V0.994958H51.0841L55.2523 7.69421H55.2997L55.2523 6.03461V0.994958H56.3551V9.60656H55.2048L50.8439 2.58265H50.7965L50.8439 4.24282V9.60656H49.7428Z" fill="white"/>
<path d="M49.7452 9.60691H49.8881V1.13883H51.007L55.1752 7.83809H55.4488L55.3975 6.03281V1.13883H56.2144V9.46339H55.2865L50.9256 2.43948H50.652L50.7033 4.24547V9.46339H49.7452V9.60691V9.75044H50.9892V4.24088L50.9417 2.57913L50.7988 2.583V2.72653H50.8462V2.583L50.725 2.65936L55.1278 9.75044H56.5003V0.851781H55.1116V6.03668L55.1591 7.69844L55.302 7.69456V7.55103H55.2546V7.69456L55.3758 7.61835L51.1656 0.851781H49.6022V9.75044H49.7452V9.60691Z" fill="white"/>
<path d="M94.5715 34.0055H97.2389V16.0629H94.5715V34.0055ZM118.596 22.5262L115.538 30.3052H115.447L112.274 22.5262H109.4L114.159 33.3988L111.446 39.4466H114.229L121.562 22.5262H118.596ZM103.47 31.9675C102.595 31.9675 101.377 31.5291 101.377 30.4437C101.377 29.0588 102.895 28.5279 104.204 28.5279C105.378 28.5279 105.928 28.7818 106.642 29.1284C106.434 30.7902 105.009 31.9675 103.47 31.9675ZM103.791 22.1337C101.86 22.1337 99.8604 22.9881 99.0328 24.8809L101.4 25.8732C101.906 24.8809 102.848 24.5574 103.837 24.5574C105.216 24.5574 106.619 25.3888 106.642 26.8662V27.0506C106.158 26.7736 105.125 26.3582 103.86 26.3582C101.308 26.3582 98.7097 27.7659 98.7097 30.3976C98.7097 32.7984 100.802 34.3452 103.147 34.3452C104.941 34.3452 105.928 33.5373 106.55 32.591H106.642V33.9758H109.216V27.0965C109.216 23.9115 106.849 22.1337 103.791 22.1337ZM87.3072 24.7104H83.5135V18.5601H87.3072C89.3013 18.5601 90.4334 20.2179 90.4334 21.6352C90.4334 23.0257 89.3013 24.7104 87.3072 24.7104ZM87.2386 16.0629H80.8477V34.0055H83.5135V27.2076H87.2386C90.1947 27.2076 93.1007 25.0586 93.1007 21.6352C93.1007 18.2119 90.1947 16.0629 87.2386 16.0629ZM52.3878 31.9708C50.5452 31.9708 49.0024 30.4218 49.0024 28.2941C49.0024 26.1441 50.5452 24.5715 52.3878 24.5715C54.2071 24.5715 55.6348 26.1441 55.6348 28.2941C55.6348 30.4218 54.2071 31.9708 52.3878 31.9708ZM55.4505 23.5309H55.3583C54.7598 22.8143 53.6079 22.1668 52.1573 22.1668C49.1175 22.1668 46.3312 24.8489 46.3312 28.2941C46.3312 31.7164 49.1175 34.3755 52.1573 34.3755C53.6079 34.3755 54.7598 33.7279 55.3583 32.9884H55.4505V33.867C55.4505 36.2027 54.2071 37.4513 52.2036 37.4513C50.5686 37.4513 49.5553 36.2716 49.1403 35.2775L46.8148 36.2486C47.4826 37.8672 49.256 39.8559 52.2036 39.8559C55.3355 39.8559 57.9837 38.0057 57.9837 33.497V22.5368H55.4505V23.5309ZM59.8258 34.0055H62.4972V16.0623H59.8258V34.0055ZM66.4352 28.0861C66.366 25.7274 68.2544 24.5254 69.613 24.5254C70.673 24.5254 71.5707 25.0569 71.8694 25.8206L66.4352 28.0861ZM74.7254 26.0515C74.2194 24.6869 72.6756 22.1668 69.5208 22.1668C66.3889 22.1668 63.7869 24.6409 63.7869 28.2711C63.7869 31.6934 66.366 34.3755 69.8201 34.3755C72.607 34.3755 74.2194 32.6644 74.887 31.6703L72.8143 30.2827C72.1239 31.3003 71.179 31.9708 69.8201 31.9708C68.4616 31.9708 67.4946 31.3464 66.8725 30.1212L75.0013 26.745L74.7254 26.0515ZM9.96085 24.0398V26.6295H16.1324C15.9481 28.0861 15.4646 29.1497 14.7275 29.8897C13.8297 30.7918 12.4249 31.7858 9.96085 31.7858C6.16102 31.7858 3.19053 28.7106 3.19053 24.8954C3.19053 21.0802 6.16102 18.0045 9.96085 18.0045C12.0105 18.0045 13.507 18.814 14.6125 19.8546L16.4317 18.0281C14.8889 16.5479 12.8391 15.4149 9.96085 15.4149C4.75618 15.4149 0.380859 19.6696 0.380859 24.8954C0.380859 30.1212 4.75618 34.3755 9.96085 34.3755C12.7705 34.3755 14.8889 33.451 16.5468 31.7164C18.2509 30.0052 18.7808 27.6006 18.7808 25.6585C18.7808 25.0569 18.7349 24.5024 18.6423 24.0398H9.96085ZM25.7973 31.9708C23.9546 31.9708 22.3655 30.4447 22.3655 28.2711C22.3655 26.0745 23.9546 24.5715 25.7973 24.5715C27.6392 24.5715 29.2283 26.0745 29.2283 28.2711C29.2283 30.4447 27.6392 31.9708 25.7973 31.9708ZM25.7973 22.1668C22.4347 22.1668 19.6942 24.7334 19.6942 28.2711C19.6942 31.7858 22.4347 34.3755 25.7973 34.3755C29.1591 34.3755 31.8996 31.7858 31.8996 28.2711C31.8996 24.7334 29.1591 22.1668 25.7973 22.1668ZM39.1098 31.9708C37.2678 31.9708 35.6786 30.4447 35.6786 28.2711C35.6786 26.0745 37.2678 24.5715 39.1098 24.5715C40.9519 24.5715 42.541 26.0745 42.541 28.2711C42.541 30.4447 40.9519 31.9708 39.1098 31.9708ZM39.1098 22.1668C35.7474 22.1668 33.0074 24.7334 33.0074 28.2711C33.0074 31.7858 35.7474 34.3755 39.1098 34.3755C42.4718 34.3755 45.2123 31.7858 45.2123 28.2711C45.2123 24.7334 42.4718 22.1668 39.1098 22.1668Z" fill="white"/>
</svg>
