<svg width="122" height="40" viewBox="0 0 122 40" fill="none" xmlns="http://www.w3.org/2000/svg">
<path d="M9.49501 5.37689C9.49501 6.57935 9.14037 7.53696 8.43009 8.25129C7.62332 9.10069 6.57184 9.52567 5.27921 9.52567C4.04133 9.52567 2.98885 9.09509 2.12333 8.23278C1.25625 7.37105 0.823568 6.30249 0.823568 5.02754C0.823568 3.75202 1.25625 2.68404 2.12333 1.82174C2.98885 0.960002 4.04133 0.528848 5.27921 0.528848C5.89343 0.528848 6.4815 0.64941 7.03983 0.88996C7.59816 1.13108 8.046 1.45115 8.38106 1.85202L7.62718 2.60941C7.05942 1.92823 6.27766 1.58793 5.27921 1.58793C4.37639 1.58793 3.59578 1.90642 2.93696 2.54382C2.278 3.18194 1.94866 4.00937 1.94866 5.02754C1.94866 6.04572 2.278 6.87315 2.93696 7.51127C3.59578 8.14867 4.37639 8.46716 5.27921 8.46716C6.23692 8.46716 7.0354 8.14695 7.67464 7.50567C8.0896 7.08787 8.3296 6.50716 8.39378 5.7614H5.27921V4.727H9.43526C9.47542 4.95191 9.49501 5.16777 9.49501 5.37689Z" fill="white"/>
<path d="M9.49501 5.37689L9.35179 5.37658C9.35065 6.55164 9.00887 7.46432 8.32875 8.14952L8.32718 8.15067C7.546 8.97078 6.5414 9.38012 5.27893 9.38184C4.07407 9.38012 3.06561 8.96748 2.22354 8.13101C1.38332 7.29281 0.967798 6.26961 0.966225 5.02724C0.967798 3.7843 1.38332 2.76167 2.22354 1.92405C3.06561 1.087 4.07407 0.673788 5.27893 0.672065C5.87471 0.672065 6.44205 0.788751 6.98309 1.02141C7.5247 1.25579 7.95253 1.56293 8.27129 1.94428L8.38106 1.85202L8.27972 1.75024L7.52584 2.5082L7.62718 2.60941L7.73697 2.51724C7.14276 1.80234 6.30869 1.44194 5.27893 1.4441C4.34266 1.44295 3.51902 1.7788 2.83776 2.44046C2.14992 3.10427 1.80429 3.9782 1.80544 5.02724C1.80429 6.07628 2.14992 6.95021 2.83776 7.61402C3.51902 8.27568 4.34266 8.61153 5.27893 8.61038C6.26838 8.61211 7.1116 8.2751 7.77542 7.60684C8.21883 7.16048 8.47012 6.54217 8.53601 5.77344L8.54931 5.61757H5.42187V4.87022H9.43498L9.43526 4.727L9.29418 4.75196C9.33335 4.96954 9.35179 5.17636 9.35179 5.37658L9.49501 5.37689L9.63768 5.37658C9.63768 5.15842 9.61752 4.93423 9.57564 4.701L9.55448 4.58317H5.13599V5.90462H8.3935L8.39378 5.7614L8.25113 5.74875C8.1881 6.47098 7.9591 7.0148 7.5733 7.4039C6.95908 8.01834 6.20534 8.32161 5.27893 8.32333C4.40956 8.32218 3.67198 8.02164 3.03603 7.40777C2.40622 6.79606 2.09289 6.01513 2.09132 5.02724C2.09289 4.03935 2.40622 3.25842 3.03603 2.64671C3.67198 2.03284 4.40956 1.7323 5.27893 1.73115C6.24551 1.73345 6.97537 2.05408 7.51755 2.70168L7.61804 2.82166L8.57446 1.86018L8.49013 1.75971C8.13892 1.33932 7.67107 1.00562 7.09587 0.757893C6.51967 0.509448 5.91159 0.385012 5.27893 0.385012C4.00817 0.383864 2.91152 0.832384 2.02199 1.71995C1.12918 2.6058 0.679197 3.71928 0.680341 5.02724C0.679197 6.33462 1.12917 7.44868 2.02256 8.3351C2.91152 9.22209 4.00817 9.67004 5.27893 9.66889C6.60229 9.67004 7.70009 9.2287 8.53315 8.35017L8.43009 8.25129L8.53087 8.35247C9.27131 7.60957 9.63868 6.60603 9.63768 5.37658L9.49501 5.37689Z" fill="white"/>
<path d="M16.083 1.77994H12.1773V4.51039H15.6995V5.54522H12.1773V8.27567H16.083V9.33361H11.0762V0.722009H16.083V1.77994Z" fill="white"/>
<path d="M16.0853 1.78029V1.63677H12.0366V4.65427H15.5589V5.40162L12.0366 5.40205V8.41955H15.9424V9.19044H11.2214V0.865885H15.9424V1.78029H16.0853H16.2283V0.578832H10.9355V9.47749H16.2283V8.1325H12.3225V5.6891H15.8448V4.36722H12.3225V1.92382H16.2283V1.78029H16.0853Z" fill="white"/>
<path d="M20.7333 9.33361H19.6305V1.77994H17.235V0.722009H23.1287V1.77994H20.7333V9.33361Z" fill="white"/>
<path d="M20.7333 9.33361L20.733 9.19044H19.7731V1.63677H17.3777V0.865885H22.9855V1.63677H20.59V9.33396L20.7333 9.33361L20.8759 9.33396V1.92382H23.2714V0.578832H17.0918V1.92382H19.4872V9.47749H20.8759V9.33396L20.7333 9.33361Z" fill="white"/>
<path d="M27.3913 9.33361V0.722009H28.4929V9.33361H27.3913Z" fill="white"/>
<path d="M27.3913 9.33361L27.5339 9.33396V0.865885H28.3497V9.19044H27.391L27.3913 9.33361L27.391 9.47749H28.6356V0.578832H27.2481V9.47749H27.391L27.3913 9.33361Z" fill="white"/>
<path d="M33.3789 9.33361H32.2761V1.77994H29.8809V0.722009H35.7744V1.77994H33.3789V9.33361Z" fill="white"/>
<path d="M33.3813 9.33396V9.19044H32.4214V1.63677H30.0261V0.865885H35.6338V1.63677H33.2383V9.33396H33.3813H33.5242V1.92382H35.9196V0.578832H29.7402V1.92382H32.1355V9.47749H33.5242V9.33396H33.3813Z" fill="white"/>
<path d="M41.458 7.49952C42.0928 8.14481 42.8695 8.46717 43.7881 8.46717C44.7066 8.46717 45.4838 8.14481 46.1176 7.49952C46.753 6.85422 47.0713 6.02937 47.0713 5.02756C47.0713 4.02574 46.753 3.2009 46.1176 2.5556C45.4838 1.91031 44.7066 1.58794 43.7881 1.58794C42.8695 1.58794 42.0928 1.91031 41.458 2.5556C40.8242 3.2009 40.506 4.02574 40.506 5.02756C40.506 6.02937 40.8242 6.85422 41.458 7.49952ZM46.9328 8.22045C46.0896 9.09108 45.041 9.52568 43.7881 9.52568C42.5339 9.52568 41.4858 9.09108 40.6445 8.22045C39.8007 7.35082 39.3809 6.28629 39.3809 5.02756C39.3809 3.76883 39.8007 2.70415 40.6445 1.83467C41.4858 0.96389 42.5339 0.528862 43.7881 0.528862C45.0344 0.528862 46.0801 0.966186 46.9272 1.84026C47.7732 2.71434 48.1964 3.77672 48.1964 5.02756C48.1964 6.28629 47.7742 7.35082 46.9328 8.22045Z" fill="white"/>
<path d="M41.458 7.49952L41.356 7.6001C42.0144 8.27123 42.8358 8.61211 43.7878 8.61038C44.7392 8.61211 45.5617 8.27123 46.2189 7.6001C46.8816 6.9284 47.215 6.05934 47.214 5.02724C47.215 3.99514 46.8816 3.12609 46.2189 2.45438C45.5617 1.78325 44.7392 1.44238 43.7878 1.4441C42.8358 1.44238 42.0144 1.78325 41.356 2.45438C40.6949 3.12609 40.361 3.99514 40.3627 5.02724C40.361 6.05934 40.6949 6.9284 41.356 7.6001L41.458 7.49952L41.5593 7.3983C40.9529 6.7787 40.6498 5.99935 40.6486 5.02724C40.6498 4.05514 40.9529 3.27579 41.5593 2.65618C42.1712 2.03672 42.9021 1.73288 43.7878 1.73115C44.6727 1.73288 45.4053 2.03672 46.0157 2.65618C46.6232 3.27579 46.9264 4.05514 46.9275 5.02724C46.9264 5.99935 46.6232 6.7787 46.0157 7.3983C45.4053 8.01776 44.6727 8.32161 43.7878 8.32333C42.9021 8.32161 42.1712 8.01776 41.5593 7.3983L41.458 7.49952ZM46.9328 8.22045L46.8303 8.12038C46.0107 8.9636 45.0084 9.38012 43.7878 9.38184C42.5666 9.38012 41.5643 8.9636 40.7462 8.12038C39.9283 7.27429 39.5247 6.25396 39.5235 5.02724C39.5247 3.80052 39.9283 2.78019 40.7462 1.9341C41.5643 1.09088 42.5666 0.673793 43.7878 0.672071C45.0005 0.673793 46.0005 1.0926 46.8247 1.94027C47.6455 2.79024 48.0515 3.80899 48.0532 5.02724C48.0515 6.25396 47.6466 7.27429 46.8303 8.12038L46.9328 8.22045L47.0353 8.31989C47.9018 7.42629 48.3401 6.31783 48.3391 5.02724C48.3401 3.74397 47.9001 2.63781 47.0296 1.74019C46.1586 0.839134 45.0675 0.383439 43.7878 0.385017C42.5013 0.383439 41.4069 0.836981 40.5414 1.7346C39.6732 2.62877 39.2365 3.73665 39.2376 5.02724C39.2365 6.31783 39.6732 7.42629 40.5414 8.32046C41.4069 9.21808 42.5013 9.67004 43.7878 9.66889C45.0737 9.67004 46.168 9.2175 47.0353 8.31989L46.9328 8.22045Z" fill="white"/>
<path d="M49.7428 9.33361V0.722009H51.0841L55.2523 7.42126H55.2997L55.2523 5.76166V0.722009H56.3551V9.33361H55.2048L50.8439 2.3097H50.7965L50.8439 3.96987V9.33361H49.7428Z" fill="white"/>
<path d="M49.7452 9.33396H49.8881V0.865885H51.007L55.1752 7.56514H55.4488L55.3975 5.75986V0.865885H56.2144V9.19044H55.2865L50.9256 2.16653H50.652L50.7033 3.97252V9.19044H49.7452V9.33396V9.47749H50.9892V3.96793L50.9417 2.30618L50.7988 2.31005V2.45358H50.8462V2.31005L50.725 2.38641L55.1278 9.47749H56.5003V0.578832H55.1116V5.76374L55.1591 7.42549L55.302 7.42161V7.27809H55.2546V7.42161L55.3758 7.3454L51.1656 0.578832H49.6022V9.47749H49.7452V9.33396Z" fill="white"/>
<path d="M94.5715 33.7325H97.2389V15.79H94.5715V33.7325ZM118.596 22.2533L115.538 30.0323H115.447L112.274 22.2533H109.4L114.159 33.1258L111.446 39.1736H114.229L121.562 22.2533H118.596ZM103.47 31.6946C102.595 31.6946 101.377 31.2561 101.377 30.1708C101.377 28.7859 102.895 28.255 104.204 28.255C105.378 28.255 105.928 28.5089 106.642 28.8555C106.434 30.5172 105.009 31.6946 103.47 31.6946ZM103.791 21.8607C101.86 21.8607 99.8604 22.7151 99.0328 24.608L101.4 25.6003C101.906 24.608 102.848 24.2844 103.837 24.2844C105.216 24.2844 106.619 25.1159 106.642 26.5932V26.7777C106.158 26.5006 105.125 26.0853 103.86 26.0853C101.308 26.0853 98.7097 27.493 98.7097 30.1247C98.7097 32.5255 100.802 34.0723 103.147 34.0723C104.941 34.0723 105.928 33.2643 106.55 32.3181H106.642V33.7028H109.216V26.8236C109.216 23.6386 106.849 21.8607 103.791 21.8607ZM87.3072 24.4374H83.5135V18.2872H87.3072C89.3013 18.2872 90.4334 19.9449 90.4334 21.3622C90.4334 22.7527 89.3013 24.4374 87.3072 24.4374ZM87.2386 15.79H80.8477V33.7325H83.5135V26.9347H87.2386C90.1947 26.9347 93.1007 24.7856 93.1007 21.3622C93.1007 17.939 90.1947 15.79 87.2386 15.79ZM52.3878 31.6979C50.5452 31.6979 49.0024 30.1488 49.0024 28.0212C49.0024 25.8711 50.5452 24.2985 52.3878 24.2985C54.2071 24.2985 55.6348 25.8711 55.6348 28.0212C55.6348 30.1488 54.2071 31.6979 52.3878 31.6979ZM55.4505 23.2579H55.3583C54.7598 22.5413 53.6079 21.8939 52.1573 21.8939C49.1175 21.8939 46.3312 24.576 46.3312 28.0212C46.3312 31.4434 49.1175 34.1025 52.1573 34.1025C53.6079 34.1025 54.7598 33.4549 55.3583 32.7155H55.4505V33.594C55.4505 35.9298 54.2071 37.1783 52.2036 37.1783C50.5686 37.1783 49.5553 35.9987 49.1403 35.0046L46.8148 35.9757C47.4826 37.5942 49.256 39.583 52.2036 39.583C55.3355 39.583 57.9837 37.7328 57.9837 33.224V22.2639H55.4505V23.2579ZM59.8258 33.7325H62.4972V15.7894H59.8258V33.7325ZM66.4352 27.8132C66.366 25.4545 68.2544 24.2524 69.613 24.2524C70.673 24.2524 71.5707 24.7839 71.8694 25.5476L66.4352 27.8132ZM74.7254 25.7786C74.2194 24.4139 72.6756 21.8939 69.5208 21.8939C66.3889 21.8939 63.7869 24.368 63.7869 27.9982C63.7869 31.4205 66.366 34.1025 69.8201 34.1025C72.607 34.1025 74.2194 32.3914 74.887 31.3973L72.8143 30.0097C72.1239 31.0273 71.179 31.6979 69.8201 31.6979C68.4616 31.6979 67.4946 31.0734 66.8725 29.8483L75.0013 26.4721L74.7254 25.7786ZM9.96085 23.7669V26.3565H16.1324C15.9481 27.8132 15.4646 28.8767 14.7275 29.6168C13.8297 30.5188 12.4249 31.5129 9.96085 31.5129C6.16102 31.5129 3.19053 28.4377 3.19053 24.6225C3.19053 20.8072 6.16102 17.7316 9.96085 17.7316C12.0105 17.7316 13.507 18.5411 14.6125 19.5817L16.4317 17.7551C14.8889 16.2749 12.8391 15.1419 9.96085 15.1419C4.75618 15.1419 0.380859 19.3966 0.380859 24.6225C0.380859 29.8483 4.75618 34.1025 9.96085 34.1025C12.7705 34.1025 14.8889 33.1781 16.5468 31.4434C18.2509 29.7323 18.7808 27.3276 18.7808 25.3856C18.7808 24.7839 18.7349 24.2295 18.6423 23.7669H9.96085ZM25.7973 31.6979C23.9546 31.6979 22.3655 30.1718 22.3655 27.9982C22.3655 25.8015 23.9546 24.2985 25.7973 24.2985C27.6392 24.2985 29.2283 25.8015 29.2283 27.9982C29.2283 30.1718 27.6392 31.6979 25.7973 31.6979ZM25.7973 21.8939C22.4347 21.8939 19.6942 24.4604 19.6942 27.9982C19.6942 31.5129 22.4347 34.1025 25.7973 34.1025C29.1591 34.1025 31.8996 31.5129 31.8996 27.9982C31.8996 24.4604 29.1591 21.8939 25.7973 21.8939ZM39.1098 31.6979C37.2678 31.6979 35.6786 30.1718 35.6786 27.9982C35.6786 25.8015 37.2678 24.2985 39.1098 24.2985C40.9519 24.2985 42.541 25.8015 42.541 27.9982C42.541 30.1718 40.9519 31.6979 39.1098 31.6979ZM39.1098 21.8939C35.7474 21.8939 33.0074 24.4604 33.0074 27.9982C33.0074 31.5129 35.7474 34.1025 39.1098 34.1025C42.4718 34.1025 45.2123 31.5129 45.2123 27.9982C45.2123 24.4604 42.4718 21.8939 39.1098 21.8939Z" fill="white"/>
</svg>
