<svg width="122" height="40" viewBox="0 0 122 40" fill="none" xmlns="http://www.w3.org/2000/svg">
<path d="M9.49501 5.20111C9.49501 6.40357 9.14037 7.36118 8.43009 8.07551C7.62332 8.9249 6.57184 9.34989 5.27921 9.34989C4.04133 9.34989 2.98885 8.91931 2.12333 8.057C1.25625 7.19527 0.823568 6.12671 0.823568 4.85176C0.823568 3.57624 1.25625 2.50826 2.12333 1.64595C2.98885 0.78422 4.04133 0.353067 5.27921 0.353067C5.89343 0.353067 6.4815 0.473628 7.03983 0.714179C7.59816 0.955303 8.046 1.27537 8.38106 1.67624L7.62718 2.43363C7.05942 1.75245 6.27766 1.41215 5.27921 1.41215C4.37639 1.41215 3.59578 1.73064 2.93696 2.36804C2.278 3.00616 1.94866 3.83359 1.94866 4.85176C1.94866 5.86994 2.278 6.69737 2.93696 7.33549C3.59578 7.97289 4.37639 8.29138 5.27921 8.29138C6.23692 8.29138 7.0354 7.97117 7.67464 7.32989C8.0896 6.91209 8.3296 6.33138 8.39378 5.58562H5.27921V4.55122H9.43526C9.47542 4.77613 9.49501 4.99199 9.49501 5.20111Z" fill="white"/>
<path d="M9.49501 5.20111L9.35179 5.2008C9.35065 6.37585 9.00887 7.28854 8.32875 7.97374L8.32718 7.97489C7.546 8.795 6.5414 9.20434 5.27893 9.20606C4.07407 9.20434 3.06561 8.7917 2.22354 7.95522C1.38332 7.11703 0.967798 6.09383 0.966225 4.85146C0.967798 3.60852 1.38332 2.58589 2.22354 1.74827C3.06561 0.911219 4.07407 0.498006 5.27893 0.496284C5.87471 0.496284 6.44205 0.61297 6.98309 0.845627C7.5247 1.08001 7.95253 1.38715 8.27129 1.7685L8.38106 1.67624L8.27972 1.57446L7.52584 2.33242L7.62718 2.43363L7.73697 2.34146C7.14276 1.62656 6.30869 1.26616 5.27893 1.26831C4.34266 1.26717 3.51902 1.60302 2.83776 2.26467C2.14992 2.92849 1.80429 3.80242 1.80544 4.85146C1.80429 5.9005 2.14992 6.77443 2.83776 7.43824C3.51902 8.0999 4.34266 8.43575 5.27893 8.4346C6.26838 8.43633 7.1116 8.09932 7.77542 7.43106C8.21883 6.98469 8.47012 6.36638 8.53601 5.59765L8.54931 5.44178H5.42187V4.69444H9.43498L9.43526 4.55122L9.29418 4.57617C9.33335 4.79376 9.35179 5.00058 9.35179 5.2008L9.49501 5.20111L9.63768 5.2008C9.63768 4.98264 9.61752 4.75845 9.57564 4.52522L9.55448 4.40739H5.13599V5.72884H8.3935L8.39378 5.58562L8.25113 5.57297C8.1881 6.29519 7.9591 6.83901 7.5733 7.22812C6.95908 7.84255 6.20534 8.14583 5.27893 8.14755C4.40956 8.1464 3.67198 7.84586 3.03603 7.23199C2.40622 6.62028 2.09289 5.83935 2.09132 4.85146C2.09289 3.86356 2.40622 3.08264 3.03603 2.47092C3.67198 1.85706 4.40956 1.55652 5.27893 1.55537C6.24551 1.55766 6.97537 1.8783 7.51755 2.52589L7.61804 2.64588L8.57446 1.6844L8.49013 1.58393C8.13892 1.16354 7.67107 0.829839 7.09587 0.582112C6.51967 0.333667 5.91159 0.209231 5.27893 0.209231C4.00817 0.208083 2.91152 0.656603 2.02199 1.54417C1.12918 2.43002 0.679197 3.5435 0.680341 4.85146C0.679197 6.15884 1.12917 7.2729 2.02256 8.15932C2.91152 9.04631 4.00817 9.49426 5.27893 9.49311C6.60229 9.49426 7.70009 9.05292 8.53315 8.17439L8.43009 8.07551L8.53087 8.17669C9.27131 7.43379 9.63868 6.43025 9.63768 5.2008L9.49501 5.20111Z" fill="white"/>
<path d="M16.083 1.60416H12.1773V4.33461H15.6995V5.36944H12.1773V8.09989H16.083V9.15783H11.0762V0.546228H16.083V1.60416Z" fill="white"/>
<path d="M16.0853 1.60451V1.46099H12.0366V4.47849H15.5589V5.22583L12.0366 5.22627V8.24377H15.9424V9.01465H11.2214V0.690104H15.9424V1.60451H16.0853H16.2283V0.40305H10.9355V9.30171H16.2283V7.95672H12.3225V5.51332H15.8448V4.19144H12.3225V1.74804H16.2283V1.60451H16.0853Z" fill="white"/>
<path d="M20.7333 9.15783H19.6305V1.60416H17.235V0.546228H23.1287V1.60416H20.7333V9.15783Z" fill="white"/>
<path d="M20.7333 9.15783L20.733 9.01465H19.7731V1.46099H17.3777V0.690104H22.9855V1.46099H20.59V9.15818L20.7333 9.15783L20.8759 9.15818V1.74804H23.2714V0.40305H17.0918V1.74804H19.4872V9.30171H20.8759V9.15818L20.7333 9.15783Z" fill="white"/>
<path d="M27.3913 9.15783V0.546228H28.4929V9.15783H27.3913Z" fill="white"/>
<path d="M27.3913 9.15783L27.5339 9.15818V0.690104H28.3497V9.01465H27.391L27.3913 9.15783L27.391 9.30171H28.6356V0.40305H27.2481V9.30171H27.391L27.3913 9.15783Z" fill="white"/>
<path d="M33.3789 9.15783H32.2761V1.60416H29.8809V0.546228H35.7744V1.60416H33.3789V9.15783Z" fill="white"/>
<path d="M33.3813 9.15818V9.01465H32.4214V1.46099H30.0261V0.690104H35.6338V1.46099H33.2383V9.15818H33.3813H33.5242V1.74804H35.9196V0.40305H29.7402V1.74804H32.1355V9.30171H33.5242V9.15818H33.3813Z" fill="white"/>
<path d="M41.458 7.32373C42.0928 7.96903 42.8695 8.29139 43.7881 8.29139C44.7066 8.29139 45.4838 7.96903 46.1176 7.32373C46.753 6.67844 47.0713 5.85359 47.0713 4.85178C47.0713 3.84996 46.753 3.02512 46.1176 2.37982C45.4838 1.73452 44.7066 1.41216 43.7881 1.41216C42.8695 1.41216 42.0928 1.73452 41.458 2.37982C40.8242 3.02512 40.506 3.84996 40.506 4.85178C40.506 5.85359 40.8242 6.67844 41.458 7.32373ZM46.9328 8.04467C46.0896 8.9153 45.041 9.3499 43.7881 9.3499C42.5339 9.3499 41.4858 8.9153 40.6445 8.04467C39.8007 7.17504 39.3809 6.1105 39.3809 4.85178C39.3809 3.59305 39.8007 2.52837 40.6445 1.65888C41.4858 0.788109 42.5339 0.353081 43.7881 0.353081C45.0344 0.353081 46.0801 0.790405 46.9272 1.66448C47.7732 2.53856 48.1964 3.60094 48.1964 4.85178C48.1964 6.1105 47.7742 7.17504 46.9328 8.04467Z" fill="white"/>
<path d="M41.458 7.32373L41.356 7.42432C42.0144 8.09545 42.8358 8.43633 43.7878 8.4346C44.7392 8.43633 45.5617 8.09545 46.2189 7.42432C46.8816 6.75261 47.215 5.88356 47.214 4.85146C47.215 3.81936 46.8816 2.95031 46.2189 2.2786C45.5617 1.60747 44.7392 1.2666 43.7878 1.26832C42.8358 1.2666 42.0144 1.60747 41.356 2.2786C40.6949 2.95031 40.361 3.81936 40.3627 4.85146C40.361 5.88356 40.6949 6.75261 41.356 7.42432L41.458 7.32373L41.5593 7.22252C40.9529 6.60292 40.6498 5.82357 40.6486 4.85146C40.6498 3.87936 40.9529 3.10001 41.5593 2.4804C42.1712 1.86094 42.9021 1.55709 43.7878 1.55537C44.6727 1.55709 45.4053 1.86094 46.0157 2.4804C46.6232 3.10001 46.9264 3.87936 46.9275 4.85146C46.9264 5.82357 46.6232 6.60292 46.0157 7.22252C45.4053 7.84198 44.6727 8.14583 43.7878 8.14755C42.9021 8.14583 42.1712 7.84198 41.5593 7.22252L41.458 7.32373ZM46.9328 8.04467L46.8303 7.9446C46.0107 8.78782 45.0084 9.20434 43.7878 9.20606C42.5666 9.20434 41.5643 8.78782 40.7462 7.9446C39.9283 7.09851 39.5247 6.07818 39.5235 4.85146C39.5247 3.62474 39.9283 2.60441 40.7462 1.75832C41.5643 0.9151 42.5666 0.498012 43.7878 0.496289C45.0005 0.498012 46.0005 0.916822 46.8247 1.76449C47.6455 2.61446 48.0515 3.63321 48.0532 4.85146C48.0515 6.07818 47.6466 7.09851 46.8303 7.9446L46.9328 8.04467L47.0353 8.14411C47.9018 7.25051 48.3401 6.14205 48.3391 4.85146C48.3401 3.56819 47.9001 2.46203 47.0296 1.56441C46.1586 0.663353 45.0675 0.207657 43.7878 0.209236C42.5013 0.207657 41.4069 0.661199 40.5414 1.55882C39.6732 2.45299 39.2365 3.56087 39.2376 4.85146C39.2365 6.14205 39.6732 7.25051 40.5414 8.14468C41.4069 9.0423 42.5013 9.49426 43.7878 9.49311C45.0737 9.49426 46.168 9.04172 47.0353 8.14411L46.9328 8.04467Z" fill="white"/>
<path d="M49.7428 9.15783V0.546228H51.0841L55.2523 7.24548H55.2997L55.2523 5.58588V0.546228H56.3551V9.15783H55.2048L50.8439 2.13392H50.7965L50.8439 3.79409V9.15783H49.7428Z" fill="white"/>
<path d="M49.7452 9.15818H49.8881V0.690104H51.007L55.1752 7.38936H55.4488L55.3975 5.58408V0.690104H56.2144V9.01465H55.2865L50.9256 1.99074H50.652L50.7033 3.79674V9.01465H49.7452V9.15818V9.30171H50.9892V3.79215L50.9417 2.1304L50.7988 2.13427V2.2778H50.8462V2.13427L50.725 2.21063L55.1278 9.30171H56.5003V0.40305H55.1116V5.58795L55.1591 7.24971L55.302 7.24583V7.1023H55.2546V7.24583L55.3758 7.16962L51.1656 0.40305H49.6022V9.30171H49.7452V9.15818Z" fill="white"/>
<path d="M94.5715 33.5567H97.2389V15.6142H94.5715V33.5567ZM118.596 22.0775L115.538 29.8565H115.447L112.274 22.0775H109.4L114.159 32.9501L111.446 38.9978H114.229L121.562 22.0775H118.596ZM103.47 31.5188C102.595 31.5188 101.377 31.0803 101.377 29.995C101.377 28.6101 102.895 28.0792 104.204 28.0792C105.378 28.0792 105.928 28.3331 106.642 28.6797C106.434 30.3415 105.009 31.5188 103.47 31.5188ZM103.791 21.6849C101.86 21.6849 99.8604 22.5393 99.0328 24.4322L101.4 25.4245C101.906 24.4322 102.848 24.1087 103.837 24.1087C105.216 24.1087 106.619 24.9401 106.642 26.4174V26.6019C106.158 26.3249 105.125 25.9095 103.86 25.9095C101.308 25.9095 98.7097 27.3172 98.7097 29.9489C98.7097 32.3497 100.802 33.8965 103.147 33.8965C104.941 33.8965 105.928 33.0886 106.55 32.1423H106.642V33.527H109.216V26.6478C109.216 23.4628 106.849 21.6849 103.791 21.6849ZM87.3072 24.2617H83.5135V18.1114H87.3072C89.3013 18.1114 90.4334 19.7691 90.4334 21.1865C90.4334 22.577 89.3013 24.2617 87.3072 24.2617ZM87.2386 15.6142H80.8477V33.5567H83.5135V26.7589H87.2386C90.1947 26.7589 93.1007 24.6099 93.1007 21.1865C93.1007 17.7632 90.1947 15.6142 87.2386 15.6142ZM52.3878 31.5221C50.5452 31.5221 49.0024 29.973 49.0024 27.8454C49.0024 25.6954 50.5452 24.1227 52.3878 24.1227C54.2071 24.1227 55.6348 25.6954 55.6348 27.8454C55.6348 29.973 54.2071 31.5221 52.3878 31.5221ZM55.4505 23.0822H55.3583C54.7598 22.3655 53.6079 21.7181 52.1573 21.7181C49.1175 21.7181 46.3312 24.4002 46.3312 27.8454C46.3312 31.2676 49.1175 33.9268 52.1573 33.9268C53.6079 33.9268 54.7598 33.2792 55.3583 32.5397H55.4505V33.4182C55.4505 35.754 54.2071 37.0025 52.2036 37.0025C50.5686 37.0025 49.5553 35.8229 49.1403 34.8288L46.8148 35.7999C47.4826 37.4185 49.256 39.4072 52.2036 39.4072C55.3355 39.4072 57.9838 37.557 57.9838 33.0482V22.0881H55.4505V23.0822ZM59.8258 33.5567H62.4972V15.6136H59.8258V33.5567ZM66.4352 27.6374C66.366 25.2787 68.2544 24.0767 69.613 24.0767C70.673 24.0767 71.5707 24.6081 71.8694 25.3718L66.4352 27.6374ZM74.7254 25.6028C74.2194 24.2381 72.6756 21.7181 69.5208 21.7181C66.3889 21.7181 63.7869 24.1922 63.7869 27.8224C63.7869 31.2447 66.366 33.9268 69.8201 33.9268C72.607 33.9268 74.2194 32.2156 74.887 31.2216L72.8143 29.8339C72.1239 30.8516 71.179 31.5221 69.8201 31.5221C68.4616 31.5221 67.4946 30.8976 66.8725 29.6725L75.0013 26.2963L74.7254 25.6028ZM9.96085 23.5911V26.1808H16.1324C15.9481 27.6374 15.4646 28.7009 14.7275 29.441C13.8297 30.343 12.4249 31.3371 9.96085 31.3371C6.16102 31.3371 3.19053 28.2619 3.19053 24.4467C3.19053 20.6314 6.16102 17.5558 9.96085 17.5558C12.0105 17.5558 13.507 18.3653 14.6125 19.4059L16.4317 17.5793C14.8889 16.0992 12.8391 14.9662 9.96085 14.9662C4.75618 14.9662 0.380859 19.2209 0.380859 24.4467C0.380859 29.6725 4.75618 33.9268 9.96085 33.9268C12.7705 33.9268 14.8889 33.0023 16.5468 31.2676C18.2509 29.5565 18.7808 27.1519 18.7808 25.2098C18.7808 24.6081 18.7349 24.0537 18.6423 23.5911H9.96085ZM25.7973 31.5221C23.9546 31.5221 22.3655 29.996 22.3655 27.8224C22.3655 25.6257 23.9546 24.1227 25.7973 24.1227C27.6392 24.1227 29.2283 25.6257 29.2283 27.8224C29.2283 29.996 27.6392 31.5221 25.7973 31.5221ZM25.7973 21.7181C22.4347 21.7181 19.6942 24.2846 19.6942 27.8224C19.6942 31.3371 22.4347 33.9268 25.7973 33.9268C29.1591 33.9268 31.8996 31.3371 31.8996 27.8224C31.8996 24.2846 29.1591 21.7181 25.7973 21.7181ZM39.1098 31.5221C37.2678 31.5221 35.6786 29.996 35.6786 27.8224C35.6786 25.6257 37.2678 24.1227 39.1098 24.1227C40.9519 24.1227 42.541 25.6257 42.541 27.8224C42.541 29.996 40.9519 31.5221 39.1098 31.5221ZM39.1098 21.7181C35.7474 21.7181 33.0074 24.2846 33.0074 27.8224C33.0074 31.3371 35.7474 33.9268 39.1098 33.9268C42.4718 33.9268 45.2123 31.3371 45.2123 27.8224C45.2123 24.2846 42.4718 21.7181 39.1098 21.7181Z" fill="white"/>
</svg>
