<svg width="31" height="34" viewBox="0 0 31 34" fill="none" xmlns="http://www.w3.org/2000/svg">
<path d="M0.966012 33.3564L0.869663 33.2639C0.49231 32.863 0.269531 32.2405 0.269531 31.4344V31.6241V2.82807C0.269531 2.82546 0.269531 2.82351 0.269531 2.82143C0.269531 2.8239 0.269531 2.82598 0.269531 2.82859V3.01881C0.269531 2.14592 0.529268 1.4884 0.964455 1.09413L17.0308 17.2258L0.966012 33.3564ZM0.269531 2.81986C0.269531 2.74812 0.271476 2.67846 0.275107 2.60984C0.271476 2.67794 0.269531 2.74812 0.269531 2.81986ZM0.275107 2.60672C0.275107 2.60581 0.275106 2.60477 0.275495 2.60372C0.275106 2.60477 0.275107 2.60581 0.275107 2.60672ZM0.275495 2.59761C0.275495 2.59708 0.275495 2.59656 0.275495 2.59604C0.275495 2.59656 0.275495 2.59708 0.275495 2.59761Z" fill="#56C4F9"/>
<path d="M22.3878 22.7952L22.51 22.7255L28.8548 19.1057C29.4598 18.7604 29.8629 18.3418 30.064 17.8988C29.8634 18.3418 29.4601 18.7609 28.8548 19.1062L22.51 22.726L22.3878 22.7952ZM22.3894 22.6044L17.0332 17.2254L22.3889 11.8473L28.8548 15.5357C29.6759 16.0042 30.1369 16.608 30.2139 17.2249C30.2139 17.2254 30.2139 17.2265 30.2139 17.2274C30.1369 17.8428 29.6759 18.4471 28.8548 18.9155L22.3894 22.6044Z" fill="#F8D047"/>
<path d="M2.11237 33.9705C1.66356 33.9705 1.27195 33.824 0.966565 33.5473L0.967086 33.5468C1.27247 33.8235 1.6646 33.9705 2.11341 33.9705C2.15231 33.9705 2.19186 33.9694 2.23193 33.9675C2.19134 33.9694 2.15127 33.9705 2.11237 33.9705ZM2.11289 33.7797C1.66408 33.7802 1.27247 33.6332 0.967086 33.3565V33.3562L17.0319 17.2255L22.3881 22.6045L3.56563 33.3429C3.04486 33.6393 2.55145 33.7797 2.11289 33.7797ZM0.962547 33.5438C0.934148 33.5179 0.906268 33.4904 0.878906 33.4619L0.962547 33.5438Z" fill="#DE4551"/>
<path d="M17.0312 17.2256L0.964844 1.09391C1.27023 0.817749 1.66132 0.671269 2.10961 0.671269C2.54933 0.671269 3.04313 0.812151 3.56494 1.10915L22.3869 11.8475L17.0312 17.2256ZM22.508 11.726L3.56494 0.919046C3.04313 0.621919 2.54933 0.48104 2.10961 0.48104C2.10753 0.48104 2.10611 0.48104 2.10403 0.48104C2.10663 0.48104 2.10857 0.48104 2.11168 0.48104C2.55037 0.48104 3.04365 0.621399 3.56494 0.918525L22.508 11.726Z" fill="#6EEB84"/>
</svg>
