<svg width="31" height="35" viewBox="0 0 31 35" fill="none" xmlns="http://www.w3.org/2000/svg">
<path d="M1.13398 33.5396L1.03763 33.447C0.660279 33.0461 0.4375 32.4236 0.4375 31.6175V31.8072V3.01117C0.4375 3.00857 0.4375 3.00661 0.4375 3.00453C0.4375 3.00701 0.4375 3.00909 0.4375 3.01169V3.20192C0.4375 2.32903 0.697237 1.6715 1.13242 1.27724L17.1988 17.4089L1.13398 33.5396ZM0.4375 3.00297C0.4375 2.93123 0.439445 2.86157 0.443076 2.79295C0.439445 2.86105 0.4375 2.93123 0.4375 3.00297ZM0.443076 2.78983C0.443076 2.78891 0.443075 2.78787 0.443464 2.78683C0.443075 2.78787 0.443076 2.78891 0.443076 2.78983ZM0.443464 2.78071C0.443464 2.78019 0.443464 2.77967 0.443464 2.77915C0.443464 2.77967 0.443464 2.78019 0.443464 2.78071Z" fill="#56C4F9"/>
<path d="M22.5558 22.9785L22.678 22.9089L29.0228 19.289C29.6277 18.9437 30.0309 18.5251 30.232 18.0822C30.0314 18.5251 29.6281 18.9443 29.0228 19.2896L22.678 22.9094L22.5558 22.9785V22.9785ZM22.5574 22.7878L17.2012 17.4088L22.5568 12.0307L29.0228 15.7191C29.8439 16.1876 30.3049 16.7913 30.3819 17.4082C30.3819 17.4088 30.3819 17.4098 30.3819 17.4107C30.3049 18.0262 29.8439 18.6305 29.0228 19.0988L22.5574 22.7878" fill="#F8D047"/>
<path d="M2.28034 34.1538C1.83153 34.1538 1.43992 34.0073 1.13453 33.7306L1.13505 33.7301C1.44044 34.0068 1.83257 34.1538 2.28137 34.1538C2.32028 34.1538 2.35983 34.1528 2.3999 34.1508C2.35931 34.1528 2.31924 34.1538 2.28034 34.1538V34.1538ZM2.28086 33.9631C1.83205 33.9636 1.44044 33.8166 1.13505 33.5399V33.5395L17.1999 17.4089L22.5561 22.7879L3.7336 33.5262C3.21282 33.8227 2.71941 33.9631 2.28086 33.9631V33.9631ZM1.13052 33.7271C1.10212 33.7012 1.07424 33.6737 1.04688 33.6452L1.13052 33.7271Z" fill="#DE4551"/>
<path d="M17.1992 17.4087L1.13281 1.27702C1.4382 1.00085 1.82929 0.854374 2.27758 0.854374C2.7173 0.854374 3.2111 0.995256 3.73291 1.29225L22.5549 12.0306L17.1992 17.4087V17.4087ZM22.676 11.9091L3.73291 1.10215C3.2111 0.805024 2.7173 0.664146 2.27758 0.664146C2.2755 0.664146 2.27408 0.664146 2.272 0.664146C2.2746 0.664146 2.27654 0.664146 2.27965 0.664146C2.71834 0.664146 3.21162 0.804504 3.73291 1.10163L22.676 11.9091V11.9091Z" fill="#6EEB84"/>
</svg>
