<svg width="20" height="24" viewBox="0 0 20 24" fill="none" xmlns="http://www.w3.org/2000/svg">
<path d="M0.483818 22.7529L0.419589 22.6912C0.16804 22.424 0.0195312 22.009 0.0195312 21.4716V21.5981V2.40217C0.0195312 2.40043 0.0195312 2.39913 0.0195312 2.39774C0.0195312 2.39939 0.0195312 2.40078 0.0195312 2.40252V2.52932C0.0195312 1.94744 0.192676 1.50912 0.48278 1.2463L11.1929 12L0.483818 22.7529ZM0.0195312 2.3967C0.0195312 2.34888 0.0208278 2.30244 0.0232482 2.2567C0.0208278 2.30209 0.0195312 2.34888 0.0195312 2.3967ZM0.0232482 2.25462C0.0232482 2.25401 0.0232474 2.25331 0.0235068 2.25262C0.0232474 2.25331 0.0232482 2.25401 0.0232482 2.25462ZM0.0235068 2.24854C0.0235068 2.24819 0.0235068 2.24784 0.0235068 2.2475C0.0235068 2.24784 0.0235068 2.24819 0.0235068 2.24854Z" fill="#56C4F9"/>
<path d="M14.7648 15.7126L14.8462 15.6662L19.0758 13.2532C19.4791 13.023 19.7478 12.7439 19.8819 12.4487C19.7482 12.7439 19.4793 13.0233 19.0758 13.2535L14.8462 15.6666L14.7648 15.7126ZM14.7658 15.5855L11.1953 11.9997L14.7655 8.41462L19.0758 10.8734C19.6232 11.1857 19.9305 11.5882 19.9818 11.9994C19.9818 11.9997 19.9818 12.0004 19.9818 12.0011C19.9305 12.4113 19.6232 12.8142 19.0758 13.1264L14.7658 15.5855Z" fill="#F8D047"/>
<path d="M1.24803 23.1624C0.948848 23.1624 0.68779 23.0647 0.484216 22.8803L0.484563 22.8799C0.688137 23.0644 0.949541 23.1624 1.24872 23.1624C1.27465 23.1624 1.30102 23.1617 1.32773 23.1604C1.30067 23.1617 1.27396 23.1624 1.24803 23.1624ZM1.24838 23.0352C0.949195 23.0355 0.688137 22.9375 0.484563 22.7531V22.7528L11.1937 11.9999L14.7642 15.5856L2.2168 22.744C1.86964 22.9416 1.54073 23.0352 1.24838 23.0352ZM0.481537 22.8779C0.462606 22.8606 0.444021 22.8423 0.425781 22.8233L0.481537 22.8779Z" fill="#DE4551"/>
<path d="M11.1926 11.9998L0.482422 1.2461C0.685996 1.062 0.946709 0.964354 1.24554 0.964354C1.53867 0.964354 1.86785 1.05827 2.21569 1.25625L14.7628 8.41462L11.1926 11.9998ZM14.8435 8.33364L2.21569 1.12953C1.86785 0.931456 1.53867 0.837544 1.24554 0.837544C1.24416 0.837544 1.24321 0.837544 1.24183 0.837544C1.24355 0.837544 1.24485 0.837544 1.24693 0.837544C1.53936 0.837544 1.86819 0.931109 2.21569 1.12918L14.8435 8.33364Z" fill="#6EEB84"/>
</svg>
