<svg width="31" height="35" viewBox="0 0 31 35" fill="none" xmlns="http://www.w3.org/2000/svg">
<path d="M1.63398 33.5569L1.53763 33.4643C1.16028 33.0634 0.9375 32.4409 0.9375 31.6348V31.8245V3.0285C0.9375 3.0259 0.9375 3.02395 0.9375 3.02187C0.9375 3.02434 0.9375 3.02642 0.9375 3.02903V3.21925C0.9375 2.34636 1.19724 1.68883 1.63242 1.29457L17.6988 17.4262L1.63398 33.5569ZM0.9375 3.0203C0.9375 2.94856 0.939445 2.8789 0.943076 2.81028C0.939445 2.87838 0.9375 2.94856 0.9375 3.0203ZM0.943076 2.80716C0.943076 2.80625 0.943075 2.80521 0.943464 2.80416C0.943075 2.80521 0.943076 2.80625 0.943076 2.80716ZM0.943464 2.79804C0.943464 2.79752 0.943464 2.797 0.943464 2.79648C0.943464 2.797 0.943464 2.79752 0.943464 2.79804Z" fill="#56C4F9"/>
<path d="M23.0558 22.9956L23.178 22.9259L29.5228 19.3061C30.1277 18.9608 30.5309 18.5422 30.732 18.0993C30.5314 18.5422 30.1281 18.9614 29.5228 19.3067L23.178 22.9265L23.0558 22.9956V22.9956ZM23.0574 22.8049L17.7012 17.4259L23.0568 12.0478L29.5228 15.7362C30.3439 16.2047 30.8049 16.8084 30.8819 17.4253C30.8819 17.4259 30.8819 17.4269 30.8819 17.4278C30.8049 18.0433 30.3439 18.6476 29.5228 19.1159L23.0574 22.8049" fill="#F8D047"/>
<path d="M2.78034 34.1709C2.33153 34.1709 1.93992 34.0244 1.63453 33.7477L1.63505 33.7472C1.94044 34.0239 2.33257 34.1709 2.78137 34.1709C2.82028 34.1709 2.85983 34.1699 2.8999 34.1679C2.85931 34.1699 2.81924 34.1709 2.78034 34.1709V34.1709ZM2.78086 33.9801C2.33205 33.9807 1.94044 33.8337 1.63505 33.557V33.5566L17.6999 17.426L23.0561 22.805L4.2336 33.5433C3.71282 33.8398 3.21941 33.9801 2.78086 33.9801V33.9801ZM1.63052 33.7442C1.60212 33.7183 1.57424 33.6908 1.54688 33.6623L1.63052 33.7442Z" fill="#DE4551"/>
<path d="M17.6992 17.426L1.63281 1.29435C1.9382 1.01819 2.32929 0.871708 2.77758 0.871708C3.2173 0.871708 3.7111 1.01259 4.23291 1.30959L23.0549 12.0479L17.6992 17.426V17.426ZM23.176 11.9265L4.23291 1.11948C3.7111 0.822358 3.2173 0.68148 2.77758 0.68148C2.7755 0.68148 2.77408 0.68148 2.772 0.68148C2.7746 0.68148 2.77654 0.68148 2.77965 0.68148C3.21834 0.68148 3.71162 0.821838 4.23291 1.11896L23.176 11.9265V11.9265Z" fill="#6EEB84"/>
</svg>
