<svg width="31" height="34" viewBox="0 0 31 34" fill="none" xmlns="http://www.w3.org/2000/svg">
<path d="M1.13398 33.1145L1.03763 33.0219C0.660279 32.621 0.4375 31.9985 0.4375 31.1924V31.3821V2.58612C0.4375 2.58352 0.4375 2.58157 0.4375 2.57948C0.4375 2.58196 0.4375 2.58404 0.4375 2.58664V2.77687C0.4375 1.90398 0.697237 1.24645 1.13242 0.852192L17.1988 16.9839L1.13398 33.1145ZM0.4375 2.57792C0.4375 2.50618 0.439445 2.43652 0.443076 2.3679C0.439445 2.436 0.4375 2.50618 0.4375 2.57792ZM0.443076 2.36478C0.443076 2.36387 0.443075 2.36282 0.443464 2.36178C0.443075 2.36282 0.443076 2.36387 0.443076 2.36478ZM0.443464 2.35566C0.443464 2.35514 0.443464 2.35462 0.443464 2.3541C0.443464 2.35462 0.443464 2.35514 0.443464 2.35566Z" fill="#56C4F9"/>
<path d="M22.5558 22.5532L22.678 22.4836L29.0228 18.8638C29.6277 18.5184 30.0309 18.0998 30.232 17.6569C30.0314 18.0998 29.6281 18.519 29.0228 18.8643L22.678 22.4841L22.5558 22.5532V22.5532ZM22.5574 22.3625L17.2012 16.9835L22.5568 11.6054L29.0228 15.2938C29.8439 15.7623 30.3049 16.366 30.3819 16.9829C30.3819 16.9835 30.3819 16.9845 30.3819 16.9854C30.3049 17.6009 29.8439 18.2052 29.0228 18.6735L22.5574 22.3625" fill="#F8D047"/>
<path d="M2.28034 33.7285C1.83153 33.7285 1.43992 33.582 1.13453 33.3054L1.13505 33.3048C1.44044 33.5815 1.83257 33.7285 2.28137 33.7285C2.32028 33.7285 2.35983 33.7275 2.3999 33.7255C2.35931 33.7275 2.31924 33.7285 2.28034 33.7285V33.7285ZM2.28086 33.5378C1.83205 33.5383 1.44044 33.3913 1.13505 33.1146V33.1142L17.1999 16.9836L22.5561 22.3626L3.7336 33.1009C3.21282 33.3974 2.71941 33.5378 2.28086 33.5378V33.5378ZM1.13052 33.3018C1.10212 33.2759 1.07424 33.2485 1.04688 33.2199L1.13052 33.3018Z" fill="#DE4551"/>
<path d="M17.1992 16.9836L1.13281 0.851969C1.4382 0.575805 1.82929 0.429325 2.27758 0.429325C2.7173 0.429325 3.2111 0.570207 3.73291 0.867203L22.5549 11.6056L17.1992 16.9836V16.9836ZM22.676 11.4841L3.73291 0.677102C3.2111 0.379976 2.7173 0.239097 2.27758 0.239097C2.2755 0.239097 2.27408 0.239097 2.272 0.239097C2.2746 0.239097 2.27654 0.239097 2.27965 0.239097C2.71834 0.239097 3.21162 0.379455 3.73291 0.676582L22.676 11.4841V11.4841Z" fill="#6EEB84"/>
</svg>
