<svg width="31" height="35" viewBox="0 0 31 35" fill="none" xmlns="http://www.w3.org/2000/svg">
<path d="M0.966012 33.8566L0.869663 33.764C0.49231 33.3631 0.269531 32.7406 0.269531 31.9345V32.1242V3.32817C0.269531 3.32557 0.269531 3.32362 0.269531 3.32153C0.269531 3.32401 0.269531 3.32609 0.269531 3.32869V3.51892C0.269531 2.64603 0.529268 1.9885 0.964455 1.59424L17.0308 17.7259L0.966012 33.8566ZM0.269531 3.31997C0.269531 3.24823 0.271476 3.17857 0.275107 3.10995C0.271476 3.17805 0.269531 3.24823 0.269531 3.31997ZM0.275107 3.10683C0.275107 3.10592 0.275106 3.10487 0.275495 3.10383C0.275106 3.10487 0.275107 3.10592 0.275107 3.10683ZM0.275495 3.09771C0.275495 3.09719 0.275495 3.09667 0.275495 3.09615C0.275495 3.09667 0.275495 3.09719 0.275495 3.09771Z" fill="#56C4F9"/>
<path d="M22.3878 23.2953L22.51 23.2256L28.8548 19.6058C29.4598 19.2605 29.8629 18.8419 30.064 18.3989C29.8634 18.8419 29.4601 19.261 28.8548 19.6063L22.51 23.2261L22.3878 23.2953V23.2953ZM22.3894 23.1045L17.0332 17.7255L22.3889 12.3474L28.8548 16.0359C29.6759 16.5043 30.1369 17.1081 30.2139 17.725C30.2139 17.7255 30.2139 17.7266 30.2139 17.7275C30.1369 18.3429 29.6759 18.9472 28.8548 19.4156L22.3894 23.1045" fill="#F8D047"/>
<path d="M2.11237 34.4706C1.66356 34.4706 1.27195 34.3241 0.966565 34.0474L0.967086 34.0469C1.27247 34.3236 1.6646 34.4706 2.11341 34.4706C2.15231 34.4706 2.19186 34.4695 2.23193 34.4676C2.19134 34.4695 2.15127 34.4706 2.11237 34.4706V34.4706ZM2.11289 34.2798C1.66408 34.2803 1.27247 34.1333 0.967086 33.8567V33.8563L17.0319 17.7256L22.3881 23.1046L3.56563 33.843C3.04486 34.1395 2.55145 34.2798 2.11289 34.2798V34.2798ZM0.962547 34.0439C0.934148 34.018 0.906268 33.9905 0.878906 33.962L0.962547 34.0439Z" fill="#DE4551"/>
<path d="M17.0312 17.7257L0.964844 1.59402C1.27023 1.31786 1.66132 1.17138 2.10961 1.17138C2.54933 1.17138 3.04313 1.31226 3.56494 1.60925L22.3869 12.3476L17.0312 17.7257V17.7257ZM22.508 12.2261L3.56494 1.41915C3.04313 1.12203 2.54933 0.981147 2.10961 0.981147C2.10753 0.981147 2.10611 0.981147 2.10403 0.981147C2.10663 0.981147 2.10857 0.981147 2.11168 0.981147C2.55037 0.981147 3.04365 1.12151 3.56494 1.41863L22.508 12.2261V12.2261Z" fill="#6EEB84"/>
</svg>
