<svg width="25" height="25" viewBox="0 0 25 25" fill="none" xmlns="http://www.w3.org/2000/svg">
<g clip-path="url(#clip0_2694_29961)">
<rect x="0.0214844" y="0.257324" width="24.0633" height="24.0633" rx="4.8125" fill="white"/>
<mask id="mask0_2694_29961" style="mask-type:alpha" maskUnits="userSpaceOnUse" x="3" y="1" width="30" height="31">
<path d="M11.4562 5.85977C13.9806 0.653842 21.3969 0.65384 23.9213 5.85976L31.5478 21.5874C33.7785 26.1876 30.4277 31.5363 25.3152 31.5363H10.0623C4.9498 31.5363 1.59903 26.1876 3.82969 21.5874L11.4562 5.85977Z" fill="#F23FA0"/>
</mask>
<g mask="url(#mask0_2694_29961)">
<path d="M11.4562 5.85977C13.9806 0.653842 21.3969 0.65384 23.9213 5.85976L31.5478 21.5874C33.7785 26.1876 30.4277 31.5363 25.3152 31.5363H10.0623C4.9498 31.5363 1.59903 26.1876 3.82969 21.5874L11.4562 5.85977Z" fill="#FA41A5"/>
<g filter="url(#filter0_f_2694_29961)">
<path d="M8.38969 15.3611C9.98293 12.075 14.6637 12.075 16.2569 15.3611L21.0703 25.2891C22.4781 28.1929 20.3633 31.5692 17.1367 31.5692H7.50995C4.28328 31.5692 2.16849 28.1929 3.57634 25.2891L8.38969 15.3611Z" fill="#CC1479"/>
</g>
<g filter="url(#filter1_f_2694_29961)">
<path d="M27.9385 -1.41532C29.5318 -4.70151 34.2125 -4.70151 35.8057 -1.41532L40.6191 8.51262C42.0269 11.4164 39.9121 14.7928 36.6855 14.7928H27.0588C23.8321 14.7928 21.7173 11.4164 23.1252 8.51262L27.9385 -1.41532Z" fill="#FF76C0"/>
</g>
<path d="M18.2837 6.72442C18.1468 6.93866 18.0816 7.09673 18.0087 7.39115C17.932 7.70102 17.9108 7.90428 17.92 8.24138" stroke="#1A052F" stroke-width="0.982223" stroke-linecap="round"/>
<path d="M16.1372 6.72442C16.0003 6.93866 15.9351 7.09673 15.8622 7.39115C15.7855 7.70102 15.7643 7.90428 15.7735 8.24138" stroke="#1A052F" stroke-width="0.982223" stroke-linecap="round"/>
<path d="M17.6133 12.0006C17.6133 12.0006 19.3065 12.7355 19.9222 10.5308" stroke="#1A052F" stroke-width="0.982223" stroke-linecap="round"/>
</g>
<mask id="mask1_2694_29961" style="mask-type:alpha" maskUnits="userSpaceOnUse" x="-6" y="11" width="23" height="21">
<path d="M9.65324 31.5365C13.9569 31.5365 17.5571 28 16.5763 23.8096C16.5683 23.7754 16.5602 23.7413 16.5521 23.7073C15.9622 21.2251 15.0975 18.9698 14.0074 17.07C12.9173 15.1702 11.6231 13.6633 10.1988 12.6351C8.77454 11.607 7.24799 11.0778 5.70635 11.0778C4.16471 11.0778 2.63817 11.607 1.21388 12.6351C-0.210409 13.6633 -1.50455 15.1702 -2.59465 17.07C-3.68476 18.9698 -4.54947 21.2251 -5.13943 23.7073C-5.14753 23.7413 -5.15558 23.7754 -5.16357 23.8096C-6.14435 28 -2.54421 31.5365 1.75947 31.5365H9.65324Z" fill="#BD8AFF"/>
</mask>
<g mask="url(#mask1_2694_29961)">
<path d="M9.65324 31.5365C13.9569 31.5365 17.5571 28 16.5763 23.8096C16.5683 23.7754 16.5602 23.7413 16.5521 23.7073C15.9622 21.2251 15.0975 18.9698 14.0074 17.07C12.9173 15.1702 11.6231 13.6633 10.1988 12.6351C8.77454 11.607 7.24799 11.0778 5.70635 11.0778C4.16471 11.0778 2.63817 11.607 1.21388 12.6351C-0.210409 13.6633 -1.50455 15.1702 -2.59465 17.07C-3.68476 18.9698 -4.54947 21.2251 -5.13943 23.7073C-5.14753 23.7413 -5.15558 23.7754 -5.16357 23.8096C-6.14435 28 -2.54421 31.5365 1.75947 31.5365H9.65324Z" fill="#B680F1"/>
<g opacity="0.8" filter="url(#filter2_f_2694_29961)">
<path d="M2.35831 38.5387C6.662 38.5387 10.2621 35.0023 9.28135 30.8119C9.27336 30.7777 9.26532 30.7436 9.25722 30.7096C8.66726 28.2274 7.80254 25.972 6.71244 24.0723C5.62233 22.1725 4.32819 20.6655 2.9039 19.6374C1.47961 18.6093 -0.0469301 18.0801 -1.58857 18.0801C-3.13021 18.0801 -4.65675 18.6093 -6.08104 19.6374C-7.50533 20.6655 -8.79947 22.1725 -9.88958 24.0723C-10.9797 25.972 -11.8444 28.2274 -12.4344 30.7096C-12.4425 30.7436 -12.4505 30.7777 -12.4585 30.8119C-13.4393 35.0023 -9.83914 38.5387 -5.53545 38.5387H2.35831Z" fill="#9D69DF"/>
</g>
<g filter="url(#filter3_f_2694_29961)">
<path d="M23.8036 25.9929C28.1073 25.9929 31.7074 22.4564 30.7267 18.266C30.7187 18.2319 30.7106 18.1977 30.7025 18.1637C30.1126 15.6815 29.2479 13.4262 28.1577 11.5264C27.0676 9.62664 25.7735 8.11966 24.3492 7.09152C22.9249 6.06337 21.3984 5.53419 19.8567 5.53419C18.3151 5.5342 16.7886 6.06337 15.3643 7.09152C13.94 8.11966 12.6458 9.62664 11.5557 11.5264C10.4656 13.4262 9.60092 15.6815 9.01096 18.1637C9.00286 18.1977 8.99481 18.2318 8.98682 18.266C8.00604 22.4564 11.6062 25.9929 15.9099 25.9929H23.8036Z" fill="#BD8AFF"/>
</g>
<path d="M6.42626 15.8443C6.28937 16.0585 6.22418 16.2166 6.1513 16.511C6.0746 16.8208 6.05339 17.0241 6.0626 17.3612" stroke="#1A052F" stroke-width="0.982223" stroke-linecap="round"/>
<path d="M4.27978 15.8443C4.14289 16.0585 4.0777 16.2166 4.00482 16.511C3.92811 16.8208 3.9069 17.0241 3.91611 17.3612" stroke="#1A052F" stroke-width="0.982223" stroke-linecap="round"/>
<path d="M5.21875 20.5518C5.21875 20.5518 6.90677 21.3541 7.52059 18.9472" stroke="#1A052F" stroke-width="0.982223" stroke-linecap="round"/>
</g>
</g>
<defs>
<filter id="filter0_f_2694_29961" x="-7.07884" y="2.68485" width="38.8042" height="39.096" filterUnits="userSpaceOnUse" color-interpolation-filters="sRGB">
<feFlood flood-opacity="0" result="BackgroundImageFix"/>
<feBlend mode="normal" in="SourceGraphic" in2="BackgroundImageFix" result="shape"/>
<feGaussianBlur stdDeviation="5.10582" result="effect1_foregroundBlur_2694_29961"/>
</filter>
<filter id="filter1_f_2694_29961" x="12.47" y="-14.0916" width="38.8042" height="39.096" filterUnits="userSpaceOnUse" color-interpolation-filters="sRGB">
<feFlood flood-opacity="0" result="BackgroundImageFix"/>
<feBlend mode="normal" in="SourceGraphic" in2="BackgroundImageFix" result="shape"/>
<feGaussianBlur stdDeviation="5.10582" result="effect1_foregroundBlur_2694_29961"/>
</filter>
<filter id="filter2_f_2694_29961" x="-22.8327" y="7.86843" width="42.4878" height="40.882" filterUnits="userSpaceOnUse" color-interpolation-filters="sRGB">
<feFlood flood-opacity="0" result="BackgroundImageFix"/>
<feBlend mode="normal" in="SourceGraphic" in2="BackgroundImageFix" result="shape"/>
<feGaussianBlur stdDeviation="5.10582" result="effect1_foregroundBlur_2694_29961"/>
</filter>
<filter id="filter3_f_2694_29961" x="-1.38743" y="-4.67745" width="42.4878" height="40.882" filterUnits="userSpaceOnUse" color-interpolation-filters="sRGB">
<feFlood flood-opacity="0" result="BackgroundImageFix"/>
<feBlend mode="normal" in="SourceGraphic" in2="BackgroundImageFix" result="shape"/>
<feGaussianBlur stdDeviation="5.10582" result="effect1_foregroundBlur_2694_29961"/>
</filter>
<clipPath id="clip0_2694_29961">
<rect x="0.0214844" y="0.257324" width="24.0633" height="24.0633" rx="4.8125" fill="white"/>
</clipPath>
</defs>
</svg>
