<svg width="35" height="36" viewBox="0 0 35 36" fill="none" xmlns="http://www.w3.org/2000/svg">
<g clip-path="url(#clip0_2754_14903)">
<rect y="0.901001" width="34.198" height="34.198" rx="6.83939" fill="white"/>
<mask id="mask0_2754_14903" style="mask-type:alpha" maskUnits="userSpaceOnUse" x="4" y="3" width="42" height="43">
<path d="M16.2533 8.86309C19.8409 1.46458 30.3808 1.46458 33.9684 8.86309L44.8069 31.2148C47.9771 37.7524 43.2151 45.3539 35.9494 45.3539H14.2723C7.0066 45.3539 2.24458 37.7524 5.41473 31.2148L16.2533 8.86309Z" fill="#F23FA0"/>
</mask>
<g mask="url(#mask0_2754_14903)">
<path d="M16.2533 8.86309C19.8409 1.46458 30.3808 1.46458 33.9684 8.86309L44.8069 31.2148C47.9771 37.7524 43.2151 45.3539 35.9494 45.3539H14.2723C7.0066 45.3539 2.24458 37.7524 5.41473 31.2148L16.2533 8.86309Z" fill="#FA41A5"/>
<g filter="url(#filter0_f_2754_14903)">
<path d="M11.8967 22.3662C14.161 17.696 20.8131 17.696 23.0774 22.3662L29.918 36.4755C31.9188 40.6023 28.9133 45.4007 24.3276 45.4007H10.6464C6.06079 45.4007 3.05531 40.6023 5.05611 36.4755L11.8967 22.3662Z" fill="#CC1479"/>
</g>
<g filter="url(#filter1_f_2754_14903)">
<path d="M39.678 -1.47608C41.9422 -6.14632 48.5943 -6.14632 50.8586 -1.47608L57.6992 12.6332C59.7 16.76 56.6945 21.5584 52.1089 21.5584H38.4277C33.842 21.5584 30.8366 16.76 32.8374 12.6332L39.678 -1.47608Z" fill="#FF76C0"/>
</g>
<path d="M25.9578 10.0919C25.7633 10.3964 25.6706 10.621 25.5671 11.0394C25.4581 11.4798 25.4279 11.7687 25.441 12.2478" stroke="#1A052F" stroke-width="1.39591" stroke-linecap="round"/>
<path d="M22.9051 10.0919C22.7105 10.3964 22.6179 10.621 22.5143 11.0394C22.4053 11.4798 22.3752 11.7687 22.3883 12.2478" stroke="#1A052F" stroke-width="1.39591" stroke-linecap="round"/>
<path d="M25.0039 17.5903C25.0039 17.5903 27.4102 18.6347 28.2852 15.5015" stroke="#1A052F" stroke-width="1.39591" stroke-linecap="round"/>
</g>
<mask id="mask1_2754_14903" style="mask-type:alpha" maskUnits="userSpaceOnUse" x="-8" y="16" width="32" height="30">
<path d="M13.6887 45.3541C19.805 45.3541 24.9214 40.3282 23.5275 34.3729C23.5162 34.3243 23.5047 34.2759 23.4932 34.2274C22.6548 30.6999 21.4259 27.4946 19.8766 24.7948C18.3274 22.0949 16.4882 19.9532 14.4641 18.492C12.4399 17.0309 10.2704 16.2788 8.07949 16.2788C5.88856 16.2788 3.71908 17.0309 1.69492 18.492C-0.329235 19.9532 -2.16843 22.0949 -3.71765 24.7948C-5.26688 27.4946 -6.49579 30.6999 -7.33422 34.2275C-7.34573 34.2759 -7.35717 34.3243 -7.36852 34.3729C-8.76239 40.3282 -3.64597 45.3541 2.4703 45.3541H13.6887Z" fill="#BD8AFF"/>
</mask>
<g mask="url(#mask1_2754_14903)">
<path d="M13.6887 45.3541C19.805 45.3541 24.9214 40.3282 23.5275 34.3729C23.5162 34.3243 23.5047 34.2759 23.4932 34.2274C22.6548 30.6999 21.4259 27.4946 19.8766 24.7948C18.3274 22.0949 16.4882 19.9532 14.4641 18.492C12.4399 17.0309 10.2704 16.2788 8.07949 16.2788C5.88856 16.2788 3.71908 17.0309 1.69492 18.492C-0.329235 19.9532 -2.16843 22.0949 -3.71765 24.7948C-5.26688 27.4946 -6.49579 30.6999 -7.33422 34.2275C-7.34573 34.2759 -7.35717 34.3243 -7.36852 34.3729C-8.76239 40.3282 -3.64597 45.3541 2.4703 45.3541H13.6887Z" fill="#B680F1"/>
<g opacity="0.8" filter="url(#filter2_f_2754_14903)">
<path d="M3.32346 55.3055C9.43973 55.3055 14.5561 50.2796 13.1623 44.3243C13.1509 44.2758 13.1395 44.2273 13.128 44.1789C12.2895 40.6513 11.0606 37.4461 9.51141 34.7462C7.96219 32.0463 6.12299 29.9046 4.09883 28.4434C2.07467 26.9823 -0.0948067 26.2302 -2.28574 26.2302C-4.47667 26.2302 -6.64615 26.9823 -8.67031 28.4434C-10.6945 29.9046 -12.5337 32.0463 -14.0829 34.7462C-15.6321 37.4461 -16.861 40.6513 -17.6995 44.1789C-17.711 44.2273 -17.7224 44.2758 -17.7338 44.3243C-19.1276 50.2796 -14.0112 55.3055 -7.89493 55.3055H3.32346Z" fill="#9D69DF"/>
</g>
<g filter="url(#filter3_f_2754_14903)">
<path d="M33.7981 37.4757C39.9143 37.4757 45.0307 32.4498 43.6369 26.4945C43.6255 26.4459 43.6141 26.3975 43.6026 26.349C42.7642 22.8215 41.5352 19.6162 39.986 16.9163C38.4368 14.2164 36.5976 12.0748 34.5734 10.6136C32.5493 9.15244 30.3798 8.40039 28.1889 8.40039C25.9979 8.40039 23.8285 9.15244 21.8043 10.6136C19.7801 12.0748 17.9409 14.2165 16.3917 16.9163C14.8425 19.6162 13.6136 22.8215 12.7752 26.349C12.7636 26.3975 12.7522 26.4459 12.7409 26.4944C11.347 32.4498 16.4634 37.4757 22.5797 37.4757H33.7981Z" fill="#BD8AFF"/>
</g>
<path d="M9.10432 23.0527C8.90977 23.3572 8.81712 23.5818 8.71355 24.0003C8.60453 24.4406 8.5744 24.7295 8.58748 25.2086" stroke="#1A052F" stroke-width="1.39591" stroke-linecap="round"/>
<path d="M6.05158 23.0527C5.85703 23.3572 5.76439 23.5818 5.66081 24.0003C5.5518 24.4406 5.52166 24.7295 5.53475 25.2086" stroke="#1A052F" stroke-width="1.39591" stroke-linecap="round"/>
<path d="M7.38672 29.7429C7.38672 29.7429 9.78568 30.8831 10.658 27.4625" stroke="#1A052F" stroke-width="1.39591" stroke-linecap="round"/>
</g>
</g>
<defs>
<filter id="filter0_f_2754_14903" x="-10.0867" y="4.35103" width="55.148" height="55.5621" filterUnits="userSpaceOnUse" color-interpolation-filters="sRGB">
<feFlood flood-opacity="0" result="BackgroundImageFix"/>
<feBlend mode="normal" in="SourceGraphic" in2="BackgroundImageFix" result="shape"/>
<feGaussianBlur stdDeviation="7.25625" result="effect1_foregroundBlur_2754_14903"/>
</filter>
<filter id="filter1_f_2754_14903" x="17.6945" y="-19.4913" width="55.148" height="55.5621" filterUnits="userSpaceOnUse" color-interpolation-filters="sRGB">
<feFlood flood-opacity="0" result="BackgroundImageFix"/>
<feBlend mode="normal" in="SourceGraphic" in2="BackgroundImageFix" result="shape"/>
<feGaussianBlur stdDeviation="7.25625" result="effect1_foregroundBlur_2754_14903"/>
</filter>
<filter id="filter2_f_2754_14903" x="-32.4773" y="11.7177" width="60.3824" height="58.1003" filterUnits="userSpaceOnUse" color-interpolation-filters="sRGB">
<feFlood flood-opacity="0" result="BackgroundImageFix"/>
<feBlend mode="normal" in="SourceGraphic" in2="BackgroundImageFix" result="shape"/>
<feGaussianBlur stdDeviation="7.25625" result="effect1_foregroundBlur_2754_14903"/>
</filter>
<filter id="filter3_f_2754_14903" x="-2.00273" y="-6.11211" width="60.3824" height="58.1003" filterUnits="userSpaceOnUse" color-interpolation-filters="sRGB">
<feFlood flood-opacity="0" result="BackgroundImageFix"/>
<feBlend mode="normal" in="SourceGraphic" in2="BackgroundImageFix" result="shape"/>
<feGaussianBlur stdDeviation="7.25625" result="effect1_foregroundBlur_2754_14903"/>
</filter>
<clipPath id="clip0_2754_14903">
<rect y="0.901001" width="34.198" height="34.198" rx="6.83939" fill="white"/>
</clipPath>
</defs>
</svg>
