<svg width="25" height="25" viewBox="0 0 25 25" fill="none" xmlns="http://www.w3.org/2000/svg">
<g clip-path="url(#clip0_2694_23138)">
<rect x="0.332031" y="0.162598" width="24.0633" height="24.0633" rx="4.8125" fill="white"/>
<mask id="mask0_2694_23138" style="mask-type:alpha" maskUnits="userSpaceOnUse" x="3" y="1" width="30" height="31">
<path d="M11.7687 5.76504C14.2931 0.559116 21.7094 0.559114 24.2338 5.76504L31.8603 21.4927C34.091 26.0929 30.7402 31.4416 25.6277 31.4416H10.3748C5.2623 31.4416 1.91153 26.0929 4.14219 21.4927L11.7687 5.76504Z" fill="#F23FA0"/>
</mask>
<g mask="url(#mask0_2694_23138)">
<path d="M11.7687 5.76504C14.2931 0.559116 21.7094 0.559114 24.2338 5.76504L31.8603 21.4927C34.091 26.0929 30.7402 31.4416 25.6277 31.4416H10.3748C5.2623 31.4416 1.91153 26.0929 4.14219 21.4927L11.7687 5.76504Z" fill="#FA41A5"/>
<g filter="url(#filter0_f_2694_23138)">
<path d="M8.70219 15.2664C10.2954 11.9802 14.9762 11.9802 16.5694 15.2664L21.3828 25.1943C22.7906 28.0981 20.6758 31.4745 17.4492 31.4745H7.82245C4.59578 31.4745 2.48099 28.0981 3.88884 25.1943L8.70219 15.2664Z" fill="#CC1479"/>
</g>
<g filter="url(#filter1_f_2694_23138)">
<path d="M28.251 -1.51003C29.8443 -4.79622 34.525 -4.79622 36.1182 -1.51003L40.9316 8.41791C42.3394 11.3217 40.2246 14.6981 36.998 14.6981H27.3713C24.1446 14.6981 22.0298 11.3217 23.4377 8.41791L28.251 -1.51003Z" fill="#FF76C0"/>
</g>
<path d="M18.5962 6.62968C18.4593 6.84392 18.3941 7.00199 18.3212 7.29641C18.2445 7.60628 18.2233 7.80954 18.2325 8.14664" stroke="#1A052F" stroke-width="0.982223" stroke-linecap="round"/>
<path d="M16.4497 6.62968C16.3128 6.84392 16.2476 7.00199 16.1747 7.29641C16.098 7.60628 16.0768 7.80954 16.086 8.14664" stroke="#1A052F" stroke-width="0.982223" stroke-linecap="round"/>
<path d="M17.9258 11.9059C17.9258 11.9059 19.619 12.6408 20.2347 10.4361" stroke="#1A052F" stroke-width="0.982223" stroke-linecap="round"/>
</g>
<mask id="mask1_2694_23138" style="mask-type:alpha" maskUnits="userSpaceOnUse" x="-6" y="10" width="24" height="22">
<path d="M9.96574 31.4417C14.2694 31.4417 17.8696 27.9053 16.8888 23.7148C16.8808 23.6807 16.8727 23.6466 16.8646 23.6125C16.2747 21.1303 15.41 18.875 14.3199 16.9752C13.2298 15.0755 11.9356 13.5685 10.5113 12.5404C9.08704 11.5122 7.56049 10.983 6.01885 10.983C4.47721 10.983 2.95067 11.5122 1.52638 12.5404C0.102091 13.5685 -1.19205 15.0755 -2.28215 16.9752C-3.37226 18.875 -4.23697 21.1303 -4.82693 23.6125C-4.83503 23.6466 -4.84308 23.6807 -4.85107 23.7148C-5.83185 27.9053 -2.23171 31.4417 2.07197 31.4417H9.96574Z" fill="#BD8AFF"/>
</mask>
<g mask="url(#mask1_2694_23138)">
<path d="M9.96574 31.4417C14.2694 31.4417 17.8696 27.9053 16.8888 23.7148C16.8808 23.6807 16.8727 23.6466 16.8646 23.6125C16.2747 21.1303 15.41 18.875 14.3199 16.9752C13.2298 15.0755 11.9356 13.5685 10.5113 12.5404C9.08704 11.5122 7.56049 10.983 6.01885 10.983C4.47721 10.983 2.95067 11.5122 1.52638 12.5404C0.102091 13.5685 -1.19205 15.0755 -2.28215 16.9752C-3.37226 18.875 -4.23697 21.1303 -4.82693 23.6125C-4.83503 23.6466 -4.84308 23.6807 -4.85107 23.7148C-5.83185 27.9053 -2.23171 31.4417 2.07197 31.4417H9.96574Z" fill="#B680F1"/>
<g opacity="0.8" filter="url(#filter2_f_2694_23138)">
<path d="M2.67081 38.444C6.9745 38.444 10.5746 34.9075 9.59385 30.7171C9.58586 30.6829 9.57782 30.6488 9.56972 30.6148C8.97976 28.1326 8.11504 25.8773 7.02494 23.9775C5.93483 22.0777 4.64069 20.5708 3.2164 19.5426C1.79211 18.5145 0.26557 17.9853 -1.27607 17.9853C-2.81771 17.9853 -4.34425 18.5145 -5.76854 19.5426C-7.19283 20.5708 -8.48697 22.0777 -9.57708 23.9775C-10.6672 25.8773 -11.5319 28.1326 -12.1219 30.6148C-12.13 30.6488 -12.138 30.6829 -12.146 30.7171C-13.1268 34.9075 -9.52664 38.444 -5.22295 38.444H2.67081Z" fill="#9D69DF"/>
</g>
<g filter="url(#filter3_f_2694_23138)">
<path d="M24.1161 25.8981C28.4198 25.8981 32.0199 22.3617 31.0392 18.1712C31.0312 18.1371 31.0231 18.103 31.015 18.0689C30.4251 15.5868 29.5604 13.3314 28.4702 11.4317C27.3801 9.53189 26.086 8.02492 24.6617 6.99678C23.2374 5.96863 21.7109 5.43945 20.1692 5.43945C18.6276 5.43945 17.1011 5.96863 15.6768 6.99678C14.2525 8.02492 12.9583 9.5319 11.8682 11.4317C10.7781 13.3314 9.91342 15.5868 9.32346 18.0689C9.31536 18.103 9.30731 18.1371 9.29932 18.1712C8.31854 22.3617 11.9187 25.8981 16.2224 25.8981H24.1161Z" fill="#BD8AFF"/>
</g>
<path d="M6.74072 15.7495C6.60382 15.9637 6.53864 16.1218 6.46576 16.4162C6.38905 16.7261 6.36784 16.9294 6.37705 17.2664" stroke="#1A052F" stroke-width="0.982223" stroke-linecap="round"/>
<path d="M4.59228 15.7495C4.45539 15.9637 4.3902 16.1218 4.31732 16.4162C4.24061 16.7261 4.2194 16.9294 4.22861 17.2664" stroke="#1A052F" stroke-width="0.982223" stroke-linecap="round"/>
<path d="M5.53125 20.457C5.53125 20.457 7.21927 21.2593 7.83309 18.8524" stroke="#1A052F" stroke-width="0.982223" stroke-linecap="round"/>
</g>
</g>
<defs>
<filter id="filter0_f_2694_23138" x="-6.76634" y="2.59011" width="38.8042" height="39.096" filterUnits="userSpaceOnUse" color-interpolation-filters="sRGB">
<feFlood flood-opacity="0" result="BackgroundImageFix"/>
<feBlend mode="normal" in="SourceGraphic" in2="BackgroundImageFix" result="shape"/>
<feGaussianBlur stdDeviation="5.10582" result="effect1_foregroundBlur_2694_23138"/>
</filter>
<filter id="filter1_f_2694_23138" x="12.7825" y="-14.1863" width="38.8042" height="39.096" filterUnits="userSpaceOnUse" color-interpolation-filters="sRGB">
<feFlood flood-opacity="0" result="BackgroundImageFix"/>
<feBlend mode="normal" in="SourceGraphic" in2="BackgroundImageFix" result="shape"/>
<feGaussianBlur stdDeviation="5.10582" result="effect1_foregroundBlur_2694_23138"/>
</filter>
<filter id="filter2_f_2694_23138" x="-22.5202" y="7.77364" width="42.4878" height="40.882" filterUnits="userSpaceOnUse" color-interpolation-filters="sRGB">
<feFlood flood-opacity="0" result="BackgroundImageFix"/>
<feBlend mode="normal" in="SourceGraphic" in2="BackgroundImageFix" result="shape"/>
<feGaussianBlur stdDeviation="5.10582" result="effect1_foregroundBlur_2694_23138"/>
</filter>
<filter id="filter3_f_2694_23138" x="-1.07493" y="-4.7722" width="42.4878" height="40.882" filterUnits="userSpaceOnUse" color-interpolation-filters="sRGB">
<feFlood flood-opacity="0" result="BackgroundImageFix"/>
<feBlend mode="normal" in="SourceGraphic" in2="BackgroundImageFix" result="shape"/>
<feGaussianBlur stdDeviation="5.10582" result="effect1_foregroundBlur_2694_23138"/>
</filter>
<clipPath id="clip0_2694_23138">
<rect x="0.332031" y="0.162598" width="24.0633" height="24.0633" rx="4.8125" fill="white"/>
</clipPath>
</defs>
</svg>
