<svg width="96" height="17" viewBox="0 0 96 17" fill="none" xmlns="http://www.w3.org/2000/svg">
<g clip-path="url(#clip0_2754_14680)">
<path d="M12.4725 10.6342L12.9442 15.9802L7.99995 13.8801L3.05571 15.9802L3.52735 10.6342L0 6.58616L5.23573 5.38221L7.99995 0.780273L10.7642 5.38221L15.9999 6.58616L12.4725 10.6342Z" fill="#FF8A00"/>
</g>
<g clip-path="url(#clip1_2754_14680)">
<path d="M32.4725 10.6342L32.9442 15.9802L27.9999 13.8801L23.0557 15.9802L23.5274 10.6342L20 6.58616L25.2357 5.38221L27.9999 0.780273L30.7642 5.38221L35.9999 6.58616L32.4725 10.6342Z" fill="#FF8A00"/>
</g>
<g clip-path="url(#clip2_2754_14680)">
<path d="M52.4725 10.6342L52.9442 15.9802L47.9999 13.8801L43.0557 15.9802L43.5274 10.6342L40 6.58616L45.2357 5.38221L47.9999 0.780273L50.7642 5.38221L55.9999 6.58616L52.4725 10.6342Z" fill="#FF8A00"/>
</g>
<g clip-path="url(#clip3_2754_14680)">
<path d="M72.4725 10.6342L72.9442 15.9802L67.9999 13.8801L63.0557 15.9802L63.5274 10.6342L60 6.58616L65.2357 5.38221L67.9999 0.780273L70.7642 5.38221L75.9999 6.58616L72.4725 10.6342Z" fill="#FF8A00"/>
</g>
<g clip-path="url(#clip4_2754_14680)">
<path d="M92.4725 10.6342L92.9442 15.9802L87.9999 13.8801L83.0557 15.9802L83.5274 10.6342L80 6.58616L85.2357 5.38221L87.9999 0.780273L90.7642 5.38221L95.9999 6.58616L92.4725 10.6342Z" fill="#FF8A00"/>
</g>
<defs>
<clipPath id="clip0_2754_14680">
<rect width="16" height="16" fill="white" transform="translate(0 0.381836)"/>
</clipPath>
<clipPath id="clip1_2754_14680">
<rect width="16" height="16" fill="white" transform="translate(20 0.381836)"/>
</clipPath>
<clipPath id="clip2_2754_14680">
<rect width="16" height="16" fill="white" transform="translate(40 0.381836)"/>
</clipPath>
<clipPath id="clip3_2754_14680">
<rect width="16" height="16" fill="white" transform="translate(60 0.381836)"/>
</clipPath>
<clipPath id="clip4_2754_14680">
<rect width="16" height="16" fill="white" transform="translate(80 0.381836)"/>
</clipPath>
</defs>
</svg>
