<svg width="664" height="159" viewBox="0 0 664 159" fill="none" xmlns="http://www.w3.org/2000/svg">
<g clip-path="url(#clip0_2725_27997)">
<mask id="mask0_2725_27997" style="mask-type:alpha" maskUnits="userSpaceOnUse" x="378" y="0" width="320" height="326">
<path d="M469.458 43.5299C497.143 -13.5637 578.479 -13.5637 606.164 43.5299L689.804 216.016C714.268 266.466 677.52 325.126 621.451 325.126H454.171C398.103 325.126 361.355 266.466 385.818 216.016L469.458 43.5299Z" fill="#F23FA0"/>
</mask>
<g mask="url(#mask0_2725_27997)">
<path d="M469.458 43.5299C497.143 -13.5637 578.479 -13.5637 606.164 43.5299L689.804 216.016C714.268 266.466 677.52 325.126 621.451 325.126H454.171C398.103 325.126 361.355 266.466 385.818 216.016L469.458 43.5299Z" fill="#FA41A5"/>
<g opacity="0.4" filter="url(#filter0_f_2725_27997)">
<path d="M435.838 147.73C453.311 111.69 504.645 111.69 522.118 147.73L574.906 256.609C590.346 288.456 567.153 325.484 531.766 325.484H426.19C390.803 325.484 367.61 288.456 383.05 256.609L435.838 147.73Z" fill="#CC1479"/>
</g>
<path d="M544.342 53.0136C542.841 55.3632 542.126 57.0968 541.326 60.3256C540.485 63.724 540.253 65.9531 540.354 69.6501" stroke="#1A052F" stroke-width="9.59927" stroke-linecap="round"/>
<path d="M520.791 53.0136C519.29 55.3632 518.575 57.0968 517.776 60.3256C516.934 63.724 516.702 65.9531 516.803 69.6501" stroke="#1A052F" stroke-width="9.59927" stroke-linecap="round"/>
<path d="M536.984 110.874C536.984 110.874 555.554 118.934 562.306 94.7551" stroke="#1A052F" stroke-width="9.59927" stroke-linecap="round"/>
</g>
<mask id="mask1_2725_27997" style="mask-type:alpha" maskUnits="userSpaceOnUse" x="0" y="16" width="243" height="226">
<path d="M78.1794 241.182C30.9807 241.182 -8.50206 202.398 2.25424 156.442C2.34187 156.067 2.43008 155.693 2.51891 155.319C8.98901 128.097 18.4724 103.363 30.4276 82.5282C42.3828 61.6935 56.5757 45.1664 72.1959 33.8907C87.8161 22.615 104.558 16.8115 121.465 16.8115C138.372 16.8115 155.114 22.615 170.734 33.8907C186.354 45.1664 200.547 61.6935 212.502 82.5282C224.458 103.363 233.941 128.097 240.411 155.319C240.5 155.693 240.588 156.067 240.676 156.442C251.432 202.398 211.949 241.182 164.751 241.182H78.1794Z" fill="#BD8AFF"/>
</mask>
<g mask="url(#mask1_2725_27997)">
<path d="M78.1794 241.182C30.9807 241.182 -8.50206 202.398 2.25424 156.442C2.34187 156.067 2.43008 155.693 2.51891 155.319C8.98901 128.097 18.4724 103.363 30.4276 82.5282C42.3828 61.6935 56.5757 45.1664 72.1959 33.8907C87.8161 22.615 104.558 16.8115 121.465 16.8115C138.372 16.8115 155.114 22.615 170.734 33.8907C186.354 45.1664 200.547 61.6935 212.502 82.5282C224.458 103.363 233.941 128.097 240.411 155.319C240.5 155.693 240.588 156.067 240.676 156.442C251.432 202.398 211.949 241.182 164.751 241.182H78.1794Z" fill="#B680F1"/>
<g opacity="0.8" filter="url(#filter1_f_2725_27997)">
<path d="M158.175 317.977C110.977 317.977 71.494 279.192 82.2503 233.236C82.338 232.861 82.4262 232.487 82.515 232.114C88.9851 204.892 98.4685 180.157 110.424 159.322C122.379 138.488 136.572 121.961 152.192 110.685C167.812 99.4092 184.554 93.6057 201.461 93.6057C218.368 93.6057 235.11 99.4092 250.73 110.685C266.35 121.961 280.543 138.488 292.498 159.322C304.454 180.157 313.937 204.892 320.407 232.114C320.496 232.487 320.584 232.861 320.672 233.236C331.428 279.192 291.945 317.977 244.747 317.977H158.175Z" fill="#9D69DF"/>
</g>
<path d="M113.558 69.0827C115.06 71.4323 115.775 73.1658 116.574 76.3947C117.415 79.7931 117.648 82.0222 117.547 85.7192" stroke="#1A052F" stroke-width="9.59927" stroke-linecap="round"/>
<path d="M137.105 69.0832C138.607 71.4328 139.322 73.1663 140.121 76.3952C140.962 79.7936 141.195 82.0227 141.094 85.7197" stroke="#1A052F" stroke-width="9.59927" stroke-linecap="round"/>
<path d="M126.818 120.714C126.818 120.714 108.306 129.513 101.574 103.116" stroke="#1A052F" stroke-width="9.59927" stroke-linecap="round"/>
</g>
</g>
<defs>
<filter id="filter0_f_2725_27997" x="266.194" y="8.70824" width="425.567" height="428.767" filterUnits="userSpaceOnUse" color-interpolation-filters="sRGB">
<feFlood flood-opacity="0" result="BackgroundImageFix"/>
<feBlend mode="normal" in="SourceGraphic" in2="BackgroundImageFix" result="shape"/>
<feGaussianBlur stdDeviation="55.9957" result="effect1_foregroundBlur_2725_27997"/>
</filter>
<filter id="filter1_f_2725_27997" x="-31.5247" y="-18.3858" width="465.971" height="448.354" filterUnits="userSpaceOnUse" color-interpolation-filters="sRGB">
<feFlood flood-opacity="0" result="BackgroundImageFix"/>
<feBlend mode="normal" in="SourceGraphic" in2="BackgroundImageFix" result="shape"/>
<feGaussianBlur stdDeviation="55.9957" result="effect1_foregroundBlur_2725_27997"/>
</filter>
<clipPath id="clip0_2725_27997">
<rect width="662.708" height="157.951" fill="white" transform="translate(0.648438 0.637207)"/>
</clipPath>
</defs>
</svg>
