<svg width="26" height="57" viewBox="0 0 26 57" fill="none" xmlns="http://www.w3.org/2000/svg">
<path d="M9.71155 50.0553C9.87055 50.0116 10.032 49.9722 10.1951 49.9362C10.3593 49.8994 10.5283 49.8634 10.6979 49.8329C11.0373 49.7708 11.3832 49.7234 11.7348 49.6904C11.9105 49.6739 12.0872 49.6613 12.2654 49.6522C12.4444 49.6422 12.6202 49.6403 12.8064 49.632C13.1746 49.6203 13.5475 49.6223 13.9224 49.6397C14.1099 49.6484 14.2957 49.6606 14.4798 49.6763C14.666 49.6896 14.8551 49.7013 15.0399 49.7192C15.4107 49.7537 15.7738 49.8019 16.1297 49.8639C16.4932 49.9159 16.8526 49.9759 17.2026 50.0524C17.3788 50.0888 17.5489 50.1348 17.7247 50.1733C17.9007 50.2107 18.075 50.2515 18.2476 50.2959C18.4197 50.3401 18.5907 50.3874 18.7589 50.4385L19.0104 50.5177L19.2658 50.5906C19.6048 50.69 19.9365 50.8038 20.2615 50.9309C20.5915 51.0476 20.92 51.1672 21.2395 51.3069C21.5563 51.453 21.8809 51.5795 22.1958 51.7302C21.979 52.3081 21.6967 52.8605 21.3385 53.3727C21.1594 53.6288 20.9612 53.8745 20.7429 54.1082C20.5255 54.3403 20.2847 54.5677 20.0292 54.7652C19.5166 55.1662 18.9203 55.5073 18.2373 55.7717C17.8934 55.9084 17.5388 56.0049 17.1599 56.0864C16.7812 56.1669 16.3817 56.2248 15.9611 56.2586C15.7491 56.279 15.5443 56.2769 15.3327 56.2769C15.122 56.2749 14.9095 56.2671 14.6951 56.2526C14.2668 56.2231 13.8264 56.1764 13.401 56.0812C12.9714 55.9917 12.5379 55.8784 12.104 55.7429C11.6768 55.5999 11.2572 55.4255 10.8366 55.2358C10.628 55.1388 10.4145 55.0426 10.2127 54.9312C10.0111 54.8193 9.81023 54.7027 9.61126 54.5816C9.4123 54.4605 9.21469 54.3347 9.01948 54.2046C8.92222 54.139 8.82322 54.0742 8.72869 54.0054C8.63548 53.9352 8.54237 53.8644 8.45005 53.7922C8.08069 53.5038 7.72116 53.1994 7.37369 52.8814C7.0393 52.5534 6.71821 52.211 6.41178 51.8589C7.29337 50.9944 8.43819 50.4034 9.71153 50.0553L9.71155 50.0553Z" fill="#1A052F"/>
<path d="M8.36727 39.0087C8.65432 39.0882 8.93354 39.1847 9.22368 39.2895C9.51496 39.394 9.8055 39.5118 10.0937 39.6433C10.3836 39.7739 10.6564 39.9188 10.9319 40.0674C11.2104 40.2138 11.4796 40.3704 11.7382 40.5354C12.246 40.8723 12.7587 41.2182 13.2135 41.6083L13.3831 41.7555L13.5569 41.9008C13.6716 41.9985 13.7845 42.098 13.8942 42.1997C14.004 42.3014 14.1112 42.4053 14.2158 42.5115C14.3211 42.6172 14.4202 42.7272 14.528 42.8313C14.9514 43.253 15.3172 43.7212 15.688 44.1854C14.9049 44.8878 13.9552 45.4167 12.8635 45.6507C12.3233 45.7642 11.7471 45.8045 11.1392 45.7612C10.5246 45.7222 9.9072 45.5797 9.26046 45.3471C7.96497 44.8835 6.77589 44.044 5.7684 42.9687C5.51676 42.6999 5.29086 42.4103 5.06625 42.1135C4.95508 41.9647 4.84654 41.8131 4.74065 41.6588C4.68858 41.5813 4.63424 41.5044 4.58567 41.4253L4.44322 41.1849C4.25598 40.8623 4.0805 40.531 3.91849 40.1934L3.79953 39.9388C3.76122 39.8534 3.72807 39.7663 3.69378 39.6795C3.62581 39.5055 3.56127 39.3304 3.50013 39.1543C4.46907 38.7366 5.54985 38.5986 6.66088 38.6963C7.22435 38.7442 7.79675 38.8486 8.36739 39.0086L8.36727 39.0087Z" fill="#1A052F"/>
<path d="M4.26793 29.128C4.48156 29.1779 4.69943 29.2404 4.91311 29.3146C5.34194 29.4637 5.76459 29.6603 6.17332 29.9022C6.37769 30.0232 6.57899 30.1555 6.77566 30.2989C6.97348 30.4419 7.17775 30.5941 7.3718 30.7585C7.56698 30.9226 7.75295 31.0931 7.92866 31.27C8.10437 31.4468 8.26713 31.6299 8.43648 31.8153C8.60138 32.0015 8.75726 32.1932 8.90254 32.3899C8.97518 32.4883 9.04546 32.5879 9.11337 32.6887C9.18076 32.7894 9.2457 32.8918 9.31517 32.9929C9.45063 33.1965 9.57619 33.4044 9.69185 33.6164C9.74969 33.7224 9.80463 33.8296 9.85774 33.938C9.91033 34.0463 9.95949 34.1557 10.0143 34.2638C10.1199 34.4811 10.2157 34.702 10.3012 34.9265C10.3438 35.039 10.3843 35.1522 10.4218 35.2665L10.4767 35.4383L10.5345 35.6089C10.1385 35.7692 9.72411 35.8843 9.29567 35.9475C8.86838 36.0102 8.43416 36.0174 7.99001 35.9646C7.54692 35.9121 7.09676 35.7985 6.64603 35.6181C6.18956 35.4393 5.75694 35.1861 5.32761 34.8624C5.11323 34.7003 4.90654 34.5251 4.70756 34.3366C4.65766 34.2896 4.60847 34.2417 4.55989 34.1933C4.51307 34.1441 4.46747 34.0941 4.42196 34.0436C4.33095 33.9425 4.24266 33.8381 4.15641 33.7314C3.98347 33.5174 3.81995 33.2927 3.66506 33.0587C3.58823 32.9412 3.51157 32.8227 3.4415 32.7006C3.37413 32.5783 3.3088 32.4538 3.24652 32.3271C2.73468 31.3173 2.42706 30.1782 2.34439 29.0339C2.76723 28.972 3.19714 28.9679 3.62641 29.0164C3.84026 29.0405 4.05496 29.0782 4.26807 29.1281L4.26793 29.128Z" fill="#1A052F"/>
<path d="M5.18319 21.2518C5.51259 21.4519 5.82701 21.6913 6.12227 21.9661C6.41806 22.241 6.68659 22.5516 6.95491 22.897C7.21791 23.2421 7.443 23.6037 7.6311 23.9766L7.69962 24.1168L7.77119 24.258C7.81753 24.3529 7.86168 24.4479 7.90347 24.5441C7.98715 24.736 8.06182 24.93 8.12697 25.1262C8.19431 25.3222 8.2434 25.5209 8.29997 25.7198C8.35594 25.9192 8.40247 26.1202 8.43966 26.3222C8.47686 26.5242 8.50524 26.7274 8.52419 26.9321L8.53713 27.0852L8.55331 27.2382C8.56278 27.3406 8.57017 27.4426 8.57476 27.5452C7.85043 27.6344 7.10639 27.5596 6.38732 27.2852C5.68285 27.01 5.01097 26.5344 4.42241 25.8381C4.14009 25.4896 3.89925 25.1042 3.69335 24.6916C3.59228 24.4854 3.49405 24.2721 3.41725 24.0535C3.342 23.8351 3.27631 23.6114 3.22051 23.3835C2.98231 22.4714 2.96054 21.4982 3.08402 20.5566C3.81051 20.6083 4.52315 20.852 5.18312 21.2518L5.18319 21.2518Z" fill="#1A052F"/>
<path d="M7.56522 15.9805C7.65609 16.0977 7.73959 16.2201 7.82189 16.3492C7.90629 16.4788 7.98531 16.6144 8.05854 16.7554C8.20551 17.0375 8.3224 17.3284 8.41049 17.6239C8.45662 17.772 8.48724 17.9196 8.52479 18.0705C8.56026 18.2211 8.58857 18.3725 8.61043 18.5239C8.65353 18.8271 8.66837 19.1318 8.65602 19.435C8.64667 19.5863 8.64568 19.739 8.63101 19.8899C8.6179 20.0411 8.59791 20.1916 8.57113 20.3409C8.0334 20.2906 7.50842 20.1186 7.03383 19.8133C6.79678 19.6607 6.57092 19.4751 6.36455 19.2552C6.16496 19.0365 5.98363 18.7844 5.82597 18.4988C5.66841 18.2126 5.54161 17.9076 5.44561 17.5897C5.39505 17.43 5.36298 17.2693 5.33564 17.1062C5.30839 16.9425 5.28901 16.777 5.27688 16.6101C5.26475 16.4432 5.26048 16.2744 5.26267 16.1057C5.26589 15.9372 5.2721 15.7671 5.29773 15.5998C5.34376 15.2643 5.41732 14.9315 5.51784 14.6078C6.04315 14.7319 6.53685 14.9899 6.96818 15.3549C7.18491 15.5373 7.385 15.7469 7.56527 15.9805L7.56522 15.9805Z" fill="#1A052F"/>
<path d="M9.9489 12.2403C9.96328 12.37 9.97886 12.5019 9.98746 12.6338C9.99606 12.7656 9.99831 12.8968 9.99481 13.0271C9.98771 13.2881 9.95675 13.5471 9.90255 13.8003C9.85443 14.0557 9.79126 14.308 9.70165 14.5512C9.25654 14.4305 8.83994 14.2086 8.48442 13.8844C8.30666 13.7223 8.14421 13.5344 8.00074 13.3212C7.86039 13.1086 7.74562 12.8731 7.65262 12.6117C7.47009 12.0907 7.38854 11.519 7.44832 10.9582C7.47409 10.6768 7.52532 10.3944 7.60021 10.1184C7.63544 9.97922 7.68389 9.84449 7.73781 9.71234C7.7913 9.57958 7.85035 9.44887 7.91478 9.32126C8.3419 9.4954 8.72387 9.77631 9.03764 10.1389C9.19578 10.3207 9.3323 10.5214 9.45695 10.7436C9.58265 10.966 9.68952 11.2067 9.77411 11.4638C9.85836 11.7199 9.91606 11.9799 9.9489 12.2404L9.9489 12.2403Z" fill="#1A052F"/>
<path d="M11.9764 8.86286C11.8571 9.29436 11.6641 9.69974 11.4032 10.058C10.716 9.65987 10.2186 8.95328 10.1212 8.00395C10.1091 7.88539 10.1024 7.76563 10.1046 7.6474C10.1082 7.53013 10.1185 7.41263 10.1346 7.29575C10.1666 7.06134 10.2225 6.82845 10.3001 6.60083C10.4471 6.141 10.7104 5.72423 11.0221 5.35489C11.342 5.59013 11.6033 5.9043 11.7919 6.27223C11.8858 6.45637 11.9619 6.65407 12.0176 6.86288C12.0747 7.07266 12.1046 7.28826 12.1258 7.5223C12.1628 7.98603 12.1084 8.4394 11.9765 8.86277L11.9764 8.86286Z" fill="#1A052F"/>
<path d="M14.8741 5.23156C14.7654 5.66587 14.5826 6.0759 14.3306 6.4405C13.6338 6.05942 13.1191 5.3653 12.9983 4.41866C12.9833 4.30044 12.9736 4.18089 12.9729 4.06264C12.9736 3.94532 12.981 3.8276 12.9943 3.71036C13.0205 3.47523 13.0706 3.24102 13.1425 3.01156C13.2782 2.54825 13.531 2.12512 13.8335 1.7482C14.1592 1.97547 14.4282 2.2831 14.6257 2.64627C14.7242 2.82804 14.8052 3.0238 14.866 3.23118C14.9282 3.43948 14.9635 3.65428 14.9904 3.88773C15.0389 4.3504 14.9956 4.80498 14.8742 5.23147L14.8741 5.23156Z" fill="#1A052F"/>
</svg>
