<svg width="25" height="56" viewBox="0 0 25 56" fill="none" xmlns="http://www.w3.org/2000/svg">
<path d="M16.1274 49.0971C15.9689 49.0534 15.8079 49.014 15.6455 48.978C15.4818 48.9412 15.3134 48.9052 15.1443 48.8747C14.8061 48.8126 14.4612 48.7652 14.1109 48.7322C13.9357 48.7157 13.7596 48.7031 13.582 48.694C13.4036 48.684 13.2283 48.6821 13.0428 48.6739C12.6758 48.6621 12.3042 48.6641 11.9305 48.6815C11.7436 48.6902 11.5584 48.7024 11.3749 48.7181C11.1894 48.7314 11.0009 48.7431 10.8168 48.761C10.4471 48.7955 10.0852 48.8437 9.73059 48.9057C9.3683 48.9577 9.01007 49.0177 8.66121 49.0943C8.48563 49.1306 8.31604 49.1767 8.14083 49.2151C7.96544 49.2525 7.79172 49.2933 7.61969 49.3377C7.44817 49.3819 7.27773 49.4292 7.11011 49.4803L6.85938 49.5595L6.60486 49.6324C6.26698 49.7318 5.93643 49.8456 5.61252 49.9727C5.28355 50.0894 4.95619 50.209 4.63769 50.3487C4.32193 50.4948 3.99845 50.6213 3.68456 50.772C3.90065 51.3499 4.18204 51.9023 4.53903 52.4146C4.71753 52.6706 4.91514 52.9164 5.13263 53.15C5.34932 53.3821 5.58937 53.6095 5.84399 53.807C6.35487 54.208 6.94919 54.5491 7.62992 54.8136C7.97267 54.9502 8.32609 55.0467 8.70373 55.1282C9.08117 55.2087 9.47938 55.2667 9.89856 55.3004C10.1098 55.3208 10.314 55.3187 10.5249 55.3187C10.7349 55.3167 10.9466 55.309 11.1604 55.2944C11.5873 55.2649 12.0262 55.2182 12.4502 55.123C12.8783 55.0335 13.3104 54.9202 13.7429 54.7847C14.1687 54.6418 14.5868 54.4673 15.006 54.2776C15.2139 54.1807 15.4268 54.0844 15.6279 53.973C15.8289 53.8611 16.029 53.7445 16.2273 53.6234C16.4256 53.5023 16.6226 53.3765 16.8171 53.2464C16.9141 53.1808 17.0127 53.116 17.107 53.0472C17.1999 52.977 17.2927 52.9062 17.3847 52.834C17.7528 52.5456 18.1111 52.2412 18.4575 51.9232C18.7907 51.5952 19.1108 51.2528 19.4162 50.9007C18.5375 50.0362 17.3965 49.4452 16.1274 49.0971Z" fill="#1A052F"/>
<path d="M17.4675 38.0503C17.1814 38.1298 16.9031 38.2263 16.6139 38.3311C16.3236 38.4356 16.0341 38.5534 15.7469 38.6849C15.4579 38.8155 15.1859 38.9604 14.9114 39.109C14.6338 39.2554 14.3655 39.412 14.1078 39.577C13.6017 39.9139 13.0907 40.2598 12.6373 40.6499L12.4683 40.7971L12.2951 40.9424C12.1808 41.0401 12.0683 41.1396 11.9589 41.2413C11.8495 41.343 11.7427 41.4469 11.6384 41.5531C11.5334 41.6588 11.4346 41.7688 11.3273 41.8729C10.9052 42.2946 10.5407 42.7628 10.1711 43.227C10.9516 43.9294 11.8981 44.4583 12.9862 44.6923C13.5246 44.8058 14.099 44.8461 14.7048 44.8028C15.3173 44.7638 15.9327 44.6213 16.5773 44.3887C17.8685 43.9251 19.0536 43.0856 20.0577 42.0103C20.3085 41.7415 20.5337 41.4519 20.7576 41.1551C20.8684 41.0063 20.9765 40.8547 21.0821 40.7004C21.134 40.6229 21.1881 40.546 21.2365 40.4669L21.3785 40.2265C21.5651 39.9039 21.74 39.5726 21.9015 39.235L22.0201 38.9804C22.0582 38.895 22.0913 38.8079 22.1255 38.7211C22.1932 38.5471 22.2575 38.372 22.3185 38.1959C21.3528 37.7782 20.2756 37.6402 19.1682 37.7379C18.6066 37.7858 18.0361 37.8902 17.4674 38.0502L17.4675 38.0503Z" fill="#1A052F"/>
<path d="M21.552 28.1698C21.339 28.2197 21.1219 28.2822 20.9089 28.3564C20.4815 28.5055 20.0603 28.7021 19.6529 28.944C19.4492 29.065 19.2486 29.1974 19.0525 29.3407C18.8554 29.4837 18.6518 29.6359 18.4584 29.8003C18.2639 29.9644 18.0785 30.1349 17.9034 30.3118C17.7283 30.4886 17.566 30.6717 17.3972 30.8571C17.2329 31.0433 17.0775 31.235 16.9327 31.4318C16.8603 31.5301 16.7903 31.6297 16.7226 31.7305C16.6554 31.8312 16.5907 31.9336 16.5215 32.0347C16.3865 32.2383 16.2613 32.4462 16.146 32.6582C16.0884 32.7643 16.0336 32.8714 15.9807 32.9798C15.9283 33.0881 15.8793 33.1975 15.8247 33.3056C15.7195 33.5229 15.624 33.7438 15.5388 33.9683C15.4962 34.0808 15.4559 34.194 15.4185 34.3083L15.3638 34.4801L15.3062 34.6507C15.7009 34.8111 16.1139 34.9262 16.5409 34.9893C16.9668 35.052 17.3996 35.0592 17.8422 35.0065C18.2839 34.9539 18.7325 34.8403 19.1818 34.6599C19.6367 34.4811 20.0679 34.2279 20.4958 33.9042C20.7095 33.7421 20.9155 33.5669 21.1138 33.3785C21.1635 33.3315 21.2125 33.2835 21.261 33.2351C21.3076 33.186 21.3531 33.1359 21.3984 33.0854C21.4891 32.9843 21.5771 32.88 21.6631 32.7732C21.8355 32.5592 21.9984 32.3345 22.1528 32.1005C22.2294 31.983 22.3058 31.8646 22.3756 31.7424C22.4428 31.6202 22.5079 31.4956 22.57 31.3689C23.0801 30.3592 23.3867 29.22 23.4691 28.0757C23.0477 28.0138 22.6192 28.0097 22.1913 28.0582C21.9782 28.0823 21.7642 28.12 21.5518 28.1699L21.552 28.1698Z" fill="#1A052F"/>
<path d="M20.6381 20.2997C20.3097 20.4998 19.9964 20.7392 19.7021 21.014C19.4073 21.289 19.1396 21.5995 18.8722 21.945C18.6101 22.29 18.3858 22.6516 18.1983 23.0245L18.13 23.1647L18.0587 23.306C18.0125 23.4008 17.9685 23.4958 17.9268 23.592C17.8434 23.7839 17.769 23.9779 17.7041 24.1741C17.6369 24.3701 17.588 24.5688 17.5316 24.7678C17.4758 24.9671 17.4295 25.1681 17.3924 25.3701C17.3553 25.5721 17.327 25.7753 17.3082 25.98L17.2953 26.1331L17.2791 26.2861C17.2697 26.3885 17.2623 26.4905 17.2577 26.5931C17.9797 26.6823 18.7212 26.6075 19.4379 26.3331C20.1401 26.0579 20.8097 25.5823 21.3963 24.886C21.6777 24.5375 21.9177 24.1522 22.1229 23.7396C22.2237 23.5333 22.3216 23.32 22.3981 23.1014C22.4731 22.883 22.5386 22.6593 22.5942 22.4314C22.8316 21.5193 22.8533 20.5461 22.7303 19.6045C22.0062 19.6562 21.2959 19.8999 20.6381 20.2997L20.6381 20.2997Z" fill="#1A052F"/>
<path d="M18.2664 15.0222C18.1758 15.1394 18.0926 15.2618 18.0106 15.391C17.9264 15.5205 17.8477 15.6561 17.7747 15.7971C17.6282 16.0793 17.5117 16.3702 17.4239 16.6657C17.3779 16.8138 17.3474 16.9613 17.31 17.1123C17.2746 17.2628 17.2464 17.4143 17.2247 17.5657C17.1817 17.8689 17.1669 18.1736 17.1792 18.4767C17.1885 18.628 17.1895 18.7808 17.2041 18.9317C17.2172 19.0828 17.2371 19.2333 17.2638 19.3827C17.7998 19.3323 18.323 19.1604 18.796 18.8551C19.0323 18.7025 19.2574 18.5169 19.4631 18.297C19.662 18.0783 19.8427 17.8262 19.9999 17.5405C20.1569 17.2543 20.2833 16.9493 20.3789 16.6314C20.4293 16.4718 20.4613 16.311 20.4886 16.1479C20.5157 15.9843 20.535 15.8188 20.5471 15.6519C20.5592 15.485 20.5635 15.3162 20.5613 15.1475C20.5581 14.979 20.5519 14.8088 20.5263 14.6415C20.4805 14.3061 20.4071 13.9733 20.307 13.6495C19.7834 13.7736 19.2913 14.0316 18.8614 14.3966C18.6454 14.579 18.446 14.7886 18.2663 15.0223L18.2664 15.0222Z" fill="#1A052F"/>
<path d="M15.8907 11.2882C15.8764 11.4178 15.8608 11.5498 15.8523 11.6816C15.8437 11.8134 15.8415 11.9447 15.8449 12.0749C15.852 12.3359 15.8829 12.5949 15.9369 12.8482C15.9849 13.1036 16.0478 13.3558 16.1371 13.5991C16.5808 13.4783 16.996 13.2565 17.3503 12.9323C17.5275 12.7702 17.6894 12.5822 17.8324 12.3691C17.9723 12.1565 18.0867 11.9209 18.1794 11.6596C18.3613 11.1385 18.4426 10.5668 18.383 10.006C18.3573 9.72462 18.3062 9.4423 18.2316 9.16628C18.1965 9.02707 18.1482 8.89234 18.0944 8.76019C18.0411 8.62744 17.9823 8.49672 17.9181 8.36911C17.4924 8.54325 17.1117 8.82416 16.7989 9.18679C16.6413 9.3686 16.5052 9.56921 16.381 9.79145C16.2557 10.0139 16.1492 10.2545 16.0649 10.5117C15.9809 10.7677 15.9234 11.0278 15.8907 11.2882L15.8907 11.2882Z" fill="#1A052F"/>
<path d="M13.8683 7.91071C13.9873 8.34221 14.1796 8.7476 14.4396 9.10588C15.1246 8.70773 15.6203 8.00113 15.7174 7.0518C15.7294 6.93324 15.7361 6.81349 15.7339 6.69525C15.7304 6.57799 15.7201 6.46048 15.704 6.34361C15.6721 6.1092 15.6164 5.8763 15.5391 5.64868C15.3925 5.18885 15.1302 4.77209 14.8195 4.40274C14.5006 4.63798 14.2402 4.95215 14.0523 5.32008C13.9586 5.50423 13.8828 5.70192 13.8273 5.91073C13.7704 6.12051 13.7405 6.33611 13.7194 6.57015C13.6825 7.03388 13.7368 7.48725 13.8683 7.91062L13.8683 7.91071Z" fill="#1A052F"/>
<path d="M10.9806 4.27948C11.0889 4.71378 11.2712 5.12381 11.5224 5.48841C12.2169 5.10733 12.7298 4.41322 12.8502 3.46658C12.8652 3.34835 12.8748 3.2288 12.8755 3.11055C12.8749 2.99323 12.8675 2.87551 12.8542 2.75827C12.8281 2.52314 12.7782 2.28894 12.7065 2.05948C12.5713 1.59616 12.3193 1.17303 12.0178 0.796109C11.6932 1.02338 11.4251 1.33102 11.2282 1.69418C11.1301 1.87596 11.0494 2.07172 10.9887 2.27909C10.9267 2.4874 10.8916 2.70219 10.8647 2.93564C10.8164 3.39832 10.8596 3.85289 10.9806 4.27939L10.9806 4.27948Z" fill="#1A052F"/>
</svg>
