<svg width="351" height="159" viewBox="0 0 351 159" fill="none" xmlns="http://www.w3.org/2000/svg">
<g clip-path="url(#clip0_2696_31382)">
<mask id="mask0_2696_31382" style="mask-type:alpha" maskUnits="userSpaceOnUse" x="149" y="59" width="203" height="206">
<path d="M207.155 86.7557C224.62 50.7384 275.931 50.7383 293.396 86.7557L346.16 195.568C361.593 227.394 338.41 264.4 303.04 264.4H197.511C162.141 264.4 138.958 227.394 154.391 195.568L207.155 86.7557Z" fill="#F23FA0"/>
</mask>
<g mask="url(#mask0_2696_31382)">
<path d="M207.155 86.7557C224.62 50.7384 275.931 50.7383 293.396 86.7557L346.16 195.568C361.593 227.394 338.41 264.4 303.04 264.4H197.511C162.141 264.4 138.958 227.394 154.391 195.568L207.155 86.7557Z" fill="#FA41A5"/>
<g opacity="0.4" filter="url(#filter0_f_2696_31382)">
<path d="M185.948 152.49C196.971 129.755 229.355 129.755 240.377 152.49L273.679 221.177C283.419 241.267 268.788 264.626 246.464 264.626H179.861C157.538 264.626 142.906 241.267 152.647 221.177L185.948 152.49Z" fill="#CC1479"/>
</g>
<path d="M254.396 92.7385C253.449 94.2207 252.998 95.3143 252.493 97.3513C251.963 99.4951 251.816 100.901 251.88 103.234" stroke="#1A052F" stroke-width="6.05568" stroke-linecap="round"/>
<path d="M239.538 92.7385C238.591 94.2207 238.14 95.3143 237.636 97.3513C237.105 99.4951 236.959 100.901 237.022 103.234" stroke="#1A052F" stroke-width="6.05568" stroke-linecap="round"/>
<path d="M249.754 129.24C249.754 129.24 261.468 134.324 265.728 119.071" stroke="#1A052F" stroke-width="6.05568" stroke-linecap="round"/>
</g>
<mask id="mask1_2696_31382" style="mask-type:alpha" maskUnits="userSpaceOnUse" x="28" y="69" width="153" height="143">
<path d="M77.0267 211.444C47.2515 211.444 22.3439 186.977 29.1295 157.986C29.1848 157.749 29.2404 157.513 29.2964 157.278C33.3781 140.105 39.3607 124.501 46.9026 111.358C54.4445 98.2141 63.398 87.788 73.252 80.6748C83.106 73.5615 93.6674 69.9004 104.333 69.9004C114.999 69.9004 125.561 73.5615 135.415 80.6748C145.269 87.788 154.222 98.2141 161.764 111.358C169.306 124.501 175.289 140.105 179.37 157.278C179.426 157.514 179.482 157.749 179.537 157.986C186.323 186.977 161.415 211.444 131.64 211.444H77.0267Z" fill="#BD8AFF"/>
</mask>
<g mask="url(#mask1_2696_31382)">
<path d="M77.0267 211.444C47.2515 211.444 22.3439 186.977 29.1295 157.986C29.1848 157.749 29.2404 157.513 29.2964 157.278C33.3781 140.105 39.3607 124.501 46.9026 111.358C54.4445 98.2141 63.398 87.788 73.252 80.6748C83.106 73.5615 93.6674 69.9004 104.333 69.9004C114.999 69.9004 125.561 73.5615 135.415 80.6748C145.269 87.788 154.222 98.2141 161.764 111.358C169.306 124.501 175.289 140.105 179.37 157.278C179.426 157.514 179.482 157.749 179.537 157.986C186.323 186.977 161.415 211.444 131.64 211.444H77.0267Z" fill="#B680F1"/>
<g opacity="0.8" filter="url(#filter1_f_2696_31382)">
<path d="M127.492 259.89C97.7164 259.89 72.8087 235.423 79.5943 206.431C79.6496 206.195 79.7052 205.959 79.7613 205.723C83.8429 188.55 89.8255 172.946 97.3674 159.803C104.909 146.659 113.863 136.233 123.717 129.12C133.571 122.007 144.132 118.346 154.798 118.346C165.464 118.346 176.025 122.007 185.879 129.12C195.733 136.233 204.687 146.659 212.229 159.803C219.771 172.947 225.753 188.55 229.835 205.723C229.891 205.959 229.947 206.195 230.002 206.431C236.788 235.423 211.88 259.89 182.105 259.89H127.492Z" fill="#9D69DF"/>
</g>
<path d="M99.3464 102.875C100.294 104.357 100.745 105.451 101.249 107.488C101.779 109.632 101.926 111.038 101.862 113.37" stroke="#1A052F" stroke-width="6.05568" stroke-linecap="round"/>
<path d="M114.2 102.876C115.147 104.358 115.598 105.452 116.102 107.489C116.633 109.633 116.78 111.039 116.716 113.371" stroke="#1A052F" stroke-width="6.05568" stroke-linecap="round"/>
<path d="M107.711 135.447C107.711 135.447 96.0323 140.998 91.7856 124.346" stroke="#1A052F" stroke-width="6.05568" stroke-linecap="round"/>
</g>
</g>
<defs>
<filter id="filter0_f_2696_31382" x="78.9285" y="64.7889" width="268.469" height="270.487" filterUnits="userSpaceOnUse" color-interpolation-filters="sRGB">
<feFlood flood-opacity="0" result="BackgroundImageFix"/>
<feBlend mode="normal" in="SourceGraphic" in2="BackgroundImageFix" result="shape"/>
<feGaussianBlur stdDeviation="35.3248" result="effect1_foregroundBlur_2696_31382"/>
</filter>
<filter id="filter1_f_2696_31382" x="7.81917" y="47.6961" width="293.957" height="282.843" filterUnits="userSpaceOnUse" color-interpolation-filters="sRGB">
<feFlood flood-opacity="0" result="BackgroundImageFix"/>
<feBlend mode="normal" in="SourceGraphic" in2="BackgroundImageFix" result="shape"/>
<feGaussianBlur stdDeviation="35.3248" result="effect1_foregroundBlur_2696_31382"/>
</filter>
<clipPath id="clip0_2696_31382">
<path d="M0 0.40918H351V134.409C351 147.664 340.255 158.409 327 158.409H24C10.7452 158.409 0 147.664 0 134.409V0.40918Z" fill="white"/>
</clipPath>
</defs>
</svg>
