<svg width="96" height="17" viewBox="0 0 96 17" fill="none" xmlns="http://www.w3.org/2000/svg">
<g clip-path="url(#clip0_2695_30761)">
<path d="M12.4725 10.9189L12.9442 16.2649L7.99995 14.1648L3.05571 16.2649L3.52735 10.9189L0 6.87083L5.23573 5.66688L7.99995 1.06494L10.7642 5.66688L15.9999 6.87083L12.4725 10.9189Z" fill="#FF8A00"/>
</g>
<g clip-path="url(#clip1_2695_30761)">
<path d="M32.4725 10.9189L32.9442 16.2649L28 14.1648L23.0557 16.2649L23.5274 10.9189L20 6.87083L25.2357 5.66688L28 1.06494L30.7642 5.66688L35.9999 6.87083L32.4725 10.9189Z" fill="#FF8A00"/>
</g>
<g clip-path="url(#clip2_2695_30761)">
<path d="M52.4725 10.9189L52.9442 16.2649L48 14.1648L43.0557 16.2649L43.5274 10.9189L40 6.87083L45.2357 5.66688L48 1.06494L50.7642 5.66688L55.9999 6.87083L52.4725 10.9189Z" fill="#FF8A00"/>
</g>
<g clip-path="url(#clip3_2695_30761)">
<path d="M72.4725 10.9189L72.9442 16.2649L68 14.1648L63.0557 16.2649L63.5274 10.9189L60 6.87083L65.2357 5.66688L68 1.06494L70.7642 5.66688L75.9999 6.87083L72.4725 10.9189Z" fill="#FF8A00"/>
</g>
<g clip-path="url(#clip4_2695_30761)">
<path d="M92.4725 10.9189L92.9442 16.2649L88 14.1648L83.0557 16.2649L83.5274 10.9189L80 6.87083L85.2357 5.66688L88 1.06494L90.7642 5.66688L95.9999 6.87083L92.4725 10.9189Z" fill="#FF8A00"/>
</g>
<defs>
<clipPath id="clip0_2695_30761">
<rect width="16" height="16" fill="white" transform="translate(0 0.666504)"/>
</clipPath>
<clipPath id="clip1_2695_30761">
<rect width="16" height="16" fill="white" transform="translate(20 0.666504)"/>
</clipPath>
<clipPath id="clip2_2695_30761">
<rect width="16" height="16" fill="white" transform="translate(40 0.666504)"/>
</clipPath>
<clipPath id="clip3_2695_30761">
<rect width="16" height="16" fill="white" transform="translate(60 0.666504)"/>
</clipPath>
<clipPath id="clip4_2695_30761">
<rect width="16" height="16" fill="white" transform="translate(80 0.666504)"/>
</clipPath>
</defs>
</svg>
