<svg width="25" height="57" viewBox="0 0 25 57" fill="none" xmlns="http://www.w3.org/2000/svg">
<path d="M16.1293 49.7841C15.9709 49.7405 15.8099 49.701 15.6474 49.665C15.4837 49.6282 15.3153 49.5922 15.1463 49.5617C14.808 49.4996 14.4632 49.4522 14.1128 49.4192C13.9377 49.4027 13.7616 49.3901 13.5839 49.381C13.4056 49.371 13.2303 49.3691 13.0448 49.3609C12.6778 49.3491 12.3061 49.3511 11.9324 49.3685C11.7456 49.3772 11.5604 49.3894 11.3769 49.4051C11.1914 49.4184 11.0029 49.4301 10.8187 49.448C10.4491 49.4825 10.0872 49.5307 9.73254 49.5927C9.37025 49.6447 9.01202 49.7047 8.66316 49.7813C8.48758 49.8176 8.31799 49.8637 8.14278 49.9021C7.96739 49.9395 7.79368 49.9803 7.62164 50.0247C7.45013 50.0689 7.27968 50.1162 7.11206 50.1673L6.86133 50.2465L6.60682 50.3194C6.26893 50.4188 5.93838 50.5326 5.61447 50.6597C5.2855 50.7764 4.95814 50.896 4.63964 51.0357C4.32389 51.1818 4.00041 51.3083 3.68651 51.459C3.9026 52.0369 4.18399 52.5894 4.54099 53.1016C4.71948 53.3576 4.9171 53.6034 5.13458 53.837C5.35128 54.0691 5.59132 54.2966 5.84595 54.494C6.35683 54.895 6.95115 55.2361 7.63188 55.5006C7.97462 55.6372 8.32804 55.7338 8.70568 55.8153C9.08312 55.8957 9.48133 55.9537 9.90051 55.9874C10.1118 56.0078 10.3159 56.0057 10.5268 56.0057C10.7369 56.0037 10.9486 55.996 11.1623 55.9814C11.5892 55.9519 12.0281 55.9052 12.4521 55.81C12.8803 55.7205 13.3123 55.6072 13.7448 55.4717C14.1706 55.3288 14.5888 55.1543 15.008 54.9646C15.2159 54.8677 15.4287 54.7714 15.6298 54.6601C15.8308 54.5481 16.031 54.4315 16.2293 54.3104C16.4276 54.1893 16.6245 54.0636 16.8191 53.9334C16.916 53.8678 17.0147 53.803 17.1089 53.7342C17.2018 53.664 17.2946 53.5932 17.3866 53.521C17.7548 53.2326 18.1131 52.9282 18.4594 52.6102C18.7927 52.2822 19.1127 51.9399 19.4181 51.5877C18.5395 50.7232 17.3984 50.1322 16.1293 49.7841Z" fill="#FF8A00"/>
<path d="M17.4695 38.7373C17.1834 38.8169 16.9051 38.9133 16.6159 39.0182C16.3256 39.1227 16.036 39.2405 15.7488 39.3719C15.4599 39.5025 15.1879 39.6474 14.9134 39.796C14.6358 39.9424 14.3675 40.099 14.1098 40.264C13.6036 40.601 13.0926 40.9469 12.6393 41.337L12.4702 41.4842L12.2971 41.6294C12.1827 41.7271 12.0703 41.8266 11.9609 41.9283C11.8515 42.03 11.7446 42.1339 11.6403 42.2401C11.5354 42.3458 11.4366 42.4559 11.3292 42.5599C10.9072 42.9817 10.5426 43.4498 10.173 43.914C10.9536 44.6165 11.9001 45.1454 12.9882 45.3793C13.5265 45.4928 14.1009 45.5332 14.7068 45.4899C15.3193 45.4508 15.9346 45.3084 16.5792 45.0757C17.8704 44.6122 19.0556 43.7726 20.0597 42.6973C20.3105 42.4285 20.5356 42.139 20.7595 41.8421C20.8703 41.6933 20.9785 41.5418 21.084 41.3875C21.1359 41.3099 21.1901 41.2331 21.2385 41.154L21.3805 40.9135C21.5671 40.5909 21.742 40.2596 21.9035 39.922L22.022 39.6674C22.0602 39.5821 22.0932 39.4949 22.1274 39.4081C22.1952 39.2341 22.2595 39.059 22.3204 38.883C21.3547 38.4652 20.2775 38.3272 19.1702 38.425C18.6086 38.4728 18.0381 38.5772 17.4693 38.7373L17.4695 38.7373Z" fill="#FF8A00"/>
<path d="M21.5539 28.8567C21.341 28.9067 21.1238 28.9692 20.9109 29.0434C20.4835 29.1925 20.0622 29.389 19.6548 29.631C19.4512 29.752 19.2505 29.8843 19.0545 30.0276C18.8573 30.1707 18.6538 30.3229 18.4603 30.4873C18.2658 30.6514 18.0805 30.8219 17.9053 30.9987C17.7302 31.1755 17.568 31.3587 17.3992 31.5441C17.2348 31.7303 17.0795 31.9219 16.9347 32.1187C16.8623 32.2171 16.7922 32.3167 16.7246 32.4175C16.6574 32.5182 16.5927 32.6206 16.5234 32.7216C16.3884 32.9253 16.2633 33.1331 16.148 33.3452C16.0904 33.4512 16.0356 33.5583 15.9827 33.6667C15.9303 33.7751 15.8812 33.8844 15.8267 33.9926C15.7214 34.2099 15.6259 34.4308 15.5407 34.6553C15.4982 34.7678 15.4579 34.881 15.4205 34.9953L15.3658 35.167L15.3082 35.3377C15.7028 35.498 16.1159 35.6131 16.5429 35.6762C16.9687 35.739 17.4015 35.7462 17.8442 35.6934C18.2858 35.6408 18.7345 35.5273 19.1837 35.3468C19.6387 35.1681 20.0698 34.9149 20.4977 34.5912C20.7114 34.4291 20.9174 34.2538 21.1157 34.0654C21.1655 34.0184 21.2145 33.9704 21.2629 33.9221C21.3096 33.8729 21.355 33.8229 21.4004 33.7723C21.4911 33.6713 21.5791 33.5669 21.6651 33.4602C21.8374 33.2462 22.0004 33.0214 22.1548 32.7874C22.2313 32.67 22.3078 32.5515 22.3776 32.4293C22.4447 32.3071 22.5099 32.1825 22.5719 32.0558C23.0821 31.0461 23.3887 29.907 23.4711 28.7627C23.0496 28.7008 22.6211 28.6966 22.1933 28.7451C21.9802 28.7693 21.7662 28.807 21.5538 28.8568L21.5539 28.8567Z" fill="#FF8A00"/>
<path d="M20.64 20.9867C20.3117 21.1867 19.9983 21.4261 19.704 21.701C19.4092 21.9759 19.1416 22.2864 18.8742 22.6319C18.612 22.977 18.3877 23.3386 18.2002 23.7114L18.1319 23.8516L18.0606 23.9929C18.0144 24.0878 17.9704 24.1828 17.9288 24.2789C17.8454 24.4708 17.7709 24.6649 17.706 24.861C17.6389 25.057 17.59 25.2557 17.5336 25.4547C17.4778 25.6541 17.4314 25.855 17.3944 26.0571C17.3573 26.2591 17.329 26.4622 17.3101 26.667L17.2972 26.82L17.2811 26.9731C17.2716 27.0755 17.2643 27.1775 17.2597 27.28C17.9816 27.3692 18.7232 27.2945 19.4399 27.02C20.142 26.7449 20.8117 26.2693 21.3983 25.5729C21.6796 25.2244 21.9197 24.8391 22.1249 24.4265C22.2256 24.2203 22.3235 24.007 22.4001 23.7883C22.4751 23.5699 22.5406 23.3462 22.5962 23.1183C22.8336 22.2062 22.8553 21.2331 22.7322 20.2914C22.0081 20.3432 21.2979 20.5869 20.6401 20.9867L20.64 20.9867Z" fill="#FF8A00"/>
<path d="M18.2683 15.7092C18.1778 15.8265 18.0945 15.9488 18.0125 16.078C17.9284 16.2075 17.8496 16.3431 17.7767 16.4841C17.6302 16.7663 17.5137 17.0572 17.4259 17.3527C17.3799 17.5008 17.3494 17.6483 17.312 17.7993C17.2766 17.9498 17.2484 18.1013 17.2266 18.2527C17.1836 18.5559 17.1689 18.8606 17.1812 19.1637C17.1905 19.315 17.1915 19.4678 17.2061 19.6187C17.2192 19.7699 17.2391 19.9204 17.2658 20.0697C17.8017 20.0193 18.3249 19.8474 18.798 19.5421C19.0342 19.3895 19.2593 19.2039 19.465 18.984C19.6639 18.7653 19.8447 18.5132 20.0018 18.2275C20.1589 17.9413 20.2852 17.6363 20.3809 17.3185C20.4313 17.1588 20.4633 16.9981 20.4905 16.8349C20.5177 16.6713 20.537 16.5058 20.5491 16.3389C20.5612 16.172 20.5654 16.0032 20.5632 15.8345C20.56 15.666 20.5538 15.4958 20.5283 15.3286C20.4824 14.9931 20.4091 14.6603 20.3089 14.3365C19.7853 14.4606 19.2933 14.7186 18.8634 15.0836C18.6474 15.266 18.448 15.4757 18.2683 15.7093L18.2683 15.7092Z" fill="#FF8A00"/>
<path d="M15.8927 11.9753C15.8783 12.1049 15.8628 12.2369 15.8542 12.3687C15.8456 12.5006 15.8434 12.6318 15.8469 12.7621C15.854 13.0231 15.8848 13.282 15.9389 13.5353C15.9868 13.7907 16.0498 14.0429 16.1391 14.2862C16.5827 14.1654 16.9979 13.9436 17.3523 13.6194C17.5294 13.4573 17.6913 13.2694 17.8343 13.0562C17.9742 12.8436 18.0886 12.608 18.1813 12.3467C18.3632 11.8256 18.4445 11.254 18.3849 10.6932C18.3592 10.4118 18.3082 10.1294 18.2335 9.85341C18.1984 9.7142 18.1501 9.57947 18.0964 9.44733C18.0431 9.31457 17.9842 9.18385 17.92 9.05624C17.4943 9.23039 17.1136 9.5113 16.8009 9.87393C16.6433 10.0557 16.5072 10.2563 16.383 10.4786C16.2577 10.701 16.1512 10.9416 16.0669 11.1988C15.9829 11.4549 15.9254 11.7149 15.8927 11.9754L15.8927 11.9753Z" fill="#FF8A00"/>
<path d="M13.8703 8.59773C13.9892 9.02922 14.1816 9.43461 14.4416 9.79289C15.1265 9.39474 15.6222 8.68814 15.7193 7.73881C15.7314 7.62025 15.7381 7.5005 15.7359 7.38226C15.7323 7.265 15.7221 7.14749 15.7059 7.03062C15.674 6.79621 15.6183 6.56331 15.541 6.33569C15.3945 5.87587 15.1321 5.4591 14.8215 5.08975C14.5026 5.32499 14.2421 5.63916 14.0542 6.00709C13.9606 6.19124 13.8847 6.38893 13.8292 6.59774C13.7723 6.80753 13.7425 7.02312 13.7214 7.25716C13.6845 7.7209 13.7388 8.17426 13.8702 8.59764L13.8703 8.59773Z" fill="#FF8A00"/>
<path d="M10.9826 4.96655C11.0909 5.40086 11.2732 5.81088 11.5243 6.17549C12.2188 5.7944 12.7318 5.10029 12.8522 4.15365C12.8671 4.03542 12.8768 3.91587 12.8775 3.79762C12.8768 3.6803 12.8695 3.56258 12.8562 3.44534C12.8301 3.21021 12.7801 2.97601 12.7084 2.74655C12.5732 2.28323 12.3212 1.8601 12.0197 1.48318C11.6951 1.71046 11.427 2.01809 11.2301 2.38125C11.132 2.56303 11.0513 2.75879 10.9907 2.96616C10.9287 3.17447 10.8935 3.38926 10.8667 3.62271C10.8184 4.08539 10.8615 4.53996 10.9825 4.96646L10.9826 4.96655Z" fill="#FF8A00"/>
</svg>
