<svg width="25" height="56" viewBox="0 0 25 56" fill="none" xmlns="http://www.w3.org/2000/svg">
<path d="M9.21155 49.3888C9.37055 49.3451 9.53203 49.3056 9.69506 49.2697C9.85931 49.2328 10.0283 49.1968 10.1979 49.1663C10.5373 49.1043 10.8832 49.0568 11.2348 49.0238C11.4105 49.0073 11.5872 48.9947 11.7654 48.9857C11.9444 48.9757 12.1202 48.9737 12.3064 48.9655C12.6746 48.9538 13.0475 48.9557 13.4224 48.9732C13.6099 48.9819 13.7957 48.9941 13.9798 49.0097C14.166 49.0231 14.3551 49.0347 14.5399 49.0527C14.9107 49.0872 15.2738 49.1354 15.6297 49.1974C15.9932 49.2494 16.3526 49.3093 16.7026 49.3859C16.8788 49.4223 17.0489 49.4683 17.2247 49.5067C17.4007 49.5441 17.575 49.585 17.7476 49.6293C17.9197 49.6736 18.0907 49.7209 18.2589 49.772L18.5104 49.8512L18.7658 49.924C19.1048 50.0235 19.4365 50.1372 19.7615 50.2643C20.0915 50.381 20.42 50.5007 20.7395 50.6403C21.0563 50.7865 21.3809 50.913 21.6958 51.0636C21.479 51.6416 21.1967 52.194 20.8385 52.7062C20.6594 52.9623 20.4612 53.208 20.2429 53.4416C20.0255 53.6737 19.7847 53.9012 19.5292 54.0986C19.0166 54.4997 18.4203 54.8408 17.7373 55.1052C17.3934 55.2419 17.0388 55.3384 16.6599 55.4199C16.2812 55.5004 15.8817 55.5583 15.4611 55.5921C15.2491 55.6125 15.0443 55.6104 14.8327 55.6104C14.622 55.6083 14.4095 55.6006 14.1951 55.5861C13.7668 55.5566 13.3264 55.5099 12.901 55.4147C12.4714 55.3252 12.0379 55.2118 11.604 55.0763C11.1768 54.9334 10.7572 54.759 10.3366 54.5693C10.128 54.4723 9.91447 54.3761 9.71272 54.2647C9.51106 54.1528 9.31023 54.0362 9.11126 53.9151C8.9123 53.7939 8.71469 53.6682 8.51948 53.538C8.42222 53.4725 8.32322 53.4077 8.22869 53.3388C8.13548 53.2686 8.04238 53.1979 7.95005 53.1256C7.58069 52.8373 7.22116 52.5328 6.87369 52.2149C6.5393 51.8869 6.21821 51.5445 5.91178 51.1923C6.79337 50.3279 7.93819 49.7369 9.21153 49.3888L9.21155 49.3888Z" fill="#1A052F"/>
<path d="M7.86727 38.3421C8.15432 38.4217 8.43354 38.5181 8.72368 38.6229C9.01496 38.7274 9.3055 38.8453 9.59365 38.9767C9.88356 39.1073 10.1564 39.2522 10.4319 39.4008C10.7104 39.5472 10.9796 39.7038 11.2382 39.8688C11.746 40.2058 12.2587 40.5517 12.7135 40.9418L12.8831 41.089L13.0569 41.2342C13.1716 41.3319 13.2845 41.4314 13.3942 41.5331C13.504 41.6348 13.6112 41.7387 13.7158 41.8449C13.8211 41.9506 13.9202 42.0607 14.028 42.1647C14.4514 42.5864 14.8172 43.0546 15.188 43.5188C14.4049 44.2213 13.4552 44.7501 12.3635 44.9841C11.8233 45.0976 11.2471 45.138 10.6392 45.0947C10.0246 45.0556 9.4072 44.9132 8.76046 44.6805C7.46497 44.217 6.27589 43.3774 5.2684 42.3021C5.01676 42.0333 4.79086 41.7438 4.56625 41.4469C4.45508 41.2981 4.34654 41.1466 4.24065 40.9923C4.18858 40.9147 4.13424 40.8379 4.08567 40.7588L3.94322 40.5183C3.75598 40.1957 3.5805 39.8644 3.41849 39.5268L3.29953 39.2722C3.26122 39.1869 3.22807 39.0997 3.19378 39.0129C3.12581 38.8389 3.06127 38.6638 3.00013 38.4878C3.96907 38.07 5.04985 37.932 6.16088 38.0298C6.72435 38.0776 7.29675 38.182 7.86739 38.3421L7.86727 38.3421Z" fill="#1A052F"/>
<path d="M3.76793 28.4614C3.98156 28.5113 4.19943 28.5739 4.41311 28.648C4.84194 28.7972 5.26459 28.9937 5.67332 29.2357C5.87769 29.3567 6.07899 29.489 6.27566 29.6323C6.47348 29.7753 6.67775 29.9275 6.8718 30.092C7.06698 30.256 7.25295 30.4266 7.42866 30.6034C7.60437 30.7802 7.76713 30.9634 7.93648 31.1487C8.10138 31.335 8.25726 31.5266 8.40254 31.7234C8.47518 31.8218 8.54546 31.9214 8.61337 32.0221C8.68076 32.1228 8.7457 32.2252 8.81517 32.3263C8.95063 32.53 9.07619 32.7378 9.19185 32.9499C9.24969 33.0559 9.30463 33.163 9.35774 33.2714C9.41033 33.3797 9.45949 33.4891 9.51426 33.5973C9.61987 33.8145 9.71566 34.0355 9.80115 34.26C9.84384 34.3725 9.88427 34.4856 9.9218 34.5999L9.9767 34.7717L10.0345 34.9423C9.63851 35.1027 9.22411 35.2178 8.79567 35.2809C8.36838 35.3437 7.93416 35.3508 7.49001 35.2981C7.04692 35.2455 6.59676 35.132 6.14603 34.9515C5.68956 34.7727 5.25694 34.5195 4.82761 34.1958C4.61323 34.0338 4.40654 33.8585 4.20756 33.6701C4.15766 33.6231 4.10847 33.5751 4.0599 33.5267C4.01307 33.4776 3.96747 33.4276 3.92196 33.377C3.83095 33.2759 3.74266 33.1716 3.65641 33.0649C3.48347 32.8509 3.31995 32.6261 3.16506 32.3921C3.08823 32.2747 3.01157 32.1562 2.9415 32.034C2.87413 31.9118 2.8088 31.7872 2.74652 31.6605C2.23468 30.6508 1.92706 29.5116 1.84439 28.3674C2.26723 28.3054 2.69714 28.3013 3.12641 28.3498C3.34026 28.3739 3.55496 28.4117 3.76807 28.4615L3.76793 28.4614Z" fill="#1A052F"/>
<path d="M4.68319 20.5853C5.01259 20.7853 5.32701 21.0248 5.62227 21.2996C5.91806 21.5745 6.18659 21.885 6.45491 22.2305C6.71791 22.5756 6.943 22.9372 7.1311 23.31L7.19962 23.4502L7.27119 23.5915C7.31753 23.6864 7.36168 23.7814 7.40347 23.8775C7.48715 24.0694 7.56182 24.2635 7.62697 24.4596C7.69431 24.6556 7.7434 24.8543 7.79997 25.0533C7.85594 25.2527 7.90247 25.4536 7.93966 25.6557C7.97686 25.8577 8.00524 26.0608 8.02419 26.2656L8.03713 26.4186L8.05331 26.5717C8.06278 26.6741 8.07017 26.7761 8.07476 26.8787C7.35043 26.9678 6.60639 26.8931 5.88732 26.6186C5.18285 26.3435 4.51097 25.8679 3.92241 25.1715C3.64009 24.8231 3.39925 24.4377 3.19335 24.0251C3.09228 23.8189 2.99405 23.6056 2.91725 23.3869C2.842 23.1685 2.77631 22.9448 2.72051 22.7169C2.48231 21.8048 2.46054 20.8317 2.58402 19.89C3.31051 19.9418 4.02315 20.1855 4.68312 20.5853L4.68319 20.5853Z" fill="#1A052F"/>
<path d="M7.06522 15.3139C7.15609 15.4311 7.23959 15.5535 7.32189 15.6826C7.40629 15.8122 7.48531 15.9478 7.55854 16.0888C7.70551 16.371 7.8224 16.6618 7.91049 16.9573C7.95662 17.1054 7.98724 17.253 8.02479 17.4039C8.06026 17.5545 8.08857 17.7059 8.11043 17.8573C8.15353 18.1605 8.16837 18.4652 8.15602 18.7684C8.14667 18.9197 8.14568 19.0724 8.13101 19.2233C8.1179 19.3745 8.09791 19.525 8.07113 19.6743C7.5334 19.624 7.00842 19.452 6.53383 19.1467C6.29678 18.9942 6.07092 18.8085 5.86455 18.5886C5.66496 18.3699 5.48363 18.1178 5.32597 17.8322C5.16841 17.546 5.04161 17.241 4.94561 16.9231C4.89505 16.7634 4.86298 16.6027 4.83564 16.4396C4.80839 16.2759 4.78901 16.1104 4.77688 15.9435C4.76475 15.7766 4.76048 15.6078 4.76267 15.4392C4.76589 15.2706 4.7721 15.1005 4.79773 14.9332C4.84376 14.5977 4.91732 14.2649 5.01784 13.9412C5.54315 14.0653 6.03685 14.3233 6.46818 14.6883C6.68491 14.8707 6.885 15.0803 7.06527 15.3139L7.06522 15.3139Z" fill="#1A052F"/>
<path d="M9.4489 11.5738C9.46328 11.7034 9.47886 11.8354 9.48746 11.9672C9.49606 12.099 9.49831 12.2303 9.49481 12.3605C9.48771 12.6215 9.45675 12.8805 9.40255 13.1338C9.35443 13.3892 9.29126 13.6414 9.20165 13.8847C8.75654 13.7639 8.33994 13.5421 7.98442 13.2179C7.80666 13.0558 7.64421 12.8678 7.50074 12.6547C7.36039 12.4421 7.24562 12.2065 7.15262 11.9451C6.97009 11.4241 6.88854 10.8524 6.94832 10.2916C6.97409 10.0102 7.02532 9.72788 7.10021 9.45186C7.13544 9.31265 7.18389 9.17792 7.23781 9.04578C7.2913 8.91302 7.35035 8.7823 7.41478 8.65469C7.8419 8.82884 8.22387 9.10975 8.53764 9.47238C8.69578 9.65418 8.8323 9.85479 8.95695 10.077C9.08265 10.2994 9.18952 10.5401 9.27411 10.7973C9.35836 11.0533 9.41606 11.3133 9.4489 11.5738L9.4489 11.5738Z" fill="#1A052F"/>
<path d="M11.4764 8.19627C11.3571 8.62776 11.1641 9.03315 10.9032 9.39143C10.216 8.99328 9.71864 8.28668 9.62121 7.33735C9.60914 7.21879 9.60239 7.09904 9.6046 6.9808C9.60818 6.86354 9.61846 6.74604 9.63464 6.62916C9.66665 6.39475 9.72253 6.16185 9.80009 5.93423C9.94715 5.47441 10.2104 5.05764 10.5221 4.6883C10.842 4.92353 11.1033 5.23771 11.2919 5.60563C11.3858 5.78978 11.4619 5.98748 11.5176 6.19629C11.5747 6.40607 11.6046 6.62166 11.6258 6.8557C11.6628 7.31944 11.6084 7.7728 11.4765 8.19618L11.4764 8.19627Z" fill="#1A052F"/>
<path d="M14.3741 4.56503C14.2654 4.99934 14.0826 5.40936 13.8306 5.77397C13.1338 5.39288 12.6191 4.69877 12.4983 3.75213C12.4833 3.6339 12.4736 3.51435 12.4729 3.3961C12.4736 3.27878 12.481 3.16106 12.4943 3.04382C12.5205 2.80869 12.5706 2.57449 12.6425 2.34503C12.7782 1.88171 13.031 1.45858 13.3335 1.08166C13.6592 1.30894 13.9282 1.61657 14.1257 1.97973C14.2242 2.16151 14.3052 2.35727 14.366 2.56464C14.4282 2.77295 14.4635 2.98775 14.4904 3.22119C14.5389 3.68387 14.4956 4.13844 14.3742 4.56494L14.3741 4.56503Z" fill="#1A052F"/>
</svg>
