<svg width="26" height="57" viewBox="0 0 26 57" fill="none" xmlns="http://www.w3.org/2000/svg">
<path d="M9.71155 49.7706C9.87055 49.727 10.032 49.6875 10.1951 49.6515C10.3593 49.6147 10.5283 49.5787 10.6979 49.5482C11.0373 49.4861 11.3832 49.4387 11.7348 49.4057C11.9105 49.3892 12.0872 49.3766 12.2654 49.3675C12.4444 49.3575 12.6202 49.3556 12.8064 49.3474C13.1746 49.3356 13.5475 49.3376 13.9224 49.355C14.1099 49.3637 14.2957 49.3759 14.4798 49.3916C14.666 49.4049 14.8551 49.4166 15.0399 49.4346C15.4107 49.469 15.7738 49.5172 16.1297 49.5792C16.4932 49.6313 16.8526 49.6912 17.2026 49.7678C17.3788 49.8041 17.5489 49.8502 17.7247 49.8886C17.9007 49.926 18.075 49.9669 18.2476 50.0112C18.4197 50.0554 18.5907 50.1027 18.7589 50.1538L19.0104 50.233L19.2658 50.3059C19.6048 50.4053 19.9365 50.5191 20.2615 50.6462C20.5915 50.7629 20.92 50.8826 21.2395 51.0222C21.5563 51.1683 21.8809 51.2948 22.1958 51.4455C21.979 52.0235 21.6967 52.5759 21.3385 53.0881C21.1594 53.3442 20.9612 53.5899 20.7429 53.8235C20.5255 54.0556 20.2847 54.2831 20.0292 54.4805C19.5166 54.8815 18.9203 55.2226 18.2373 55.4871C17.8934 55.6237 17.5388 55.7203 17.1599 55.8018C16.7812 55.8822 16.3817 55.9402 15.9611 55.974C15.7491 55.9943 15.5443 55.9923 15.3327 55.9922C15.122 55.9902 14.9095 55.9825 14.6951 55.9679C14.2668 55.9384 13.8264 55.8918 13.401 55.7965C12.9714 55.707 12.5379 55.5937 12.104 55.4582C11.6768 55.3153 11.2572 55.1408 10.8366 54.9512C10.628 54.8542 10.4145 54.758 10.2127 54.6466C10.0111 54.5347 9.81023 54.4181 9.61126 54.2969C9.4123 54.1758 9.21469 54.0501 9.01948 53.9199C8.92222 53.8543 8.82322 53.7896 8.72869 53.7207C8.63548 53.6505 8.54237 53.5797 8.45005 53.5075C8.08069 53.2191 7.72116 52.9147 7.37369 52.5968C7.0393 52.2687 6.71821 51.9264 6.41178 51.5742C7.29337 50.7097 8.43819 50.1187 9.71153 49.7707L9.71155 49.7706Z" fill="#1A052F"/>
<path d="M8.36727 38.724C8.65432 38.8035 8.93354 38.8999 9.22368 39.0048C9.51496 39.1093 9.8055 39.2271 10.0937 39.3585C10.3836 39.4892 10.6564 39.6341 10.9319 39.7826C11.2104 39.929 11.4796 40.0857 11.7382 40.2507C12.246 40.5876 12.7587 40.9335 13.2135 41.3236L13.3831 41.4708L13.5569 41.616C13.6716 41.7138 13.7845 41.8133 13.8942 41.915C14.004 42.0166 14.1112 42.1206 14.2158 42.2267C14.3211 42.3325 14.4202 42.4425 14.528 42.5465C14.9514 42.9683 15.3172 43.4364 15.688 43.9006C14.9049 44.6031 13.9552 45.132 12.8635 45.366C12.3233 45.4794 11.7471 45.5198 11.1392 45.4765C10.5246 45.4374 9.9072 45.295 9.26046 45.0623C7.96497 44.5988 6.77589 43.7592 5.7684 42.684C5.51676 42.4152 5.29086 42.1256 5.06625 41.8287C4.95508 41.68 4.84654 41.5284 4.74065 41.3741C4.68858 41.2966 4.63424 41.2197 4.58567 41.1406L4.44322 40.9002C4.25598 40.5776 4.0805 40.2462 3.91849 39.9087L3.79953 39.6541C3.76122 39.5687 3.72807 39.4816 3.69378 39.3948C3.62581 39.2207 3.56127 39.0457 3.50013 38.8696C4.46907 38.4519 5.54985 38.3138 6.66088 38.4116C7.22435 38.4595 7.79675 38.5638 8.36739 38.7239L8.36727 38.724Z" fill="#1A052F"/>
<path d="M4.26793 28.8433C4.48156 28.8932 4.69943 28.9558 4.91311 29.0299C5.34194 29.1791 5.76459 29.3756 6.17332 29.6176C6.37769 29.7386 6.57899 29.8709 6.77566 30.0142C6.97348 30.1572 7.17775 30.3094 7.3718 30.4739C7.56698 30.6379 7.75295 30.8085 7.92866 30.9853C8.10437 31.1621 8.26713 31.3453 8.43648 31.5306C8.60138 31.7169 8.75726 31.9085 8.90254 32.1053C8.97518 32.2037 9.04546 32.3032 9.11337 32.404C9.18076 32.5047 9.2457 32.6071 9.31517 32.7082C9.45063 32.9119 9.57619 33.1197 9.69185 33.3318C9.74969 33.4378 9.80463 33.5449 9.85774 33.6533C9.91033 33.7616 9.95949 33.871 10.0143 33.9792C10.1199 34.1964 10.2157 34.4174 10.3012 34.6419C10.3438 34.7544 10.3843 34.8675 10.4218 34.9818L10.4767 35.1536L10.5345 35.3242C10.1385 35.4846 9.72411 35.5997 9.29567 35.6628C8.86838 35.7256 8.43416 35.7327 7.99001 35.68C7.54692 35.6274 7.09676 35.5138 6.64603 35.3334C6.18956 35.1546 5.75694 34.9014 5.32761 34.5777C5.11323 34.4157 4.90654 34.2404 4.70756 34.052C4.65766 34.005 4.60847 33.957 4.55989 33.9086C4.51307 33.8595 4.46747 33.8095 4.42196 33.7589C4.33095 33.6578 4.24266 33.5535 4.15641 33.4468C3.98347 33.2328 3.81995 33.008 3.66506 32.774C3.58823 32.6566 3.51157 32.5381 3.4415 32.4159C3.37413 32.2937 3.3088 32.1691 3.24652 32.0424C2.73468 31.0327 2.42706 29.8935 2.34439 28.7493C2.76723 28.6873 3.19714 28.6832 3.62641 28.7317C3.84026 28.7558 4.05496 28.7936 4.26807 28.8434L4.26793 28.8433Z" fill="#1A052F"/>
<path d="M5.18319 20.9671C5.51259 21.1672 5.82701 21.4066 6.12227 21.6814C6.41806 21.9564 6.68659 22.2669 6.95491 22.6124C7.21791 22.9575 7.443 23.319 7.6311 23.6919L7.69962 23.8321L7.77119 23.9734C7.81753 24.0682 7.86168 24.1632 7.90347 24.2594C7.98715 24.4513 8.06182 24.6454 8.12697 24.8415C8.19431 25.0375 8.2434 25.2362 8.29997 25.4352C8.35594 25.6346 8.40247 25.8355 8.43966 26.0375C8.47686 26.2395 8.50524 26.4427 8.52419 26.6474L8.53713 26.8005L8.55331 26.9536C8.56278 27.0559 8.57017 27.1579 8.57476 27.2605C7.85043 27.3497 7.10639 27.275 6.38732 27.0005C5.68285 26.7254 5.01097 26.2497 4.42241 25.5534C4.14009 25.2049 3.89925 24.8196 3.69335 24.407C3.59228 24.2007 3.49405 23.9875 3.41725 23.7688C3.342 23.5504 3.27631 23.3267 3.22051 23.0988C2.98231 22.1867 2.96054 21.2135 3.08402 20.2719C3.81051 20.3236 4.52315 20.5674 5.18312 20.9671L5.18319 20.9671Z" fill="#1A052F"/>
<path d="M7.56522 15.6958C7.65609 15.813 7.73959 15.9353 7.82189 16.0645C7.90629 16.194 7.98531 16.3296 8.05854 16.4707C8.20551 16.7528 8.3224 17.0437 8.41049 17.3392C8.45662 17.4873 8.48724 17.6349 8.52479 17.7858C8.56026 17.9363 8.58857 18.0878 8.61043 18.2392C8.65353 18.5424 8.66837 18.8471 8.65602 19.1503C8.64667 19.3015 8.64568 19.4543 8.63101 19.6052C8.6179 19.7564 8.59791 19.9069 8.57113 20.0562C8.0334 20.0058 7.50842 19.8339 7.03383 19.5286C6.79678 19.376 6.57092 19.1904 6.36455 18.9705C6.16496 18.7518 5.98363 18.4997 5.82597 18.214C5.66841 17.9279 5.54161 17.6229 5.44561 17.305C5.39505 17.1453 5.36298 16.9846 5.33564 16.8214C5.30839 16.6578 5.28901 16.4923 5.27688 16.3254C5.26475 16.1585 5.26048 15.9897 5.26267 15.821C5.26589 15.6525 5.2721 15.4823 5.29773 15.3151C5.34376 14.9796 5.41732 14.6468 5.51784 14.3231C6.04315 14.4471 6.53685 14.7052 6.96818 15.0701C7.18491 15.2525 7.385 15.4622 7.56527 15.6958L7.56522 15.6958Z" fill="#1A052F"/>
<path d="M9.9489 11.9556C9.96328 12.0852 9.97886 12.2172 9.98746 12.349C9.99606 12.4809 9.99831 12.6121 9.99481 12.7424C9.98771 13.0034 9.95675 13.2623 9.90255 13.5156C9.85443 13.771 9.79126 14.0232 9.70165 14.2665C9.25654 14.1457 8.83994 13.9239 8.48442 13.5997C8.30666 13.4376 8.14421 13.2497 8.00074 13.0365C7.86039 12.8239 7.74562 12.5883 7.65262 12.327C7.47009 11.8059 7.38854 11.2343 7.44832 10.6735C7.47409 10.392 7.52532 10.1097 7.60021 9.8337C7.63544 9.69449 7.68389 9.55976 7.73781 9.42761C7.7913 9.29486 7.85035 9.16414 7.91478 9.03653C8.3419 9.21067 8.72387 9.49158 9.03764 9.85421C9.19578 10.036 9.3323 10.2366 9.45695 10.4589C9.58265 10.6813 9.68952 10.9219 9.77411 11.1791C9.85836 11.4352 9.91606 11.6952 9.9489 11.9557L9.9489 11.9556Z" fill="#1A052F"/>
<path d="M11.9764 8.57813C11.8571 9.00963 11.6641 9.41502 11.4032 9.7733C10.716 9.37514 10.2186 8.66855 10.1212 7.71922C10.1091 7.60066 10.1024 7.4809 10.1046 7.36267C10.1082 7.2454 10.1185 7.1279 10.1346 7.01103C10.1666 6.77661 10.2225 6.54372 10.3001 6.3161C10.4471 5.85627 10.7104 5.43951 11.0221 5.07016C11.342 5.3054 11.6033 5.61957 11.7919 5.9875C11.8858 6.17164 11.9619 6.36934 12.0176 6.57815C12.0747 6.78793 12.1046 7.00353 12.1258 7.23757C12.1628 7.7013 12.1084 8.15467 11.9765 8.57804L11.9764 8.57813Z" fill="#1A052F"/>
<path d="M14.8741 4.9469C14.7654 5.3812 14.5826 5.79123 14.3306 6.15583C13.6338 5.77475 13.1191 5.08064 12.9983 4.134C12.9833 4.01577 12.9736 3.89622 12.9729 3.77797C12.9736 3.66065 12.981 3.54293 12.9943 3.42569C13.0205 3.19056 13.0706 2.95636 13.1425 2.72689C13.2782 2.26358 13.531 1.84045 13.8335 1.46353C14.1592 1.6908 14.4282 1.99844 14.6257 2.3616C14.7242 2.54337 14.8052 2.73914 14.866 2.94651C14.9282 3.15482 14.9635 3.36961 14.9904 3.60306C15.0389 4.06574 14.9956 4.52031 14.8742 4.94681L14.8741 4.9469Z" fill="#1A052F"/>
</svg>
