<svg width="96" height="17" viewBox="0 0 96 17" fill="none" xmlns="http://www.w3.org/2000/svg">
<g clip-path="url(#clip0_2754_14996)">
<path d="M12.4725 10.6616L12.9442 16.0076L7.99995 13.9075L3.05571 16.0076L3.52735 10.6616L0 6.6135L5.23573 5.40955L7.99995 0.807617L10.7642 5.40955L15.9999 6.6135L12.4725 10.6616Z" fill="#FF8A00"/>
</g>
<g clip-path="url(#clip1_2754_14996)">
<path d="M32.4725 10.6616L32.9442 16.0076L27.9999 13.9075L23.0557 16.0076L23.5274 10.6616L20 6.6135L25.2357 5.40955L27.9999 0.807617L30.7642 5.40955L35.9999 6.6135L32.4725 10.6616Z" fill="#FF8A00"/>
</g>
<g clip-path="url(#clip2_2754_14996)">
<path d="M52.4725 10.6616L52.9442 16.0076L47.9999 13.9075L43.0557 16.0076L43.5274 10.6616L40 6.6135L45.2357 5.40955L47.9999 0.807617L50.7642 5.40955L55.9999 6.6135L52.4725 10.6616Z" fill="#FF8A00"/>
</g>
<g clip-path="url(#clip3_2754_14996)">
<path d="M72.4725 10.6616L72.9442 16.0076L67.9999 13.9075L63.0557 16.0076L63.5274 10.6616L60 6.6135L65.2357 5.40955L67.9999 0.807617L70.7642 5.40955L75.9999 6.6135L72.4725 10.6616Z" fill="#FF8A00"/>
</g>
<g clip-path="url(#clip4_2754_14996)">
<path d="M92.4725 10.6616L92.9442 16.0076L87.9999 13.9075L83.0557 16.0076L83.5274 10.6616L80 6.6135L85.2357 5.40955L87.9999 0.807617L90.7642 5.40955L95.9999 6.6135L92.4725 10.6616Z" fill="#FF8A00"/>
</g>
<defs>
<clipPath id="clip0_2754_14996">
<rect width="16" height="16" fill="white" transform="translate(0 0.40918)"/>
</clipPath>
<clipPath id="clip1_2754_14996">
<rect width="16" height="16" fill="white" transform="translate(20 0.40918)"/>
</clipPath>
<clipPath id="clip2_2754_14996">
<rect width="16" height="16" fill="white" transform="translate(40 0.40918)"/>
</clipPath>
<clipPath id="clip3_2754_14996">
<rect width="16" height="16" fill="white" transform="translate(60 0.40918)"/>
</clipPath>
<clipPath id="clip4_2754_14996">
<rect width="16" height="16" fill="white" transform="translate(80 0.40918)"/>
</clipPath>
</defs>
</svg>
