<svg width="663" height="159" viewBox="0 0 663 159" fill="none" xmlns="http://www.w3.org/2000/svg">
<g clip-path="url(#clip0_2696_31268)">
<mask id="mask0_2696_31268" style="mask-type:alpha" maskUnits="userSpaceOnUse" x="377" y="0" width="321" height="325">
<path d="M468.958 43.1983C496.643 -13.8952 577.979 -13.8952 605.664 43.1983L689.304 215.684C713.768 266.134 677.02 324.794 620.951 324.794H453.671C397.603 324.794 360.855 266.134 385.318 215.684L468.958 43.1983Z" fill="#F23FA0"/>
</mask>
<g mask="url(#mask0_2696_31268)">
<path d="M468.958 43.1983C496.643 -13.8952 577.979 -13.8952 605.664 43.1983L689.304 215.684C713.768 266.134 677.02 324.794 620.951 324.794H453.671C397.603 324.794 360.855 266.134 385.318 215.684L468.958 43.1983Z" fill="#FA41A5"/>
<g opacity="0.4" filter="url(#filter0_f_2696_31268)">
<path d="M435.338 147.398C452.811 111.358 504.145 111.358 521.618 147.398L574.406 256.278C589.846 288.124 566.653 325.153 531.266 325.153H425.69C390.303 325.153 367.11 288.124 382.55 256.278L435.338 147.398Z" fill="#CC1479"/>
</g>
<path d="M543.842 52.6821C542.341 55.0317 541.626 56.7652 540.826 59.9941C539.985 63.3925 539.753 65.6216 539.854 69.3186" stroke="#1A052F" stroke-width="9.59927" stroke-linecap="round"/>
<path d="M520.291 52.6821C518.79 55.0317 518.075 56.7652 517.276 59.9941C516.434 63.3925 516.202 65.6216 516.303 69.3186" stroke="#1A052F" stroke-width="9.59927" stroke-linecap="round"/>
<path d="M536.484 110.543C536.484 110.543 555.054 118.602 561.806 94.4236" stroke="#1A052F" stroke-width="9.59927" stroke-linecap="round"/>
</g>
<mask id="mask1_2696_31268" style="mask-type:alpha" maskUnits="userSpaceOnUse" x="-1" y="16" width="243" height="225">
<path d="M77.6794 240.851C30.4807 240.851 -9.00206 202.067 1.75424 156.11C1.84187 155.736 1.93008 155.361 2.0189 154.988C8.48901 127.766 17.9724 103.031 29.9276 82.1967C41.8828 61.3619 56.0757 44.8349 71.6959 33.5592C87.3161 22.2835 104.058 16.48 120.965 16.48C137.872 16.48 154.614 22.2835 170.234 33.5592C185.854 44.8349 200.047 61.3619 212.002 82.1967C223.958 103.031 233.441 127.766 239.911 154.988C240 155.362 240.088 155.736 240.176 156.11C250.932 202.067 211.449 240.851 164.251 240.851H77.6794Z" fill="#BD8AFF"/>
</mask>
<g mask="url(#mask1_2696_31268)">
<path d="M77.6794 240.851C30.4807 240.851 -9.00206 202.067 1.75424 156.11C1.84187 155.736 1.93008 155.361 2.0189 154.988C8.48901 127.766 17.9724 103.031 29.9276 82.1967C41.8828 61.3619 56.0757 44.8349 71.6959 33.5592C87.3161 22.2835 104.058 16.48 120.965 16.48C137.872 16.48 154.614 22.2835 170.234 33.5592C185.854 44.8349 200.047 61.3619 212.002 82.1967C223.958 103.031 233.441 127.766 239.911 154.988C240 155.362 240.088 155.736 240.176 156.11C250.932 202.067 211.449 240.851 164.251 240.851H77.6794Z" fill="#B680F1"/>
<g opacity="0.8" filter="url(#filter1_f_2696_31268)">
<path d="M157.675 317.645C110.477 317.645 70.994 278.861 81.7503 232.904C81.838 232.53 81.9262 232.156 82.015 231.782C88.4851 204.56 97.9685 179.826 109.924 158.991C121.879 138.156 136.072 121.629 151.692 110.353C167.312 99.0777 184.054 93.2742 200.961 93.2742C217.868 93.2742 234.61 99.0777 250.23 110.353C265.85 121.629 280.043 138.156 291.998 158.991C303.954 179.826 313.437 204.56 319.907 231.782C319.996 232.156 320.084 232.53 320.172 232.904C330.928 278.861 291.445 317.645 244.247 317.645H157.675Z" fill="#9D69DF"/>
</g>
<path d="M113.058 68.7512C114.56 71.1008 115.275 72.8343 116.074 76.0632C116.915 79.4616 117.148 81.6907 117.047 85.3876" stroke="#1A052F" stroke-width="9.59927" stroke-linecap="round"/>
<path d="M136.605 68.7517C138.107 71.1012 138.822 72.8348 139.621 76.0637C140.462 79.462 140.695 81.6912 140.594 85.3881" stroke="#1A052F" stroke-width="9.59927" stroke-linecap="round"/>
<path d="M126.318 120.382C126.318 120.382 107.806 129.181 101.074 102.785" stroke="#1A052F" stroke-width="9.59927" stroke-linecap="round"/>
</g>
</g>
<defs>
<filter id="filter0_f_2696_31268" x="265.694" y="8.37669" width="425.567" height="428.767" filterUnits="userSpaceOnUse" color-interpolation-filters="sRGB">
<feFlood flood-opacity="0" result="BackgroundImageFix"/>
<feBlend mode="normal" in="SourceGraphic" in2="BackgroundImageFix" result="shape"/>
<feGaussianBlur stdDeviation="55.9957" result="effect1_foregroundBlur_2696_31268"/>
</filter>
<filter id="filter1_f_2696_31268" x="-32.0247" y="-18.7173" width="465.971" height="448.354" filterUnits="userSpaceOnUse" color-interpolation-filters="sRGB">
<feFlood flood-opacity="0" result="BackgroundImageFix"/>
<feBlend mode="normal" in="SourceGraphic" in2="BackgroundImageFix" result="shape"/>
<feGaussianBlur stdDeviation="55.9957" result="effect1_foregroundBlur_2696_31268"/>
</filter>
<clipPath id="clip0_2696_31268">
<rect width="662.708" height="157.951" fill="white" transform="translate(0.148438 0.305664)"/>
</clipPath>
</defs>
</svg>
