<svg width="26" height="57" viewBox="0 0 26 57" fill="none" xmlns="http://www.w3.org/2000/svg">
<path d="M16.6274 49.4789C16.4689 49.4352 16.3079 49.3958 16.1455 49.3598C15.9818 49.3229 15.8134 49.2869 15.6443 49.2564C15.3061 49.1944 14.9612 49.1469 14.6109 49.1139C14.4357 49.0974 14.2596 49.0849 14.082 49.0758C13.9036 49.0658 13.7283 49.0638 13.5428 49.0556C13.1758 49.0439 12.8042 49.0459 12.4305 49.0633C12.2436 49.072 12.0584 49.0842 11.8749 49.0998C11.6894 49.1132 11.5009 49.1249 11.3168 49.1428C10.9471 49.1773 10.5852 49.2255 10.2306 49.2875C9.8683 49.3395 9.51007 49.3994 9.16121 49.476C8.98563 49.5124 8.81604 49.5584 8.64083 49.5969C8.46544 49.6343 8.29172 49.6751 8.11969 49.7194C7.94817 49.7637 7.77773 49.811 7.61011 49.8621L7.35938 49.9413L7.10486 50.0142C6.76698 50.1136 6.43643 50.2273 6.11252 50.3545C5.78355 50.4712 5.45619 50.5908 5.13769 50.7304C4.82193 50.8766 4.49845 51.0031 4.18456 51.1538C4.40065 51.7317 4.68204 52.2841 5.03903 52.7963C5.21753 53.0524 5.41514 53.2981 5.63263 53.5317C5.84932 53.7638 6.08937 53.9913 6.34399 54.1887C6.85487 54.5898 7.44919 54.9309 8.12992 55.1953C8.47267 55.332 8.82609 55.4285 9.20373 55.51C9.58117 55.5905 9.97938 55.6484 10.3986 55.6822C10.6098 55.7026 10.814 55.7005 11.0249 55.7005C11.2349 55.6984 11.4466 55.6907 11.6604 55.6762C12.0873 55.6467 12.5262 55.6 12.9502 55.5048C13.3783 55.4153 13.8104 55.3019 14.2429 55.1665C14.6687 55.0235 15.0868 54.8491 15.506 54.6594C15.7139 54.5624 15.9268 54.4662 16.1279 54.3548C16.3289 54.2429 16.529 54.1263 16.7273 54.0052C16.9256 53.8841 17.1226 53.7583 17.3171 53.6282C17.4141 53.5626 17.5127 53.4978 17.607 53.429C17.6999 53.3587 17.7927 53.288 17.8847 53.2158C18.2528 52.9274 18.6111 52.6229 18.9575 52.305C19.2907 51.977 19.6108 51.6346 19.9162 51.2824C19.0375 50.418 17.8965 49.827 16.6274 49.4789Z" fill="#1A052F"/>
<path d="M17.9675 38.4322C17.6814 38.5117 17.4031 38.6081 17.1139 38.713C16.8236 38.8175 16.5341 38.9353 16.2469 39.0667C15.9579 39.1974 15.6859 39.3422 15.4114 39.4908C15.1338 39.6372 14.8655 39.7939 14.6078 39.9588C14.1017 40.2958 13.5907 40.6417 13.1373 41.0318L12.9683 41.179L12.7951 41.3242C12.6808 41.4219 12.5683 41.5215 12.4589 41.6231C12.3495 41.7248 12.2427 41.8287 12.1384 41.9349C12.0334 42.0407 11.9346 42.1507 11.8273 42.2547C11.4052 42.6765 11.0407 43.1446 10.6711 43.6088C11.4516 44.3113 12.3981 44.8402 13.4862 45.0742C14.0246 45.1876 14.599 45.228 15.2048 45.1847C15.8173 45.1456 16.4327 45.0032 17.0773 44.7705C18.3685 44.307 19.5536 43.4674 20.5577 42.3921C20.8085 42.1234 21.0337 41.8338 21.2576 41.5369C21.3684 41.3881 21.4765 41.2366 21.5821 41.0823C21.634 41.0048 21.6881 40.9279 21.7365 40.8488L21.8785 40.6084C22.0651 40.2857 22.24 39.9544 22.4015 39.6169L22.5201 39.3622C22.5582 39.2769 22.5913 39.1898 22.6255 39.103C22.6932 38.9289 22.7575 38.7539 22.8185 38.5778C21.8528 38.16 20.7756 38.022 19.6682 38.1198C19.1066 38.1677 18.5361 38.272 17.9674 38.4321L17.9675 38.4322Z" fill="#1A052F"/>
<path d="M22.052 28.5516C21.839 28.6015 21.6219 28.664 21.4089 28.7382C20.9815 28.8873 20.5603 29.0838 20.1529 29.3258C19.9492 29.4468 19.7486 29.5791 19.5525 29.7225C19.3554 29.8655 19.1518 30.0177 18.9584 30.1821C18.7639 30.3462 18.5785 30.5167 18.4034 30.6935C18.2283 30.8704 18.066 31.0535 17.8972 31.2389C17.7329 31.4251 17.5775 31.6167 17.4327 31.8135C17.3603 31.9119 17.2903 32.0115 17.2226 32.1123C17.1554 32.213 17.0907 32.3154 17.0215 32.4165C16.8865 32.6201 16.7613 32.828 16.646 33.04C16.5884 33.146 16.5336 33.2531 16.4807 33.3616C16.4283 33.4699 16.3793 33.5792 16.3247 33.6874C16.2195 33.9047 16.124 34.1256 16.0388 34.3501C15.9962 34.4626 15.9559 34.5758 15.9185 34.6901L15.8638 34.8618L15.8062 35.0325C16.2009 35.1928 16.6139 35.3079 17.0409 35.371C17.4668 35.4338 17.8996 35.441 18.3422 35.3882C18.7839 35.3357 19.2325 35.2221 19.6818 35.0417C20.1367 34.8629 20.5679 34.6097 20.9958 34.286C21.2095 34.1239 21.4155 33.9487 21.6138 33.7602C21.6635 33.7132 21.7125 33.6653 21.761 33.6169C21.8076 33.5677 21.8531 33.5177 21.8984 33.4672C21.9891 33.3661 22.0771 33.2617 22.1631 33.155C22.3355 32.941 22.4984 32.7162 22.6528 32.4822C22.7294 32.3648 22.8058 32.2463 22.8756 32.1242C22.9428 32.0019 23.0079 31.8774 23.07 31.7506C23.5801 30.7409 23.8867 29.6018 23.9691 28.4575C23.5477 28.3956 23.1192 28.3914 22.6913 28.44C22.4782 28.4641 22.2642 28.5018 22.0518 28.5516L22.052 28.5516Z" fill="#1A052F"/>
<path d="M21.1381 20.6815C20.8097 20.8815 20.4964 21.121 20.2021 21.3958C19.9073 21.6707 19.6396 21.9812 19.3722 22.3267C19.1101 22.6718 18.8858 23.0334 18.6983 23.4063L18.63 23.5465L18.5587 23.6877C18.5125 23.7826 18.4685 23.8776 18.4268 23.9738C18.3434 24.1656 18.269 24.3597 18.2041 24.5559C18.1369 24.7519 18.088 24.9506 18.0316 25.1495C17.9758 25.3489 17.9295 25.5499 17.8924 25.7519C17.8553 25.9539 17.827 26.1571 17.8082 26.3618L17.7953 26.5148L17.7791 26.6679C17.7697 26.7703 17.7623 26.8723 17.7577 26.9749C18.4797 27.0641 19.2212 26.9893 19.9379 26.7148C20.6401 26.4397 21.3097 25.9641 21.8963 25.2678C22.1777 24.9193 22.4177 24.5339 22.6229 24.1213C22.7237 23.9151 22.8216 23.7018 22.8981 23.4832C22.9731 23.2648 23.0386 23.0411 23.0942 22.8131C23.3316 21.9011 23.3533 20.9279 23.2303 19.9863C22.5062 20.038 21.7959 20.2817 21.1381 20.6815L21.1381 20.6815Z" fill="#1A052F"/>
<path d="M18.7664 15.4041C18.6758 15.5213 18.5926 15.6436 18.5106 15.7728C18.4264 15.9024 18.3477 16.0379 18.2747 16.179C18.1282 16.4611 18.0117 16.752 17.9239 17.0475C17.8779 17.1956 17.8474 17.3432 17.81 17.4941C17.7746 17.6447 17.7464 17.7961 17.7247 17.9475C17.6817 18.2507 17.6669 18.5554 17.6792 18.8586C17.6885 19.0099 17.6895 19.1626 17.7041 19.3135C17.7172 19.4647 17.7371 19.6152 17.7638 19.7645C18.2998 19.7142 18.823 19.5422 19.296 19.2369C19.5323 19.0843 19.7574 18.8987 19.9631 18.6788C20.162 18.4601 20.3427 18.208 20.4999 17.9223C20.6569 17.6362 20.7833 17.3312 20.8789 17.0133C20.9293 16.8536 20.9613 16.6929 20.9886 16.5298C21.0157 16.3661 21.035 16.2006 21.0471 16.0337C21.0592 15.8668 21.0635 15.698 21.0613 15.5293C21.0581 15.3608 21.0519 15.1906 21.0263 15.0234C20.9805 14.6879 20.9071 14.3551 20.807 14.0314C20.2834 14.1555 19.7913 14.4135 19.3614 14.7784C19.1454 14.9608 18.946 15.1705 18.7663 15.4041L18.7664 15.4041Z" fill="#1A052F"/>
<path d="M16.3907 11.67C16.3764 11.7996 16.3608 11.9316 16.3523 12.0634C16.3437 12.1953 16.3415 12.3265 16.3449 12.4568C16.352 12.7178 16.3829 12.9767 16.4369 13.23C16.4849 13.4854 16.5478 13.7376 16.6371 13.9809C17.0808 13.8602 17.496 13.6383 17.8503 13.3141C18.0275 13.152 18.1894 12.9641 18.3324 12.7509C18.4723 12.5383 18.5867 12.3027 18.6794 12.0414C18.8613 11.5203 18.9426 10.9487 18.883 10.3879C18.8573 10.1065 18.8062 9.82413 18.7316 9.54811C18.6965 9.40891 18.6482 9.27417 18.5944 9.14203C18.5411 9.00927 18.4823 8.87855 18.4181 8.75094C17.9924 8.92509 17.6117 9.206 17.2989 9.56863C17.1413 9.75043 17.0052 9.95105 16.881 10.1733C16.7557 10.3957 16.6492 10.6363 16.5649 10.8935C16.4809 11.1496 16.4234 11.4096 16.3907 11.6701L16.3907 11.67Z" fill="#1A052F"/>
<path d="M14.3683 8.29255C14.4873 8.72405 14.6796 9.12943 14.9396 9.48771C15.6246 9.08956 16.1203 8.38297 16.2174 7.43363C16.2294 7.31507 16.2361 7.19532 16.2339 7.07709C16.2304 6.95982 16.2201 6.84232 16.204 6.72544C16.1721 6.49103 16.1164 6.25814 16.0391 6.03052C15.8925 5.57069 15.6302 5.15392 15.3195 4.78458C15.0006 5.01982 14.7402 5.33399 14.5523 5.70191C14.4586 5.88606 14.3828 6.08376 14.3273 6.29257C14.2704 6.50235 14.2405 6.71795 14.2194 6.95199C14.1825 7.41572 14.2368 7.86909 14.3683 8.29246L14.3683 8.29255Z" fill="#1A052F"/>
<path d="M11.4806 4.66125C11.5889 5.09556 11.7712 5.50558 12.0224 5.87019C12.7169 5.48911 13.2298 4.79499 13.3502 3.84835C13.3652 3.73012 13.3748 3.61057 13.3755 3.49232C13.3749 3.375 13.3675 3.25728 13.3542 3.14004C13.3281 2.90491 13.2782 2.67071 13.2065 2.44125C13.0713 1.97794 12.8193 1.5548 12.5178 1.17788C12.1932 1.40516 11.9251 1.71279 11.7282 2.07595C11.6301 2.25773 11.5494 2.45349 11.4887 2.66086C11.4267 2.86917 11.3916 3.08397 11.3647 3.31741C11.3164 3.78009 11.3596 4.23466 11.4806 4.66116L11.4806 4.66125Z" fill="#1A052F"/>
</svg>
