<svg width="25" height="56" viewBox="0 0 25 56" fill="none" xmlns="http://www.w3.org/2000/svg">
<path d="M16.1274 49.0971C15.9689 49.0534 15.8079 49.0139 15.6455 48.9779C15.4818 48.9411 15.3134 48.9051 15.1443 48.8746C14.8061 48.8125 14.4612 48.7651 14.1109 48.7321C13.9357 48.7156 13.7596 48.703 13.582 48.694C13.4036 48.6839 13.2283 48.682 13.0428 48.6738C12.6758 48.662 12.3042 48.664 11.9305 48.6814C11.7436 48.6902 11.5584 48.7024 11.3749 48.718C11.1894 48.7313 11.0009 48.743 10.8168 48.761C10.4471 48.7955 10.0852 48.8436 9.73059 48.9056C9.3683 48.9577 9.01007 49.0176 8.66121 49.0942C8.48563 49.1305 8.31604 49.1766 8.14083 49.215C7.96544 49.2524 7.79172 49.2933 7.61969 49.3376C7.44817 49.3819 7.27773 49.4291 7.11011 49.4802L6.85938 49.5594L6.60486 49.6323C6.26698 49.7318 5.93643 49.8455 5.61252 49.9726C5.28355 50.0893 4.95619 50.209 4.63769 50.3486C4.32193 50.4947 3.99845 50.6213 3.68456 50.7719C3.90065 51.3499 4.18204 51.9023 4.53903 52.4145C4.71753 52.6706 4.91514 52.9163 5.13263 53.1499C5.34932 53.382 5.58937 53.6095 5.84399 53.8069C6.35487 54.2079 6.94919 54.549 7.62992 54.8135C7.97267 54.9502 8.32609 55.0467 8.70373 55.1282C9.08117 55.2086 9.47938 55.2666 9.89856 55.3004C10.1098 55.3207 10.314 55.3187 10.5249 55.3186C10.7349 55.3166 10.9466 55.3089 11.1604 55.2944C11.5873 55.2649 12.0262 55.2182 12.4502 55.123C12.8783 55.0335 13.3104 54.9201 13.7429 54.7846C14.1687 54.6417 14.5868 54.4673 15.006 54.2776C15.2139 54.1806 15.4268 54.0844 15.6279 53.973C15.8289 53.8611 16.029 53.7445 16.2273 53.6233C16.4256 53.5022 16.6226 53.3765 16.8171 53.2463C16.9141 53.1808 17.0127 53.116 17.107 53.0471C17.1999 52.9769 17.2927 52.9062 17.3847 52.8339C17.7528 52.5455 18.1111 52.2411 18.4575 51.9232C18.7907 51.5952 19.1108 51.2528 19.4162 50.9006C18.5375 50.0361 17.3965 49.4451 16.1274 49.0971Z" fill="#1A052F"/>
<path d="M17.4675 38.0503C17.1814 38.1298 16.9031 38.2263 16.6139 38.3311C16.3236 38.4356 16.0341 38.5535 15.7469 38.6849C15.4579 38.8155 15.1859 38.9604 14.9114 39.109C14.6338 39.2554 14.3655 39.412 14.1078 39.577C13.6017 39.914 13.0907 40.2599 12.6373 40.65L12.4683 40.7972L12.2951 40.9424C12.1808 41.0401 12.0683 41.1396 11.9589 41.2413C11.8495 41.343 11.7427 41.4469 11.6384 41.5531C11.5334 41.6588 11.4346 41.7689 11.3273 41.8729C10.9052 42.2946 10.5407 42.7628 10.1711 43.227C10.9516 43.9294 11.8981 44.4583 12.9862 44.6923C13.5246 44.8058 14.099 44.8462 14.7048 44.8029C15.3173 44.7638 15.9327 44.6214 16.5773 44.3887C17.8685 43.9252 19.0536 43.0856 20.0577 42.0103C20.3085 41.7415 20.5337 41.452 20.7576 41.1551C20.8684 41.0063 20.9765 40.8548 21.0821 40.7005C21.134 40.6229 21.1881 40.546 21.2365 40.467L21.3785 40.2265C21.5651 39.9039 21.74 39.5726 21.9015 39.235L22.0201 38.9804C22.0582 38.8951 22.0913 38.8079 22.1255 38.7211C22.1932 38.5471 22.2575 38.372 22.3185 38.196C21.3528 37.7782 20.2756 37.6402 19.1682 37.738C18.6066 37.7858 18.0361 37.8902 17.4674 38.0503L17.4675 38.0503Z" fill="#1A052F"/>
<path d="M21.552 28.1697C21.339 28.2197 21.1219 28.2822 20.9089 28.3563C20.4815 28.5055 20.0603 28.702 19.6529 28.944C19.4492 29.065 19.2486 29.1973 19.0525 29.3406C18.8554 29.4836 18.6518 29.6359 18.4584 29.8003C18.2639 29.9643 18.0785 30.1349 17.9034 30.3117C17.7283 30.4885 17.566 30.6717 17.3972 30.8571C17.2329 31.0433 17.0775 31.2349 16.9327 31.4317C16.8603 31.5301 16.7903 31.6297 16.7226 31.7304C16.6554 31.8311 16.5907 31.9336 16.5215 32.0346C16.3865 32.2383 16.2613 32.4461 16.146 32.6582C16.0884 32.7642 16.0336 32.8713 15.9807 32.9797C15.9283 33.0881 15.8793 33.1974 15.8247 33.3056C15.7195 33.5228 15.624 33.7438 15.5388 33.9683C15.4962 34.0808 15.4559 34.194 15.4185 34.3083L15.3638 34.48L15.3062 34.6506C15.7009 34.811 16.1139 34.9261 16.5409 34.9892C16.9668 35.052 17.3996 35.0591 17.8422 35.0064C18.2839 34.9538 18.7325 34.8403 19.1818 34.6598C19.6367 34.4811 20.0679 34.2279 20.4958 33.9042C20.7095 33.7421 20.9155 33.5668 21.1138 33.3784C21.1635 33.3314 21.2125 33.2834 21.261 33.235C21.3076 33.1859 21.3531 33.1359 21.3984 33.0853C21.4891 32.9843 21.5771 32.8799 21.6631 32.7732C21.8355 32.5592 21.9984 32.3344 22.1528 32.1004C22.2294 31.983 22.3058 31.8645 22.3756 31.7423C22.4428 31.6201 22.5079 31.4955 22.57 31.3688C23.0801 30.3591 23.3867 29.22 23.4691 28.0757C23.0477 28.0138 22.6192 28.0096 22.1913 28.0581C21.9782 28.0822 21.7642 28.12 21.5518 28.1698L21.552 28.1697Z" fill="#1A052F"/>
<path d="M20.6381 20.2997C20.3097 20.4997 19.9964 20.7391 19.7021 21.014C19.4073 21.2889 19.1396 21.5994 18.8722 21.9449C18.6101 22.29 18.3858 22.6516 18.1983 23.0244L18.13 23.1646L18.0587 23.3059C18.0125 23.4007 17.9685 23.4957 17.9268 23.5919C17.8434 23.7838 17.769 23.9779 17.7041 24.174C17.6369 24.37 17.588 24.5687 17.5316 24.7677C17.4758 24.9671 17.4295 25.168 17.3924 25.37C17.3553 25.5721 17.327 25.7752 17.3082 25.9799L17.2953 26.133L17.2791 26.2861C17.2697 26.3885 17.2623 26.4904 17.2577 26.593C17.9797 26.6822 18.7212 26.6075 19.4379 26.333C20.1401 26.0579 20.8097 25.5822 21.3963 24.8859C21.6777 24.5374 21.9177 24.1521 22.1229 23.7395C22.2237 23.5333 22.3216 23.32 22.3981 23.1013C22.4731 22.8829 22.5386 22.6592 22.5942 22.4313C22.8316 21.5192 22.8533 20.5461 22.7303 19.6044C22.0062 19.6562 21.2959 19.8999 20.6381 20.2997L20.6381 20.2997Z" fill="#1A052F"/>
<path d="M18.2664 15.0222C18.1758 15.1394 18.0926 15.2618 18.0106 15.391C17.9264 15.5205 17.8477 15.6561 17.7747 15.7971C17.6282 16.0793 17.5117 16.3702 17.4239 16.6657C17.3779 16.8138 17.3474 16.9613 17.31 17.1123C17.2746 17.2628 17.2464 17.4143 17.2247 17.5657C17.1817 17.8689 17.1669 18.1736 17.1792 18.4767C17.1885 18.628 17.1895 18.7808 17.2041 18.9317C17.2172 19.0828 17.2371 19.2333 17.2638 19.3827C17.7998 19.3323 18.323 19.1604 18.796 18.8551C19.0323 18.7025 19.2574 18.5169 19.4631 18.297C19.662 18.0783 19.8427 17.8262 19.9999 17.5405C20.1569 17.2543 20.2833 16.9493 20.3789 16.6314C20.4293 16.4718 20.4613 16.311 20.4886 16.1479C20.5157 15.9843 20.535 15.8188 20.5471 15.6519C20.5592 15.485 20.5635 15.3162 20.5613 15.1475C20.5581 14.979 20.5519 14.8088 20.5263 14.6415C20.4805 14.3061 20.4071 13.9733 20.307 13.6495C19.7834 13.7736 19.2913 14.0316 18.8614 14.3966C18.6454 14.579 18.446 14.7886 18.2663 15.0223L18.2664 15.0222Z" fill="#1A052F"/>
<path d="M15.8907 11.2883C15.8764 11.4179 15.8608 11.5499 15.8523 11.6817C15.8437 11.8136 15.8415 11.9448 15.8449 12.0751C15.852 12.3361 15.8829 12.595 15.9369 12.8483C15.9849 13.1037 16.0478 13.3559 16.1371 13.5992C16.5808 13.4784 16.996 13.2566 17.3503 12.9324C17.5275 12.7703 17.6894 12.5824 17.8324 12.3692C17.9723 12.1566 18.0867 11.921 18.1794 11.6597C18.3613 11.1386 18.4426 10.567 18.383 10.0062C18.3573 9.72475 18.3062 9.44242 18.2316 9.1664C18.1965 9.02719 18.1482 8.89246 18.0944 8.76032C18.0411 8.62756 17.9823 8.49684 17.9181 8.36923C17.4924 8.54338 17.1117 8.82428 16.7989 9.18691C16.6413 9.36872 16.5052 9.56933 16.381 9.79157C16.2557 10.014 16.1492 10.2546 16.0649 10.5118C15.9809 10.7679 15.9234 11.0279 15.8907 11.2884L15.8907 11.2883Z" fill="#1A052F"/>
<path d="M13.8683 7.91071C13.9873 8.34221 14.1796 8.7476 14.4396 9.10588C15.1246 8.70773 15.6203 8.00113 15.7174 7.0518C15.7294 6.93324 15.7361 6.81349 15.7339 6.69525C15.7304 6.57799 15.7201 6.46048 15.704 6.34361C15.6721 6.1092 15.6164 5.8763 15.5391 5.64868C15.3925 5.18885 15.1302 4.77209 14.8195 4.40274C14.5006 4.63798 14.2402 4.95215 14.0523 5.32008C13.9586 5.50423 13.8828 5.70192 13.8273 5.91073C13.7704 6.12051 13.7405 6.33611 13.7194 6.57015C13.6825 7.03388 13.7368 7.48725 13.8683 7.91062L13.8683 7.91071Z" fill="#1A052F"/>
<path d="M10.9806 4.27954C11.0889 4.71384 11.2712 5.12387 11.5224 5.48847C12.2169 5.10739 12.7298 4.41328 12.8502 3.46664C12.8652 3.34841 12.8748 3.22886 12.8755 3.11061C12.8749 2.99329 12.8675 2.87557 12.8542 2.75833C12.8281 2.5232 12.7782 2.289 12.7065 2.05954C12.5713 1.59622 12.3193 1.17309 12.0178 0.79617C11.6932 1.02345 11.4251 1.33108 11.2282 1.69424C11.1301 1.87602 11.0494 2.07178 10.9887 2.27915C10.9267 2.48746 10.8916 2.70225 10.8647 2.9357C10.8164 3.39838 10.8596 3.85295 10.9806 4.27945L10.9806 4.27954Z" fill="#1A052F"/>
</svg>
