<svg width="96" height="16" viewBox="0 0 96 16" fill="none" xmlns="http://www.w3.org/2000/svg">
<g clip-path="url(#clip0_2694_23263)">
<path d="M12.4725 10.2524L12.9442 15.5984L7.99995 13.4983L3.05571 15.5984L3.52735 10.2524L0 6.20432L5.23573 5.00037L7.99995 0.398438L10.7642 5.00037L15.9999 6.20432L12.4725 10.2524Z" fill="#FF8A00"/>
</g>
<g clip-path="url(#clip1_2694_23263)">
<path d="M32.4725 10.2524L32.9442 15.5984L28 13.4983L23.0557 15.5984L23.5274 10.2524L20 6.20432L25.2357 5.00037L28 0.398438L30.7642 5.00037L35.9999 6.20432L32.4725 10.2524Z" fill="#FF8A00"/>
</g>
<g clip-path="url(#clip2_2694_23263)">
<path d="M52.4725 10.2524L52.9442 15.5984L48 13.4983L43.0557 15.5984L43.5274 10.2524L40 6.20432L45.2357 5.00037L48 0.398438L50.7642 5.00037L55.9999 6.20432L52.4725 10.2524Z" fill="#FF8A00"/>
</g>
<g clip-path="url(#clip3_2694_23263)">
<path d="M72.4725 10.2524L72.9442 15.5984L68 13.4983L63.0557 15.5984L63.5274 10.2524L60 6.20432L65.2357 5.00037L68 0.398438L70.7642 5.00037L75.9999 6.20432L72.4725 10.2524Z" fill="#FF8A00"/>
</g>
<g clip-path="url(#clip4_2694_23263)">
<path d="M92.4725 10.2524L92.9442 15.5984L88 13.4983L83.0557 15.5984L83.5274 10.2524L80 6.20432L85.2357 5.00037L88 0.398438L90.7642 5.00037L95.9999 6.20432L92.4725 10.2524Z" fill="#FF8A00"/>
</g>
<defs>
<clipPath id="clip0_2694_23263">
<rect width="16" height="16" fill="white"/>
</clipPath>
<clipPath id="clip1_2694_23263">
<rect width="16" height="16" fill="white" transform="translate(20)"/>
</clipPath>
<clipPath id="clip2_2694_23263">
<rect width="16" height="16" fill="white" transform="translate(40)"/>
</clipPath>
<clipPath id="clip3_2694_23263">
<rect width="16" height="16" fill="white" transform="translate(60)"/>
</clipPath>
<clipPath id="clip4_2694_23263">
<rect width="16" height="16" fill="white" transform="translate(80)"/>
</clipPath>
</defs>
</svg>
