<svg width="24" height="24" viewBox="0 0 24 24" fill="none" xmlns="http://www.w3.org/2000/svg">
<path fill-rule="evenodd" clip-rule="evenodd" d="M5.89427 16.61L6 16.5C5 17.5 4.50166 18.8333 4.50498 20.5C6.10573 20.5 7.39931 20.0369 8.3857 19.1108C8.32981 19.8351 8.0348 20.4652 7.5 21C6.5 22 5 22.3333 3 22C2.66667 20 3 18.5 4 17.5C4.53682 16.9632 5.16824 16.6665 5.89427 16.61Z" fill="#9EA0A1"/>
<mask id="mask0_2760_1026" style="mask-type:alpha" maskUnits="userSpaceOnUse" x="5" y="-6" width="26" height="25">
<path d="M9.90039 18.6998C12.1095 18.6998 31.0004 19.4998 31.0004 8.99976C31.0004 -1.50024 23.0004 -6.00024 14.5004 -5.00024C6.00039 -4.00024 5.90039 12.4906 5.90039 14.6998C5.90039 16.9089 7.69125 18.6998 9.90039 18.6998Z" fill="white"/>
</mask>
<g mask="url(#mask0_2760_1026)">
<path fill-rule="evenodd" clip-rule="evenodd" d="M22.3195 0.431152C22.6599 5.766 21.2913 10.2036 18.2136 13.7441C15.1359 17.2846 10.9319 19.2575 5.60163 19.6628C5.26122 14.328 6.62985 9.89034 9.70752 6.34989C12.7852 2.80943 16.9892 0.83652 22.3195 0.431152ZM15.5002 6.1998C14.3956 6.1998 13.5002 7.09523 13.5002 8.1998C13.5002 9.30437 14.3956 10.1998 15.5002 10.1998C16.6047 10.1998 17.5002 9.30437 17.5002 8.1998C17.5002 7.09523 16.6047 6.1998 15.5002 6.1998Z" fill="#9EA0A1"/>
</g>
<path fill-rule="evenodd" clip-rule="evenodd" d="M1.20769 16.1881C1.22429 17.1388 8.10923 13.6816 9.50043 14.9998C10.8575 16.2857 7.86467 23.4699 8.73255 23.4548C12.8171 23.3835 16.0705 20.0145 15.9992 15.9299C15.9279 11.8454 12.5589 8.59198 8.47436 8.66327C4.38979 8.73457 1.1364 12.1036 1.20769 16.1881Z" fill="#9EA0A1"/>
</svg>
