<svg width="13" height="13" viewBox="0 0 13 13" fill="none" xmlns="http://www.w3.org/2000/svg">
<path d="M7.27795 3.24051C8.22042 2.11732 9.89497 1.97082 11.0182 2.91329C12.1414 3.85576 12.2879 5.53031 11.3454 6.6535L8.61342 9.90933C7.67095 11.0325 5.9964 11.179 4.87321 10.2366C3.75002 9.29409 3.60352 7.61954 4.54599 6.49635L7.27795 3.24051Z" fill="#FA41A5"/>
<path d="M4.18079 9.90909C5.12326 11.0323 6.79781 11.1788 7.921 10.2363C9.04419 9.29385 9.1907 7.61929 8.24823 6.4961L5.66518 3.41774C4.72271 2.29455 3.04816 2.14805 1.92496 3.09052C0.801771 4.03299 0.655267 5.70754 1.59774 6.83073L4.18079 9.90909Z" fill="#FA41A5"/>
</svg>
