<svg width="13" height="13" viewBox="0 0 13 13" fill="none" xmlns="http://www.w3.org/2000/svg">
<path d="M7.27795 2.75211C8.22042 1.62892 9.89497 1.48242 11.0182 2.42489C12.1414 3.36736 12.2879 5.04191 11.3454 6.1651L8.61342 9.42093C7.67095 10.5441 5.9964 10.6906 4.87321 9.74816C3.75002 8.80569 3.60352 7.13114 4.54599 6.00794L7.27795 2.75211Z" fill="#FA41A5"/>
<path d="M4.18079 9.42069C5.12326 10.5439 6.79781 10.6904 7.921 9.74791C9.04419 8.80544 9.1907 7.13089 8.24823 6.0077L5.66518 2.92934C4.72271 1.80615 3.04816 1.65964 1.92496 2.60211C0.801771 3.54458 0.655267 5.21913 1.59774 6.34233L4.18079 9.42069Z" fill="#FA41A5"/>
</svg>
