<svg width="13" height="13" viewBox="0 0 13 13" fill="none" xmlns="http://www.w3.org/2000/svg">
<path d="M7.28791 3.46015C8.16351 2.41665 9.71925 2.28054 10.7628 3.15614C11.8063 4.03175 11.9424 5.58749 11.0668 6.63099L8.52863 9.65583C7.65303 10.6993 6.09728 10.8354 5.05378 9.95984C4.01028 9.08423 3.87417 7.52849 4.74977 6.48499L7.28791 3.46015Z" fill="#FA41A5"/>
<path d="M4.41048 9.6556C5.28609 10.6991 6.84183 10.8352 7.88533 9.95961C8.92883 9.08401 9.06495 7.52826 8.18934 6.48476L5.78956 3.62481C4.91395 2.58131 3.35821 2.4452 2.31471 3.3208C1.2712 4.1964 1.13509 5.75214 2.0107 6.79565L4.41048 9.6556Z" fill="#FA41A5"/>
</svg>
