<svg width="15" height="14" viewBox="0 0 15 14" fill="none" xmlns="http://www.w3.org/2000/svg">
<g clip-path="url(#clip0_2767_11532)">
<path d="M11.7573 6.42954C11.619 5.43457 11.1574 4.51266 10.4436 3.80582C9.72987 3.09899 8.8035 2.64644 7.80722 2.51789C6.81095 2.38933 5.80004 2.59191 4.93023 3.09442C4.06041 3.59692 3.37994 4.37147 2.99363 5.29875M2.71094 3.03717V5.29875H4.97252" stroke="#1A052F" stroke-width="0.848092" stroke-linecap="round" stroke-linejoin="round"/>
<path d="M2.71094 7.56055C2.84921 8.55552 3.31078 9.47743 4.02455 10.1843C4.73833 10.8911 5.6647 11.3437 6.66097 11.4722C7.65725 11.6008 8.66815 11.3982 9.53797 10.8957C10.4078 10.3932 11.0883 9.61862 11.4746 8.69134M11.7573 10.9529V8.69134H9.49568" stroke="#1A052F" stroke-width="0.848092" stroke-linecap="round" stroke-linejoin="round"/>
</g>
<defs>
<clipPath id="clip0_2767_11532">
<rect width="13.5695" height="13.5695" fill="white" transform="translate(0.449219 0.210449)"/>
</clipPath>
</defs>
</svg>
