<svg width="62" height="62" viewBox="0 0 62 62" fill="none" xmlns="http://www.w3.org/2000/svg">
<g clip-path="url(#clip0_2760_9452)">
<rect width="62" height="62" fill="url(#paint0_linear_2760_9452)"/>
<path fill-rule="evenodd" clip-rule="evenodd" d="M42.625 0H42.8672V4.11719H57.7116L57.7972 4.03156L57.9684 4.20282L57.8828 4.28843V19.1328H62V19.375H57.8828V30.8789H62V31.1211H57.8828V42.625H62V42.8672H57.8828V57.7116L57.9684 57.7972L57.7972 57.9684L57.7116 57.8828H42.8672V62H42.625V57.8828H31.1211V62H30.8789V57.8828H19.375V62H19.1328V57.8828H4.28843L4.20281 57.9684L4.03156 57.7972L4.11719 57.7116V42.8672H0V42.625H4.11719V31.1211H0V30.8789H4.11719V19.375H0V19.1328H4.11719V4.28845L4.03156 4.20282L4.20281 4.03156L4.28843 4.11719H19.1328V0H19.375V4.11719H30.8789V0H31.1211V4.11719H42.625V0ZM4.35964 31.1211C4.37799 35.2442 5.33298 39.1461 7.0228 42.625H18.9952C16.1081 39.6441 14.3212 35.5912 14.2895 31.1211H4.35964ZM14.2895 30.8789H4.35964C4.37799 26.7558 5.33298 22.8539 7.0228 19.375H18.9952C16.1081 22.3559 14.3212 26.4088 14.2895 30.8789ZM14.5317 31.1211C14.5633 35.5069 16.3093 39.4851 19.1328 42.4188V31.1211H14.5317ZM19.1328 30.8789H14.5317C14.5633 26.4931 16.3093 22.5149 19.1328 19.5811V30.8789ZM19.375 31.1211V42.4537L30.7076 31.1211H19.375ZM30.7076 30.8789H19.375V19.5463L30.7076 30.8789ZM31.2923 31.1211L42.625 42.4538V31.1211H31.2923ZM42.625 30.8789H31.2923L42.625 19.5462V30.8789ZM42.8672 31.1211V42.4188C45.6907 39.4851 47.4367 35.5069 47.4683 31.1211H42.8672ZM47.4683 30.8789H42.8672V19.5811C45.6907 22.5149 47.4367 26.4931 47.4683 30.8789ZM47.7105 31.1211C47.6788 35.5912 45.8919 39.6441 43.0048 42.625H54.9772C56.667 39.1461 57.622 35.2442 57.6404 31.1211H47.7105ZM57.6404 30.8789H47.7105C47.6788 26.4088 45.8919 22.3559 43.0048 19.375H54.9772C56.667 22.8539 57.622 26.7558 57.6404 30.8789ZM42.625 54.9772C39.1461 56.667 35.2442 57.622 31.1211 57.6404V47.7105C35.5912 47.6788 39.6441 45.8919 42.625 43.0048V54.9772ZM42.4188 42.8672C39.4851 45.6907 35.5069 47.4367 31.1211 47.4683V42.8672H42.4188ZM30.8789 47.4683V42.8672H19.5811C22.5149 45.6907 26.4931 47.4367 30.8789 47.4683ZM42.4537 42.625H31.1211V31.2924L42.4537 42.625ZM30.8789 42.625V31.2923L19.5462 42.625H30.8789ZM42.4537 19.375L31.1211 30.7076V19.375H42.4537ZM30.8789 30.7077V19.375H19.5462L30.8789 30.7077ZM42.4188 19.1328H31.1211V14.5317C35.5069 14.5633 39.4851 16.3093 42.4188 19.1328ZM30.8789 19.1328V14.5317C26.4931 14.5633 22.5149 16.3093 19.5811 19.1328H30.8789ZM42.625 18.9952C39.6441 16.1081 35.5912 14.3212 31.1211 14.2895V4.35964C35.2442 4.37799 39.1461 5.33298 42.625 7.0228V18.9952ZM30.8789 14.2895V4.35964C26.7558 4.37799 22.8539 5.33298 19.375 7.0228V18.9952C22.3559 16.1081 26.4088 14.3212 30.8789 14.2895ZM30.8789 57.6404V47.7105C26.4088 47.6788 22.3559 45.8919 19.375 43.0048V54.9772C22.8539 56.667 26.7558 57.622 30.8789 57.6404ZM4.35938 19.375V27.376C4.74078 24.5455 5.56267 21.8548 6.75378 19.375H4.35938ZM6.87162 19.1328H4.35938V4.53063L11.9055 12.0768C9.86997 14.1307 8.16346 16.5112 6.87162 19.1328ZM18.9616 19.1328H7.14197C8.41554 16.5773 10.0876 14.2553 12.0768 12.2481L18.9616 19.1328ZM54.858 19.1328H43.0384L49.9232 12.248C51.9124 14.2553 53.5845 16.5773 54.858 19.1328ZM55.2462 19.375C56.4373 21.8548 57.2592 24.5455 57.6406 27.376V19.375H55.2462ZM57.6406 19.1328H55.1284C53.8365 16.5112 52.13 14.1307 50.0944 12.0768L57.6406 4.53062V19.1328ZM57.6406 34.624V42.625H55.2462C56.4373 40.1452 57.2592 37.4545 57.6406 34.624ZM54.858 42.8672H43.0384L49.9232 49.752C51.9124 47.7447 53.5845 45.4227 54.858 42.8672ZM18.9616 42.8672H7.14197C8.41554 45.4227 10.0876 47.7447 12.0768 49.7519L18.9616 42.8672ZM4.35938 34.624C4.74078 37.4545 5.56267 40.1452 6.75378 42.625H4.35938V34.624ZM6.87161 42.8672H4.35938V57.4694L11.9055 49.9232C9.86997 47.8693 8.16346 45.4888 6.87161 42.8672ZM57.6406 42.8672H55.1284C53.8365 45.4888 52.13 47.8693 50.0944 49.9232L57.6406 57.4694V42.8672ZM19.1328 4.35938H4.53062L12.0768 11.9056C14.1307 9.86998 16.5112 8.16346 19.1328 6.87162V4.35938ZM19.375 6.75378V4.35938H27.376C24.5455 4.74078 21.8548 5.56267 19.375 6.75378ZM19.1328 7.14197C16.5773 8.41554 14.2553 10.0876 12.248 12.0768L19.1328 18.9616V7.14197ZM19.1328 43.0384V54.858C16.5773 53.5845 14.2553 51.9124 12.248 49.9232L19.1328 43.0384ZM19.1328 55.1284C16.5112 53.8365 14.1307 52.13 12.0768 50.0944L4.53062 57.6406H19.1328V55.1284ZM19.375 57.6406V55.2462C21.8548 56.4373 24.5455 57.2592 27.376 57.6406H19.375ZM34.624 4.35938H42.625V6.75378C40.1452 5.56267 37.4545 4.74078 34.624 4.35938ZM42.8672 4.35938V6.87161C45.4888 8.16346 47.8693 9.86997 49.9232 11.9055L57.4694 4.35938H42.8672ZM42.8672 7.14197V18.9616L49.7519 12.0768C47.7447 10.0876 45.4227 8.41554 42.8672 7.14197ZM42.8672 43.0384V54.858C45.4227 53.5845 47.7447 51.9124 49.7519 49.9232L42.8672 43.0384ZM34.624 57.6406C37.4545 57.2592 40.1452 56.4373 42.625 55.2462V57.6406H34.624ZM42.8672 55.1284V57.6406H57.4694L49.9232 50.0945C47.8693 52.13 45.4888 53.8365 42.8672 55.1284Z" fill="white" fill-opacity="0.5"/>
</g>
<defs>
<linearGradient id="paint0_linear_2760_9452" x1="31" y1="0" x2="31" y2="62" gradientUnits="userSpaceOnUse">
<stop stop-color="#1AD5FE"/>
<stop offset="1" stop-color="#1E63EF"/>
</linearGradient>
<clipPath id="clip0_2760_9452">
<rect width="62" height="62" fill="white"/>
</clipPath>
</defs>
</svg>
