<svg width="24" height="24" viewBox="0 0 24 24" fill="none" xmlns="http://www.w3.org/2000/svg">
<path d="M17.5 8H6.5C6.22386 8 6 8.22386 6 8.5V19.5C6 19.7761 6.22386 20 6.5 20H17.5C17.7761 20 18 19.7761 18 19.5V8.5C18 8.22386 17.7761 8 17.5 8Z" fill="#9EA0A1"/>
<path d="M17.75 1.75H6.25C4.86929 1.75 3.75 2.86929 3.75 4.25V19.75C3.75 21.1307 4.86929 22.25 6.25 22.25H17.75C19.1307 22.25 20.25 21.1307 20.25 19.75V4.25C20.25 2.86929 19.1307 1.75 17.75 1.75Z" stroke="#9EA0A1" stroke-width="1.5"/>
<path d="M11.75 4H6.75C6.33579 4 6 4.33579 6 4.75C6 5.16421 6.33579 5.5 6.75 5.5H11.75C12.1642 5.5 12.5 5.16421 12.5 4.75C12.5 4.33579 12.1642 4 11.75 4Z" fill="#9EA0A1"/>
</svg>
