<svg width="108" height="28" viewBox="0 0 108 28" fill="none" xmlns="http://www.w3.org/2000/svg">
<path d="M16.6301 13.2306C16.6417 12.3278 16.8798 11.4426 17.3224 10.6573C17.765 9.87207 18.3977 9.21231 19.1616 8.73943C18.6763 8.04158 18.0362 7.46727 17.2919 7.06213C16.5476 6.65698 15.7198 6.43216 14.8742 6.40552C13.0703 6.21487 11.3215 7.49242 10.4023 7.49242C9.46524 7.49242 8.04994 6.42445 6.52589 6.45603C5.5401 6.4881 4.57936 6.77674 3.7373 7.29385C2.89523 7.81095 2.20055 8.53888 1.72094 9.4067C-0.356622 13.0286 1.19305 18.3516 3.18318 21.2793C4.17889 22.7129 5.34258 24.3142 6.86525 24.2574C8.35528 24.1952 8.91177 23.3007 10.7104 23.3007C12.4923 23.3007 13.0144 24.2574 14.5679 24.2213C16.1668 24.1952 17.1742 22.7814 18.1349 21.3342C18.8503 20.3127 19.4008 19.1837 19.7661 17.9891C18.8372 17.5935 18.0445 16.9313 17.4868 16.0851C16.9291 15.2389 16.6312 14.2462 16.6301 13.2306Z" fill="black"/>
<path d="M13.6965 4.47997C14.5683 3.42619 14.9978 2.07174 14.8938 0.704254C13.5619 0.84511 12.3317 1.48607 11.4481 2.49941C11.0161 2.99446 10.6853 3.57038 10.4744 4.19426C10.2636 4.81814 10.177 5.47773 10.2195 6.13534C10.8857 6.14225 11.5447 5.99686 12.147 5.71012C12.7493 5.42338 13.2791 5.00277 13.6965 4.47997Z" fill="black"/>
<path d="M35.4654 20.6281H30.3807L29.1596 24.2587H27.0059L31.8221 10.8264H34.0597L38.8759 24.2587H36.6855L35.4654 20.6281ZM30.9073 18.9528H34.9378L32.9509 13.0606H32.8953L30.9073 18.9528Z" fill="black"/>
<path d="M49.2786 19.3632C49.2786 22.4065 47.661 24.3617 45.2198 24.3617C44.6014 24.3943 43.9864 24.2509 43.4452 23.9479C42.9041 23.6448 42.4585 23.1945 42.1597 22.6484H42.1135V27.499H40.1172V14.4661H42.0496V16.0949H42.0863C42.3988 15.5514 42.8519 15.1034 43.3972 14.7986C43.9425 14.4937 44.5597 14.3434 45.1831 14.3636C47.6515 14.3636 49.2786 16.3284 49.2786 19.3632ZM47.2267 19.3632C47.2267 17.3805 46.2091 16.077 44.6565 16.077C43.1311 16.077 42.1052 17.408 42.1052 19.3632C42.1052 21.3364 43.1311 22.6579 44.6565 22.6579C46.2091 22.6579 47.2267 21.3639 47.2267 19.3632Z" fill="black"/>
<path d="M59.9817 19.3632C59.9817 22.4065 58.3641 24.3617 55.923 24.3617C55.3046 24.3943 54.6896 24.2509 54.1484 23.9478C53.6072 23.6448 53.1617 23.1945 52.8629 22.6483H52.8167V27.499H50.8203V14.4661H52.7527V16.0949H52.7894C53.1019 15.5514 53.555 15.1034 54.1003 14.7985C54.6456 14.4937 55.2628 14.3434 55.8862 14.3636C58.3547 14.3636 59.9817 16.3284 59.9817 19.3632ZM57.9298 19.3632C57.9298 17.3805 56.9122 16.077 55.3596 16.077C53.8343 16.077 52.8083 17.4079 52.8083 19.3632C52.8083 21.3364 53.8343 22.6579 55.3596 22.6579C56.9122 22.6579 57.9298 21.3639 57.9298 19.3632Z" fill="black"/>
<path d="M67.0573 20.5167C67.2052 21.8487 68.4903 22.7233 70.2464 22.7233C71.9291 22.7233 73.1397 21.8487 73.1397 20.6476C73.1397 19.605 72.4095 18.9808 70.6807 18.5529L68.9519 18.1336C66.5023 17.5378 65.3651 16.3843 65.3651 14.5125C65.3651 12.1949 67.3709 10.603 70.2191 10.603C73.0379 10.603 74.9703 12.1949 75.0353 14.5125H73.0201C72.8994 13.172 71.799 12.3629 70.1908 12.3629C68.5826 12.3629 67.4821 13.1815 67.4821 14.3731C67.4821 15.3227 68.185 15.8815 69.9044 16.3093L71.3741 16.6726C74.1111 17.3244 75.2483 18.4314 75.2483 20.3962C75.2483 22.9092 73.2603 24.4831 70.0984 24.4831C67.1401 24.4831 65.1427 22.9461 65.0137 20.5166L67.0573 20.5167Z" fill="black"/>
<path d="M79.5547 12.1484V14.466H81.4042V16.0579H79.5547V21.4568C79.5547 22.2955 79.925 22.6863 80.738 22.6863C80.9576 22.6825 81.1768 22.6669 81.3947 22.6398V24.2222C81.0292 24.291 80.6577 24.3221 80.2859 24.3151C78.3168 24.3151 77.5489 23.5704 77.5489 21.6712V16.0579H76.1348V14.466H77.5489V12.1484H79.5547Z" fill="black"/>
<path d="M82.4766 19.3632C82.4766 16.2819 84.2788 14.3457 87.0893 14.3457C89.9091 14.3457 91.703 16.2819 91.703 19.3632C91.703 22.453 89.9186 24.3808 87.0893 24.3808C84.261 24.3808 82.4766 22.453 82.4766 19.3632ZM89.6689 19.3632C89.6689 17.2495 88.7069 16.002 87.0892 16.002C85.4716 16.002 84.5107 17.259 84.5107 19.3632C84.5107 21.4854 85.4716 22.7234 87.0892 22.7234C88.7069 22.7234 89.6689 21.4854 89.6689 19.3632Z" fill="black"/>
<path d="M93.3477 14.466H95.2517V16.1329H95.2979C95.4267 15.6123 95.7296 15.1522 96.1556 14.83C96.5816 14.5078 97.1048 14.343 97.6373 14.3635C97.8673 14.3627 98.0968 14.3879 98.3213 14.4385V16.3188C98.0308 16.2294 97.7278 16.1884 97.4243 16.1973C97.1343 16.1855 96.8451 16.2369 96.5767 16.3482C96.3083 16.4595 96.0671 16.628 95.8694 16.842C95.6718 17.0561 95.5225 17.3107 95.4318 17.5883C95.3411 17.8659 95.3112 18.16 95.344 18.4504V24.2592H93.3477L93.3477 14.466Z" fill="black"/>
<path d="M107.527 21.3828C107.259 23.1606 105.539 24.3806 103.339 24.3806C100.51 24.3806 98.754 22.4719 98.754 19.4096C98.754 16.3378 100.52 14.3456 103.256 14.3456C105.946 14.3456 107.638 16.2068 107.638 19.1761V19.8649H100.769V19.9863C100.738 20.3467 100.782 20.7098 100.901 21.0515C101.019 21.3931 101.208 21.7055 101.456 21.9678C101.703 22.2302 102.003 22.4365 102.336 22.5731C102.669 22.7098 103.027 22.7735 103.386 22.7602C103.857 22.8047 104.331 22.6947 104.735 22.4465C105.14 22.1984 105.454 21.8253 105.632 21.3828L107.527 21.3828ZM100.779 18.4599H105.641C105.659 18.1359 105.61 17.8116 105.498 17.5074C105.385 17.2032 105.212 16.9257 104.988 16.6923C104.764 16.459 104.494 16.2747 104.196 16.1512C103.898 16.0276 103.578 15.9674 103.256 15.9744C102.93 15.9725 102.608 16.0354 102.307 16.1595C102.006 16.2836 101.733 16.4665 101.503 16.6975C101.273 16.9286 101.09 17.2033 100.966 17.5058C100.841 17.8083 100.778 18.1326 100.779 18.4599Z" fill="black"/>
<path d="M30.3074 0.716019C30.726 0.685776 31.146 0.749443 31.5371 0.902428C31.9283 1.05541 32.2808 1.2939 32.5693 1.60069C32.8578 1.90748 33.0752 2.27493 33.2056 2.67652C33.336 3.07811 33.3763 3.50385 33.3235 3.92301C33.3235 5.98496 32.2167 7.1702 30.3074 7.1702H27.9922V0.716019H30.3074ZM28.9877 6.25744H30.1962C30.4953 6.27544 30.7946 6.22607 31.0723 6.11291C31.3501 5.99975 31.5993 5.82566 31.8017 5.6033C32.0042 5.38095 32.1549 5.11593 32.2429 4.82753C32.3308 4.53914 32.3538 4.23463 32.3101 3.93617C32.3506 3.63889 32.3253 3.33626 32.236 3.04998C32.1467 2.7637 31.9957 2.50085 31.7936 2.28027C31.5916 2.05968 31.3436 1.88682 31.0675 1.77407C30.7913 1.66132 30.4938 1.61147 30.1962 1.6281H28.9877V6.25744Z" fill="black"/>
<path d="M34.4483 4.73228C34.4179 4.41219 34.4542 4.08924 34.5551 3.78413C34.6559 3.47903 34.8189 3.1985 35.0337 2.96055C35.2484 2.7226 35.5103 2.53248 35.8023 2.40238C36.0943 2.27228 36.4101 2.20508 36.7295 2.20508C37.0488 2.20508 37.3646 2.27228 37.6566 2.40238C37.9487 2.53248 38.2105 2.7226 38.4253 2.96055C38.64 3.1985 38.8031 3.47903 38.9039 3.78413C39.0047 4.08924 39.041 4.41219 39.0106 4.73228C39.0416 5.0527 39.0057 5.3761 38.9051 5.6817C38.8046 5.9873 38.6417 6.26834 38.4268 6.50675C38.212 6.74517 37.95 6.93569 37.6577 7.06607C37.3654 7.19645 37.0492 7.2638 36.7295 7.2638C36.4097 7.2638 36.0936 7.19645 35.8012 7.06607C35.5089 6.93569 35.2469 6.74517 35.0321 6.50675C34.8172 6.26834 34.6543 5.9873 34.5538 5.6817C34.4532 5.3761 34.4173 5.0527 34.4483 4.73228ZM38.0287 4.73228C38.0287 3.67649 37.5577 3.05907 36.731 3.05907C35.9012 3.05907 35.4344 3.67649 35.4344 4.73229C35.4344 5.79654 35.9013 6.4092 36.731 6.4092C37.5577 6.40919 38.0287 5.7923 38.0287 4.73228Z" fill="black"/>
<path d="M45.0746 7.17051H44.0843L43.0845 3.58323H43.009L42.0134 7.17051H41.0326L39.6992 2.2998H40.6675L41.534 6.01644H41.6054L42.5999 2.2998H43.5157L44.5102 6.01644H44.5857L45.448 2.2998H46.4027L45.0746 7.17051Z" fill="black"/>
<path d="M47.5254 2.2995H48.4444V3.07325H48.5157C48.6367 2.79535 48.8408 2.56238 49.0996 2.40683C49.3583 2.25128 49.6588 2.18089 49.9592 2.20548C50.1946 2.18766 50.4309 2.22339 50.6507 2.31003C50.8705 2.39667 51.0681 2.53199 51.2289 2.70597C51.3897 2.87995 51.5095 3.08813 51.5796 3.31509C51.6496 3.54205 51.668 3.78196 51.6335 4.01707V7.17015H50.6789V4.25846C50.6789 3.47572 50.3411 3.08646 49.635 3.08646C49.4752 3.07897 49.3157 3.10635 49.1674 3.16674C49.0191 3.22713 48.8855 3.3191 48.7758 3.43634C48.6661 3.55357 48.5829 3.69331 48.5318 3.84597C48.4808 3.99862 48.4631 4.16059 48.48 4.32077V7.17021H47.5254L47.5254 2.2995Z" fill="black"/>
<path d="M53.1523 0.398438H54.107V7.17053H53.1523V0.398438Z" fill="black"/>
<path d="M55.4346 4.73237C55.4042 4.41226 55.4406 4.08929 55.5414 3.78417C55.6423 3.47905 55.8053 3.19852 56.0201 2.96057C56.2349 2.72261 56.4967 2.53249 56.7888 2.40238C57.0808 2.27228 57.3967 2.20508 57.716 2.20508C58.0354 2.20508 58.3512 2.27228 58.6433 2.40238C58.9353 2.53249 59.1971 2.72261 59.4119 2.96057C59.6268 3.19852 59.7898 3.47905 59.8906 3.78417C59.9915 4.08929 60.0278 4.41226 59.9975 4.73237C60.0284 5.0528 59.9924 5.37621 59.8919 5.6818C59.7913 5.9874 59.6283 6.26844 59.4135 6.50685C59.1986 6.74526 58.9366 6.93577 58.6443 7.06614C58.3519 7.19652 58.0358 7.26387 57.716 7.26387C57.3963 7.26387 57.0801 7.19652 56.7878 7.06614C56.4954 6.93577 56.2334 6.74526 56.0186 6.50685C55.8037 6.26844 55.6408 5.9874 55.5402 5.6818C55.4396 5.37621 55.4036 5.0528 55.4346 4.73237ZM59.015 4.73237C59.015 3.67658 58.544 3.05916 57.7173 3.05916C56.8875 3.05916 56.4207 3.67658 56.4207 4.73238C56.4207 5.79663 56.8876 6.40929 57.7173 6.40929C58.544 6.40928 59.015 5.79239 59.015 4.73237Z" fill="black"/>
<path d="M61.002 5.79235C61.002 4.9156 61.6503 4.41015 62.8011 4.33832L64.1114 4.26226V3.84185C64.1114 3.32741 63.7736 3.03693 63.121 3.03693C62.5881 3.03693 62.2189 3.23394 62.1129 3.5783H61.1887C61.2862 2.74169 62.0678 2.20508 63.1651 2.20508C64.3778 2.20508 65.0618 2.81298 65.0618 3.84185V7.1698H64.1428V6.4853H64.0673C63.914 6.73083 63.6987 6.931 63.4434 7.06535C63.1882 7.19971 62.9021 7.26344 62.6144 7.25005C62.4113 7.27131 62.206 7.2495 62.0119 7.18601C61.8177 7.12251 61.6389 7.01875 61.487 6.88141C61.335 6.74407 61.2134 6.5762 61.1299 6.38862C61.0463 6.20105 61.0028 5.99792 61.002 5.79235ZM64.1114 5.37615V4.96894L62.9301 5.045C62.264 5.08989 61.9618 5.31805 61.9618 5.74745C61.9618 6.18582 62.3395 6.44092 62.8588 6.44092C63.011 6.45643 63.1647 6.44096 63.3108 6.39543C63.4569 6.3499 63.5924 6.27525 63.7093 6.1759C63.8261 6.07656 63.9219 5.95456 63.991 5.81717C64.0601 5.67978 64.101 5.5298 64.1114 5.37615Z" fill="black"/>
<path d="M66.3184 4.73308C66.3184 3.19402 67.1041 2.21903 68.3262 2.21903C68.6286 2.205 68.9286 2.27791 69.1913 2.42923C69.4539 2.58055 69.6684 2.80403 69.8096 3.07355H69.881V0.398438H70.8356V7.17053H69.9208V6.40099H69.8453C69.6932 6.6687 69.4712 6.88939 69.2035 7.03919C68.9357 7.18898 68.6324 7.26216 68.3263 7.2508C67.0957 7.25085 66.3184 6.27584 66.3184 4.73308ZM67.3045 4.73308C67.3045 5.76617 67.7881 6.38782 68.5969 6.38782C69.4015 6.38782 69.8988 5.7572 69.8988 4.73731C69.8988 3.72218 69.3963 3.08257 68.5969 3.08257C67.7933 3.08257 67.3045 3.70844 67.3045 4.73308Z" fill="black"/>
<path d="M74.7862 4.73277C74.7558 4.41268 74.7921 4.08973 74.8929 3.78462C74.9938 3.47951 75.1568 3.19899 75.3716 2.96104C75.5863 2.72309 75.8481 2.53297 76.1402 2.40287C76.4322 2.27277 76.748 2.20557 77.0673 2.20557C77.3867 2.20557 77.7025 2.27277 77.9945 2.40287C78.2866 2.53297 78.5483 2.72309 78.7631 2.96104C78.9779 3.19899 79.1409 3.47951 79.2417 3.78462C79.3426 4.08973 79.3789 4.41268 79.3485 4.73277C79.3795 5.05319 79.3436 5.37659 79.243 5.68219C79.1425 5.98779 78.9796 6.26883 78.7647 6.50724C78.5499 6.74566 78.2879 6.93618 77.9956 7.06656C77.7032 7.19694 77.3871 7.26429 77.0673 7.26429C76.7476 7.26429 76.4314 7.19694 76.1391 7.06656C75.8468 6.93618 75.5848 6.74566 75.37 6.50724C75.1551 6.26883 74.9922 5.98779 74.8917 5.68219C74.7911 5.37659 74.7552 5.05319 74.7862 4.73277ZM78.3666 4.73277C78.3666 3.67698 77.8956 3.05956 77.0689 3.05956C76.2391 3.05956 75.7723 3.67698 75.7723 4.73278C75.7723 5.79703 76.2392 6.40969 77.0689 6.40969C77.8956 6.40968 78.3666 5.79279 78.3666 4.73277Z" fill="black"/>
<path d="M80.627 2.2995H81.5459V3.07325H81.6173C81.7383 2.79535 81.9424 2.56238 82.2011 2.40683C82.4599 2.25128 82.7604 2.18089 83.0608 2.20548C83.2961 2.18766 83.5325 2.22339 83.7522 2.31003C83.972 2.39667 84.1696 2.53199 84.3304 2.70597C84.4912 2.87995 84.6111 3.08813 84.6811 3.31509C84.7512 3.54205 84.7696 3.78196 84.735 4.01707V7.17015H83.7804V4.25846C83.7804 3.47572 83.4426 3.08646 82.7366 3.08646C82.5768 3.07897 82.4173 3.10635 82.269 3.16674C82.1207 3.22713 81.9871 3.3191 81.8774 3.43634C81.7677 3.55357 81.6844 3.69331 81.6334 3.84597C81.5823 3.99862 81.5647 4.16059 81.5816 4.32077V7.17021H80.627V2.2995Z" fill="black"/>
<path d="M90.1319 1.08679V2.32163H91.1799V3.13131H90.1319V5.63585C90.1319 6.14606 90.3406 6.36947 90.8158 6.36947C90.9375 6.36908 91.059 6.36167 91.1799 6.34728V7.14797C91.0084 7.17885 90.8347 7.19528 90.6606 7.19709C89.5989 7.19709 89.1762 6.82104 89.1762 5.88197V3.13127H88.4083V2.32159H89.1762V1.08679H90.1319Z" fill="black"/>
<path d="M92.4823 0.398438H93.4286V3.08256H93.5041C93.631 2.80206 93.8407 2.56778 94.1046 2.41164C94.3686 2.25551 94.6739 2.18511 94.979 2.21004C95.2131 2.19721 95.4472 2.23657 95.6645 2.32531C95.8818 2.41406 96.077 2.54999 96.2361 2.72343C96.3952 2.89686 96.5143 3.10352 96.585 3.32865C96.6557 3.55378 96.6761 3.79185 96.6449 4.02586V7.17054H95.6893V4.26299C95.6893 3.48501 95.3294 3.091 94.6549 3.091C94.4909 3.07745 94.3258 3.10016 94.1714 3.15755C94.0169 3.21493 93.8768 3.30561 93.7608 3.42323C93.6448 3.54085 93.5557 3.68257 93.4998 3.83848C93.4438 3.99439 93.4224 4.16072 93.437 4.32584V7.17052H92.4823L92.4823 0.398438Z" fill="black"/>
<path d="M102.211 5.85524C102.081 6.3004 101.8 6.68545 101.417 6.94306C101.033 7.20066 100.573 7.3144 100.114 7.26438C99.7958 7.27285 99.4791 7.21138 99.1864 7.08426C98.8936 6.95713 98.6319 6.76738 98.4193 6.52818C98.2067 6.28898 98.0483 6.00606 97.9552 5.69906C97.8621 5.39206 97.8364 5.06832 97.88 4.75033C97.8376 4.43136 97.8637 4.10693 97.9566 3.79901C98.0495 3.49109 98.207 3.20686 98.4185 2.96556C98.63 2.72427 98.8905 2.53155 99.1824 2.40044C99.4742 2.26933 99.7907 2.2029 100.11 2.20565C101.456 2.20565 102.268 3.13156 102.268 4.66105V4.99647H98.8525V5.05034C98.8375 5.22908 98.8598 5.40899 98.918 5.57855C98.9761 5.7481 99.0688 5.90355 99.1901 6.03492C99.3114 6.1663 99.4586 6.2707 99.6223 6.34144C99.786 6.41218 99.9626 6.44769 100.141 6.4457C100.369 6.4733 100.6 6.4319 100.805 6.32675C101.01 6.22161 101.179 6.05747 101.292 5.85521L102.211 5.85524ZM98.8524 4.28555H101.296C101.308 4.12208 101.286 3.95788 101.231 3.8035C101.176 3.64913 101.09 3.50799 100.978 3.38916C100.866 3.27033 100.73 3.17644 100.58 3.11351C100.43 3.05058 100.268 3.02002 100.105 3.02377C99.9399 3.02168 99.7761 3.0529 99.6231 3.11558C99.4702 3.17825 99.3312 3.27113 99.2145 3.38872C99.0978 3.50631 99.0056 3.64624 98.9434 3.80027C98.8813 3.9543 98.8503 4.1193 98.8524 4.28555Z" fill="black"/>
</svg>
