<svg width="97" height="32" viewBox="0 0 97 32" fill="none" xmlns="http://www.w3.org/2000/svg">
<path d="M7.75581 4.41501C7.75581 5.36869 7.47454 6.12817 6.91122 6.69471C6.27137 7.36836 5.43743 7.70542 4.41224 7.70542C3.43048 7.70542 2.59575 7.36393 1.90931 6.68003C1.22162 5.99658 0.878457 5.14911 0.878457 4.13794C0.878457 3.12632 1.22162 2.2793 1.90931 1.5954C2.59575 0.911961 3.43048 0.570012 4.41224 0.570012C4.89939 0.570012 5.36578 0.665629 5.8086 0.85641C6.25141 1.04765 6.60659 1.30149 6.87233 1.61942L6.27443 2.22011C5.82413 1.67987 5.20412 1.40997 4.41224 1.40997C3.69621 1.40997 3.07711 1.66257 2.5546 2.16809C2.03197 2.67419 1.77077 3.33042 1.77077 4.13794C1.77077 4.94546 2.03197 5.6017 2.5546 6.10779C3.07711 6.61332 3.69621 6.86591 4.41224 6.86591C5.17181 6.86591 5.80508 6.61195 6.31206 6.10335C6.64117 5.77199 6.83152 5.31143 6.88242 4.71996H4.41224V3.89958H7.70842C7.74027 4.07795 7.75581 4.24916 7.75581 4.41501Z" fill="black"/>
<path d="M7.75581 4.41501L7.64222 4.41477C7.64131 5.3467 7.37025 6.07056 6.83084 6.61399L6.8296 6.6149C6.21004 7.26534 5.41329 7.58998 4.41202 7.59135C3.45644 7.58998 2.65663 7.26272 1.98878 6.59931C1.3224 5.93453 0.992847 5.12303 0.991599 4.1377C0.992847 3.15192 1.3224 2.34087 1.98878 1.67655C2.65663 1.01268 3.45644 0.684963 4.41202 0.683597C4.88454 0.683597 5.3345 0.776141 5.76359 0.960662C6.19315 1.14655 6.53246 1.39015 6.78527 1.6926L6.87233 1.61942L6.79196 1.5387L6.19405 2.13984L6.27443 2.22011L6.3615 2.14701C5.89023 1.58002 5.22872 1.29419 4.41202 1.2959C3.66946 1.29499 3.01623 1.56135 2.47592 2.08611C1.9304 2.61259 1.65627 3.30571 1.65718 4.1377C1.65627 4.9697 1.9304 5.66282 2.47592 6.18929C3.01623 6.71405 3.66946 6.98042 4.41202 6.97951C5.19675 6.98087 5.86552 6.71359 6.392 6.18359C6.74366 5.82958 6.94296 5.33919 6.99523 4.72951L7.00577 4.60589H4.52539V4.01317H7.7082L7.70842 3.89958L7.59653 3.91937C7.62759 4.09194 7.64222 4.25597 7.64222 4.41477L7.75581 4.41501L7.86896 4.41477C7.86896 4.24174 7.85297 4.06394 7.81975 3.87896L7.80297 3.78551H4.29865V4.83355H6.8822L6.88242 4.71996L6.76928 4.70993C6.71929 5.28273 6.53767 5.71404 6.23169 6.02264C5.74455 6.50995 5.14676 6.75048 4.41202 6.75184C3.72252 6.75093 3.13754 6.51257 2.63317 6.02571C2.13367 5.54056 1.88516 4.9212 1.88392 4.1377C1.88516 3.3542 2.13367 2.73484 2.63317 2.24969C3.13754 1.76283 3.72252 1.52447 4.41202 1.52356C5.17862 1.52538 5.75747 1.77968 6.18748 2.29329L6.26718 2.38845L7.02572 1.62589L6.95884 1.54621C6.68029 1.2128 6.30923 0.948141 5.85304 0.751668C5.39605 0.554625 4.91379 0.455934 4.41202 0.455934C3.40418 0.455024 2.53442 0.810747 1.82893 1.51468C1.12084 2.21725 0.763956 3.10035 0.764863 4.1377C0.763956 5.17459 1.12083 6.05815 1.82938 6.76118C2.53442 7.46466 3.40418 7.81992 4.41202 7.81901C5.46158 7.81992 6.33225 7.46989 6.99296 6.77313L6.91122 6.69471L6.99114 6.77495C7.57839 6.18576 7.86975 5.38985 7.86896 4.41477L7.75581 4.41501Z" fill="black"/>
<path d="M12.9808 1.56226H9.88311V3.72779H12.6766V4.54852H9.88311V6.71405H12.9808V7.5531H9.00984V0.723208H12.9808V1.56226Z" fill="black"/>
<path d="M12.9826 1.56254V1.44871H9.77158V3.8419H12.5651V4.43462L9.77158 4.43496V6.82816H12.8693V7.43955H9.12504V0.837317H12.8693V1.56254H12.9826H13.096V0.609653H8.8983V7.66721H13.096V6.60049H9.99832V4.66263H12.7918V3.61424H9.99832V1.67637H13.096V1.56254H12.9826Z" fill="black"/>
<path d="M16.6689 7.5531H15.7943V1.56226H13.8944V0.723208H18.5687V1.56226H16.6689V7.5531Z" fill="black"/>
<path d="M16.6689 7.5531L16.6687 7.43955H15.9074V1.44871H14.0076V0.837317H18.4551V1.44871H16.5553V7.55338L16.6689 7.5531L16.782 7.55338V1.67637H18.6819V0.609653H13.7808V1.67637H15.6807V7.66721H16.782V7.55338L16.6689 7.5531Z" fill="black"/>
<path d="M21.9494 7.5531V0.723208H22.8231V7.5531H21.9494Z" fill="black"/>
<path d="M21.9494 7.5531L22.0625 7.55338V0.837317H22.7095V7.43955H21.9492L21.9494 7.5531L21.9492 7.66721H22.9363V0.609653H21.8358V7.66721H21.9492L21.9494 7.5531Z" fill="black"/>
<path d="M26.6982 7.5531H25.8236V1.56226H23.9239V0.723208H28.598V1.56226H26.6982V7.5531Z" fill="black"/>
<path d="M26.7001 7.55338V7.43955H25.9388V1.44871H24.0391V0.837317H28.4865V1.44871H26.5867V7.55338H26.7001H26.8134V1.67637H28.7133V0.609653H23.8124V1.67637H25.7121V7.66721H26.8134V7.55338H26.7001Z" fill="black"/>
<path d="M33.1057 6.09847C33.6092 6.61026 34.2252 6.86592 34.9538 6.86592C35.6823 6.86592 36.2986 6.61026 36.8013 6.09847C37.3052 5.58669 37.5577 4.9325 37.5577 4.13795C37.5577 3.34341 37.3052 2.68922 36.8013 2.17744C36.2986 1.66565 35.6823 1.40998 34.9538 1.40998C34.2252 1.40998 33.6092 1.66565 33.1057 2.17744C32.6031 2.68922 32.3507 3.34341 32.3507 4.13795C32.3507 4.9325 32.6031 5.58669 33.1057 6.09847ZM37.4478 6.67025C36.7791 7.36075 35.9474 7.70543 34.9538 7.70543C33.9591 7.70543 33.1278 7.36075 32.4606 6.67025C31.7914 5.98054 31.4584 5.13626 31.4584 4.13795C31.4584 3.13965 31.7914 2.29525 32.4606 1.60566C33.1278 0.915044 33.9591 0.570022 34.9538 0.570022C35.9422 0.570022 36.7716 0.916866 37.4434 1.6101C38.1143 2.30333 38.45 3.14591 38.45 4.13795C38.45 5.13626 38.1151 5.98054 37.4478 6.67025Z" fill="black"/>
<path d="M33.1057 6.09847L33.0249 6.17825C33.5471 6.71052 34.1985 6.98087 34.9535 6.97951C35.7081 6.98087 36.3604 6.71052 36.8817 6.17825C37.4073 5.64551 37.6716 4.95627 37.6708 4.1377C37.6716 3.31914 37.4073 2.62989 36.8817 2.09716C36.3604 1.56488 35.7081 1.29453 34.9535 1.2959C34.1985 1.29453 33.5471 1.56488 33.0249 2.09716C32.5006 2.62989 32.2357 3.31914 32.2371 4.1377C32.2357 4.95627 32.5006 5.64551 33.0249 6.17825L33.1057 6.09847L33.1861 6.0182C32.7052 5.52679 32.4647 4.90868 32.4638 4.1377C32.4647 3.36672 32.7052 2.74862 33.1861 2.25721C33.6714 1.76591 34.2511 1.52493 34.9535 1.52356C35.6554 1.52493 36.2364 1.76591 36.7205 2.25721C37.2023 2.74862 37.4427 3.36672 37.4436 4.1377C37.4427 4.90868 37.2023 5.52679 36.7205 6.0182C36.2364 6.50949 35.6554 6.75048 34.9535 6.75184C34.2511 6.75048 33.6714 6.50949 33.1861 6.0182L33.1057 6.09847ZM37.4478 6.67025L37.3666 6.59088C36.7165 7.25964 35.9216 7.58998 34.9535 7.59135C33.985 7.58998 33.1901 7.25964 32.5413 6.59088C31.8926 5.91985 31.5724 5.11062 31.5715 4.1377C31.5724 3.16479 31.8926 2.35556 32.5413 1.68452C33.1901 1.01576 33.985 0.684968 34.9535 0.683602C35.9153 0.684968 36.7085 1.01713 37.3621 1.68942C38.0131 2.36353 38.3351 3.1715 38.3364 4.1377C38.3351 5.11062 38.014 5.91985 37.3666 6.59088L37.4478 6.67025L37.5291 6.74911C38.2164 6.0404 38.5639 5.16128 38.5632 4.1377C38.5639 3.11994 38.215 2.24264 37.5246 1.53073C36.8338 0.8161 35.9685 0.454687 34.9535 0.455939C33.9332 0.454687 33.0653 0.814392 32.3788 1.52629C31.6902 2.23546 31.3439 3.11413 31.3448 4.1377C31.3439 5.16128 31.6902 6.0404 32.3788 6.74957C33.0653 7.46147 33.9332 7.81992 34.9535 7.81901C35.9734 7.81992 36.8413 7.46101 37.5291 6.74911L37.4478 6.67025Z" fill="black"/>
<path d="M39.6765 7.5531V0.723208H40.7402L44.046 6.03641H44.0837L44.046 4.72017V0.723208H44.9207V7.5531H44.0084L40.5498 1.98241H40.5121L40.5498 3.2991V7.5531H39.6765Z" fill="black"/>
<path d="M39.6783 7.55338H39.7917V0.837317H40.6791L43.985 6.15052H44.2019L44.1612 4.71874V0.837317H44.8092V7.43955H44.0732L40.6145 1.86886H40.3975L40.4382 3.3012V7.43955H39.6783V7.55338V7.66721H40.665V3.29756L40.6273 1.97962L40.514 1.98269V2.09652H40.5516V1.98269L40.4555 2.04325L43.9473 7.66721H45.0359V0.609653H43.9345V4.72182L43.9722 6.03976L44.0855 6.03669V5.92285H44.0479V6.03669L44.144 5.97624L40.8049 0.609653H39.565V7.66721H39.6783V7.55338Z" fill="black"/>
<path d="M75.2303 26.904H77.3458V12.6737H75.2303V26.904ZM94.2841 17.7997L91.8591 23.9693H91.7866L89.2698 17.7997H86.9911L90.7651 26.4228L88.6134 31.2193H90.8207L96.6365 17.7997H94.2841ZM82.2875 25.2877C81.5937 25.2877 80.6278 24.9399 80.6278 24.0791C80.6278 22.9808 81.8317 22.5597 82.8702 22.5597C83.8009 22.5597 84.2374 22.7611 84.8031 23.036C84.6387 24.3539 83.5084 25.2877 82.2875 25.2877ZM82.5425 17.4884C81.0109 17.4884 79.4249 18.166 78.7685 19.6672L80.6459 20.4543C81.0472 19.6672 81.7943 19.4107 82.5788 19.4107C83.6728 19.4107 84.785 20.0701 84.8031 21.2418V21.388C84.4199 21.1683 83.6003 20.8389 82.597 20.8389C80.5733 20.8389 78.5123 21.9554 78.5123 24.0426C78.5123 25.9466 80.172 27.1734 82.0312 27.1734C83.454 27.1734 84.2374 26.5326 84.7305 25.7822H84.8031V26.8804H86.8449V21.4245C86.8449 18.8984 84.9675 17.4884 82.5425 17.4884ZM69.4689 19.532H66.4602V14.6542H69.4689C71.0504 14.6542 71.9483 15.969 71.9483 17.0931C71.9483 18.1959 71.0504 19.532 69.4689 19.532ZM69.4145 12.6737H64.3458V26.904H66.4602V21.5126H69.4145C71.759 21.5126 74.0637 19.8082 74.0637 17.0931C74.0637 14.3781 71.759 12.6737 69.4145 12.6737ZM41.7743 25.2903C40.3128 25.2903 39.0892 24.0617 39.0892 22.3743C39.0892 20.6691 40.3128 19.4218 41.7743 19.4218C43.2171 19.4218 44.3494 20.6691 44.3494 22.3743C44.3494 24.0617 43.2171 25.2903 41.7743 25.2903ZM44.2033 18.5965H44.1302C43.6555 18.0282 42.7419 17.5147 41.5914 17.5147C39.1805 17.5147 36.9707 19.6418 36.9707 22.3743C36.9707 25.0885 39.1805 27.1974 41.5914 27.1974C42.7419 27.1974 43.6555 26.6838 44.1302 26.0973H44.2033V26.7941C44.2033 28.6466 43.2171 29.6368 41.6281 29.6368C40.3314 29.6368 39.5278 28.7012 39.1987 27.9128L37.3543 28.683C37.8839 29.9667 39.2904 31.544 41.6281 31.544C44.112 31.544 46.2124 30.0766 46.2124 26.5007V17.8081H44.2033V18.5965ZM47.6734 26.904H49.792V12.6732H47.6734V26.904ZM52.9153 22.2093C52.8604 20.3386 54.3581 19.3853 55.4356 19.3853C56.2763 19.3853 56.9883 19.8068 57.2252 20.4125L52.9153 22.2093ZM59.4903 20.5956C59.089 19.5133 57.8646 17.5147 55.3624 17.5147C52.8786 17.5147 50.8149 19.4769 50.8149 22.356C50.8149 25.0702 52.8604 27.1974 55.5998 27.1974C57.8102 27.1974 59.089 25.8403 59.6184 25.0519L57.9746 23.9514C57.427 24.7585 56.6776 25.2903 55.5998 25.2903C54.5224 25.2903 53.7554 24.795 53.2621 23.8233L59.7091 21.1457L59.4903 20.5956ZM8.12527 19.0002V21.054H13.0199C12.8738 22.2093 12.4903 23.0528 11.9058 23.6397C11.1937 24.3552 10.0795 25.1436 8.12527 25.1436C5.11161 25.1436 2.7557 22.7046 2.7557 19.6787C2.7557 16.6529 5.11161 14.2136 8.12527 14.2136C9.75085 14.2136 10.9377 14.8556 11.8145 15.6809L13.2573 14.2322C12.0337 13.0583 10.408 12.1597 8.12527 12.1597C3.99742 12.1597 0.527344 15.5341 0.527344 19.6787C0.527344 23.8233 3.99742 27.1974 8.12527 27.1974C10.3536 27.1974 12.0337 26.4642 13.3486 25.0885C14.7002 23.7314 15.1204 21.8242 15.1204 20.284C15.1204 19.8068 15.084 19.3671 15.0106 19.0002H8.12527ZM20.6852 25.2903C19.2238 25.2903 17.9635 24.0799 17.9635 22.356C17.9635 20.6139 19.2238 19.4218 20.6852 19.4218C22.1461 19.4218 23.4064 20.6139 23.4064 22.356C23.4064 24.0799 22.1461 25.2903 20.6852 25.2903ZM20.6852 17.5147C18.0183 17.5147 15.8448 19.5502 15.8448 22.356C15.8448 25.1436 18.0183 27.1974 20.6852 27.1974C23.3515 27.1974 25.525 25.1436 25.525 22.356C25.525 19.5502 23.3515 17.5147 20.6852 17.5147ZM31.2434 25.2903C29.7825 25.2903 28.5221 24.0799 28.5221 22.356C28.5221 20.6139 29.7825 19.4218 31.2434 19.4218C32.7044 19.4218 33.9647 20.6139 33.9647 22.356C33.9647 24.0799 32.7044 25.2903 31.2434 25.2903ZM31.2434 17.5147C28.5766 17.5147 26.4036 19.5502 26.4036 22.356C26.4036 25.1436 28.5766 27.1974 31.2434 27.1974C33.9098 27.1974 36.0833 25.1436 36.0833 22.356C36.0833 19.5502 33.9098 17.5147 31.2434 17.5147Z" fill="black"/>
</svg>
