<svg width="122" height="40" viewBox="0 0 122 40" fill="none" xmlns="http://www.w3.org/2000/svg">
<path d="M9.32704 5.61883C9.32704 6.8213 8.9724 7.77891 8.26212 8.49324C7.45536 9.34263 6.40387 9.76761 5.11124 9.76761C3.87336 9.76761 2.82088 9.33703 1.95537 8.47472C1.08828 7.61299 0.655599 6.54443 0.655599 5.26949C0.655599 3.99397 1.08828 2.92599 1.95537 2.06368C2.82088 1.20194 3.87336 0.770792 5.11124 0.770792C5.72547 0.770792 6.31353 0.891353 6.87186 1.1319C7.4302 1.37303 7.87803 1.69309 8.21309 2.09396L7.45921 2.85135C6.89145 2.17018 6.10969 1.82987 5.11124 1.82987C4.20842 1.82987 3.42782 2.14836 2.76899 2.78576C2.11003 3.42388 1.78069 4.25131 1.78069 5.26949C1.78069 6.28767 2.11003 7.1151 2.76899 7.75321C3.42782 8.39062 4.20842 8.7091 5.11124 8.7091C6.06896 8.7091 6.86743 8.38889 7.50667 7.74762C7.92163 7.32981 8.16163 6.7491 8.22581 6.00334H5.11124V4.96894H9.26729C9.30745 5.19385 9.32704 5.40971 9.32704 5.61883Z" fill="white"/>
<path d="M9.32704 5.61883L9.18382 5.61853C9.18268 6.79358 8.8409 7.70627 8.16078 8.39146L8.15921 8.39261C7.37803 9.21272 6.37343 9.62206 5.11096 9.62378C3.9061 9.62206 2.89764 9.20942 2.05557 8.37295C1.21536 7.53475 0.799829 6.51155 0.798257 5.26918C0.799829 4.02624 1.21536 3.00361 2.05557 2.16599C2.89764 1.32894 3.9061 0.915731 5.11096 0.914009C5.70675 0.914009 6.27408 1.03069 6.81512 1.26335C7.35673 1.49773 7.78456 1.80488 8.10332 2.18623L8.21309 2.09396L8.11175 1.99218L7.35787 2.75015L7.45921 2.85135L7.569 2.75919C6.97479 2.04428 6.14072 1.68389 5.11096 1.68604C4.17469 1.68489 3.35106 2.02074 2.66979 2.6824C1.98196 3.34621 1.63632 4.22015 1.63747 5.26918C1.63632 6.31822 1.98196 7.19216 2.66979 7.85597C3.35106 8.51762 4.17469 8.85348 5.11096 8.85233C6.10041 8.85405 6.94363 8.51705 7.60745 7.84879C8.05086 7.40242 8.30215 6.78411 8.36805 6.01538L8.38134 5.85951H5.2539V5.11217H9.26701L9.26729 4.96894L9.12621 4.9939C9.16538 5.21149 9.18382 5.41831 9.18382 5.61853L9.32704 5.61883L9.46971 5.61853C9.46971 5.40037 9.44955 5.17618 9.40767 4.94295L9.38651 4.82511H4.96802V6.14656H8.22553L8.22581 6.00334L8.08316 5.99069C8.02013 6.71292 7.79113 7.25674 7.40533 7.64584C6.79111 8.26028 6.03737 8.56355 5.11096 8.56527C4.24159 8.56413 3.50401 8.26358 2.86806 7.64972C2.23825 7.03801 1.92492 6.25708 1.92335 5.26918C1.92492 4.28129 2.23825 3.50036 2.86806 2.88865C3.50401 2.27479 4.24159 1.97424 5.11096 1.97309C6.07754 1.97539 6.8074 2.29603 7.34958 2.94362L7.45007 3.06361L8.4065 2.10212L8.32216 2.00165C7.97095 1.58126 7.5031 1.24756 6.9279 0.999837C6.3517 0.751392 5.74362 0.626955 5.11096 0.626955C3.8402 0.625807 2.74356 1.07433 1.85403 1.9619C0.961209 2.84774 0.511228 3.96122 0.512372 5.26918C0.511228 6.57657 0.961204 7.69062 1.85459 8.57704C2.74355 9.46404 3.8402 9.91198 5.11096 9.91084C6.43432 9.91198 7.53212 9.47064 8.36518 8.59211L8.26212 8.49324L8.3629 8.59441C9.10334 7.85152 9.47071 6.84798 9.46971 5.61853L9.32704 5.61883Z" fill="white"/>
<path d="M15.915 2.02189H12.0093V4.75234H15.5315V5.78717H12.0093V8.51762H15.915V9.57555H10.9082V0.963952H15.915V2.02189Z" fill="white"/>
<path d="M15.9174 2.02224V1.87871H11.8687V4.89621H15.3909V5.64356L11.8687 5.64399V8.6615H15.7744V9.43238H11.0535V1.10783H15.7744V2.02224H15.9174H16.0603V0.820775H10.7676V9.71943H16.0603V8.37444H12.1546V5.93105H15.6768V4.60916H12.1546V2.16576H16.0603V2.02224H15.9174Z" fill="white"/>
<path d="M20.5653 9.57555H19.4625V2.02189H17.0671V0.963952H22.9607V2.02189H20.5653V9.57555Z" fill="white"/>
<path d="M20.5653 9.57555L20.565 9.43238H19.6051V1.87871H17.2097V1.10783H22.8175V1.87871H20.4221V9.57591L20.5653 9.57555L20.708 9.57591V2.16576H23.1034V0.820775H16.9238V2.16576H19.3193V9.71943H20.708V9.57591L20.5653 9.57555Z" fill="white"/>
<path d="M27.2233 9.57555V0.963952H28.325V9.57555H27.2233Z" fill="white"/>
<path d="M27.2233 9.57555L27.366 9.57591V1.10783H28.1817V9.43238H27.223L27.2233 9.57555L27.223 9.71943H28.4676V0.820775H27.0801V9.71943H27.223L27.2233 9.57555Z" fill="white"/>
<path d="M33.211 9.57555H32.1082V2.02189H29.7129V0.963952H35.6064V2.02189H33.211V9.57555Z" fill="white"/>
<path d="M33.2133 9.57591V9.43238H32.2534V1.87871H29.8582V1.10783H35.4658V1.87871H33.0704V9.57591H33.2133H33.3562V2.16576H35.7517V0.820775H29.5723V2.16576H31.9676V9.71943H33.3562V9.57591H33.2133Z" fill="white"/>
<path d="M41.29 7.74146C41.9248 8.38675 42.7015 8.70912 43.6201 8.70912C44.5386 8.70912 45.3158 8.38675 45.9496 7.74146C46.585 7.09616 46.9033 6.27132 46.9033 5.2695C46.9033 4.26769 46.585 3.44284 45.9496 2.79754C45.3158 2.15225 44.5386 1.82989 43.6201 1.82989C42.7015 1.82989 41.9248 2.15225 41.29 2.79754C40.6562 3.44284 40.338 4.26769 40.338 5.2695C40.338 6.27132 40.6562 7.09616 41.29 7.74146ZM46.7648 8.46239C45.9216 9.33303 44.873 9.76762 43.6201 9.76762C42.3659 9.76762 41.3179 9.33303 40.4765 8.46239C39.6327 7.59277 39.2129 6.52823 39.2129 5.2695C39.2129 4.01077 39.6327 2.94609 40.4765 2.07661C41.3179 1.20583 42.3659 0.770805 43.6201 0.770805C44.8664 0.770805 45.9122 1.20813 46.7593 2.08221C47.6052 2.95628 48.0284 4.01867 48.0284 5.2695C48.0284 6.52823 47.6062 7.59277 46.7648 8.46239Z" fill="white"/>
<path d="M41.29 7.74146L41.1881 7.84204C41.8465 8.51317 42.6678 8.85405 43.6198 8.85233C44.5712 8.85405 45.3937 8.51317 46.051 7.84204C46.7136 7.17034 47.047 6.30129 47.046 5.26919C47.047 4.23709 46.7136 3.36803 46.051 2.69633C45.3937 2.0252 44.5712 1.68432 43.6198 1.68604C42.6678 1.68432 41.8465 2.0252 41.1881 2.69633C40.527 3.36803 40.193 4.23709 40.1948 5.26919C40.193 6.30129 40.527 7.17034 41.1881 7.84204L41.29 7.74146L41.3913 7.64024C40.785 7.02064 40.4818 6.24129 40.4806 5.26919C40.4818 4.29708 40.785 3.51773 41.3913 2.89813C42.0033 2.27867 42.7341 1.97482 43.6198 1.9731C44.5048 1.97482 45.2373 2.27867 45.8477 2.89813C46.4552 3.51773 46.7584 4.29708 46.7595 5.26919C46.7584 6.24129 46.4552 7.02064 45.8477 7.64024C45.2373 8.25971 44.5048 8.56355 43.6198 8.56527C42.7341 8.56355 42.0033 8.25971 41.3913 7.64024L41.29 7.74146ZM46.7648 8.46239L46.6623 8.36233C45.8427 9.20555 44.8404 9.62206 43.6198 9.62378C42.3986 9.62206 41.3963 9.20555 40.5783 8.36233C39.7604 7.51624 39.3567 6.49591 39.3556 5.26919C39.3567 4.04246 39.7604 3.02213 40.5783 2.17604C41.3963 1.33282 42.3986 0.915736 43.6198 0.914014C44.8325 0.915736 45.8326 1.33455 46.6568 2.18222C47.4775 3.03218 47.8835 4.05093 47.8852 5.26919C47.8835 6.49591 47.4787 7.51624 46.6623 8.36233L46.7648 8.46239L46.8673 8.56183C47.7338 7.66824 48.1721 6.55978 48.1711 5.26919C48.1721 3.98591 47.7321 2.87975 46.8616 1.98214C45.9906 1.08108 44.8996 0.625382 43.6198 0.626961C42.3333 0.625382 41.239 1.07892 40.3734 1.97654C39.5052 2.87071 39.0685 3.97859 39.0697 5.26919C39.0685 6.55978 39.5052 7.66823 40.3734 8.56241C41.239 9.46002 42.3333 9.91199 43.6198 9.91084C44.9057 9.91199 46.0001 9.45945 46.8673 8.56183L46.7648 8.46239Z" fill="white"/>
<path d="M49.5749 9.57555V0.963952H50.9161L55.0843 7.6632H55.1318L55.0843 6.00361V0.963952H56.1871V9.57555H55.0368L50.676 2.55165H50.6285L50.676 4.21182V9.57555H49.5749Z" fill="white"/>
<path d="M49.5772 9.57591H49.7201V1.10783H50.8391L55.0073 7.80708H55.2809L55.2295 6.0018V1.10783H56.0465V9.43238H55.1185L50.7576 2.40847H50.484L50.5353 4.21446V9.43238H49.5772V9.57591V9.71943H50.8212V4.20987L50.7738 2.54812L50.6308 2.552V2.69552H50.6783V2.552L50.5571 2.62835L54.9598 9.71943H56.3324V0.820775H54.9437V6.00568L54.9911 7.66743L55.1341 7.66356V7.52003H55.0866V7.66356L55.2078 7.58734L50.9976 0.820775H49.4342V9.71943H49.5772V9.57591Z" fill="white"/>
<path d="M94.4036 33.9745H97.0709V16.0319H94.4036V33.9745ZM118.428 22.4952L115.37 30.2742H115.279L112.106 22.4952H109.232L113.991 33.3678L111.278 39.4156H114.061L121.394 22.4952H118.428ZM103.302 31.9365C102.427 31.9365 101.209 31.4981 101.209 30.4127C101.209 29.0278 102.727 28.4969 104.036 28.4969C105.21 28.4969 105.76 28.7508 106.474 29.0974C106.266 30.7592 104.841 31.9365 103.302 31.9365ZM103.623 22.1027C101.692 22.1027 99.6924 22.9571 98.8648 24.8499L101.232 25.8422C101.738 24.8499 102.68 24.5264 103.669 24.5264C105.049 24.5264 106.451 25.3578 106.474 26.8352V27.0196C105.99 26.7426 104.957 26.3272 103.692 26.3272C101.14 26.3272 98.5418 27.7349 98.5418 30.3666C98.5418 32.7674 100.634 34.3142 102.979 34.3142C104.773 34.3142 105.76 33.5063 106.382 32.56H106.474V33.9448H109.048V27.0655C109.048 23.8805 106.681 22.1027 103.623 22.1027ZM87.1393 24.6794H83.3456V18.5291H87.1393C89.1333 18.5291 90.2654 20.1869 90.2654 21.6042C90.2654 22.9947 89.1333 24.6794 87.1393 24.6794ZM87.0706 16.0319H80.6797V33.9745H83.3456V27.1766H87.0706C90.0267 27.1766 92.9327 25.0276 92.9327 21.6042C92.9327 18.1809 90.0267 16.0319 87.0706 16.0319ZM52.2199 31.9398C50.3772 31.9398 48.8344 30.3907 48.8344 28.2631C48.8344 26.1131 50.3772 24.5405 52.2199 24.5405C54.0391 24.5405 55.4668 26.1131 55.4668 28.2631C55.4668 30.3907 54.0391 31.9398 52.2199 31.9398ZM55.2826 23.4999H55.1904C54.5919 22.7833 53.4399 22.1358 51.9893 22.1358C48.9495 22.1358 46.1633 24.8179 46.1633 28.2631C46.1633 31.6854 48.9495 34.3445 51.9893 34.3445C53.4399 34.3445 54.5919 33.6969 55.1904 32.9574H55.2826V33.836C55.2826 36.1717 54.0391 37.4203 52.0356 37.4203C50.4006 37.4203 49.3873 36.2406 48.9724 35.2465L46.6468 36.2176C47.3147 37.8362 49.088 39.8249 52.0356 39.8249C55.1675 39.8249 57.8158 37.9747 57.8158 33.466V22.5058H55.2826V23.4999ZM59.6579 33.9745H62.3292V16.0313H59.6579V33.9745ZM66.2672 28.0551C66.1981 25.6964 68.0865 24.4944 69.445 24.4944C70.5051 24.4944 71.4027 25.0259 71.7015 25.7896L66.2672 28.0551ZM74.5575 26.0205C74.0515 24.6559 72.5077 22.1358 69.3528 22.1358C66.2209 22.1358 63.6189 24.6099 63.6189 28.2401C63.6189 31.6624 66.1981 34.3445 69.6521 34.3445C72.4391 34.3445 74.0515 32.6334 74.719 31.6393L72.6463 30.2517C71.9559 31.2693 71.0111 31.9398 69.6521 31.9398C68.2936 31.9398 67.3266 31.3153 66.7045 30.0902L74.8333 26.714L74.5575 26.0205ZM9.79288 24.0088V26.5985H15.9644C15.7802 28.0551 15.2966 29.1187 14.5596 29.8587C13.6618 30.7608 12.2569 31.7548 9.79288 31.7548C5.99305 31.7548 3.02256 28.6796 3.02256 24.8644C3.02256 21.0492 5.99305 17.9735 9.79288 17.9735C11.8425 17.9735 13.339 18.783 14.4445 19.8236L16.2637 17.9971C14.721 16.5169 12.6712 15.3839 9.79288 15.3839C4.58821 15.3839 0.212891 19.6386 0.212891 24.8644C0.212891 30.0902 4.58821 34.3445 9.79288 34.3445C12.6026 34.3445 14.721 33.42 16.3788 31.6854C18.083 29.9742 18.6129 27.5696 18.6129 25.6275C18.6129 25.0259 18.567 24.4714 18.4743 24.0088H9.79288ZM25.6293 31.9398C23.7866 31.9398 22.1976 30.4137 22.1976 28.2401C22.1976 26.0435 23.7866 24.5405 25.6293 24.5405C27.4713 24.5405 29.0604 26.0435 29.0604 28.2401C29.0604 30.4137 27.4713 31.9398 25.6293 31.9398ZM25.6293 22.1358C22.2667 22.1358 19.5263 24.7024 19.5263 28.2401C19.5263 31.7548 22.2667 34.3445 25.6293 34.3445C28.9912 34.3445 31.7317 31.7548 31.7317 28.2401C31.7317 24.7024 28.9912 22.1358 25.6293 22.1358ZM38.9418 31.9398C37.0999 31.9398 35.5106 30.4137 35.5106 28.2401C35.5106 26.0435 37.0999 24.5405 38.9418 24.5405C40.7839 24.5405 42.373 26.0435 42.373 28.2401C42.373 30.4137 40.7839 31.9398 38.9418 31.9398ZM38.9418 22.1358C35.5794 22.1358 32.8395 24.7024 32.8395 28.2401C32.8395 31.7548 35.5794 34.3445 38.9418 34.3445C42.3038 34.3445 45.0443 31.7548 45.0443 28.2401C45.0443 24.7024 42.3038 22.1358 38.9418 22.1358Z" fill="white"/>
</svg>
