<svg width="122" height="40" viewBox="0 0 122 40" fill="none" xmlns="http://www.w3.org/2000/svg">
<path d="M9.49501 5.37664C9.49501 6.57911 9.14037 7.53672 8.43009 8.25105C7.62332 9.10044 6.57184 9.52542 5.27921 9.52542C4.04133 9.52542 2.98885 9.09484 2.12333 8.23254C1.25625 7.3708 0.823568 6.30225 0.823568 5.0273C0.823568 3.75178 1.25625 2.6838 2.12333 1.82149C2.98885 0.959757 4.04133 0.528604 5.27921 0.528604C5.89343 0.528604 6.4815 0.649165 7.03983 0.889716C7.59816 1.13084 8.046 1.45091 8.38106 1.85177L7.62718 2.60917C7.05942 1.92799 6.27766 1.58769 5.27921 1.58769C4.37639 1.58769 3.59578 1.90617 2.93696 2.54357C2.278 3.18169 1.94866 4.00912 1.94866 5.0273C1.94866 6.04548 2.278 6.87291 2.93696 7.51103C3.59578 8.14843 4.37639 8.46691 5.27921 8.46691C6.23692 8.46691 7.0354 8.14671 7.67464 7.50543C8.0896 7.08762 8.3296 6.50692 8.39378 5.76115H5.27921V4.72676H9.43526C9.47542 4.95166 9.49501 5.16752 9.49501 5.37664Z" fill="white"/>
<path d="M9.49501 5.37664L9.35179 5.37634C9.35065 6.55139 9.00887 7.46408 8.32875 8.14928L8.32718 8.15042C7.546 8.97054 6.5414 9.37987 5.27893 9.3816C4.07407 9.37987 3.06561 8.96723 2.22354 8.13076C1.38332 7.29256 0.967798 6.26936 0.966225 5.027C0.967798 3.78405 1.38332 2.76143 2.22354 1.9238C3.06561 1.08676 4.07407 0.673544 5.27893 0.671821C5.87471 0.671821 6.44205 0.788507 6.98309 1.02116C7.5247 1.25554 7.95253 1.56269 8.27129 1.94404L8.38106 1.85177L8.27972 1.74999L7.52584 2.50796L7.62718 2.60917L7.73697 2.517C7.14276 1.80209 6.30869 1.4417 5.27893 1.44385C4.34266 1.4427 3.51902 1.77855 2.83776 2.44021C2.14992 3.10402 1.80429 3.97796 1.80544 5.027C1.80429 6.07603 2.14992 6.94997 2.83776 7.61378C3.51902 8.27544 4.34266 8.61129 5.27893 8.61014C6.26838 8.61186 7.1116 8.27486 7.77542 7.6066C8.21883 7.16023 8.47012 6.54192 8.53601 5.77319L8.54931 5.61732H5.42187V4.86998H9.43498L9.43526 4.72676L9.29418 4.75171C9.33335 4.9693 9.35179 5.17612 9.35179 5.37634L9.49501 5.37664L9.63768 5.37634C9.63768 5.15818 9.61752 4.93399 9.57564 4.70076L9.55448 4.58292H5.13599V5.90438H8.3935L8.39378 5.76115L8.25113 5.74851C8.1881 6.47073 7.9591 7.01455 7.5733 7.40365C6.95908 8.01809 6.20534 8.32136 5.27893 8.32309C4.40956 8.32194 3.67198 8.02139 3.03603 7.40753C2.40622 6.79582 2.09289 6.01489 2.09132 5.027C2.09289 4.0391 2.40622 3.25817 3.03603 2.64646C3.67198 2.0326 4.40956 1.73205 5.27893 1.7309C6.24551 1.7332 6.97537 2.05384 7.51755 2.70143L7.61804 2.82142L8.57446 1.85993L8.49013 1.75947C8.13892 1.33908 7.67107 1.00538 7.09587 0.757649C6.51967 0.509204 5.91159 0.384768 5.27893 0.384768C4.00817 0.38362 2.91152 0.83214 2.02199 1.71971C1.12918 2.60556 0.679197 3.71904 0.680341 5.027C0.679197 6.33438 1.12917 7.44843 2.02256 8.33486C2.91152 9.22185 4.00817 9.6698 5.27893 9.66865C6.60229 9.6698 7.70009 9.22845 8.53315 8.34993L8.43009 8.25105L8.53087 8.35222C9.27131 7.60933 9.63868 6.60579 9.63768 5.37634L9.49501 5.37664Z" fill="white"/>
<path d="M16.083 1.7797H12.1773V4.51015H15.6995V5.54498H12.1773V8.27543H16.083V9.33337H11.0762V0.721765H16.083V1.7797Z" fill="white"/>
<path d="M16.0853 1.78005V1.63652H12.0366V4.65403H15.5589V5.40137L12.0366 5.40181V8.41931H15.9424V9.19019H11.2214V0.865641H15.9424V1.78005H16.0853H16.2283V0.578588H10.9355V9.47725H16.2283V8.13226H12.3225V5.68886H15.8448V4.36697H12.3225V1.92358H16.2283V1.78005H16.0853Z" fill="white"/>
<path d="M20.7333 9.33337H19.6305V1.7797H17.235V0.721765H23.1287V1.7797H20.7333V9.33337Z" fill="white"/>
<path d="M20.7333 9.33337L20.733 9.19019H19.7731V1.63652H17.3777V0.865641H22.9855V1.63652H20.59V9.33372L20.7333 9.33337L20.8759 9.33372V1.92358H23.2714V0.578588H17.0918V1.92358H19.4872V9.47725H20.8759V9.33372L20.7333 9.33337Z" fill="white"/>
<path d="M27.3913 9.33337V0.721765H28.4929V9.33337H27.3913Z" fill="white"/>
<path d="M27.3913 9.33337L27.5339 9.33372V0.865641H28.3497V9.19019H27.391L27.3913 9.33337L27.391 9.47725H28.6356V0.578588H27.2481V9.47725H27.391L27.3913 9.33337Z" fill="white"/>
<path d="M33.3789 9.33337H32.2761V1.7797H29.8809V0.721765H35.7744V1.7797H33.3789V9.33337Z" fill="white"/>
<path d="M33.3813 9.33372V9.19019H32.4214V1.63652H30.0261V0.865641H35.6338V1.63652H33.2383V9.33372H33.3813H33.5242V1.92358H35.9196V0.578588H29.7402V1.92358H32.1355V9.47725H33.5242V9.33372H33.3813Z" fill="white"/>
<path d="M41.458 7.49927C42.0928 8.14457 42.8695 8.46693 43.7881 8.46693C44.7066 8.46693 45.4838 8.14457 46.1176 7.49927C46.753 6.85398 47.0713 6.02913 47.0713 5.02731C47.0713 4.0255 46.753 3.20065 46.1176 2.55536C45.4838 1.91006 44.7066 1.5877 43.7881 1.5877C42.8695 1.5877 42.0928 1.91006 41.458 2.55536C40.8242 3.20065 40.506 4.0255 40.506 5.02731C40.506 6.02913 40.8242 6.85398 41.458 7.49927ZM46.9328 8.22021C46.0896 9.09084 45.041 9.52544 43.7881 9.52544C42.5339 9.52544 41.4858 9.09084 40.6445 8.22021C39.8007 7.35058 39.3809 6.28604 39.3809 5.02731C39.3809 3.76859 39.8007 2.70391 40.6445 1.83442C41.4858 0.963646 42.5339 0.528618 43.7881 0.528618C45.0344 0.528618 46.0801 0.965942 46.9272 1.84002C47.7732 2.7141 48.1964 3.77648 48.1964 5.02731C48.1964 6.28604 47.7742 7.35058 46.9328 8.22021Z" fill="white"/>
<path d="M41.458 7.49927L41.356 7.59986C42.0144 8.27099 42.8358 8.61186 43.7878 8.61014C44.7392 8.61186 45.5617 8.27099 46.2189 7.59986C46.8816 6.92815 47.215 6.0591 47.214 5.027C47.215 3.9949 46.8816 3.12585 46.2189 2.45414C45.5617 1.78301 44.7392 1.44213 43.7878 1.44386C42.8358 1.44213 42.0144 1.78301 41.356 2.45414C40.6949 3.12585 40.361 3.9949 40.3627 5.027C40.361 6.0591 40.6949 6.92815 41.356 7.59986L41.458 7.49927L41.5593 7.39806C40.9529 6.77845 40.6498 5.9991 40.6486 5.027C40.6498 4.05489 40.9529 3.27554 41.5593 2.65594C42.1712 2.03648 42.9021 1.73263 43.7878 1.73091C44.6727 1.73263 45.4053 2.03648 46.0157 2.65594C46.6232 3.27554 46.9264 4.05489 46.9275 5.027C46.9264 5.9991 46.6232 6.77845 46.0157 7.39806C45.4053 8.01752 44.6727 8.32136 43.7878 8.32309C42.9021 8.32136 42.1712 8.01752 41.5593 7.39806L41.458 7.49927ZM46.9328 8.22021L46.8303 8.12014C46.0107 8.96336 45.0084 9.37987 43.7878 9.3816C42.5666 9.37987 41.5643 8.96336 40.7462 8.12014C39.9283 7.27405 39.5247 6.25372 39.5235 5.027C39.5247 3.80028 39.9283 2.77995 40.7462 1.93386C41.5643 1.09064 42.5666 0.673549 43.7878 0.671827C45.0005 0.673549 46.0005 1.09236 46.8247 1.94003C47.6455 2.78999 48.0515 3.80874 48.0532 5.027C48.0515 6.25372 47.6466 7.27405 46.8303 8.12014L46.9328 8.22021L47.0353 8.31964C47.9018 7.42605 48.3401 6.31759 48.3391 5.027C48.3401 3.74373 47.9001 2.63757 47.0296 1.73995C46.1586 0.83889 45.0675 0.383195 43.7878 0.384773C42.5013 0.383195 41.4069 0.836736 40.5414 1.73435C39.6732 2.62852 39.2365 3.73641 39.2376 5.027C39.2365 6.31759 39.6732 7.42605 40.5414 8.32022C41.4069 9.21783 42.5013 9.6698 43.7878 9.66865C45.0737 9.6698 46.168 9.21726 47.0353 8.31964L46.9328 8.22021Z" fill="white"/>
<path d="M49.7428 9.33337V0.721765H51.0841L55.2523 7.42102H55.2997L55.2523 5.76142V0.721765H56.3551V9.33337H55.2048L50.8439 2.30946H50.7965L50.8439 3.96963V9.33337H49.7428Z" fill="white"/>
<path d="M49.7452 9.33372H49.8881V0.865641H51.007L55.1752 7.56489H55.4488L55.3975 5.75961V0.865641H56.2144V9.19019H55.2865L50.9256 2.16628H50.652L50.7033 3.97228V9.19019H49.7452V9.33372V9.47725H50.9892V3.96769L50.9417 2.30593L50.7988 2.30981V2.45334H50.8462V2.30981L50.725 2.38616L55.1278 9.47725H56.5003V0.578588H55.1116V5.76349L55.1591 7.42524L55.302 7.42137V7.27784H55.2546V7.42137L55.3758 7.34515L51.1656 0.578588H49.6022V9.47725H49.7452V9.33372Z" fill="white"/>
<path d="M94.5715 33.7323H97.2389V15.7897H94.5715V33.7323ZM118.596 22.253L115.538 30.032H115.447L112.274 22.253H109.4L114.159 33.1256L111.446 39.1734H114.229L121.562 22.253H118.596ZM103.47 31.6943C102.595 31.6943 101.377 31.2559 101.377 30.1705C101.377 28.7856 102.895 28.2547 104.204 28.2547C105.378 28.2547 105.928 28.5086 106.642 28.8552C106.434 30.517 105.009 31.6943 103.47 31.6943ZM103.791 21.8605C101.86 21.8605 99.8604 22.7149 99.0328 24.6077L101.4 25.6001C101.906 24.6077 102.848 24.2842 103.837 24.2842C105.216 24.2842 106.619 25.1157 106.642 26.593V26.7774C106.158 26.5004 105.125 26.085 103.86 26.085C101.308 26.085 98.7097 27.4927 98.7097 30.1244C98.7097 32.5252 100.802 34.072 103.147 34.072C104.941 34.072 105.928 33.2641 106.55 32.3178H106.642V33.7026H109.216V26.8233C109.216 23.6383 106.849 21.8605 103.791 21.8605ZM87.3072 24.4372H83.5135V18.2869H87.3072C89.3013 18.2869 90.4334 19.9447 90.4334 21.362C90.4334 22.7525 89.3013 24.4372 87.3072 24.4372ZM87.2386 15.7897H80.8477V33.7323H83.5135V26.9344H87.2386C90.1947 26.9344 93.1007 24.7854 93.1007 21.362C93.1007 17.9387 90.1947 15.7897 87.2386 15.7897ZM52.3878 31.6976C50.5452 31.6976 49.0024 30.1486 49.0024 28.0209C49.0024 25.8709 50.5452 24.2983 52.3878 24.2983C54.2071 24.2983 55.6348 25.8709 55.6348 28.0209C55.6348 30.1486 54.2071 31.6976 52.3878 31.6976ZM55.4505 23.2577H55.3583C54.7598 22.5411 53.6079 21.8936 52.1573 21.8936C49.1175 21.8936 46.3312 24.5757 46.3312 28.0209C46.3312 31.4432 49.1175 34.1023 52.1573 34.1023C53.6079 34.1023 54.7598 33.4547 55.3583 32.7152H55.4505V33.5938C55.4505 35.9295 54.2071 37.1781 52.2036 37.1781C50.5686 37.1781 49.5553 35.9984 49.1403 35.0044L46.8148 35.9755C47.4826 37.594 49.256 39.5827 52.2036 39.5827C55.3355 39.5827 57.9838 37.7325 57.9838 33.2238V22.2636H55.4505V23.2577ZM59.8258 33.7323H62.4972V15.7891H59.8258V33.7323ZM66.4352 27.813C66.366 25.4542 68.2544 24.2522 69.613 24.2522C70.673 24.2522 71.5707 24.7837 71.8694 25.5474L66.4352 27.813ZM74.7254 25.7783C74.2194 24.4137 72.6756 21.8936 69.5208 21.8936C66.3889 21.8936 63.7869 24.3677 63.7869 27.998C63.7869 31.4202 66.366 34.1023 69.8201 34.1023C72.607 34.1023 74.2194 32.3912 74.887 31.3971L72.8143 30.0095C72.1239 31.0271 71.179 31.6976 69.8201 31.6976C68.4616 31.6976 67.4946 31.0732 66.8725 29.848L75.0013 26.4718L74.7254 25.7783ZM9.96085 23.7666V26.3563H16.1324C15.9481 27.813 15.4646 28.8765 14.7275 29.6165C13.8297 30.5186 12.4249 31.5126 9.96085 31.5126C6.16102 31.5126 3.19053 28.4374 3.19053 24.6222C3.19053 20.807 6.16102 17.7313 9.96085 17.7313C12.0105 17.7313 13.507 18.5408 14.6125 19.5814L16.4317 17.7549C14.8889 16.2747 12.8391 15.1417 9.96085 15.1417C4.75618 15.1417 0.380859 19.3964 0.380859 24.6222C0.380859 29.848 4.75618 34.1023 9.96085 34.1023C12.7705 34.1023 14.8889 33.1778 16.5468 31.4432C18.2509 29.732 18.7808 27.3274 18.7808 25.3853C18.7808 24.7837 18.7349 24.2292 18.6423 23.7666H9.96085ZM25.7973 31.6976C23.9546 31.6976 22.3655 30.1715 22.3655 27.998C22.3655 25.8013 23.9546 24.2983 25.7973 24.2983C27.6392 24.2983 29.2283 25.8013 29.2283 27.998C29.2283 30.1715 27.6392 31.6976 25.7973 31.6976ZM25.7973 21.8936C22.4347 21.8936 19.6942 24.4602 19.6942 27.998C19.6942 31.5126 22.4347 34.1023 25.7973 34.1023C29.1591 34.1023 31.8996 31.5126 31.8996 27.998C31.8996 24.4602 29.1591 21.8936 25.7973 21.8936ZM39.1098 31.6976C37.2678 31.6976 35.6786 30.1715 35.6786 27.998C35.6786 25.8013 37.2678 24.2983 39.1098 24.2983C40.9519 24.2983 42.541 25.8013 42.541 27.998C42.541 30.1715 40.9519 31.6976 39.1098 31.6976ZM39.1098 21.8936C35.7474 21.8936 33.0074 24.4602 33.0074 27.998C33.0074 31.5126 35.7474 34.1023 39.1098 34.1023C42.4718 34.1023 45.2123 31.5126 45.2123 27.998C45.2123 24.4602 42.4718 21.8936 39.1098 21.8936Z" fill="white"/>
</svg>
