<svg width="97" height="32" viewBox="0 0 97 32" fill="none" xmlns="http://www.w3.org/2000/svg">
<path d="M7.75581 4.41513C7.75581 5.36881 7.47454 6.12829 6.91122 6.69483C6.27137 7.36849 5.43743 7.70554 4.41224 7.70554C3.43048 7.70554 2.59575 7.36405 1.90931 6.68015C1.22162 5.9967 0.878457 5.14923 0.878457 4.13807C0.878457 3.12645 1.22162 2.27943 1.90931 1.59553C2.59575 0.912083 3.43048 0.570134 4.41224 0.570134C4.89939 0.570134 5.36578 0.665751 5.8086 0.856532C6.25141 1.04777 6.60659 1.30161 6.87233 1.61954L6.27443 2.22023C5.82413 1.67999 5.20412 1.4101 4.41224 1.4101C3.69621 1.4101 3.07711 1.66269 2.5546 2.16821C2.03197 2.67431 1.77077 3.33055 1.77077 4.13807C1.77077 4.94559 2.03197 5.60182 2.5546 6.10792C3.07711 6.61344 3.69621 6.86603 4.41224 6.86603C5.17181 6.86603 5.80508 6.61208 6.31206 6.10348C6.64117 5.77211 6.83152 5.31155 6.88242 4.72009H4.41224V3.8997H7.70842C7.74027 4.07808 7.75581 4.24928 7.75581 4.41513Z" fill="black"/>
<path d="M7.75581 4.41513L7.64222 4.41489C7.64131 5.34683 7.37025 6.07068 6.83084 6.61411L6.8296 6.61502C6.21004 7.26546 5.41329 7.59011 4.41202 7.59147C3.45644 7.59011 2.65663 7.26284 1.98878 6.59943C1.3224 5.93465 0.992847 5.12315 0.991599 4.13782C0.992847 3.15204 1.3224 2.34099 1.98878 1.67667C2.65663 1.01281 3.45644 0.685085 4.41202 0.68372C4.88454 0.68372 5.3345 0.776263 5.76359 0.960784C6.19315 1.14667 6.53246 1.39027 6.78527 1.69272L6.87233 1.61954L6.79196 1.53882L6.19405 2.13997L6.27443 2.22023L6.3615 2.14714C5.89023 1.58014 5.22872 1.29431 4.41202 1.29602C3.66946 1.29511 3.01623 1.56147 2.47592 2.08624C1.93039 2.61271 1.65627 3.30583 1.65718 4.13782C1.65627 4.96982 1.93039 5.66294 2.47592 6.18941C3.01623 6.71417 3.66946 6.98054 4.41202 6.97963C5.19675 6.98099 5.86552 6.71372 6.392 6.18372C6.74366 5.8297 6.94296 5.33932 6.99523 4.72963L7.00577 4.60601H4.52539V4.01329H7.7082L7.70842 3.8997L7.59653 3.91949C7.62759 4.09206 7.64222 4.25609 7.64222 4.41489L7.75581 4.41513L7.86896 4.41489C7.86896 4.24186 7.85297 4.06406 7.81975 3.87908L7.80297 3.78563H4.29865V4.83368H6.8822L6.88242 4.72009L6.76928 4.71006C6.71929 5.28286 6.53767 5.71416 6.23169 6.02276C5.74455 6.51007 5.14676 6.7506 4.41202 6.75196C3.72252 6.75105 3.13754 6.51269 2.63317 6.02583C2.13367 5.54068 1.88516 4.92133 1.88392 4.13782C1.88516 3.35432 2.13367 2.73496 2.63317 2.24981C3.13754 1.76296 3.72252 1.52459 4.41202 1.52368C5.17862 1.5255 5.75747 1.7798 6.18748 2.29341L6.26718 2.38857L7.02572 1.62602L6.95884 1.54634C6.68029 1.21292 6.30923 0.948263 5.85304 0.75179C5.39605 0.554747 4.91379 0.456056 4.41202 0.456056C3.40418 0.455146 2.53442 0.810869 1.82893 1.5148C1.12084 2.21737 0.763956 3.10048 0.764863 4.13782C0.763956 5.17471 1.12083 6.05827 1.82938 6.7613C2.53442 7.46478 3.40418 7.82005 4.41202 7.81913C5.46158 7.82005 6.33225 7.47001 6.99296 6.77325L6.91122 6.69483L6.99114 6.77507C7.57839 6.18588 7.86975 5.38997 7.86896 4.41489L7.75581 4.41513Z" fill="black"/>
<path d="M12.9808 1.56238H9.88311V3.72791H12.6766V4.54864H9.88311V6.71417H12.9808V7.55322H9.00984V0.72333H12.9808V1.56238Z" fill="black"/>
<path d="M12.9826 1.56266V1.44883H9.77158V3.84202H12.5651V4.43474L9.77158 4.43509V6.82828H12.8693V7.43967H9.12504V0.837439H12.8693V1.56266H12.9826H13.096V0.609775H8.89831V7.66733H13.096V6.60062H9.99832V4.66275H12.7918V3.61436H9.99832V1.67649H13.096V1.56266H12.9826Z" fill="black"/>
<path d="M16.6689 7.55322H15.7943V1.56238H13.8944V0.72333H18.5687V1.56238H16.6689V7.55322Z" fill="black"/>
<path d="M16.6689 7.55322L16.6687 7.43967H15.9074V1.44883H14.0076V0.837439H18.4551V1.44883H16.5553V7.5535L16.6689 7.55322L16.782 7.5535V1.67649H18.6819V0.609775H13.7808V1.67649H15.6807V7.66733H16.782V7.5535L16.6689 7.55322Z" fill="black"/>
<path d="M21.9494 7.55322V0.72333H22.8231V7.55322H21.9494Z" fill="black"/>
<path d="M21.9494 7.55322L22.0625 7.5535V0.837439H22.7095V7.43967H21.9492L21.9494 7.55322L21.9492 7.66733H22.9363V0.609775H21.8358V7.66733H21.9492L21.9494 7.55322Z" fill="black"/>
<path d="M26.6982 7.55322H25.8236V1.56238H23.9239V0.72333H28.598V1.56238H26.6982V7.55322Z" fill="black"/>
<path d="M26.7001 7.5535V7.43967H25.9388V1.44883H24.0391V0.837439H28.4865V1.44883H26.5867V7.5535H26.7001H26.8134V1.67649H28.7133V0.609775H23.8124V1.67649H25.7121V7.66733H26.8134V7.5535H26.7001Z" fill="black"/>
<path d="M33.1057 6.09859C33.6092 6.61038 34.2252 6.86605 34.9538 6.86605C35.6823 6.86605 36.2986 6.61038 36.8013 6.09859C37.3052 5.58681 37.5577 4.93262 37.5577 4.13808C37.5577 3.34353 37.3052 2.68934 36.8013 2.17756C36.2986 1.66577 35.6823 1.41011 34.9538 1.41011C34.2252 1.41011 33.6092 1.66577 33.1057 2.17756C32.6031 2.68934 32.3507 3.34353 32.3507 4.13808C32.3507 4.93262 32.6031 5.58681 33.1057 6.09859ZM37.4478 6.67037C36.7791 7.36087 35.9474 7.70555 34.9538 7.70555C33.9591 7.70555 33.1278 7.36087 32.4606 6.67037C31.7914 5.98067 31.4584 5.13638 31.4584 4.13808C31.4584 3.13977 31.7914 2.29537 32.4606 1.60578C33.1278 0.915166 33.9591 0.570144 34.9538 0.570144C35.9422 0.570144 36.7716 0.916988 37.4434 1.61022C38.1143 2.30345 38.45 3.14603 38.45 4.13808C38.45 5.13638 38.1151 5.98067 37.4478 6.67037Z" fill="black"/>
<path d="M33.1057 6.09859L33.0249 6.17837C33.5471 6.71064 34.1985 6.98099 34.9535 6.97963C35.7081 6.98099 36.3604 6.71064 36.8817 6.17837C37.4073 5.64564 37.6716 4.95639 37.6708 4.13783C37.6716 3.31926 37.4073 2.63001 36.8817 2.09728C36.3604 1.56501 35.7081 1.29466 34.9535 1.29602C34.1985 1.29466 33.5471 1.56501 33.0249 2.09728C32.5006 2.63001 32.2357 3.31926 32.2371 4.13783C32.2357 4.95639 32.5006 5.64564 33.0249 6.17837L33.1057 6.09859L33.1861 6.01832C32.7052 5.52691 32.4647 4.90881 32.4638 4.13783C32.4647 3.36684 32.7052 2.74874 33.1861 2.25733C33.6714 1.76603 34.2511 1.52505 34.9535 1.52369C35.6554 1.52505 36.2364 1.76603 36.7205 2.25733C37.2023 2.74874 37.4427 3.36684 37.4436 4.13783C37.4427 4.90881 37.2023 5.52691 36.7205 6.01832C36.2364 6.50962 35.6554 6.7506 34.9535 6.75196C34.2511 6.7506 33.6714 6.50962 33.1861 6.01832L33.1057 6.09859ZM37.4478 6.67037L37.3666 6.59101C36.7165 7.25977 35.9216 7.59011 34.9535 7.59147C33.985 7.59011 33.1901 7.25977 32.5413 6.59101C31.8926 5.91997 31.5724 5.11074 31.5715 4.13783C31.5724 3.16491 31.8926 2.35568 32.5413 1.68464C33.1901 1.01588 33.985 0.68509 34.9535 0.683724C35.9153 0.68509 36.7085 1.01725 37.3621 1.68954C38.0131 2.36365 38.3351 3.17162 38.3364 4.13783C38.3351 5.11074 38.014 5.91997 37.3666 6.59101L37.4478 6.67037L37.5291 6.74923C38.2164 6.04052 38.564 5.1614 38.5632 4.13783C38.564 3.12006 38.215 2.24276 37.5246 1.53086C36.8338 0.816222 35.9685 0.454809 34.9535 0.456061C33.9332 0.454809 33.0653 0.814514 32.3788 1.52642C31.6902 2.23559 31.3439 3.11425 31.3448 4.13783C31.3439 5.1614 31.6902 6.04052 32.3788 6.74969C33.0653 7.46159 33.9332 7.82005 34.9535 7.81914C35.9734 7.82005 36.8413 7.46114 37.5291 6.74923L37.4478 6.67037Z" fill="black"/>
<path d="M39.6765 7.55322V0.72333H40.7402L44.046 6.03653H44.0837L44.046 4.7203V0.72333H44.9207V7.55322H44.0084L40.5498 1.98254H40.5121L40.5498 3.29922V7.55322H39.6765Z" fill="black"/>
<path d="M39.6783 7.5535H39.7917V0.837439H40.6791L43.985 6.15064H44.2019L44.1612 4.71887V0.837439H44.8091V7.43967H44.0732L40.6145 1.86898H40.3976L40.4382 3.30132V7.43967H39.6783V7.5535V7.66733H40.665V3.29768L40.6273 1.97974L40.514 1.98281V2.09664H40.5516V1.98281L40.4555 2.04337L43.9473 7.66733H45.0359V0.609775H43.9345V4.72194L43.9722 6.03988L44.0855 6.03681V5.92298H44.0479V6.03681L44.144 5.97636L40.8049 0.609775H39.565V7.66733H39.6783V7.5535Z" fill="black"/>
<path d="M75.2303 26.9041H77.3458V12.6738H75.2303V26.9041ZM94.2841 17.7998L91.8591 23.9694H91.7866L89.2698 17.7998H86.9911L90.7651 26.4229L88.6134 31.2194H90.8207L96.6365 17.7998H94.2841ZM82.2875 25.2878C81.5937 25.2878 80.6278 24.94 80.6278 24.0792C80.6278 22.9809 81.8317 22.5598 82.8702 22.5598C83.8009 22.5598 84.2374 22.7612 84.8031 23.0361C84.6387 24.354 83.5084 25.2878 82.2875 25.2878ZM82.5425 17.4885C81.0109 17.4885 79.4249 18.1661 78.7685 19.6674L80.6459 20.4544C81.0472 19.6674 81.7943 19.4108 82.5788 19.4108C83.6728 19.4108 84.785 20.0702 84.8031 21.2419V21.3881C84.4199 21.1685 83.6003 20.839 82.597 20.839C80.5733 20.839 78.5123 21.9555 78.5123 24.0427C78.5123 25.9468 80.172 27.1735 82.0312 27.1735C83.454 27.1735 84.2374 26.5328 84.7305 25.7823H84.8031V26.8805H86.8449V21.4246C86.8449 18.8985 84.9675 17.4885 82.5425 17.4885ZM69.4689 19.5321H66.4602V14.6543H69.4689C71.0504 14.6543 71.9483 15.9691 71.9483 17.0932C71.9483 18.196 71.0504 19.5321 69.4689 19.5321ZM69.4145 12.6738H64.3458V26.9041H66.4602V21.5127H69.4145C71.759 21.5127 74.0637 19.8083 74.0637 17.0932C74.0637 14.3782 71.759 12.6738 69.4145 12.6738ZM41.7743 25.2904C40.3128 25.2904 39.0892 24.0618 39.0892 22.3744C39.0892 20.6692 40.3128 19.4219 41.7743 19.4219C43.2171 19.4219 44.3494 20.6692 44.3494 22.3744C44.3494 24.0618 43.2171 25.2904 41.7743 25.2904ZM44.2033 18.5967H44.1302C43.6555 18.0283 42.7419 17.5148 41.5914 17.5148C39.1805 17.5148 36.9707 19.642 36.9707 22.3744C36.9707 25.0886 39.1805 27.1975 41.5914 27.1975C42.7419 27.1975 43.6555 26.6839 44.1302 26.0975H44.2033V26.7942C44.2033 28.6467 43.2171 29.6369 41.6281 29.6369C40.3314 29.6369 39.5278 28.7014 39.1987 27.913L37.3543 28.6832C37.8839 29.9668 39.2904 31.5441 41.6281 31.5441C44.112 31.5441 46.2124 30.0767 46.2124 26.5008V17.8083H44.2033V18.5967ZM47.6734 26.9041H49.792V12.6733H47.6734V26.9041ZM52.9153 22.2094C52.8604 20.3387 54.3581 19.3854 55.4356 19.3854C56.2763 19.3854 56.9882 19.8069 57.2252 20.4126L52.9153 22.2094ZM59.4903 20.5958C59.089 19.5135 57.8646 17.5148 55.3624 17.5148C52.8785 17.5148 50.8149 19.477 50.8149 22.3562C50.8149 25.0704 52.8604 27.1975 55.5998 27.1975C57.8102 27.1975 59.089 25.8404 59.6184 25.052L57.9746 23.9515C57.427 24.7586 56.6776 25.2904 55.5998 25.2904C54.5224 25.2904 53.7554 24.7951 53.2621 23.8235L59.7091 21.1458L59.4903 20.5958ZM8.12527 19.0003V21.0542H13.0199C12.8738 22.2094 12.4903 23.0529 11.9058 23.6399C11.1937 24.3553 10.0795 25.1437 8.12527 25.1437C5.11161 25.1437 2.7557 22.7047 2.7557 19.6789C2.7557 16.653 5.11161 14.2137 8.12527 14.2137C9.75085 14.2137 10.9377 14.8557 11.8145 15.681L13.2573 14.2324C12.0337 13.0584 10.408 12.1598 8.12527 12.1598C3.99742 12.1598 0.527344 15.5343 0.527344 19.6789C0.527344 23.8235 3.99742 27.1975 8.12527 27.1975C10.3536 27.1975 12.0337 26.4644 13.3486 25.0886C14.7002 23.7315 15.1204 21.8244 15.1204 20.2841C15.1204 19.8069 15.084 19.3672 15.0106 19.0003H8.12527ZM20.6852 25.2904C19.2238 25.2904 17.9635 24.08 17.9635 22.3562C17.9635 20.614 19.2238 19.4219 20.6852 19.4219C22.1461 19.4219 23.4064 20.614 23.4064 22.3562C23.4064 24.08 22.1461 25.2904 20.6852 25.2904ZM20.6852 17.5148C18.0183 17.5148 15.8448 19.5503 15.8448 22.3562C15.8448 25.1437 18.0183 27.1975 20.6852 27.1975C23.3515 27.1975 25.525 25.1437 25.525 22.3562C25.525 19.5503 23.3515 17.5148 20.6852 17.5148ZM31.2434 25.2904C29.7825 25.2904 28.5221 24.08 28.5221 22.3562C28.5221 20.614 29.7825 19.4219 31.2434 19.4219C32.7044 19.4219 33.9647 20.614 33.9647 22.3562C33.9647 24.08 32.7044 25.2904 31.2434 25.2904ZM31.2434 17.5148C28.5766 17.5148 26.4036 19.5503 26.4036 22.3562C26.4036 25.1437 28.5766 27.1975 31.2434 27.1975C33.9098 27.1975 36.0833 25.1437 36.0833 22.3562C36.0833 19.5503 33.9098 17.5148 31.2434 17.5148Z" fill="black"/>
</svg>
