<svg width="122" height="40" viewBox="0 0 122 40" fill="none" xmlns="http://www.w3.org/2000/svg">
<path d="M9.49501 5.20135C9.49501 6.40382 9.14037 7.36143 8.43009 8.07576C7.62332 8.92515 6.57184 9.35013 5.27921 9.35013C4.04133 9.35013 2.98885 8.91955 2.12333 8.05724C1.25625 7.19551 0.823568 6.12695 0.823568 4.85201C0.823568 3.57649 1.25625 2.50851 2.12333 1.6462C2.98885 0.784464 4.04133 0.353311 5.27921 0.353311C5.89343 0.353311 6.4815 0.473872 7.03983 0.714423C7.59816 0.955548 8.046 1.27561 8.38106 1.67648L7.62718 2.43387C7.05942 1.7527 6.27766 1.41239 5.27921 1.41239C4.37639 1.41239 3.59578 1.73088 2.93696 2.36828C2.278 3.0064 1.94866 3.83383 1.94866 4.85201C1.94866 5.87018 2.278 6.69761 2.93696 7.33573C3.59578 7.97313 4.37639 8.29162 5.27921 8.29162C6.23692 8.29162 7.0354 7.97141 7.67464 7.33014C8.0896 6.91233 8.3296 6.33162 8.39378 5.58586H5.27921V4.55146H9.43526C9.47542 4.77637 9.49501 4.99223 9.49501 5.20135Z" fill="white"/>
<path d="M9.49501 5.20135L9.35179 5.20105C9.35065 6.3761 9.00887 7.28879 8.32875 7.97398L8.32718 7.97513C7.546 8.79524 6.5414 9.20458 5.27893 9.2063C4.07407 9.20458 3.06561 8.79194 2.22354 7.95547C1.38332 7.11727 0.967798 6.09407 0.966225 4.8517C0.967798 3.60876 1.38332 2.58613 2.22354 1.74851C3.06561 0.911463 4.07407 0.498251 5.27893 0.496528C5.87471 0.496528 6.44205 0.613214 6.98309 0.845871C7.5247 1.08025 7.95253 1.3874 8.27129 1.76875L8.38106 1.67648L8.27972 1.5747L7.52584 2.33267L7.62718 2.43387L7.73697 2.34171C7.14276 1.6268 6.30869 1.26641 5.27893 1.26856C4.34266 1.26741 3.51902 1.60326 2.83776 2.26492C2.14992 2.92873 1.80429 3.80267 1.80544 4.8517C1.80429 5.90074 2.14992 6.77468 2.83776 7.43849C3.51902 8.10014 4.34266 8.436 5.27893 8.43485C6.26838 8.43657 7.1116 8.09957 7.77542 7.43131C8.21883 6.98494 8.47012 6.36663 8.53601 5.5979L8.54931 5.44203H5.42187V4.69468H9.43498L9.43526 4.55146L9.29418 4.57642C9.33335 4.794 9.35179 5.00083 9.35179 5.20105L9.49501 5.20135L9.63768 5.20105C9.63768 4.98288 9.61752 4.7587 9.57564 4.52546L9.55448 4.40763H5.13599V5.72908H8.3935L8.39378 5.58586L8.25113 5.57321C8.1881 6.29544 7.9591 6.83926 7.5733 7.22836C6.95908 7.8428 6.20534 8.14607 5.27893 8.14779C4.40956 8.14665 3.67198 7.8461 3.03603 7.23224C2.40622 6.62053 2.09289 5.8396 2.09132 4.8517C2.09289 3.86381 2.40622 3.08288 3.03603 2.47117C3.67198 1.8573 4.40956 1.55676 5.27893 1.55561C6.24551 1.55791 6.97537 1.87855 7.51755 2.52614L7.61804 2.64613L8.57446 1.68464L8.49013 1.58417C8.13892 1.16378 7.67107 0.830083 7.09587 0.582356C6.51967 0.333911 5.91159 0.209475 5.27893 0.209475C4.00817 0.208327 2.91152 0.656847 2.02199 1.54442C1.12918 2.43026 0.679197 3.54374 0.680341 4.8517C0.679197 6.15909 1.12917 7.27314 2.02256 8.15956C2.91152 9.04656 4.00817 9.4945 5.27893 9.49336C6.60229 9.4945 7.70009 9.05316 8.53315 8.17463L8.43009 8.07576L8.53087 8.17693C9.27131 7.43404 9.63868 6.4305 9.63768 5.20105L9.49501 5.20135Z" fill="white"/>
<path d="M16.083 1.60441H12.1773V4.33486H15.6995V5.36969H12.1773V8.10014H16.083V9.15807H11.0762V0.546472H16.083V1.60441Z" fill="white"/>
<path d="M16.0853 1.60476V1.46123H12.0366V4.47873H15.5589V5.22608L12.0366 5.22651V8.24402H15.9424V9.0149H11.2214V0.690348H15.9424V1.60476H16.0853H16.2283V0.403295H10.9355V9.30195H16.2283V7.95696H12.3225V5.51357H15.8448V4.19168H12.3225V1.74828H16.2283V1.60476H16.0853Z" fill="white"/>
<path d="M20.7333 9.15807H19.6305V1.60441H17.235V0.546472H23.1287V1.60441H20.7333V9.15807Z" fill="white"/>
<path d="M20.7333 9.15807L20.733 9.0149H19.7731V1.46123H17.3777V0.690348H22.9855V1.46123H20.59V9.15843L20.7333 9.15807L20.8759 9.15843V1.74828H23.2714V0.403295H17.0918V1.74828H19.4872V9.30195H20.8759V9.15843L20.7333 9.15807Z" fill="white"/>
<path d="M27.3913 9.15807V0.546472H28.4929V9.15807H27.3913Z" fill="white"/>
<path d="M27.3913 9.15807L27.5339 9.15843V0.690348H28.3497V9.0149H27.391L27.3913 9.15807L27.391 9.30195H28.6356V0.403295H27.2481V9.30195H27.391L27.3913 9.15807Z" fill="white"/>
<path d="M33.3789 9.15807H32.2761V1.60441H29.8809V0.546472H35.7744V1.60441H33.3789V9.15807Z" fill="white"/>
<path d="M33.3813 9.15843V9.0149H32.4214V1.46123H30.0261V0.690348H35.6338V1.46123H33.2383V9.15843H33.3813H33.5242V1.74828H35.9196V0.403295H29.7402V1.74828H32.1355V9.30195H33.5242V9.15843H33.3813Z" fill="white"/>
<path d="M41.458 7.32398C42.0928 7.96927 42.8695 8.29163 43.7881 8.29163C44.7066 8.29163 45.4838 7.96927 46.1176 7.32398C46.753 6.67868 47.0713 5.85384 47.0713 4.85202C47.0713 3.85021 46.753 3.02536 46.1176 2.38006C45.4838 1.73477 44.7066 1.41241 43.7881 1.41241C42.8695 1.41241 42.0928 1.73477 41.458 2.38006C40.8242 3.02536 40.506 3.85021 40.506 4.85202C40.506 5.85384 40.8242 6.67868 41.458 7.32398ZM46.9328 8.04491C46.0896 8.91555 45.041 9.35014 43.7881 9.35014C42.5339 9.35014 41.4858 8.91555 40.6445 8.04491C39.8007 7.17529 39.3809 6.11075 39.3809 4.85202C39.3809 3.59329 39.8007 2.52861 40.6445 1.65913C41.4858 0.788353 42.5339 0.353325 43.7881 0.353325C45.0344 0.353325 46.0801 0.790649 46.9272 1.66473C47.7732 2.5388 48.1964 3.60119 48.1964 4.85202C48.1964 6.11075 47.7742 7.17529 46.9328 8.04491Z" fill="white"/>
<path d="M41.458 7.32398L41.356 7.42456C42.0144 8.09569 42.8358 8.43657 43.7878 8.43485C44.7392 8.43657 45.5617 8.09569 46.2189 7.42456C46.8816 6.75286 47.215 5.88381 47.214 4.85171C47.215 3.81961 46.8816 2.95055 46.2189 2.27885C45.5617 1.60772 44.7392 1.26684 43.7878 1.26856C42.8358 1.26684 42.0144 1.60772 41.356 2.27885C40.6949 2.95055 40.361 3.81961 40.3627 4.85171C40.361 5.88381 40.6949 6.75286 41.356 7.42456L41.458 7.32398L41.5593 7.22276C40.9529 6.60316 40.6498 5.82381 40.6486 4.85171C40.6498 3.8796 40.9529 3.10025 41.5593 2.48065C42.1712 1.86119 42.9021 1.55734 43.7878 1.55562C44.6727 1.55734 45.4053 1.86119 46.0157 2.48065C46.6232 3.10025 46.9264 3.8796 46.9275 4.85171C46.9264 5.82381 46.6232 6.60316 46.0157 7.22276C45.4053 7.84223 44.6727 8.14607 43.7878 8.14779C42.9021 8.14607 42.1712 7.84223 41.5593 7.22276L41.458 7.32398ZM46.9328 8.04491L46.8303 7.94485C46.0107 8.78807 45.0084 9.20458 43.7878 9.2063C42.5666 9.20458 41.5643 8.78807 40.7462 7.94485C39.9283 7.09876 39.5247 6.07843 39.5235 4.85171C39.5247 3.62498 39.9283 2.60465 40.7462 1.75856C41.5643 0.915344 42.5666 0.498256 43.7878 0.496534C45.0005 0.498256 46.0005 0.917066 46.8247 1.76473C47.6455 2.6147 48.0515 3.63345 48.0532 4.85171C48.0515 6.07843 47.6466 7.09876 46.8303 7.94485L46.9328 8.04491L47.0353 8.14435C47.9018 7.25075 48.3401 6.1423 48.3391 4.85171C48.3401 3.56843 47.9001 2.46227 47.0296 1.56466C46.1586 0.663597 45.0675 0.207902 43.7878 0.20948C42.5013 0.207902 41.4069 0.661444 40.5414 1.55906C39.6732 2.45323 39.2365 3.56111 39.2376 4.85171C39.2365 6.1423 39.6732 7.25075 40.5414 8.14493C41.4069 9.04254 42.5013 9.4945 43.7878 9.49336C45.0737 9.4945 46.168 9.04197 47.0353 8.14435L46.9328 8.04491Z" fill="white"/>
<path d="M49.7428 9.15807V0.546472H51.0841L55.2523 7.24572H55.2997L55.2523 5.58612V0.546472H56.3551V9.15807H55.2048L50.8439 2.13417H50.7965L50.8439 3.79434V9.15807H49.7428Z" fill="white"/>
<path d="M49.7452 9.15843H49.8881V0.690348H51.007L55.1752 7.3896H55.4488L55.3975 5.58432V0.690348H56.2144V9.0149H55.2865L50.9256 1.99099H50.652L50.7033 3.79698V9.0149H49.7452V9.15843V9.30195H50.9892V3.79239L50.9417 2.13064L50.7988 2.13452V2.27804H50.8462V2.13452L50.725 2.21087L55.1278 9.30195H56.5003V0.403295H55.1116V5.5882L55.1591 7.24995L55.302 7.24607V7.10255H55.2546V7.24607L55.3758 7.16986L51.1656 0.403295H49.6022V9.30195H49.7452V9.15843Z" fill="white"/>
<path d="M94.5715 33.557H97.2389V15.6144H94.5715V33.557ZM118.596 22.0777L115.538 29.8567H115.447L112.274 22.0777H109.4L114.159 32.9503L111.446 38.9981H114.229L121.562 22.0777H118.596ZM103.47 31.5191C102.595 31.5191 101.377 31.0806 101.377 29.9952C101.377 28.6103 102.895 28.0794 104.204 28.0794C105.378 28.0794 105.928 28.3333 106.642 28.68C106.434 30.3417 105.009 31.5191 103.47 31.5191ZM103.791 21.6852C101.86 21.6852 99.8604 22.5396 99.0328 24.4324L101.4 25.4248C101.906 24.4324 102.848 24.1089 103.837 24.1089C105.216 24.1089 106.619 24.9404 106.642 26.4177V26.6021C106.158 26.3251 105.125 25.9097 103.86 25.9097C101.308 25.9097 98.7097 27.3174 98.7097 29.9492C98.7097 32.3499 100.802 33.8967 103.147 33.8967C104.941 33.8967 105.928 33.0888 106.55 32.1425H106.642V33.5273H109.216V26.648C109.216 23.463 106.849 21.6852 103.791 21.6852ZM87.3072 24.2619H83.5135V18.1116H87.3072C89.3013 18.1116 90.4334 19.7694 90.4334 21.1867C90.4334 22.5772 89.3013 24.2619 87.3072 24.2619ZM87.2386 15.6144H80.8477V33.557H83.5135V26.7591H87.2386C90.1947 26.7591 93.1007 24.6101 93.1007 21.1867C93.1007 17.7635 90.1947 15.6144 87.2386 15.6144ZM52.3878 31.5224C50.5452 31.5224 49.0024 29.9733 49.0024 27.8456C49.0024 25.6956 50.5452 24.123 52.3878 24.123C54.2071 24.123 55.6348 25.6956 55.6348 27.8456C55.6348 29.9733 54.2071 31.5224 52.3878 31.5224ZM55.4505 23.0824H55.3583C54.7598 22.3658 53.6079 21.7183 52.1573 21.7183C49.1175 21.7183 46.3312 24.4004 46.3312 27.8456C46.3312 31.2679 49.1175 33.927 52.1573 33.927C53.6079 33.927 54.7598 33.2794 55.3583 32.54H55.4505V33.4185C55.4505 35.7542 54.2071 37.0028 52.2036 37.0028C50.5686 37.0028 49.5553 35.8231 49.1403 34.8291L46.8148 35.8002C47.4826 37.4187 49.256 39.4074 52.2036 39.4074C55.3355 39.4074 57.9837 37.5572 57.9837 33.0485V22.0883H55.4505V23.0824ZM59.8258 33.557H62.4972V15.6139H59.8258V33.557ZM66.4352 27.6377C66.366 25.2789 68.2544 24.0769 69.613 24.0769C70.673 24.0769 71.5707 24.6084 71.8694 25.3721L66.4352 27.6377ZM74.7254 25.603C74.2194 24.2384 72.6756 21.7183 69.5208 21.7183C66.3889 21.7183 63.7869 24.1924 63.7869 27.8227C63.7869 31.2449 66.366 33.927 69.8201 33.927C72.607 33.927 74.2194 32.2159 74.887 31.2218L72.8143 29.8342C72.1239 30.8518 71.179 31.5224 69.8201 31.5224C68.4616 31.5224 67.4946 30.8979 66.8725 29.6727L75.0013 26.2965L74.7254 25.603ZM9.96085 23.5914V26.181H16.1324C15.9481 27.6377 15.4646 28.7012 14.7275 29.4412C13.8297 30.3433 12.4249 31.3373 9.96085 31.3373C6.16102 31.3373 3.19053 28.2621 3.19053 24.4469C3.19053 20.6317 6.16102 17.5561 9.96085 17.5561C12.0105 17.5561 13.507 18.3655 14.6125 19.4061L16.4317 17.5796C14.8889 16.0994 12.8391 14.9664 9.96085 14.9664C4.75618 14.9664 0.380859 19.2211 0.380859 24.4469C0.380859 29.6727 4.75618 33.927 9.96085 33.927C12.7705 33.927 14.8889 33.0025 16.5468 31.2679C18.2509 29.5568 18.7808 27.1521 18.7808 25.21C18.7808 24.6084 18.7349 24.0539 18.6423 23.5914H9.96085ZM25.7973 31.5224C23.9546 31.5224 22.3655 29.9962 22.3655 27.8227C22.3655 25.626 23.9546 24.123 25.7973 24.123C27.6392 24.123 29.2283 25.626 29.2283 27.8227C29.2283 29.9962 27.6392 31.5224 25.7973 31.5224ZM25.7973 21.7183C22.4347 21.7183 19.6942 24.2849 19.6942 27.8227C19.6942 31.3373 22.4347 33.927 25.7973 33.927C29.1591 33.927 31.8996 31.3373 31.8996 27.8227C31.8996 24.2849 29.1591 21.7183 25.7973 21.7183ZM39.1098 31.5224C37.2678 31.5224 35.6786 29.9962 35.6786 27.8227C35.6786 25.626 37.2678 24.123 39.1098 24.123C40.9519 24.123 42.541 25.626 42.541 27.8227C42.541 29.9962 40.9519 31.5224 39.1098 31.5224ZM39.1098 21.7183C35.7474 21.7183 33.0074 24.2849 33.0074 27.8227C33.0074 31.3373 35.7474 33.927 39.1098 33.927C42.4718 33.927 45.2123 31.3373 45.2123 27.8227C45.2123 24.2849 42.4718 21.7183 39.1098 21.7183Z" fill="white"/>
</svg>
