<svg width="31" height="35" viewBox="0 0 31 35" fill="none" xmlns="http://www.w3.org/2000/svg">
<path d="M1.63398 33.5571L1.53763 33.4646C1.16028 33.0637 0.9375 32.4411 0.9375 31.6351V31.8248V3.02875C0.9375 3.02615 0.9375 3.02419 0.9375 3.02211C0.9375 3.02458 0.9375 3.02667 0.9375 3.02927V3.2195C0.9375 2.34661 1.19724 1.68908 1.63242 1.29482L17.6988 17.4265L1.63398 33.5571ZM0.9375 3.02055C0.9375 2.94881 0.939445 2.87914 0.943076 2.81053C0.939445 2.87862 0.9375 2.94881 0.9375 3.02055ZM0.943076 2.8074C0.943076 2.80649 0.943075 2.80545 0.943464 2.80441C0.943075 2.80545 0.943076 2.80649 0.943076 2.8074ZM0.943464 2.79829C0.943464 2.79777 0.943464 2.79725 0.943464 2.79673C0.943464 2.79725 0.943464 2.79777 0.943464 2.79829Z" fill="#56C4F9"/>
<path d="M23.0558 22.9961L23.178 22.9264L29.5228 19.3066C30.1277 18.9613 30.5309 18.5427 30.732 18.0998C30.5314 18.5427 30.1281 18.9618 29.5228 19.3071L23.178 22.927L23.0558 22.9961ZM23.0574 22.8053L17.7012 17.4263L23.0568 12.0482L29.5228 15.7367C30.3439 16.2052 30.8049 16.8089 30.8819 17.4258C30.8819 17.4263 30.8819 17.4274 30.8819 17.4283C30.8049 18.0438 30.3439 18.648 29.5228 19.1164L23.0574 22.8053Z" fill="#F8D047"/>
<path d="M2.78034 34.1714C2.33153 34.1714 1.93992 34.0249 1.63453 33.7482L1.63505 33.7477C1.94044 34.0244 2.33257 34.1714 2.78137 34.1714C2.82028 34.1714 2.85983 34.1703 2.8999 34.1684C2.85931 34.1703 2.81924 34.1714 2.78034 34.1714ZM2.78086 33.9806C2.33205 33.9812 1.94044 33.8342 1.63505 33.5575V33.5571L17.6999 17.4264L23.0561 22.8054L4.2336 33.5438C3.71282 33.8403 3.21941 33.9806 2.78086 33.9806ZM1.63052 33.7447C1.60212 33.7188 1.57424 33.6913 1.54688 33.6628L1.63052 33.7447Z" fill="#DE4551"/>
<path d="M17.6992 17.4263L1.63281 1.2946C1.9382 1.01843 2.32929 0.871952 2.77758 0.871952C3.2173 0.871952 3.7111 1.01283 4.23291 1.30983L23.0549 12.0482L17.6992 17.4263ZM23.176 11.9267L4.23291 1.11973C3.7111 0.822602 3.2173 0.681724 2.77758 0.681724C2.7755 0.681724 2.77408 0.681724 2.772 0.681724C2.7746 0.681724 2.77654 0.681724 2.77965 0.681724C3.21834 0.681724 3.71162 0.822082 4.23291 1.11921L23.176 11.9267Z" fill="#6EEB84"/>
</svg>
