<svg width="31" height="34" viewBox="0 0 31 34" fill="none" xmlns="http://www.w3.org/2000/svg">
<path d="M1.13398 32.8876L1.03763 32.7951C0.660279 32.3942 0.4375 31.7717 0.4375 30.9656V31.1553V2.35925C0.4375 2.35665 0.4375 2.3547 0.4375 2.35261C0.4375 2.35509 0.4375 2.35717 0.4375 2.35978V2.55C0.4375 1.67711 0.697237 1.01958 1.13242 0.625324L17.1988 16.757L1.13398 32.8876ZM0.4375 2.35105C0.4375 2.27931 0.439445 2.20965 0.443076 2.14103C0.439445 2.20913 0.4375 2.27931 0.4375 2.35105ZM0.443076 2.13791C0.443076 2.137 0.443075 2.13595 0.443464 2.13491C0.443075 2.13595 0.443076 2.137 0.443076 2.13791ZM0.443464 2.12879C0.443464 2.12827 0.443464 2.12775 0.443464 2.12723C0.443464 2.12775 0.443464 2.12827 0.443464 2.12879Z" fill="#56C4F9"/>
<path d="M22.5558 22.3264L22.678 22.2567L29.0228 18.6369C29.6277 18.2916 30.0309 17.873 30.232 17.43C30.0314 17.873 29.6281 18.2921 29.0228 18.6374L22.678 22.2572L22.5558 22.3264V22.3264ZM22.5574 22.1356L17.2012 16.7566L22.5568 11.3785L29.0228 15.0669C29.8439 15.5354 30.3049 16.1392 30.3819 16.7561C30.3819 16.7566 30.3819 16.7576 30.3819 16.7586C30.3049 17.374 29.8439 17.9783 29.0228 18.4467L22.5574 22.1356" fill="#F8D047"/>
<path d="M2.28034 33.5016C1.83153 33.5016 1.43992 33.3552 1.13453 33.0785L1.13505 33.078C1.44044 33.3546 1.83257 33.5016 2.28137 33.5016C2.32028 33.5016 2.35983 33.5006 2.3999 33.4987C2.35931 33.5006 2.31924 33.5016 2.28034 33.5016V33.5016ZM2.28086 33.3109C1.83205 33.3114 1.44044 33.1644 1.13505 32.8877V32.8873L17.1999 16.7567L22.5561 22.1357L3.7336 32.8741C3.21282 33.1705 2.71941 33.3109 2.28086 33.3109V33.3109ZM1.13052 33.075C1.10212 33.0491 1.07424 33.0216 1.04688 32.9931L1.13052 33.075Z" fill="#DE4551"/>
<path d="M17.1992 16.7568L1.13281 0.625101C1.4382 0.348938 1.82929 0.202457 2.27758 0.202457C2.7173 0.202457 3.2111 0.34334 3.73291 0.640336L22.5549 11.3787L17.1992 16.7568V16.7568ZM22.676 11.2572L3.73291 0.450234C3.2111 0.153108 2.7173 0.012229 2.27758 0.012229C2.2755 0.012229 2.27408 0.012229 2.272 0.012229C2.2746 0.012229 2.27654 0.012229 2.27965 0.012229C2.71834 0.012229 3.21162 0.152587 3.73291 0.449714L22.676 11.2572V11.2572Z" fill="#6EEB84"/>
</svg>
