<svg width="31" height="34" viewBox="0 0 31 34" fill="none" xmlns="http://www.w3.org/2000/svg">
<path d="M1.13398 32.9387L1.03763 32.8461C0.660279 32.4452 0.4375 31.8227 0.4375 31.0166V31.2063V2.41034C0.4375 2.40774 0.4375 2.40578 0.4375 2.4037C0.4375 2.40618 0.4375 2.40826 0.4375 2.41086V2.60109C0.4375 1.7282 0.697237 1.07067 1.13242 0.676411L17.1988 16.8081L1.13398 32.9387ZM0.4375 2.40214C0.4375 2.3304 0.439445 2.26074 0.443076 2.19212C0.439445 2.26022 0.4375 2.3304 0.4375 2.40214ZM0.443076 2.189C0.443076 2.18808 0.443075 2.18704 0.443464 2.186C0.443075 2.18704 0.443076 2.18808 0.443076 2.189ZM0.443464 2.17988C0.443464 2.17936 0.443464 2.17884 0.443464 2.17832C0.443464 2.17884 0.443464 2.17936 0.443464 2.17988Z" fill="#56C4F9"/>
<path d="M22.5558 22.3774L22.678 22.3078L29.0228 18.688C29.6277 18.3427 30.0309 17.9241 30.232 17.4811C30.0314 17.9241 29.6281 18.3432 29.0228 18.6885L22.678 22.3083L22.5558 22.3774V22.3774ZM22.5574 22.1867L17.2012 16.8077L22.5568 11.4296L29.0228 15.118C29.8439 15.5865 30.3049 16.1903 30.3819 16.8072C30.3819 16.8077 30.3819 16.8087 30.3819 16.8096C30.3049 17.4251 29.8439 18.0294 29.0228 18.4977L22.5574 22.1867" fill="#F8D047"/>
<path d="M2.28034 33.5527C1.83153 33.5527 1.43992 33.4063 1.13453 33.1296L1.13505 33.129C1.44044 33.4057 1.83257 33.5527 2.28137 33.5527C2.32028 33.5527 2.35983 33.5517 2.3999 33.5497C2.35931 33.5517 2.31924 33.5527 2.28034 33.5527V33.5527ZM2.28086 33.362C1.83205 33.3625 1.44044 33.2155 1.13505 32.9388V32.9384L17.1999 16.8078L22.5561 22.1868L3.7336 32.9251C3.21282 33.2216 2.71941 33.362 2.28086 33.362V33.362ZM1.13052 33.1261C1.10212 33.1001 1.07424 33.0727 1.04688 33.0442L1.13052 33.1261Z" fill="#DE4551"/>
<path d="M17.1992 16.8079L1.13281 0.676188C1.4382 0.400024 1.82929 0.253544 2.27758 0.253544C2.7173 0.253544 3.2111 0.394426 3.73291 0.691422L22.5549 11.4298L17.1992 16.8079V16.8079ZM22.676 11.3083L3.73291 0.501321C3.2111 0.204194 2.7173 0.0633154 2.27758 0.0633154C2.2755 0.0633154 2.27408 0.0633154 2.272 0.0633154C2.2746 0.0633154 2.27654 0.0633154 2.27965 0.0633154C2.71834 0.0633154 3.21162 0.203674 3.73291 0.5008L22.676 11.3083V11.3083Z" fill="#6EEB84"/>
</svg>
