<svg width="25" height="28" viewBox="0 0 25 28" fill="none" xmlns="http://www.w3.org/2000/svg">
<path d="M1.02113 26.7932L0.944716 26.7198C0.645437 26.4018 0.46875 25.9081 0.46875 25.2688V25.4193V2.58105C0.46875 2.57898 0.46875 2.57744 0.46875 2.57578C0.46875 2.57775 0.46875 2.5794 0.46875 2.58146V2.73233C0.46875 2.04004 0.674748 1.51855 1.0199 1.20586L13.7622 13.9999L1.02113 26.7932ZM0.46875 2.57454C0.46875 2.51765 0.470293 2.4624 0.473172 2.40798C0.470293 2.46198 0.46875 2.51765 0.46875 2.57454ZM0.473172 2.4055C0.473172 2.40478 0.473171 2.40395 0.47348 2.40312C0.473171 2.40395 0.473172 2.40478 0.473172 2.4055ZM0.47348 2.39827C0.47348 2.39786 0.47348 2.39744 0.47348 2.39703C0.47348 2.39744 0.47348 2.39786 0.47348 2.39827Z" fill="#56C4F9"/>
<path d="M18.0105 18.417L18.1073 18.3617L23.1394 15.4909C23.6192 15.217 23.939 14.885 24.0985 14.5337C23.9394 14.885 23.6195 15.2174 23.1394 15.4913L18.1073 18.3622L18.0105 18.417V18.417ZM18.0117 18.2657L13.7637 13.9996L18.0113 9.73422L23.1394 12.6595C23.7907 13.0311 24.1563 13.5099 24.2174 13.9992C24.2174 13.9996 24.2174 14.0004 24.2174 14.0012C24.1563 14.4893 23.7907 14.9685 23.1394 15.34L18.0117 18.2657" fill="#F8D047"/>
<path d="M1.92943 27.2803C1.57349 27.2803 1.26289 27.1641 1.02069 26.9447L1.02111 26.9442C1.26331 27.1637 1.57431 27.2803 1.93026 27.2803C1.96111 27.2803 1.99248 27.2794 2.02426 27.2779C1.99207 27.2794 1.96029 27.2803 1.92943 27.2803V27.2803ZM1.92985 27.129C1.5739 27.1294 1.26331 27.0128 1.02111 26.7934V26.7931L13.7622 13.9998L18.0102 18.2659L3.08202 26.7825C2.66899 27.0177 2.27767 27.129 1.92985 27.129V27.129ZM1.01751 26.9419C0.994984 26.9213 0.972872 26.8995 0.951172 26.8769L1.01751 26.9419Z" fill="#DE4551"/>
<path d="M13.7618 13.9998L1.01953 1.20567C1.26173 0.986643 1.57191 0.87047 1.92745 0.87047C2.2762 0.87047 2.66783 0.982204 3.08168 1.21775L18.0094 9.73437L13.7618 13.9998V13.9998ZM18.1055 9.63802L3.08168 1.06698C2.66783 0.83133 2.2762 0.719599 1.92745 0.719599C1.9258 0.719599 1.92467 0.719599 1.92303 0.719599C1.92508 0.719599 1.92662 0.719599 1.92909 0.719599C2.27702 0.719599 2.66824 0.830917 3.08168 1.06657L18.1055 9.63802V9.63802Z" fill="#6EEB84"/>
</svg>
