<svg width="31" height="34" viewBox="0 0 31 34" fill="none" xmlns="http://www.w3.org/2000/svg">
<path d="M1.13398 33.3875L1.03763 33.2949C0.660279 32.894 0.4375 32.2715 0.4375 31.4654V31.6551V2.85907C0.4375 2.85647 0.4375 2.85451 0.4375 2.85243C0.4375 2.8549 0.4375 2.85699 0.4375 2.85959V3.04982C0.4375 2.17693 0.697237 1.5194 1.13242 1.12514L17.1988 17.2568L1.13398 33.3875ZM0.4375 2.85087C0.4375 2.77913 0.439445 2.70947 0.443076 2.64085C0.439445 2.70895 0.4375 2.77913 0.4375 2.85087ZM0.443076 2.63773C0.443076 2.63681 0.443075 2.63577 0.443464 2.63473C0.443075 2.63577 0.443076 2.63681 0.443076 2.63773ZM0.443464 2.62861C0.443464 2.62809 0.443464 2.62757 0.443464 2.62705C0.443464 2.62757 0.443464 2.62809 0.443464 2.62861Z" fill="#56C4F9"/>
<path d="M22.5558 22.8262L22.678 22.7565L29.0228 19.1367C29.6277 18.7914 30.0309 18.3728 30.232 17.9298C30.0314 18.3728 29.6281 18.7919 29.0228 19.1372L22.678 22.757L22.5558 22.8262ZM22.5574 22.6354L17.2012 17.2564L22.5568 11.8783L29.0228 15.5668C29.8439 16.0352 30.3049 16.639 30.3819 17.2559C30.3819 17.2564 30.3819 17.2575 30.3819 17.2584C30.3049 17.8738 29.8439 18.4781 29.0228 18.9465L22.5574 22.6354Z" fill="#F8D047"/>
<path d="M2.28034 34.0015C1.83153 34.0015 1.43992 33.855 1.13453 33.5783L1.13505 33.5778C1.44044 33.8545 1.83257 34.0015 2.28137 34.0015C2.32028 34.0015 2.35983 34.0004 2.3999 33.9985C2.35931 34.0004 2.31924 34.0015 2.28034 34.0015ZM2.28086 33.8107C1.83205 33.8112 1.44044 33.6642 1.13505 33.3875V33.3872L17.1999 17.2565L22.5561 22.6355L3.7336 33.3739C3.21282 33.6704 2.71941 33.8107 2.28086 33.8107ZM1.13052 33.5748C1.10212 33.5489 1.07424 33.5214 1.04688 33.4929L1.13052 33.5748Z" fill="#DE4551"/>
<path d="M17.1992 17.2566L1.13281 1.12492C1.4382 0.848755 1.82929 0.702275 2.27758 0.702275C2.7173 0.702275 3.2111 0.843157 3.73291 1.14015L22.5549 11.8785L17.1992 17.2566ZM22.676 11.757L3.73291 0.950052C3.2111 0.652925 2.7173 0.512046 2.27758 0.512046C2.2755 0.512046 2.27408 0.512046 2.272 0.512046C2.2746 0.512046 2.27654 0.512046 2.27965 0.512046C2.71834 0.512046 3.21162 0.652405 3.73291 0.949531L22.676 11.757Z" fill="#6EEB84"/>
</svg>
