<svg width="25" height="25" viewBox="0 0 25 25" fill="none" xmlns="http://www.w3.org/2000/svg">
<g clip-path="url(#clip0_2694_27465)">
<rect x="0.0214844" y="0.124878" width="24.0633" height="24.0633" rx="4.8125" fill="white"/>
<mask id="mask0_2694_27465" style="mask-type:alpha" maskUnits="userSpaceOnUse" x="3" y="1" width="30" height="31">
<path d="M11.4562 5.72732C13.9806 0.521396 21.3969 0.521394 23.9213 5.72732L31.5478 21.455C33.7785 26.0551 30.4277 31.4039 25.3152 31.4039H10.0623C4.9498 31.4039 1.59903 26.0551 3.82969 21.455L11.4562 5.72732Z" fill="#F23FA0"/>
</mask>
<g mask="url(#mask0_2694_27465)">
<path d="M11.4562 5.72732C13.9806 0.521396 21.3969 0.521394 23.9213 5.72732L31.5478 21.455C33.7785 26.0551 30.4277 31.4039 25.3152 31.4039H10.0623C4.9498 31.4039 1.59903 26.0551 3.82969 21.455L11.4562 5.72732Z" fill="#FA41A5"/>
<g filter="url(#filter0_f_2694_27465)">
<path d="M8.38969 15.2287C9.98293 11.9425 14.6637 11.9425 16.2569 15.2287L21.0703 25.1566C22.4781 28.0604 20.3633 31.4368 17.1367 31.4368H7.50995C4.28328 31.4368 2.16849 28.0604 3.57634 25.1566L8.38969 15.2287Z" fill="#CC1479"/>
</g>
<g filter="url(#filter1_f_2694_27465)">
<path d="M27.9385 -1.54775C29.5318 -4.83394 34.2125 -4.83394 35.8057 -1.54775L40.6191 8.38019C42.0269 11.284 39.9121 14.6603 36.6855 14.6603H27.0588C23.8321 14.6603 21.7173 11.284 23.1252 8.38019L27.9385 -1.54775Z" fill="#FF76C0"/>
</g>
<path d="M18.2837 6.59196C18.1468 6.8062 18.0816 6.96427 18.0087 7.25869C17.932 7.56856 17.9108 7.77182 17.92 8.10892" stroke="#1A052F" stroke-width="0.982223" stroke-linecap="round"/>
<path d="M16.1372 6.59196C16.0003 6.8062 15.9351 6.96427 15.8622 7.25869C15.7855 7.56856 15.7643 7.77182 15.7735 8.10892" stroke="#1A052F" stroke-width="0.982223" stroke-linecap="round"/>
<path d="M17.6133 11.8682C17.6133 11.8682 19.3065 12.603 19.9222 10.3984" stroke="#1A052F" stroke-width="0.982223" stroke-linecap="round"/>
</g>
<mask id="mask1_2694_27465" style="mask-type:alpha" maskUnits="userSpaceOnUse" x="-6" y="10" width="23" height="22">
<path d="M9.65324 31.404C13.9569 31.404 17.5571 27.8676 16.5763 23.6772C16.5683 23.643 16.5602 23.6089 16.5521 23.5748C15.9622 21.0927 15.0975 18.8373 14.0074 16.9376C12.9173 15.0378 11.6231 13.5308 10.1988 12.5027C8.77454 11.4746 7.24799 10.9454 5.70635 10.9454C4.16471 10.9454 2.63817 11.4746 1.21388 12.5027C-0.210409 13.5308 -1.50455 15.0378 -2.59465 16.9376C-3.68476 18.8373 -4.54947 21.0927 -5.13943 23.5748C-5.14753 23.6089 -5.15558 23.643 -5.16357 23.6772C-6.14435 27.8676 -2.54421 31.404 1.75947 31.404H9.65324Z" fill="#BD8AFF"/>
</mask>
<g mask="url(#mask1_2694_27465)">
<path d="M9.65324 31.404C13.9569 31.404 17.5571 27.8676 16.5763 23.6772C16.5683 23.643 16.5602 23.6089 16.5521 23.5748C15.9622 21.0927 15.0975 18.8373 14.0074 16.9376C12.9173 15.0378 11.6231 13.5308 10.1988 12.5027C8.77454 11.4746 7.24799 10.9454 5.70635 10.9454C4.16471 10.9454 2.63817 11.4746 1.21388 12.5027C-0.210409 13.5308 -1.50455 15.0378 -2.59465 16.9376C-3.68476 18.8373 -4.54947 21.0927 -5.13943 23.5748C-5.14753 23.6089 -5.15558 23.643 -5.16357 23.6772C-6.14435 27.8676 -2.54421 31.404 1.75947 31.404H9.65324Z" fill="#B680F1"/>
<g opacity="0.8" filter="url(#filter2_f_2694_27465)">
<path d="M2.35831 38.4063C6.662 38.4063 10.2621 34.8699 9.28135 30.6794C9.27336 30.6453 9.26532 30.6112 9.25722 30.5771C8.66726 28.0949 7.80254 25.8396 6.71244 23.9398C5.62233 22.0401 4.32819 20.5331 2.9039 19.505C1.47961 18.4768 -0.0469301 17.9476 -1.58857 17.9476C-3.13021 17.9476 -4.65675 18.4768 -6.08104 19.505C-7.50533 20.5331 -8.79947 22.0401 -9.88958 23.9398C-10.9797 25.8396 -11.8444 28.0949 -12.4344 30.5771C-12.4425 30.6112 -12.4505 30.6453 -12.4585 30.6794C-13.4393 34.8699 -9.83914 38.4063 -5.53545 38.4063H2.35831Z" fill="#9D69DF"/>
</g>
<g filter="url(#filter3_f_2694_27465)">
<path d="M23.8036 25.8604C28.1073 25.8604 31.7074 22.324 30.7267 18.1335C30.7187 18.0994 30.7106 18.0653 30.7025 18.0312C30.1126 15.549 29.2479 13.2937 28.1577 11.3939C27.0676 9.49417 25.7735 7.9872 24.3492 6.95906C22.9249 5.93091 21.3984 5.40173 19.8567 5.40173C18.3151 5.40173 16.7886 5.93091 15.3643 6.95906C13.94 7.9872 12.6458 9.49418 11.5557 11.3939C10.4656 13.2937 9.60092 15.549 9.01096 18.0312C9.00286 18.0653 8.99481 18.0994 8.98682 18.1335C8.00604 22.324 11.6062 25.8604 15.9099 25.8604H23.8036Z" fill="#BD8AFF"/>
</g>
<path d="M6.42626 15.7118C6.28937 15.9261 6.22418 16.0841 6.1513 16.3786C6.0746 16.6884 6.05339 16.8917 6.0626 17.2288" stroke="#1A052F" stroke-width="0.982223" stroke-linecap="round"/>
<path d="M4.27978 15.7118C4.14289 15.9261 4.0777 16.0841 4.00482 16.3786C3.92811 16.6884 3.9069 16.8917 3.91611 17.2288" stroke="#1A052F" stroke-width="0.982223" stroke-linecap="round"/>
<path d="M5.21875 20.4194C5.21875 20.4194 6.90677 21.2217 7.52059 18.8148" stroke="#1A052F" stroke-width="0.982223" stroke-linecap="round"/>
</g>
</g>
<defs>
<filter id="filter0_f_2694_27465" x="-7.07884" y="2.55239" width="38.8042" height="39.096" filterUnits="userSpaceOnUse" color-interpolation-filters="sRGB">
<feFlood flood-opacity="0" result="BackgroundImageFix"/>
<feBlend mode="normal" in="SourceGraphic" in2="BackgroundImageFix" result="shape"/>
<feGaussianBlur stdDeviation="5.10582" result="effect1_foregroundBlur_2694_27465"/>
</filter>
<filter id="filter1_f_2694_27465" x="12.47" y="-14.224" width="38.8042" height="39.096" filterUnits="userSpaceOnUse" color-interpolation-filters="sRGB">
<feFlood flood-opacity="0" result="BackgroundImageFix"/>
<feBlend mode="normal" in="SourceGraphic" in2="BackgroundImageFix" result="shape"/>
<feGaussianBlur stdDeviation="5.10582" result="effect1_foregroundBlur_2694_27465"/>
</filter>
<filter id="filter2_f_2694_27465" x="-22.8327" y="7.73598" width="42.4878" height="40.882" filterUnits="userSpaceOnUse" color-interpolation-filters="sRGB">
<feFlood flood-opacity="0" result="BackgroundImageFix"/>
<feBlend mode="normal" in="SourceGraphic" in2="BackgroundImageFix" result="shape"/>
<feGaussianBlur stdDeviation="5.10582" result="effect1_foregroundBlur_2694_27465"/>
</filter>
<filter id="filter3_f_2694_27465" x="-1.38743" y="-4.80992" width="42.4878" height="40.882" filterUnits="userSpaceOnUse" color-interpolation-filters="sRGB">
<feFlood flood-opacity="0" result="BackgroundImageFix"/>
<feBlend mode="normal" in="SourceGraphic" in2="BackgroundImageFix" result="shape"/>
<feGaussianBlur stdDeviation="5.10582" result="effect1_foregroundBlur_2694_27465"/>
</filter>
<clipPath id="clip0_2694_27465">
<rect x="0.0214844" y="0.124878" width="24.0633" height="24.0633" rx="4.8125" fill="white"/>
</clipPath>
</defs>
</svg>
