<svg width="25" height="25" viewBox="0 0 25 25" fill="none" xmlns="http://www.w3.org/2000/svg">
<g clip-path="url(#clip0_2694_23138)">
<rect x="0.332031" y="0.662598" width="24.0633" height="24.0633" rx="4.8125" fill="white"/>
<mask id="mask0_2694_23138" style="mask-type:alpha" maskUnits="userSpaceOnUse" x="3" y="2" width="30" height="30">
<path d="M11.7687 6.26504C14.2931 1.05912 21.7094 1.05911 24.2338 6.26504L31.8603 21.9927C34.091 26.5929 30.7402 31.9416 25.6277 31.9416H10.3748C5.2623 31.9416 1.91153 26.5929 4.14219 21.9927L11.7687 6.26504Z" fill="#F23FA0"/>
</mask>
<g mask="url(#mask0_2694_23138)">
<path d="M11.7687 6.26504C14.2931 1.05912 21.7094 1.05911 24.2338 6.26504L31.8603 21.9927C34.091 26.5929 30.7402 31.9416 25.6277 31.9416H10.3748C5.2623 31.9416 1.91153 26.5929 4.14219 21.9927L11.7687 6.26504Z" fill="#FA41A5"/>
<g filter="url(#filter0_f_2694_23138)">
<path d="M8.70219 15.7664C10.2954 12.4802 14.9762 12.4802 16.5694 15.7664L21.3828 25.6943C22.7906 28.5981 20.6758 31.9745 17.4492 31.9745H7.82245C4.59578 31.9745 2.48099 28.5981 3.88884 25.6943L8.70219 15.7664Z" fill="#CC1479"/>
</g>
<g filter="url(#filter1_f_2694_23138)">
<path d="M28.251 -1.01009C29.8443 -4.29628 34.525 -4.29628 36.1182 -1.01009L40.9316 8.91785C42.3394 11.8217 40.2246 15.198 36.998 15.198H27.3713C24.1446 15.198 22.0298 11.8217 23.4377 8.91785L28.251 -1.01009Z" fill="#FF76C0"/>
</g>
<path d="M18.5962 7.12968C18.4593 7.34392 18.3941 7.50199 18.3212 7.79641C18.2445 8.10628 18.2233 8.30954 18.2325 8.64664" stroke="#1A052F" stroke-width="0.982223" stroke-linecap="round"/>
<path d="M16.4497 7.12968C16.3128 7.34392 16.2476 7.50199 16.1747 7.79641C16.098 8.10628 16.0768 8.30954 16.086 8.64664" stroke="#1A052F" stroke-width="0.982223" stroke-linecap="round"/>
<path d="M17.9258 12.4059C17.9258 12.4059 19.619 13.1408 20.2347 10.9362" stroke="#1A052F" stroke-width="0.982223" stroke-linecap="round"/>
</g>
<mask id="mask1_2694_23138" style="mask-type:alpha" maskUnits="userSpaceOnUse" x="-6" y="11" width="24" height="21">
<path d="M9.96574 31.9417C14.2694 31.9417 17.8696 28.4053 16.8888 24.2148C16.8808 24.1807 16.8727 24.1466 16.8646 24.1125C16.2747 21.6303 15.41 19.375 14.3199 17.4752C13.2298 15.5755 11.9356 14.0685 10.5113 13.0404C9.08704 12.0122 7.56049 11.483 6.01885 11.483C4.47721 11.483 2.95067 12.0122 1.52638 13.0404C0.102091 14.0685 -1.19205 15.5755 -2.28215 17.4752C-3.37226 19.375 -4.23697 21.6303 -4.82693 24.1125C-4.83503 24.1466 -4.84308 24.1807 -4.85107 24.2148C-5.83185 28.4053 -2.23171 31.9417 2.07197 31.9417H9.96574Z" fill="#BD8AFF"/>
</mask>
<g mask="url(#mask1_2694_23138)">
<path d="M9.96574 31.9417C14.2694 31.9417 17.8696 28.4053 16.8888 24.2148C16.8808 24.1807 16.8727 24.1466 16.8646 24.1125C16.2747 21.6303 15.41 19.375 14.3199 17.4752C13.2298 15.5755 11.9356 14.0685 10.5113 13.0404C9.08704 12.0122 7.56049 11.483 6.01885 11.483C4.47721 11.483 2.95067 12.0122 1.52638 13.0404C0.102091 14.0685 -1.19205 15.5755 -2.28215 17.4752C-3.37226 19.375 -4.23697 21.6303 -4.82693 24.1125C-4.83503 24.1466 -4.84308 24.1807 -4.85107 24.2148C-5.83185 28.4053 -2.23171 31.9417 2.07197 31.9417H9.96574Z" fill="#B680F1"/>
<g opacity="0.8" filter="url(#filter2_f_2694_23138)">
<path d="M2.67081 38.944C6.9745 38.944 10.5746 35.4076 9.59385 31.2171C9.58586 31.183 9.57782 31.1489 9.56972 31.1148C8.97976 28.6327 8.11504 26.3773 7.02494 24.4776C5.93483 22.5778 4.64069 21.0708 3.2164 20.0427C1.79211 19.0145 0.26557 18.4854 -1.27607 18.4854C-2.81771 18.4854 -4.34425 19.0145 -5.76854 20.0427C-7.19283 21.0708 -8.48697 22.5778 -9.57708 24.4776C-10.6672 26.3773 -11.5319 28.6327 -12.1219 31.1148C-12.13 31.1489 -12.138 31.183 -12.146 31.2171C-13.1268 35.4076 -9.52664 38.944 -5.22295 38.944H2.67081Z" fill="#9D69DF"/>
</g>
<g filter="url(#filter3_f_2694_23138)">
<path d="M24.1161 26.3981C28.4198 26.3981 32.0199 22.8617 31.0392 18.6712C31.0312 18.6371 31.0231 18.603 31.015 18.5689C30.4251 16.0868 29.5604 13.8314 28.4702 11.9317C27.3801 10.0319 26.086 8.52492 24.6617 7.49678C23.2374 6.46863 21.7109 5.93945 20.1692 5.93945C18.6276 5.93945 17.1011 6.46863 15.6768 7.49678C14.2525 8.52492 12.9583 10.0319 11.8682 11.9317C10.7781 13.8314 9.91342 16.0868 9.32346 18.5689C9.31536 18.603 9.30731 18.6371 9.29932 18.6712C8.31854 22.8617 11.9187 26.3981 16.2224 26.3981H24.1161Z" fill="#BD8AFF"/>
</g>
<path d="M6.74072 16.2496C6.60382 16.4638 6.53864 16.6219 6.46576 16.9163C6.38905 17.2262 6.36784 17.4294 6.37705 17.7665" stroke="#1A052F" stroke-width="0.982223" stroke-linecap="round"/>
<path d="M4.59228 16.2496C4.45539 16.4638 4.3902 16.6219 4.31732 16.9163C4.24061 17.2262 4.2194 17.4294 4.22861 17.7665" stroke="#1A052F" stroke-width="0.982223" stroke-linecap="round"/>
<path d="M5.53125 20.957C5.53125 20.957 7.21927 21.7593 7.83309 19.3524" stroke="#1A052F" stroke-width="0.982223" stroke-linecap="round"/>
</g>
</g>
<defs>
<filter id="filter0_f_2694_23138" x="-6.76634" y="3.09011" width="38.8042" height="39.096" filterUnits="userSpaceOnUse" color-interpolation-filters="sRGB">
<feFlood flood-opacity="0" result="BackgroundImageFix"/>
<feBlend mode="normal" in="SourceGraphic" in2="BackgroundImageFix" result="shape"/>
<feGaussianBlur stdDeviation="5.10582" result="effect1_foregroundBlur_2694_23138"/>
</filter>
<filter id="filter1_f_2694_23138" x="12.7825" y="-13.6864" width="38.8042" height="39.096" filterUnits="userSpaceOnUse" color-interpolation-filters="sRGB">
<feFlood flood-opacity="0" result="BackgroundImageFix"/>
<feBlend mode="normal" in="SourceGraphic" in2="BackgroundImageFix" result="shape"/>
<feGaussianBlur stdDeviation="5.10582" result="effect1_foregroundBlur_2694_23138"/>
</filter>
<filter id="filter2_f_2694_23138" x="-22.5202" y="8.2737" width="42.4878" height="40.8819" filterUnits="userSpaceOnUse" color-interpolation-filters="sRGB">
<feFlood flood-opacity="0" result="BackgroundImageFix"/>
<feBlend mode="normal" in="SourceGraphic" in2="BackgroundImageFix" result="shape"/>
<feGaussianBlur stdDeviation="5.10582" result="effect1_foregroundBlur_2694_23138"/>
</filter>
<filter id="filter3_f_2694_23138" x="-1.07493" y="-4.2722" width="42.4878" height="40.8819" filterUnits="userSpaceOnUse" color-interpolation-filters="sRGB">
<feFlood flood-opacity="0" result="BackgroundImageFix"/>
<feBlend mode="normal" in="SourceGraphic" in2="BackgroundImageFix" result="shape"/>
<feGaussianBlur stdDeviation="5.10582" result="effect1_foregroundBlur_2694_23138"/>
</filter>
<clipPath id="clip0_2694_23138">
<rect x="0.332031" y="0.662598" width="24.0633" height="24.0633" rx="4.8125" fill="white"/>
</clipPath>
</defs>
</svg>
