<svg width="24" height="24" viewBox="0 0 24 24" fill="none" xmlns="http://www.w3.org/2000/svg">
<path fill-rule="evenodd" clip-rule="evenodd" d="M20.1398 16.3334L22.0934 17.1152C22.6061 17.3203 22.8556 17.9023 22.6504 18.4151C22.5532 18.6583 22.3644 18.8535 22.1247 18.959L13.8603 22.5954C12.5528 23.1706 11.0618 23.1593 9.76331 22.5641L1.88339 18.9525C1.38132 18.7224 1.16087 18.1288 1.39098 17.6268C1.49585 17.398 1.68311 17.2172 1.91543 17.1204L3.8018 16.3334L8.94672 18.6917C10.6737 19.4832 12.644 19.5372 14.406 18.8501L14.6825 18.7354L20.1398 16.3334ZM20.1398 10.3334L22.0934 11.1152C22.6061 11.3203 22.8556 11.9023 22.6504 12.4151C22.5532 12.6583 22.3644 12.8536 22.1247 12.959L13.8603 16.5954C12.5528 17.1706 11.0618 17.1593 9.76331 16.5641L1.88339 12.9525C1.38132 12.7224 1.16087 12.1288 1.39098 11.6268C1.49585 11.398 1.68311 11.2172 1.91543 11.1204L3.8018 10.3334L8.94672 12.6917C10.6737 13.4832 12.644 13.5372 14.406 12.8501L14.6825 12.7354L20.1398 10.3334ZM13.7003 1.75801L22.0934 5.11523C22.6061 5.32035 22.8556 5.90232 22.6504 6.4151C22.5532 6.65825 22.3644 6.85355 22.1247 6.95902L13.8603 10.5954C12.5528 11.1706 11.0618 11.1593 9.76331 10.5641L1.88339 6.9525C1.38132 6.72238 1.16087 6.12884 1.39098 5.62678C1.49585 5.39799 1.68311 5.21715 1.91543 5.12035L9.92027 1.78501C11.1282 1.2817 12.4853 1.27201 13.7003 1.75801Z" fill="#9EA0A1"/>
</svg>
