<svg width="27" height="25" viewBox="0 0 27 25" fill="none" xmlns="http://www.w3.org/2000/svg">
<path fill-rule="evenodd" clip-rule="evenodd" d="M26.5427 16.3921V17.7574C26.5427 18.2653 26.5426 18.853 26.0389 19.0789L16.363 23.4164C14.5414 24.233 12.4578 24.233 10.6362 23.4164L0.960306 19.0789C0.745307 18.9825 0.634577 18.8222 0.532144 18.61C0.449439 18.4387 0.428334 17.7232 0.46882 16.4636L1.36259 16.8093L10.6362 20.9664C12.4578 21.783 14.5414 21.783 16.363 20.9664L25.6367 16.8093L26.5427 16.3921ZM15 7.93563C15.4353 8.03113 15.8636 8.1687 16.2788 8.34833L16.5429 8.46915L26.0646 13.0659C26.2768 13.1683 26.446 13.3424 26.5424 13.5574C26.7522 14.0253 26.5728 14.5689 26.1426 14.8251L26.0389 14.8789L16.363 19.2164C14.6325 19.9922 12.6655 20.0309 10.9114 19.3328L10.6362 19.2164L0.960306 14.8789C0.745307 14.7825 0.571253 14.6133 0.46882 14.4012C0.245866 13.9393 0.409748 13.3909 0.832514 13.1226L0.934626 13.0659L10.4564 8.46915C10.9531 8.22937 11.471 8.05153 11.9993 7.93563L11.9996 13.5C11.9996 14.3284 12.6712 15 13.4996 15C14.2793 15 14.9201 14.4051 14.9928 13.6445L14.9996 13.5L15 7.93563ZM5.49963 13C4.53313 13 3.74963 13.4477 3.74963 14C3.74963 14.5523 4.53313 15 5.49963 15C6.46613 15 7.24963 14.5523 7.24963 14C7.24963 13.4477 6.46613 13 5.49963 13ZM13.4996 0C15.4326 0 16.9996 1.567 16.9996 3.5C16.9996 5.433 15.4326 7 13.4996 7C11.5666 7 9.99963 5.433 9.99963 3.5C9.99963 1.567 11.5666 0 13.4996 0Z" fill="#9EA0A1"/>
</svg>
