<svg width="26" height="57" viewBox="0 0 26 57" fill="none" xmlns="http://www.w3.org/2000/svg">
<path d="M16.6293 49.4525C16.4709 49.4089 16.3099 49.3694 16.1474 49.3334C15.9837 49.2966 15.8153 49.2606 15.6463 49.2301C15.308 49.168 14.9632 49.1206 14.6128 49.0876C14.4377 49.0711 14.2616 49.0585 14.0839 49.0494C13.9056 49.0394 13.7303 49.0375 13.5448 49.0293C13.1778 49.0175 12.8061 49.0195 12.4324 49.0369C12.2456 49.0456 12.0604 49.0578 11.8769 49.0735C11.6914 49.0868 11.5029 49.0985 11.3187 49.1164C10.9491 49.1509 10.5872 49.1991 10.2325 49.2611C9.87025 49.3131 9.51202 49.3731 9.16316 49.4497C8.98758 49.486 8.81799 49.5321 8.64278 49.5705C8.46739 49.6079 8.29368 49.6487 8.12164 49.6931C7.95013 49.7373 7.77968 49.7846 7.61206 49.8357L7.36133 49.9149L7.10682 49.9878C6.76893 50.0872 6.43838 50.201 6.11447 50.3281C5.7855 50.4448 5.45814 50.5644 5.13964 50.7041C4.82389 50.8502 4.50041 50.9767 4.18651 51.1274C4.4026 51.7053 4.68399 52.2578 5.04099 52.77C5.21948 53.026 5.4171 53.2718 5.63458 53.5054C5.85128 53.7375 6.09132 53.965 6.34595 54.1624C6.85683 54.5634 7.45115 54.9045 8.13188 55.169C8.47462 55.3056 8.82804 55.4022 9.20568 55.4837C9.58312 55.5641 9.98133 55.6221 10.4005 55.6558C10.6118 55.6762 10.8159 55.6741 11.0268 55.6741C11.2369 55.6721 11.4486 55.6644 11.6623 55.6498C12.0892 55.6203 12.5281 55.5736 12.9521 55.4784C13.3803 55.3889 13.8123 55.2756 14.2448 55.1401C14.6706 54.9972 15.0888 54.8227 15.508 54.633C15.7159 54.5361 15.9287 54.4398 16.1298 54.3285C16.3308 54.2165 16.531 54.0999 16.7293 53.9788C16.9276 53.8577 17.1245 53.7319 17.3191 53.6018C17.416 53.5362 17.5147 53.4714 17.6089 53.4026C17.7018 53.3324 17.7946 53.2616 17.8866 53.1894C18.2548 52.901 18.6131 52.5966 18.9594 52.2786C19.2927 51.9506 19.6127 51.6083 19.9181 51.2561C19.0395 50.3916 17.8984 49.8006 16.6293 49.4525Z" fill="#FF8A00"/>
<path d="M17.9695 38.4058C17.6834 38.4853 17.4051 38.5818 17.1159 38.6866C16.8256 38.7911 16.536 38.9089 16.2488 39.0404C15.9599 39.171 15.6879 39.3159 15.4134 39.4645C15.1358 39.6109 14.8675 39.7675 14.6098 39.9325C14.1036 40.2694 13.5926 40.6153 13.1393 41.0054L12.9702 41.1526L12.7971 41.2979C12.6827 41.3956 12.5703 41.4951 12.4609 41.5968C12.3515 41.6985 12.2446 41.8024 12.1403 41.9086C12.0354 42.0143 11.9366 42.1243 11.8292 42.2284C11.4072 42.6501 11.0426 43.1183 10.673 43.5825C11.4536 44.2849 12.4001 44.8138 13.4882 45.0478C14.0265 45.1613 14.6009 45.2016 15.2068 45.1583C15.8193 45.1193 16.4346 44.9768 17.0792 44.7442C18.3704 44.2806 19.5556 43.4411 20.5597 42.3658C20.8105 42.097 21.0356 41.8074 21.2595 41.5106C21.3703 41.3618 21.4785 41.2102 21.584 41.0559C21.6359 40.9784 21.6901 40.9015 21.7385 40.8224L21.8805 40.582C22.0671 40.2594 22.242 39.9281 22.4035 39.5905L22.522 39.3359C22.5602 39.2505 22.5932 39.1634 22.6274 39.0766C22.6952 38.9026 22.7595 38.7275 22.8204 38.5514C21.8547 38.1337 20.7775 37.9957 19.6702 38.0934C19.1086 38.1413 18.5381 38.2457 17.9693 38.4057L17.9695 38.4058Z" fill="#FF8A00"/>
<path d="M22.0539 28.5252C21.841 28.5751 21.6238 28.6376 21.4109 28.7118C20.9835 28.861 20.5622 29.0575 20.1548 29.2995C19.9512 29.4205 19.7505 29.5528 19.5545 29.6961C19.3573 29.8391 19.1538 29.9913 18.9603 30.1557C18.7658 30.3198 18.5805 30.4904 18.4053 30.6672C18.2302 30.844 18.068 31.0271 17.8992 31.2125C17.7348 31.3987 17.5795 31.5904 17.4347 31.7872C17.3623 31.8855 17.2922 31.9851 17.2246 32.0859C17.1574 32.1866 17.0927 32.289 17.0234 32.3901C16.8884 32.5938 16.7633 32.8016 16.648 33.0136C16.5904 33.1197 16.5356 33.2268 16.4827 33.3352C16.4303 33.4435 16.3812 33.5529 16.3267 33.661C16.2214 33.8783 16.1259 34.0992 16.0407 34.3237C15.9982 34.4362 15.9579 34.5494 15.9205 34.6637L15.8658 34.8355L15.8082 35.0061C16.2028 35.1665 16.6159 35.2816 17.0429 35.3447C17.4687 35.4074 17.9015 35.4146 18.3442 35.3619C18.7858 35.3093 19.2345 35.1957 19.6837 35.0153C20.1387 34.8365 20.5698 34.5833 20.9977 34.2596C21.2114 34.0976 21.4174 33.9223 21.6157 33.7339C21.6655 33.6869 21.7145 33.6389 21.7629 33.5905C21.8096 33.5414 21.855 33.4913 21.9004 33.4408C21.9911 33.3397 22.0791 33.2354 22.1651 33.1287C22.3374 32.9146 22.5004 32.6899 22.6548 32.4559C22.7313 32.3384 22.8078 32.22 22.8776 32.0978C22.9447 31.9756 23.0099 31.851 23.0719 31.7243C23.5821 30.7146 23.8887 29.5754 23.9711 28.4312C23.5496 28.3692 23.1211 28.3651 22.6933 28.4136C22.4802 28.4377 22.2662 28.4754 22.0538 28.5253L22.0539 28.5252Z" fill="#FF8A00"/>
<path d="M21.14 20.6551C20.8117 20.8552 20.4983 21.0946 20.204 21.3694C19.9092 21.6444 19.6416 21.9549 19.3742 22.3004C19.112 22.6455 18.8877 23.007 18.7002 23.3799L18.6319 23.5201L18.5606 23.6614C18.5144 23.7562 18.4704 23.8512 18.4288 23.9474C18.3454 24.1393 18.2709 24.3333 18.206 24.5295C18.1389 24.7255 18.09 24.9242 18.0336 25.1232C17.9778 25.3225 17.9314 25.5235 17.8944 25.7255C17.8573 25.9275 17.829 26.1307 17.8101 26.3354L17.7972 26.4885L17.7811 26.6416C17.7716 26.7439 17.7643 26.8459 17.7597 26.9485C18.4816 27.0377 19.2232 26.9629 19.9399 26.6885C20.642 26.4134 21.3117 25.9377 21.8983 25.2414C22.1796 24.8929 22.4197 24.5076 22.6249 24.095C22.7256 23.8887 22.8235 23.6754 22.9001 23.4568C22.9751 23.2384 23.0406 23.0147 23.0962 22.7868C23.3336 21.8747 23.3553 20.9015 23.2322 19.9599C22.5081 20.0116 21.7979 20.2553 21.1401 20.6551L21.14 20.6551Z" fill="#FF8A00"/>
<path d="M18.7683 15.3777C18.6778 15.4949 18.5945 15.6173 18.5125 15.7465C18.4284 15.876 18.3496 16.0116 18.2767 16.1526C18.1302 16.4348 18.0137 16.7256 17.9259 17.0211C17.8799 17.1693 17.8494 17.3168 17.812 17.4677C17.7766 17.6183 17.7484 17.7697 17.7266 17.9211C17.6836 18.2243 17.6689 18.529 17.6812 18.8322C17.6905 18.9835 17.6915 19.1363 17.7061 19.2871C17.7192 19.4383 17.7391 19.5888 17.7658 19.7381C18.3017 19.6878 18.8249 19.5158 19.298 19.2106C19.5342 19.058 19.7593 18.8723 19.965 18.6524C20.1639 18.4337 20.3447 18.1816 20.5018 17.896C20.6589 17.6098 20.7852 17.3048 20.8809 16.9869C20.9313 16.8272 20.9633 16.6665 20.9905 16.5034C21.0177 16.3398 21.037 16.1743 21.0491 16.0073C21.0612 15.8404 21.0654 15.6717 21.0632 15.503C21.06 15.3344 21.0538 15.1643 21.0283 14.997C20.9824 14.6615 20.9091 14.3288 20.8089 14.005C20.2853 14.1291 19.7933 14.3871 19.3634 14.7521C19.1474 14.9345 18.948 15.1441 18.7683 15.3777L18.7683 15.3777Z" fill="#FF8A00"/>
<path d="M16.3927 11.6438C16.3783 11.7734 16.3628 11.9054 16.3542 12.0372C16.3456 12.169 16.3434 12.3003 16.3469 12.4305C16.354 12.6915 16.3848 12.9505 16.4389 13.2038C16.4868 13.4592 16.5498 13.7114 16.6391 13.9547C17.0827 13.8339 17.4979 13.6121 17.8523 13.2879C18.0294 13.1258 18.1913 12.9378 18.3343 12.7247C18.4742 12.5121 18.5886 12.2765 18.6813 12.0151C18.8632 11.4941 18.9445 10.9224 18.8849 10.3616C18.8592 10.0802 18.8082 9.79789 18.7335 9.52187C18.6984 9.38266 18.6501 9.24793 18.5964 9.11578C18.5431 8.98303 18.4842 8.85231 18.42 8.7247C17.9943 8.89884 17.6136 9.17975 17.3009 9.54238C17.1433 9.72419 17.0072 9.9248 16.883 10.147C16.7577 10.3694 16.6512 10.6101 16.5669 10.8673C16.4829 11.1233 16.4254 11.3833 16.3927 11.6438L16.3927 11.6438Z" fill="#FF8A00"/>
<path d="M14.3703 8.26618C14.4892 8.69768 14.6816 9.10307 14.9416 9.46135C15.6265 9.0632 16.1222 8.3566 16.2193 7.40727C16.2314 7.28871 16.2381 7.16895 16.2359 7.05072C16.2323 6.93345 16.2221 6.81595 16.2059 6.69908C16.174 6.46466 16.1183 6.23177 16.041 6.00415C15.8945 5.54432 15.6321 5.12756 15.3215 4.75821C15.0026 4.99345 14.7421 5.30762 14.5542 5.67555C14.4606 5.85969 14.3847 6.05739 14.3292 6.2662C14.2723 6.47598 14.2425 6.69158 14.2214 6.92562C14.1845 7.38935 14.2388 7.84272 14.3702 8.26609L14.3703 8.26618Z" fill="#FF8A00"/>
<path d="M11.4826 4.63501C11.5909 5.06931 11.7732 5.47934 12.0243 5.84394C12.7188 5.46286 13.2318 4.76874 13.3522 3.82211C13.3671 3.70388 13.3768 3.58433 13.3775 3.46608C13.3768 3.34876 13.3695 3.23104 13.3562 3.1138C13.3301 2.87867 13.2801 2.64447 13.2084 2.415C13.0732 1.95169 12.8212 1.52856 12.5197 1.15164C12.1951 1.37891 11.927 1.68655 11.7301 2.04971C11.632 2.23148 11.5513 2.42725 11.4907 2.63462C11.4287 2.84293 11.3935 3.05772 11.3667 3.29117C11.3184 3.75385 11.3615 4.20842 11.4825 4.63492L11.4826 4.63501Z" fill="#FF8A00"/>
</svg>
