<svg width="26" height="57" viewBox="0 0 26 57" fill="none" xmlns="http://www.w3.org/2000/svg">
<path d="M9.7135 50.3624C9.8725 50.3188 10.034 50.2793 10.197 50.2433C10.3613 50.2065 10.5302 50.1705 10.6998 50.14C11.0392 50.0779 11.3852 50.0305 11.7367 49.9975C11.9125 49.981 12.0891 49.9684 12.2674 49.9593C12.4463 49.9493 12.6222 49.9474 12.8083 49.9392C13.1766 49.9274 13.5494 49.9294 13.9244 49.9468C14.1119 49.9555 14.2977 49.9677 14.4818 49.9834C14.6679 49.9967 14.857 50.0084 15.0418 50.0263C15.4127 50.0608 15.7758 50.109 16.1316 50.171C16.4951 50.2231 16.8545 50.283 17.2046 50.3596C17.3807 50.3959 17.5509 50.442 17.7267 50.4804C17.9026 50.5178 18.0769 50.5587 18.2495 50.603C18.4216 50.6472 18.5926 50.6945 18.7608 50.7456L19.0124 50.8248L19.2678 50.8977C19.6068 50.9971 19.9384 51.1109 20.2634 51.238C20.5935 51.3547 20.9219 51.4744 21.2415 51.614C21.5583 51.7601 21.8829 51.8866 22.1978 52.0373C21.981 52.6153 21.6987 53.1677 21.3405 53.6799C21.1614 53.936 20.9631 54.1817 20.7449 54.4153C20.5275 54.6474 20.2866 54.8749 20.0312 55.0723C19.5186 55.4733 18.9223 55.8144 18.2393 56.0789C17.8954 56.2155 17.5408 56.3121 17.1619 56.3936C16.7832 56.474 16.3837 56.532 15.9631 56.5658C15.7511 56.5861 15.5463 56.5841 15.3347 56.584C15.1239 56.582 14.9115 56.5743 14.697 56.5597C14.2687 56.5302 13.8284 56.4836 13.403 56.3883C12.9734 56.2988 12.5399 56.1855 12.106 56.05C11.6787 55.9071 11.2592 55.7326 10.8386 55.5429C10.63 55.446 10.4164 55.3498 10.2147 55.2384C10.013 55.1265 9.81218 55.0099 9.61322 54.8887C9.41425 54.7676 9.21665 54.6419 9.02143 54.5117C8.92418 54.4461 8.82517 54.3814 8.73064 54.3125C8.63743 54.2423 8.54433 54.1715 8.452 54.0993C8.08265 53.8109 7.72311 53.5065 7.37565 53.1885C7.04125 52.8605 6.72017 52.5182 6.41373 52.166C7.29533 51.3015 8.44014 50.7105 9.71348 50.3625L9.7135 50.3624Z" fill="#FF8A00"/>
<path d="M8.36922 39.3157C8.65627 39.3952 8.93549 39.4917 9.22563 39.5965C9.51691 39.701 9.80745 39.8189 10.0956 39.9503C10.3855 40.0809 10.6584 40.2258 10.9338 40.3744C11.2124 40.5208 11.4816 40.6774 11.7401 40.8424C12.2479 41.1793 12.7607 41.5252 13.2155 41.9153L13.3851 42.0625L13.5588 42.2078C13.6736 42.3055 13.7864 42.405 13.8962 42.5067C14.0059 42.6084 14.1131 42.7123 14.2178 42.8185C14.3231 42.9242 14.4222 43.0343 14.5299 43.1383C14.9534 43.56 15.3192 44.0282 15.69 44.4924C14.9068 45.1948 13.9571 45.7237 12.8654 45.9577C12.3253 46.0712 11.749 46.1115 11.1411 46.0682C10.5266 46.0292 9.90915 45.8867 9.26241 45.6541C7.96692 45.1906 6.77784 44.351 5.77036 43.2757C5.51872 43.0069 5.29282 42.7173 5.0682 42.4205C4.95703 42.2717 4.84849 42.1202 4.7426 41.9658C4.69053 41.8883 4.63619 41.8114 4.58762 41.7323L4.44518 41.4919C4.25794 41.1693 4.08245 40.838 3.92045 40.5004L3.80149 40.2458C3.76318 40.1604 3.73002 40.0733 3.69573 39.9865C3.62777 39.8125 3.56323 39.6374 3.50208 39.4614C4.47103 39.0436 5.5518 38.9056 6.66284 39.0034C7.22631 39.0512 7.79871 39.1556 8.36935 39.3156L8.36922 39.3157Z" fill="#FF8A00"/>
<path d="M4.26988 29.4351C4.48351 29.485 4.70138 29.5476 4.91507 29.6217C5.34389 29.7709 5.76654 29.9674 6.17527 30.2094C6.37964 30.3304 6.58094 30.4627 6.77762 30.606C6.97543 30.749 7.1797 30.9012 7.37375 31.0656C7.56893 31.2297 7.7549 31.4003 7.93061 31.5771C8.10632 31.7539 8.26908 31.9371 8.43843 32.1224C8.60334 32.3087 8.75921 32.5003 8.90449 32.6971C8.97713 32.7955 9.04741 32.895 9.11532 32.9958C9.18271 33.0965 9.24765 33.1989 9.31713 33.3C9.45258 33.5037 9.57814 33.7115 9.6938 33.9236C9.75164 34.0296 9.80658 34.1367 9.8597 34.2451C9.91228 34.3534 9.96145 34.4628 10.0162 34.571C10.1218 34.7882 10.2176 35.0092 10.3031 35.2336C10.3458 35.3462 10.3862 35.4593 10.4238 35.5736L10.4787 35.7454L10.5364 35.916C10.1405 36.0764 9.72606 36.1915 9.29762 36.2546C8.87034 36.3174 8.43611 36.3245 7.99197 36.2718C7.54887 36.2192 7.09871 36.1056 6.64798 35.9252C6.19151 35.7464 5.75889 35.4932 5.32956 35.1695C5.11518 35.0075 4.9085 34.8322 4.70952 34.6438C4.65962 34.5968 4.61043 34.5488 4.56185 34.5004C4.51502 34.4513 4.46942 34.4013 4.42392 34.3507C4.3329 34.2496 4.24462 34.1453 4.15836 34.0386C3.98543 33.8245 3.82191 33.5998 3.66701 33.3658C3.59018 33.2484 3.51352 33.1299 3.44346 33.0077C3.37608 32.8855 3.31075 32.7609 3.24847 32.6342C2.73663 31.6245 2.42901 30.4853 2.34634 29.3411C2.76918 29.2791 3.1991 29.275 3.62836 29.3235C3.84221 29.3476 4.05692 29.3854 4.27002 29.4352L4.26988 29.4351Z" fill="#FF8A00"/>
<path d="M5.18514 21.5589C5.51455 21.759 5.82896 21.9984 6.12423 22.2732C6.42002 22.5482 6.68855 22.8587 6.95687 23.2042C7.21987 23.5493 7.44495 23.9108 7.63306 24.2837L7.70158 24.4239L7.77314 24.5652C7.81948 24.66 7.86364 24.755 7.90543 24.8512C7.9891 25.0431 8.06377 25.2371 8.12893 25.4333C8.19626 25.6293 8.24535 25.828 8.30192 26.027C8.35789 26.2264 8.40443 26.4273 8.44162 26.6293C8.47881 26.8313 8.50719 27.0345 8.52614 27.2392L8.53908 27.3923L8.55526 27.5454C8.56473 27.6477 8.57213 27.7497 8.57672 27.8523C7.85238 27.9415 7.10835 27.8668 6.38927 27.5923C5.6848 27.3172 5.01292 26.8415 4.42437 26.1452C4.14204 25.7967 3.9012 25.4114 3.69531 24.9988C3.59423 24.7925 3.49601 24.5793 3.4192 24.3606C3.34396 24.1422 3.27826 23.9185 3.22246 23.6906C2.98426 22.7785 2.96249 21.8053 3.08597 20.8637C3.81247 20.9154 4.5251 21.1592 5.18507 21.5589L5.18514 21.5589Z" fill="#FF8A00"/>
<path d="M7.56717 16.2876C7.65804 16.4048 7.74154 16.5272 7.82385 16.6564C7.90824 16.7859 7.98726 16.9215 8.06049 17.0625C8.20746 17.3447 8.32435 17.6355 8.41244 17.9311C8.45857 18.0792 8.48919 18.2267 8.52675 18.3776C8.56221 18.5282 8.59052 18.6796 8.61238 18.831C8.65549 19.1342 8.67032 19.4389 8.65797 19.7421C8.64862 19.8934 8.64763 20.0462 8.63296 20.1971C8.61986 20.3482 8.59986 20.4987 8.57308 20.648C8.03536 20.5977 7.51038 20.4257 7.03578 20.1205C6.79873 19.9679 6.57287 19.7822 6.3665 19.5624C6.16691 19.3437 5.98559 19.0915 5.82793 18.8059C5.67036 18.5197 5.54356 18.2147 5.44757 17.8968C5.39701 17.7371 5.36494 17.5764 5.33759 17.4133C5.31035 17.2497 5.29097 17.0842 5.27883 16.9173C5.2667 16.7503 5.26243 16.5816 5.26462 16.4129C5.26785 16.2443 5.27406 16.0742 5.29968 15.9069C5.34571 15.5715 5.41928 15.2387 5.51979 14.9149C6.04511 15.039 6.5388 15.297 6.97013 15.662C7.18687 15.8444 7.38695 16.054 7.56723 16.2876L7.56717 16.2876Z" fill="#FF8A00"/>
<path d="M9.95085 12.5473C9.96523 12.677 9.98081 12.8089 9.98941 12.9408C9.99802 13.0726 10.0003 13.2038 9.99676 13.3341C9.98966 13.5951 9.9587 13.8541 9.9045 14.1073C9.85638 14.3627 9.79321 14.615 9.70361 14.8582C9.25849 14.7375 8.84189 14.5156 8.48637 14.1914C8.30861 14.0293 8.14617 13.8414 8.00269 13.6282C7.86234 13.4156 7.74758 13.1801 7.65458 12.9187C7.47204 12.3977 7.39049 11.826 7.45028 11.2652C7.47604 10.9838 7.52727 10.7015 7.60216 10.4254C7.6374 10.2862 7.68585 10.1515 7.73976 10.0193C7.79325 9.88659 7.8523 9.75587 7.91673 9.62826C8.34385 9.80241 8.72582 10.0833 9.03959 10.4459C9.19773 10.6278 9.33426 10.8284 9.45891 11.0506C9.5846 11.273 9.69147 11.5137 9.77607 11.7709C9.86031 12.0269 9.91801 12.2869 9.95085 12.5474L9.95085 12.5473Z" fill="#FF8A00"/>
<path d="M11.9784 9.16999C11.859 9.60149 11.6661 10.0069 11.4052 10.3652C10.718 9.967 10.2206 9.26041 10.1232 8.31108C10.1111 8.19251 10.1043 8.07276 10.1065 7.95453C10.1101 7.83726 10.1204 7.71976 10.1366 7.60288C10.1686 7.36847 10.2245 7.13558 10.302 6.90796C10.4491 6.44813 10.7123 6.03136 11.024 5.66202C11.344 5.89726 11.6053 6.21143 11.7938 6.57935C11.8878 6.7635 11.9639 6.9612 12.0196 7.17001C12.0767 7.37979 12.1066 7.59539 12.1278 7.82943C12.1648 8.29316 12.1103 8.74653 11.9784 9.1699L11.9784 9.16999Z" fill="#FF8A00"/>
<path d="M14.8761 5.53857C14.7674 5.97288 14.5845 6.3829 14.3325 6.74751C13.6357 6.36643 13.1211 5.67231 13.0003 4.72567C12.9853 4.60744 12.9756 4.48789 12.9749 4.36964C12.9755 4.25232 12.9829 4.1346 12.9962 4.01736C13.0224 3.78223 13.0726 3.54803 13.1445 3.31857C13.2801 2.85526 13.533 2.43212 13.8355 2.0552C14.1612 2.28248 14.4301 2.59011 14.6277 2.95327C14.7261 3.13505 14.8071 3.33081 14.868 3.53818C14.9302 3.74649 14.9654 3.96129 14.9924 4.19473C15.0408 4.65741 14.9975 5.11198 14.8761 5.53848L14.8761 5.53857Z" fill="#FF8A00"/>
</svg>
