<svg width="351" height="159" viewBox="0 0 351 159" fill="none" xmlns="http://www.w3.org/2000/svg">
<g clip-path="url(#clip0_2696_31382)">
<mask id="mask0_2696_31382" style="mask-type:alpha" maskUnits="userSpaceOnUse" x="149" y="60" width="203" height="205">
<path d="M207.155 87.013C224.62 50.9957 275.931 50.9957 293.396 87.013L346.16 195.825C361.593 227.652 338.41 264.657 303.04 264.657H197.511C162.141 264.657 138.958 227.652 154.391 195.825L207.155 87.013Z" fill="#F23FA0"/>
</mask>
<g mask="url(#mask0_2696_31382)">
<path d="M207.155 87.013C224.62 50.9957 275.931 50.9957 293.396 87.013L346.16 195.825C361.593 227.652 338.41 264.657 303.04 264.657H197.511C162.141 264.657 138.958 227.652 154.391 195.825L207.155 87.013Z" fill="#FA41A5"/>
<g opacity="0.4" filter="url(#filter0_f_2696_31382)">
<path d="M185.948 152.747C196.971 130.012 229.355 130.012 240.377 152.747L273.679 221.434C283.419 241.524 268.788 264.883 246.464 264.883H179.861C157.538 264.883 142.906 241.524 152.647 221.434L185.948 152.747Z" fill="#CC1479"/>
</g>
<path d="M254.396 92.9958C253.449 94.4781 252.998 95.5717 252.493 97.6086C251.963 99.7524 251.816 101.159 251.88 103.491" stroke="#1A052F" stroke-width="6.05568" stroke-linecap="round"/>
<path d="M239.538 92.9958C238.591 94.4781 238.14 95.5717 237.636 97.6086C237.105 99.7524 236.959 101.159 237.022 103.491" stroke="#1A052F" stroke-width="6.05568" stroke-linecap="round"/>
<path d="M249.754 129.497C249.754 129.497 261.468 134.581 265.728 119.328" stroke="#1A052F" stroke-width="6.05568" stroke-linecap="round"/>
</g>
<mask id="mask1_2696_31382" style="mask-type:alpha" maskUnits="userSpaceOnUse" x="28" y="70" width="153" height="142">
<path d="M77.0267 211.701C47.2515 211.701 22.3439 187.234 29.1295 158.243C29.1847 158.007 29.2404 157.771 29.2964 157.535C33.3781 140.362 39.3606 124.758 46.9026 111.615C54.4445 98.4711 63.398 88.0451 73.252 80.9319C83.106 73.8186 93.6674 70.1575 104.333 70.1575C114.999 70.1575 125.561 73.8186 135.415 80.9319C145.269 88.0451 154.222 98.4711 161.764 111.615C169.306 124.758 175.289 140.362 179.37 157.535C179.426 157.771 179.482 158.007 179.537 158.243C186.323 187.234 161.415 211.701 131.64 211.701H77.0267Z" fill="#BD8AFF"/>
</mask>
<g mask="url(#mask1_2696_31382)">
<path d="M77.0267 211.701C47.2515 211.701 22.3439 187.234 29.1295 158.243C29.1847 158.007 29.2404 157.771 29.2964 157.535C33.3781 140.362 39.3606 124.758 46.9026 111.615C54.4445 98.4711 63.398 88.0451 73.252 80.9319C83.106 73.8186 93.6674 70.1575 104.333 70.1575C114.999 70.1575 125.561 73.8186 135.415 80.9319C145.269 88.0451 154.222 98.4711 161.764 111.615C169.306 124.758 175.289 140.362 179.37 157.535C179.426 157.771 179.482 158.007 179.537 158.243C186.323 187.234 161.415 211.701 131.64 211.701H77.0267Z" fill="#B680F1"/>
<g opacity="0.8" filter="url(#filter1_f_2696_31382)">
<path d="M127.492 260.147C97.7164 260.147 72.8087 235.68 79.5943 206.688C79.6496 206.452 79.7052 206.216 79.7613 205.98C83.8429 188.807 89.8255 173.204 97.3674 160.06C104.909 146.917 113.863 136.491 123.717 129.377C133.571 122.264 144.132 118.603 154.798 118.603C165.464 118.603 176.025 122.264 185.879 129.377C195.733 136.491 204.687 146.917 212.229 160.06C219.771 173.204 225.753 188.808 229.835 205.98C229.891 206.216 229.947 206.452 230.002 206.688C236.788 235.68 211.88 260.147 182.105 260.147H127.492Z" fill="#9D69DF"/>
</g>
<path d="M99.3464 103.133C100.294 104.615 100.745 105.708 101.249 107.745C101.779 109.889 101.926 111.295 101.862 113.628" stroke="#1A052F" stroke-width="6.05568" stroke-linecap="round"/>
<path d="M114.2 103.133C115.147 104.616 115.598 105.709 116.102 107.746C116.633 109.89 116.78 111.296 116.716 113.628" stroke="#1A052F" stroke-width="6.05568" stroke-linecap="round"/>
<path d="M107.711 135.704C107.711 135.704 96.0323 141.255 91.7856 124.603" stroke="#1A052F" stroke-width="6.05568" stroke-linecap="round"/>
</g>
</g>
<defs>
<filter id="filter0_f_2696_31382" x="78.9285" y="65.046" width="268.469" height="270.487" filterUnits="userSpaceOnUse" color-interpolation-filters="sRGB">
<feFlood flood-opacity="0" result="BackgroundImageFix"/>
<feBlend mode="normal" in="SourceGraphic" in2="BackgroundImageFix" result="shape"/>
<feGaussianBlur stdDeviation="35.3248" result="effect1_foregroundBlur_2696_31382"/>
</filter>
<filter id="filter1_f_2696_31382" x="7.81917" y="47.9534" width="293.957" height="282.843" filterUnits="userSpaceOnUse" color-interpolation-filters="sRGB">
<feFlood flood-opacity="0" result="BackgroundImageFix"/>
<feBlend mode="normal" in="SourceGraphic" in2="BackgroundImageFix" result="shape"/>
<feGaussianBlur stdDeviation="35.3248" result="effect1_foregroundBlur_2696_31382"/>
</filter>
<clipPath id="clip0_2696_31382">
<path d="M0 0.666504H351V134.667C351 147.921 340.255 158.667 327 158.667H24C10.7452 158.667 0 147.921 0 134.667V0.666504Z" fill="white"/>
</clipPath>
</defs>
</svg>
