<svg width="25" height="57" viewBox="0 0 25 57" fill="none" xmlns="http://www.w3.org/2000/svg">
<path d="M9.2135 50.3624C9.3725 50.3188 9.53399 50.2793 9.69701 50.2433C9.86126 50.2065 10.0302 50.1705 10.1998 50.14C10.5392 50.0779 10.8852 50.0305 11.2367 49.9975C11.4125 49.981 11.5891 49.9684 11.7674 49.9593C11.9463 49.9493 12.1222 49.9474 12.3083 49.9392C12.6766 49.9274 13.0494 49.9294 13.4244 49.9468C13.6119 49.9555 13.7977 49.9677 13.9818 49.9834C14.1679 49.9967 14.357 50.0084 14.5418 50.0263C14.9127 50.0608 15.2758 50.109 15.6316 50.171C15.9951 50.2231 16.3545 50.283 16.7046 50.3596C16.8807 50.3959 17.0509 50.442 17.2267 50.4804C17.4026 50.5178 17.5769 50.5587 17.7495 50.603C17.9216 50.6472 18.0926 50.6945 18.2608 50.7456L18.5124 50.8248L18.7678 50.8977C19.1068 50.9971 19.4384 51.1109 19.7634 51.238C20.0935 51.3547 20.4219 51.4744 20.7415 51.614C21.0583 51.7601 21.3829 51.8866 21.6978 52.0373C21.481 52.6153 21.1987 53.1677 20.8405 53.6799C20.6614 53.936 20.4631 54.1817 20.2449 54.4153C20.0275 54.6474 19.7866 54.8749 19.5312 55.0723C19.0186 55.4733 18.4223 55.8144 17.7393 56.0789C17.3954 56.2155 17.0408 56.3121 16.6619 56.3936C16.2832 56.474 15.8837 56.532 15.4631 56.5658C15.2511 56.5861 15.0463 56.5841 14.8347 56.584C14.6239 56.582 14.4115 56.5743 14.197 56.5597C13.7687 56.5302 13.3284 56.4836 12.903 56.3883C12.4734 56.2988 12.0399 56.1855 11.606 56.05C11.1787 55.9071 10.7592 55.7326 10.3386 55.5429C10.13 55.446 9.91643 55.3498 9.71467 55.2384C9.51301 55.1265 9.31218 55.0099 9.11322 54.8887C8.91425 54.7676 8.71665 54.6419 8.52143 54.5117C8.42418 54.4461 8.32517 54.3814 8.23064 54.3125C8.13743 54.2423 8.04433 54.1715 7.952 54.0993C7.58265 53.8109 7.22311 53.5065 6.87565 53.1885C6.54125 52.8605 6.22017 52.5182 5.91373 52.166C6.79533 51.3015 7.94014 50.7105 9.21348 50.3625L9.2135 50.3624Z" fill="#FF8A00"/>
<path d="M7.86922 39.3157C8.15627 39.3952 8.43549 39.4917 8.72563 39.5965C9.01691 39.701 9.30745 39.8189 9.59561 39.9503C9.88551 40.0809 10.1584 40.2258 10.4338 40.3744C10.7124 40.5208 10.9816 40.6774 11.2401 40.8424C11.7479 41.1793 12.2607 41.5252 12.7155 41.9153L12.8851 42.0625L13.0588 42.2078C13.1736 42.3055 13.2864 42.405 13.3962 42.5067C13.5059 42.6084 13.6131 42.7123 13.7178 42.8185C13.8231 42.9242 13.9222 43.0343 14.0299 43.1383C14.4534 43.56 14.8192 44.0282 15.19 44.4924C14.4068 45.1948 13.4571 45.7237 12.3654 45.9577C11.8253 46.0712 11.249 46.1115 10.6411 46.0682C10.0266 46.0292 9.40915 45.8867 8.76241 45.6541C7.46692 45.1906 6.27784 44.351 5.27036 43.2757C5.01872 43.0069 4.79282 42.7173 4.5682 42.4205C4.45703 42.2717 4.34849 42.1202 4.2426 41.9658C4.19053 41.8883 4.13619 41.8114 4.08762 41.7323L3.94518 41.4919C3.75794 41.1693 3.58245 40.838 3.42045 40.5004L3.30149 40.2458C3.26318 40.1604 3.23002 40.0733 3.19573 39.9865C3.12777 39.8125 3.06323 39.6374 3.00208 39.4614C3.97103 39.0436 5.0518 38.9056 6.16283 39.0034C6.72631 39.0512 7.29871 39.1556 7.86935 39.3156L7.86922 39.3157Z" fill="#FF8A00"/>
<path d="M3.76988 29.4351C3.98351 29.485 4.20138 29.5476 4.41507 29.6217C4.84389 29.7709 5.26654 29.9674 5.67527 30.2094C5.87964 30.3304 6.08094 30.4627 6.27762 30.606C6.47543 30.749 6.6797 30.9012 6.87375 31.0656C7.06893 31.2297 7.2549 31.4003 7.43061 31.5771C7.60632 31.7539 7.76908 31.9371 7.93843 32.1224C8.10334 32.3087 8.25921 32.5003 8.40449 32.6971C8.47713 32.7955 8.54741 32.895 8.61532 32.9958C8.68271 33.0965 8.74765 33.1989 8.81713 33.3C8.95258 33.5037 9.07814 33.7115 9.1938 33.9236C9.25164 34.0296 9.30658 34.1367 9.3597 34.2451C9.41228 34.3534 9.46145 34.4628 9.51622 34.571C9.62182 34.7882 9.71762 35.0092 9.8031 35.2336C9.8458 35.3462 9.88622 35.4593 9.92375 35.5736L9.97865 35.7454L10.0364 35.916C9.64046 36.0764 9.22606 36.1915 8.79762 36.2546C8.37034 36.3174 7.93611 36.3245 7.49197 36.2718C7.04887 36.2192 6.59871 36.1056 6.14798 35.9252C5.69151 35.7464 5.25889 35.4932 4.82956 35.1695C4.61518 35.0075 4.4085 34.8322 4.20952 34.6438C4.15962 34.5968 4.11043 34.5488 4.06185 34.5004C4.01502 34.4513 3.96942 34.4013 3.92391 34.3507C3.8329 34.2496 3.74462 34.1453 3.65836 34.0386C3.48543 33.8245 3.32191 33.5998 3.16701 33.3658C3.09018 33.2484 3.01352 33.1299 2.94346 33.0077C2.87608 32.8855 2.81075 32.7609 2.74847 32.6342C2.23663 31.6245 1.92902 30.4853 1.84634 29.3411C2.26918 29.2791 2.6991 29.275 3.12836 29.3235C3.34221 29.3476 3.55692 29.3854 3.77002 29.4352L3.76988 29.4351Z" fill="#FF8A00"/>
<path d="M4.68514 21.5589C5.01455 21.759 5.32896 21.9984 5.62423 22.2732C5.92002 22.5482 6.18855 22.8587 6.45687 23.2042C6.71987 23.5493 6.94495 23.9108 7.13306 24.2837L7.20158 24.4239L7.27314 24.5652C7.31948 24.66 7.36364 24.755 7.40543 24.8512C7.4891 25.0431 7.56377 25.2371 7.62893 25.4333C7.69626 25.6293 7.74535 25.828 7.80192 26.027C7.85789 26.2264 7.90443 26.4273 7.94162 26.6293C7.97881 26.8313 8.00719 27.0345 8.02614 27.2392L8.03908 27.3923L8.05526 27.5454C8.06473 27.6477 8.07213 27.7497 8.07672 27.8523C7.35238 27.9415 6.60835 27.8668 5.88927 27.5923C5.1848 27.3172 4.51292 26.8415 3.92437 26.1452C3.64204 25.7967 3.4012 25.4114 3.19531 24.9988C3.09423 24.7925 2.99601 24.5793 2.9192 24.3606C2.84395 24.1422 2.77826 23.9185 2.72246 23.6906C2.48426 22.7785 2.46249 21.8053 2.58597 20.8637C3.31247 20.9154 4.0251 21.1592 4.68507 21.5589L4.68514 21.5589Z" fill="#FF8A00"/>
<path d="M7.06717 16.2876C7.15804 16.4048 7.24154 16.5272 7.32385 16.6564C7.40824 16.7859 7.48726 16.9215 7.56049 17.0625C7.70746 17.3447 7.82435 17.6355 7.91244 17.9311C7.95857 18.0792 7.98919 18.2267 8.02675 18.3776C8.06221 18.5282 8.09052 18.6796 8.11238 18.831C8.15549 19.1342 8.17032 19.4389 8.15797 19.7421C8.14862 19.8934 8.14763 20.0462 8.13296 20.1971C8.11986 20.3482 8.09986 20.4987 8.07308 20.648C7.53536 20.5977 7.01038 20.4257 6.53578 20.1205C6.29873 19.9679 6.07287 19.7822 5.8665 19.5624C5.66691 19.3437 5.48559 19.0915 5.32793 18.8059C5.17036 18.5197 5.04356 18.2147 4.94757 17.8968C4.89701 17.7371 4.86494 17.5764 4.83759 17.4133C4.81035 17.2497 4.79097 17.0842 4.77883 16.9173C4.7667 16.7503 4.76243 16.5816 4.76462 16.4129C4.76785 16.2443 4.77406 16.0742 4.79968 15.9069C4.84571 15.5715 4.91928 15.2387 5.01979 14.9149C5.54511 15.039 6.0388 15.297 6.47013 15.662C6.68687 15.8444 6.88695 16.054 7.06723 16.2876L7.06717 16.2876Z" fill="#FF8A00"/>
<path d="M9.45085 12.5473C9.46523 12.677 9.48081 12.8089 9.48941 12.9408C9.49802 13.0726 9.50026 13.2038 9.49676 13.3341C9.48966 13.5951 9.4587 13.8541 9.4045 14.1073C9.35638 14.3627 9.29321 14.615 9.20361 14.8582C8.75849 14.7375 8.34189 14.5156 7.98637 14.1914C7.80861 14.0293 7.64617 13.8414 7.50269 13.6282C7.36234 13.4156 7.24758 13.1801 7.15458 12.9187C6.97204 12.3977 6.89049 11.826 6.95028 11.2652C6.97604 10.9838 7.02727 10.7015 7.10216 10.4254C7.1374 10.2862 7.18585 10.1515 7.23976 10.0193C7.29325 9.88659 7.3523 9.75587 7.41673 9.62826C7.84385 9.80241 8.22582 10.0833 8.53959 10.4459C8.69773 10.6278 8.83426 10.8284 8.95891 11.0506C9.0846 11.273 9.19147 11.5137 9.27607 11.7709C9.36031 12.0269 9.41801 12.2869 9.45085 12.5474L9.45085 12.5473Z" fill="#FF8A00"/>
<path d="M11.4784 9.16999C11.359 9.60149 11.1661 10.0069 10.9052 10.3652C10.218 9.967 9.72059 9.26041 9.62316 8.31108C9.61109 8.19251 9.60434 8.07276 9.60655 7.95453C9.61013 7.83726 9.62041 7.71976 9.6366 7.60288C9.6686 7.36847 9.72449 7.13558 9.80204 6.90796C9.9491 6.44813 10.2123 6.03136 10.524 5.66202C10.844 5.89726 11.1053 6.21143 11.2938 6.57935C11.3878 6.7635 11.4639 6.9612 11.5196 7.17001C11.5767 7.37979 11.6066 7.59539 11.6278 7.82943C11.6648 8.29316 11.6103 8.74653 11.4784 9.1699L11.4784 9.16999Z" fill="#FF8A00"/>
<path d="M14.3761 5.53857C14.2674 5.97288 14.0845 6.3829 13.8325 6.74751C13.1357 6.36643 12.6211 5.67231 12.5003 4.72567C12.4853 4.60744 12.4756 4.48789 12.4749 4.36964C12.4755 4.25232 12.4829 4.1346 12.4962 4.01736C12.5224 3.78223 12.5726 3.54803 12.6445 3.31857C12.7801 2.85526 13.033 2.43212 13.3355 2.0552C13.6612 2.28248 13.9301 2.59011 14.1277 2.95327C14.2261 3.13505 14.3071 3.33081 14.368 3.53818C14.4302 3.74649 14.4654 3.96129 14.4924 4.19473C14.5408 4.65741 14.4975 5.11198 14.3761 5.53848L14.3761 5.53857Z" fill="#FF8A00"/>
</svg>
