<svg width="26" height="57" viewBox="0 0 26 57" fill="none" xmlns="http://www.w3.org/2000/svg">
<path d="M9.71155 49.798C9.87055 49.7543 10.032 49.7148 10.1951 49.6789C10.3593 49.642 10.5283 49.606 10.6979 49.5755C11.0373 49.5135 11.3832 49.466 11.7348 49.433C11.9105 49.4165 12.0872 49.404 12.2654 49.3949C12.4444 49.3849 12.6202 49.3829 12.8064 49.3747C13.1746 49.363 13.5475 49.365 13.9224 49.3824C14.1099 49.3911 14.2957 49.4033 14.4798 49.4189C14.666 49.4323 14.8551 49.444 15.0399 49.4619C15.4107 49.4964 15.7738 49.5446 16.1297 49.6066C16.4932 49.6586 16.8526 49.7185 17.2026 49.7951C17.3788 49.8315 17.5489 49.8775 17.7247 49.916C17.9007 49.9533 18.075 49.9942 18.2476 50.0385C18.4197 50.0828 18.5907 50.1301 18.7589 50.1812L19.0104 50.2604L19.2658 50.3333C19.6048 50.4327 19.9365 50.5464 20.2615 50.6736C20.5915 50.7903 20.92 50.9099 21.2395 51.0495C21.5563 51.1957 21.8809 51.3222 22.1958 51.4728C21.979 52.0508 21.6967 52.6032 21.3385 53.1154C21.1594 53.3715 20.9612 53.6172 20.7429 53.8508C20.5255 54.0829 20.2847 54.3104 20.0292 54.5078C19.5166 54.9089 18.9203 55.25 18.2373 55.5144C17.8934 55.6511 17.5388 55.7476 17.1599 55.8291C16.7812 55.9096 16.3817 55.9675 15.9611 56.0013C15.7491 56.0217 15.5443 56.0196 15.3327 56.0196C15.122 56.0175 14.9095 56.0098 14.6951 55.9953C14.2668 55.9658 13.8264 55.9191 13.401 55.8239C12.9714 55.7344 12.5379 55.621 12.104 55.4855C11.6768 55.3426 11.2572 55.1682 10.8366 54.9785C10.628 54.8815 10.4145 54.7853 10.2127 54.6739C10.0111 54.562 9.81023 54.4454 9.61126 54.3243C9.4123 54.2031 9.21469 54.0774 9.01948 53.9472C8.92222 53.8817 8.82322 53.8169 8.72869 53.7481C8.63548 53.6778 8.54238 53.6071 8.45005 53.5349C8.08069 53.2465 7.72116 52.942 7.37369 52.6241C7.0393 52.2961 6.71821 51.9537 6.41178 51.6015C7.29337 50.7371 8.43819 50.1461 9.71153 49.798L9.71155 49.798Z" fill="#1A052F"/>
<path d="M8.36727 38.7513C8.65432 38.8308 8.93354 38.9272 9.22368 39.0321C9.51496 39.1366 9.8055 39.2544 10.0937 39.3858C10.3836 39.5165 10.6564 39.6613 10.9319 39.8099C11.2104 39.9563 11.4796 40.1129 11.7382 40.2779C12.246 40.6149 12.7587 40.9608 13.2135 41.3509L13.3831 41.4981L13.5569 41.6433C13.6716 41.741 13.7845 41.8406 13.8942 41.9422C14.004 42.0439 14.1112 42.1478 14.2158 42.254C14.3211 42.3598 14.4202 42.4698 14.528 42.5738C14.9514 42.9956 15.3172 43.4637 15.688 43.9279C14.9049 44.6304 13.9552 45.1593 12.8635 45.3932C12.3233 45.5067 11.7471 45.5471 11.1392 45.5038C10.5246 45.4647 9.9072 45.3223 9.26046 45.0896C7.96497 44.6261 6.77589 43.7865 5.7684 42.7112C5.51676 42.4425 5.29086 42.1529 5.06625 41.856C4.95508 41.7072 4.84654 41.5557 4.74065 41.4014C4.68858 41.3238 4.63424 41.247 4.58567 41.1679L4.44322 40.9275C4.25598 40.6048 4.0805 40.2735 3.91849 39.936L3.79953 39.6813C3.76122 39.596 3.72807 39.5088 3.69378 39.422C3.62581 39.248 3.56127 39.073 3.50013 38.8969C4.46907 38.4791 5.54985 38.3411 6.66088 38.4389C7.22435 38.4868 7.79675 38.5911 8.36739 38.7512L8.36727 38.7513Z" fill="#1A052F"/>
<path d="M4.26793 28.8707C4.48156 28.9206 4.69943 28.9831 4.91311 29.0573C5.34194 29.2064 5.76459 29.4029 6.17332 29.6449C6.37769 29.7659 6.57899 29.8982 6.77566 30.0416C6.97348 30.1846 7.17775 30.3368 7.3718 30.5012C7.56698 30.6653 7.75295 30.8358 7.92866 31.0126C8.10437 31.1894 8.26713 31.3726 8.43648 31.558C8.60138 31.7442 8.75726 31.9358 8.90254 32.1326C8.97518 32.231 9.04546 32.3306 9.11337 32.4314C9.18076 32.5321 9.2457 32.6345 9.31517 32.7355C9.45063 32.9392 9.57619 33.1471 9.69185 33.3591C9.74969 33.4651 9.80463 33.5722 9.85774 33.6807C9.91033 33.789 9.95949 33.8983 10.0143 34.0065C10.1199 34.2238 10.2157 34.4447 10.3012 34.6692C10.3438 34.7817 10.3843 34.8949 10.4218 35.0092L10.4767 35.1809L10.5345 35.3516C10.1385 35.5119 9.72411 35.627 9.29567 35.6901C8.86838 35.7529 8.43416 35.7601 7.99001 35.7073C7.54692 35.6548 7.09676 35.5412 6.64603 35.3607C6.18956 35.182 5.75694 34.9288 5.32761 34.6051C5.11323 34.443 4.90654 34.2678 4.70756 34.0793C4.65766 34.0323 4.60847 33.9844 4.5599 33.936C4.51307 33.8868 4.46747 33.8368 4.42196 33.7863C4.33095 33.6852 4.24266 33.5808 4.15641 33.4741C3.98347 33.2601 3.81995 33.0353 3.66506 32.8013C3.58823 32.6839 3.51157 32.5654 3.4415 32.4433C3.37413 32.321 3.3088 32.1965 3.24652 32.0697C2.73468 31.06 2.42706 29.9209 2.34439 28.7766C2.76723 28.7147 3.19714 28.7105 3.62641 28.7591C3.84026 28.7832 4.05496 28.8209 4.26807 28.8707L4.26793 28.8707Z" fill="#1A052F"/>
<path d="M5.18319 20.9945C5.51259 21.1945 5.82701 21.434 6.12227 21.7088C6.41806 21.9837 6.68659 22.2942 6.95491 22.6397C7.21791 22.9848 7.443 23.3464 7.6311 23.7192L7.69962 23.8595L7.77119 24.0007C7.81753 24.0956 7.86168 24.1906 7.90347 24.2868C7.98715 24.4786 8.06182 24.6727 8.12697 24.8688C8.19431 25.0648 8.2434 25.2636 8.29997 25.4625C8.35594 25.6619 8.40247 25.8629 8.43966 26.0649C8.47686 26.2669 8.50524 26.47 8.52419 26.6748L8.53713 26.8278L8.55331 26.9809C8.56278 27.0833 8.57017 27.1853 8.57476 27.2879C7.85043 27.377 7.10639 27.3023 6.38732 27.0278C5.68285 26.7527 5.01097 26.2771 4.42241 25.5807C4.14009 25.2323 3.89925 24.8469 3.69335 24.4343C3.59228 24.2281 3.49405 24.0148 3.41725 23.7961C3.342 23.5777 3.27631 23.354 3.22051 23.1261C2.98231 22.2141 2.96054 21.2409 3.08402 20.2992C3.81051 20.351 4.52315 20.5947 5.18312 20.9945L5.18319 20.9945Z" fill="#1A052F"/>
<path d="M7.56522 15.7232C7.65609 15.8404 7.73959 15.9627 7.82189 16.0919C7.90629 16.2214 7.98531 16.357 8.05854 16.4981C8.20551 16.7802 8.3224 17.0711 8.41049 17.3666C8.45662 17.5147 8.48724 17.6623 8.52479 17.8132C8.56026 17.9637 8.58857 18.1152 8.61043 18.2666C8.65353 18.5698 8.66837 18.8745 8.65602 19.1777C8.64667 19.329 8.64568 19.4817 8.63101 19.6326C8.6179 19.7838 8.59791 19.9343 8.57113 20.0836C8.0334 20.0332 7.50842 19.8613 7.03383 19.556C6.79678 19.4034 6.57092 19.2178 6.36455 18.9979C6.16496 18.7792 5.98363 18.5271 5.82597 18.2414C5.66841 17.9553 5.54161 17.6503 5.44561 17.3324C5.39505 17.1727 5.36298 17.012 5.33564 16.8489C5.30839 16.6852 5.28901 16.5197 5.27688 16.3528C5.26475 16.1859 5.26048 16.0171 5.26267 15.8484C5.26589 15.6799 5.2721 15.5097 5.29773 15.3425C5.34376 15.007 5.41732 14.6742 5.51784 14.3505C6.04315 14.4745 6.53685 14.7326 6.96818 15.0975C7.18491 15.2799 7.385 15.4896 7.56527 15.7232L7.56522 15.7232Z" fill="#1A052F"/>
<path d="M9.9489 11.9829C9.96328 12.1125 9.97886 12.2445 9.98746 12.3763C9.99606 12.5081 9.99831 12.6394 9.99481 12.7696C9.98771 13.0306 9.95675 13.2896 9.90255 13.5429C9.85443 13.7983 9.79126 14.0505 9.70165 14.2938C9.25654 14.173 8.83994 13.9512 8.48442 13.627C8.30666 13.4649 8.14421 13.2769 8.00074 13.0638C7.86039 12.8512 7.74562 12.6156 7.65262 12.3543C7.47009 11.8332 7.38854 11.2615 7.44832 10.7007C7.47409 10.4193 7.52532 10.137 7.60021 9.86098C7.63544 9.72177 7.68389 9.58704 7.73781 9.4549C7.7913 9.32214 7.85035 9.19142 7.91478 9.06381C8.3419 9.23796 8.72387 9.51886 9.03764 9.88149C9.19578 10.0633 9.3323 10.2639 9.45695 10.4862C9.58265 10.7086 9.68952 10.9492 9.77411 11.2064C9.85836 11.4625 9.91606 11.7225 9.9489 11.9829L9.9489 11.9829Z" fill="#1A052F"/>
<path d="M11.9764 8.60554C11.8571 9.03703 11.6641 9.44242 11.4032 9.8007C10.716 9.40255 10.2186 8.69595 10.1212 7.74662C10.1091 7.62806 10.1024 7.50831 10.1046 7.39008C10.1082 7.27281 10.1185 7.15531 10.1346 7.03843C10.1666 6.80402 10.2225 6.57112 10.3001 6.34351C10.4471 5.88368 10.7104 5.46691 11.0221 5.09757C11.342 5.3328 11.6033 5.64698 11.7919 6.0149C11.8858 6.19905 11.9619 6.39675 12.0176 6.60556C12.0747 6.81534 12.1046 7.03094 12.1258 7.26498C12.1628 7.72871 12.1084 8.18208 11.9765 8.60545L11.9764 8.60554Z" fill="#1A052F"/>
<path d="M14.8741 4.97412C14.7654 5.40843 14.5826 5.81845 14.3306 6.18306C13.6338 5.80197 13.1191 5.10786 12.9983 4.16122C12.9833 4.04299 12.9736 3.92344 12.9729 3.80519C12.9736 3.68787 12.981 3.57015 12.9943 3.45291C13.0205 3.21778 13.0706 2.98358 13.1425 2.75412C13.2782 2.2908 13.531 1.86767 13.8335 1.49075C14.1592 1.71803 14.4282 2.02566 14.6257 2.38882C14.7242 2.5706 14.8052 2.76636 14.866 2.97373C14.9282 3.18204 14.9635 3.39683 14.9904 3.63028C15.0389 4.09296 14.9956 4.54753 14.8742 4.97403L14.8741 4.97412Z" fill="#1A052F"/>
</svg>
