<svg width="26" height="57" viewBox="0 0 26 57" fill="none" xmlns="http://www.w3.org/2000/svg">
<path d="M16.6274 49.5062C16.4689 49.4626 16.3079 49.4231 16.1455 49.3871C15.9818 49.3503 15.8134 49.3143 15.6443 49.2838C15.3061 49.2217 14.9612 49.1743 14.6109 49.1413C14.4357 49.1248 14.2596 49.1122 14.082 49.1031C13.9036 49.0931 13.7283 49.0912 13.5428 49.083C13.1758 49.0712 12.8042 49.0732 12.4305 49.0906C12.2436 49.0993 12.0584 49.1115 11.8749 49.1272C11.6894 49.1405 11.5009 49.1522 11.3168 49.1701C10.9471 49.2046 10.5852 49.2528 10.2306 49.3148C9.8683 49.3669 9.51007 49.4268 9.16121 49.5034C8.98563 49.5397 8.81604 49.5858 8.64083 49.6242C8.46544 49.6616 8.29172 49.7025 8.11969 49.7468C7.94817 49.791 7.77773 49.8383 7.61011 49.8894L7.35938 49.9686L7.10486 50.0415C6.76698 50.1409 6.43643 50.2547 6.11252 50.3818C5.78355 50.4985 5.45619 50.6182 5.13769 50.7578C4.82193 50.9039 4.49845 51.0304 4.18456 51.1811C4.40065 51.7591 4.68204 52.3115 5.03903 52.8237C5.21753 53.0798 5.41514 53.3255 5.63263 53.5591C5.84932 53.7912 6.08937 54.0187 6.34399 54.2161C6.85487 54.6171 7.44919 54.9582 8.12992 55.2227C8.47267 55.3593 8.82609 55.4559 9.20373 55.5374C9.58117 55.6178 9.97938 55.6758 10.3986 55.7096C10.6098 55.7299 10.814 55.7279 11.0249 55.7278C11.2349 55.7258 11.4466 55.7181 11.6604 55.7035C12.0873 55.674 12.5262 55.6274 12.9502 55.5321C13.3783 55.4426 13.8104 55.3293 14.2429 55.1938C14.6687 55.0509 15.0868 54.8764 15.506 54.6867C15.7139 54.5898 15.9268 54.4936 16.1279 54.3822C16.3289 54.2703 16.529 54.1537 16.7273 54.0325C16.9256 53.9114 17.1226 53.7857 17.3171 53.6555C17.4141 53.5899 17.5127 53.5252 17.607 53.4563C17.6999 53.3861 17.7927 53.3153 17.8847 53.2431C18.2528 52.9547 18.6111 52.6503 18.9575 52.3324C19.2907 52.0043 19.6108 51.662 19.9162 51.3098C19.0375 50.4453 17.8965 49.8543 16.6274 49.5062Z" fill="#1A052F"/>
<path d="M17.9675 38.4595C17.6814 38.539 17.4031 38.6355 17.1139 38.7403C16.8236 38.8448 16.5341 38.9627 16.2469 39.0941C15.9579 39.2247 15.6859 39.3696 15.4114 39.5182C15.1338 39.6646 14.8655 39.8212 14.6078 39.9862C14.1017 40.3231 13.5907 40.669 13.1373 41.0591L12.9683 41.2063L12.7951 41.3516C12.6808 41.4493 12.5683 41.5488 12.4589 41.6505C12.3495 41.7522 12.2427 41.8561 12.1384 41.9623C12.0334 42.068 11.9346 42.1781 11.8273 42.2821C11.4052 42.7038 11.0407 43.172 10.6711 43.6362C11.4516 44.3386 12.3981 44.8675 13.4862 45.1015C14.0246 45.215 14.599 45.2553 15.2048 45.212C15.8173 45.173 16.4327 45.0305 17.0773 44.7979C18.3685 44.3344 19.5536 43.4948 20.5577 42.4195C20.8085 42.1507 21.0337 41.8611 21.2576 41.5643C21.3684 41.4155 21.4765 41.2639 21.5821 41.1096C21.634 41.0321 21.6881 40.9552 21.7365 40.8761L21.8785 40.6357C22.0651 40.3131 22.24 39.9818 22.4015 39.6442L22.5201 39.3896C22.5582 39.3042 22.5913 39.2171 22.6255 39.1303C22.6932 38.9563 22.7575 38.7812 22.8185 38.6052C21.8528 38.1874 20.7756 38.0494 19.6682 38.1472C19.1066 38.195 18.5361 38.2994 17.9674 38.4594L17.9675 38.4595Z" fill="#1A052F"/>
<path d="M22.052 28.5789C21.839 28.6288 21.6219 28.6914 21.4089 28.7655C20.9815 28.9147 20.5603 29.1112 20.1529 29.3532C19.9492 29.4742 19.7486 29.6065 19.5525 29.7498C19.3554 29.8928 19.1518 30.045 18.9584 30.2094C18.7639 30.3735 18.5785 30.5441 18.4034 30.7209C18.2283 30.8977 18.066 31.0809 17.8972 31.2662C17.7329 31.4525 17.5775 31.6441 17.4327 31.8409C17.3603 31.9393 17.2903 32.0388 17.2226 32.1396C17.1554 32.2403 17.0907 32.3427 17.0215 32.4438C16.8865 32.6475 16.7613 32.8553 16.646 33.0674C16.5884 33.1734 16.5336 33.2805 16.4807 33.3889C16.4283 33.4972 16.3793 33.6066 16.3247 33.7148C16.2195 33.932 16.124 34.153 16.0388 34.3774C15.9962 34.49 15.9559 34.6031 15.9185 34.7174L15.8638 34.8892L15.8062 35.0598C16.2009 35.2202 16.6139 35.3353 17.0409 35.3984C17.4668 35.4612 17.8996 35.4683 18.3422 35.4156C18.7839 35.363 19.2325 35.2494 19.6818 35.069C20.1367 34.8902 20.5679 34.637 20.9958 34.3133C21.2095 34.1513 21.4155 33.976 21.6138 33.7876C21.6635 33.7406 21.7125 33.6926 21.761 33.6442C21.8076 33.5951 21.8531 33.5451 21.8984 33.4945C21.9891 33.3934 22.0771 33.2891 22.1631 33.1824C22.3355 32.9683 22.4984 32.7436 22.6528 32.5096C22.7294 32.3922 22.8058 32.2737 22.8756 32.1515C22.9428 32.0293 23.0079 31.9047 23.07 31.778C23.5801 30.7683 23.8867 29.6291 23.9691 28.4849C23.5477 28.4229 23.1192 28.4188 22.6913 28.4673C22.4782 28.4914 22.2642 28.5292 22.0518 28.579L22.052 28.5789Z" fill="#1A052F"/>
<path d="M21.1381 20.7088C20.8097 20.9089 20.4964 21.1483 20.2021 21.4231C19.9073 21.6981 19.6396 22.0086 19.3722 22.3541C19.1101 22.6992 18.8858 23.0607 18.6983 23.4336L18.63 23.5738L18.5587 23.7151C18.5125 23.8099 18.4685 23.9049 18.4268 24.0011C18.3434 24.193 18.269 24.387 18.2041 24.5832C18.1369 24.7792 18.088 24.9779 18.0316 25.1769C17.9758 25.3763 17.9295 25.5772 17.8924 25.7792C17.8553 25.9812 17.827 26.1844 17.8082 26.3891L17.7953 26.5422L17.7791 26.6953C17.7697 26.7976 17.7623 26.8996 17.7577 27.0022C18.4797 27.0914 19.2212 27.0167 19.9379 26.7422C20.6401 26.4671 21.3097 25.9914 21.8963 25.2951C22.1777 24.9466 22.4177 24.5613 22.6229 24.1487C22.7237 23.9424 22.8216 23.7292 22.8981 23.5105C22.9731 23.2921 23.0386 23.0684 23.0942 22.8405C23.3316 21.9284 23.3533 20.9552 23.2303 20.0136C22.5062 20.0653 21.7959 20.3091 21.1381 20.7088L21.1381 20.7088Z" fill="#1A052F"/>
<path d="M18.7664 15.4314C18.6758 15.5486 18.5926 15.671 18.5106 15.8002C18.4264 15.9297 18.3477 16.0653 18.2747 16.2063C18.1282 16.4885 18.0117 16.7793 17.9239 17.0749C17.8779 17.223 17.8474 17.3705 17.81 17.5214C17.7746 17.672 17.7464 17.8234 17.7247 17.9748C17.6817 18.278 17.6669 18.5827 17.6792 18.8859C17.6885 19.0372 17.6895 19.19 17.7041 19.3409C17.7172 19.492 17.7371 19.6425 17.7638 19.7918C18.2998 19.7415 18.823 19.5695 19.296 19.2643C19.5323 19.1117 19.7574 18.926 19.9631 18.7062C20.162 18.4875 20.3427 18.2353 20.4999 17.9497C20.6569 17.6635 20.7833 17.3585 20.8789 17.0406C20.9293 16.8809 20.9613 16.7202 20.9886 16.5571C21.0157 16.3935 21.035 16.228 21.0471 16.0611C21.0592 15.8941 21.0635 15.7254 21.0613 15.5567C21.0581 15.3881 21.0519 15.218 21.0263 15.0507C20.9805 14.7153 20.9071 14.3825 20.807 14.0587C20.2834 14.1828 19.7913 14.4408 19.3614 14.8058C19.1454 14.9882 18.946 15.1978 18.7663 15.4314L18.7664 15.4314Z" fill="#1A052F"/>
<path d="M16.3907 11.6975C16.3764 11.8271 16.3608 11.9591 16.3523 12.0909C16.3437 12.2227 16.3415 12.354 16.3449 12.4842C16.352 12.7452 16.3829 13.0042 16.4369 13.2575C16.4849 13.5129 16.5478 13.7651 16.6371 14.0084C17.0808 13.8876 17.496 13.6658 17.8503 13.3416C18.0275 13.1795 18.1894 12.9915 18.3324 12.7784C18.4723 12.5658 18.5867 12.3302 18.6794 12.0689C18.8613 11.5478 18.9426 10.9761 18.883 10.4153C18.8573 10.1339 18.8062 9.8516 18.7316 9.57558C18.6965 9.43637 18.6482 9.30164 18.5944 9.1695C18.5411 9.03674 18.4823 8.90602 18.4181 8.77841C17.9924 8.95256 17.6117 9.23346 17.2989 9.59609C17.1413 9.7779 17.0052 9.97851 16.881 10.2008C16.7557 10.4232 16.6492 10.6638 16.5649 10.921C16.4809 11.1771 16.4234 11.4371 16.3907 11.6975L16.3907 11.6975Z" fill="#1A052F"/>
<path d="M14.3683 8.31989C14.4873 8.75139 14.6796 9.15678 14.9396 9.51506C15.6246 9.11691 16.1203 8.41031 16.2174 7.46098C16.2294 7.34242 16.2361 7.22267 16.2339 7.10443C16.2304 6.98716 16.2201 6.86966 16.204 6.75279C16.1721 6.51838 16.1164 6.28548 16.0391 6.05786C15.8925 5.59803 15.6302 5.18127 15.3195 4.81192C15.0006 5.04716 14.7402 5.36133 14.5523 5.72926C14.4586 5.9134 14.3828 6.1111 14.3273 6.31991C14.2704 6.52969 14.2405 6.74529 14.2194 6.97933C14.1825 7.44306 14.2368 7.89643 14.3683 8.3198L14.3683 8.31989Z" fill="#1A052F"/>
<path d="M11.4806 4.68872C11.5889 5.12302 11.7712 5.53305 12.0224 5.89765C12.7169 5.51657 13.2298 4.82246 13.3502 3.87582C13.3652 3.75759 13.3748 3.63804 13.3755 3.51979C13.3749 3.40247 13.3675 3.28475 13.3542 3.16751C13.3281 2.93238 13.2782 2.69818 13.2065 2.46872C13.0713 2.0054 12.8193 1.58227 12.5178 1.20535C12.1932 1.43263 11.9251 1.74026 11.7282 2.10342C11.6301 2.2852 11.5494 2.48096 11.4887 2.68833C11.4267 2.89664 11.3916 3.11143 11.3647 3.34488C11.3164 3.80756 11.3596 4.26213 11.4806 4.68863L11.4806 4.68872Z" fill="#1A052F"/>
</svg>
