<svg width="26" height="57" viewBox="0 0 26 57" fill="none" xmlns="http://www.w3.org/2000/svg">
<path d="M16.6274 49.7636C16.4689 49.7199 16.3079 49.6804 16.1455 49.6444C15.9818 49.6076 15.8134 49.5716 15.6443 49.5411C15.3061 49.479 14.9612 49.4316 14.6109 49.3986C14.4357 49.3821 14.2596 49.3695 14.082 49.3605C13.9036 49.3504 13.7283 49.3485 13.5428 49.3403C13.1758 49.3285 12.8042 49.3305 12.4305 49.348C12.2436 49.3567 12.0584 49.3689 11.8749 49.3845C11.6894 49.3978 11.5009 49.4095 11.3168 49.4275C10.9471 49.462 10.5852 49.5101 10.2306 49.5721C9.8683 49.6242 9.51007 49.6841 9.16121 49.7607C8.98563 49.797 8.81604 49.8431 8.64083 49.8815C8.46544 49.9189 8.29172 49.9598 8.11969 50.0041C7.94817 50.0484 7.77773 50.0956 7.61011 50.1467L7.35938 50.226L7.10486 50.2988C6.76698 50.3983 6.43643 50.512 6.11252 50.6391C5.78355 50.7558 5.45619 50.8755 5.13769 51.0151C4.82193 51.1613 4.49845 51.2878 4.18456 51.4384C4.40065 52.0164 4.68204 52.5688 5.03903 53.081C5.21753 53.3371 5.41514 53.5828 5.63263 53.8164C5.84932 54.0485 6.08937 54.276 6.34399 54.4734C6.85487 54.8744 7.44919 55.2155 8.12992 55.48C8.47267 55.6167 8.82609 55.7132 9.20373 55.7947C9.58117 55.8751 9.97938 55.9331 10.3986 55.9669C10.6098 55.9872 10.814 55.9852 11.0249 55.9851C11.2349 55.9831 11.4466 55.9754 11.6604 55.9609C12.0873 55.9314 12.5262 55.8847 12.9502 55.7895C13.3783 55.7 13.8104 55.5866 14.2429 55.4511C14.6687 55.3082 15.0868 55.1338 15.506 54.9441C15.7139 54.8471 15.9268 54.7509 16.1279 54.6395C16.3289 54.5276 16.529 54.411 16.7273 54.2898C16.9256 54.1687 17.1226 54.043 17.3171 53.9128C17.4141 53.8473 17.5127 53.7825 17.607 53.7136C17.6999 53.6434 17.7927 53.5727 17.8847 53.5004C18.2528 53.212 18.6111 52.9076 18.9575 52.5897C19.2907 52.2617 19.6108 51.9193 19.9162 51.5671C19.0375 50.7027 17.8965 50.1116 16.6274 49.7636Z" fill="#FF8A00"/>
<path d="M17.9675 38.7168C17.6814 38.7964 17.4031 38.8928 17.1139 38.9976C16.8236 39.1021 16.5341 39.22 16.2469 39.3514C15.9579 39.482 15.6859 39.6269 15.4114 39.7755C15.1338 39.9219 14.8655 40.0785 14.6078 40.2435C14.1017 40.5805 13.5907 40.9264 13.1373 41.3165L12.9683 41.4637L12.7951 41.6089C12.6808 41.7066 12.5683 41.8061 12.4589 41.9078C12.3495 42.0095 12.2427 42.1134 12.1384 42.2196C12.0334 42.3253 11.9346 42.4354 11.8273 42.5394C11.4052 42.9611 11.0407 43.4293 10.6711 43.8935C11.4516 44.596 12.3981 45.1248 13.4862 45.3588C14.0246 45.4723 14.599 45.5127 15.2048 45.4694C15.8173 45.4303 16.4327 45.2879 17.0773 45.0552C18.3685 44.5917 19.5536 43.7521 20.5577 42.6768C20.8085 42.408 21.0337 42.1185 21.2576 41.8216C21.3684 41.6728 21.4765 41.5213 21.5821 41.367C21.634 41.2894 21.6881 41.2126 21.7365 41.1335L21.8785 40.893C22.0651 40.5704 22.24 40.2391 22.4015 39.9015L22.5201 39.6469C22.5583 39.5616 22.5913 39.4744 22.6255 39.3876C22.6932 39.2136 22.7575 39.0385 22.8185 38.8625C21.8528 38.4447 20.7756 38.3067 19.6682 38.4045C19.1066 38.4523 18.5361 38.5567 17.9674 38.7168L17.9675 38.7168Z" fill="#FF8A00"/>
<path d="M22.052 28.8362C21.839 28.8862 21.6219 28.9487 21.4089 29.0229C20.9815 29.172 20.5603 29.3685 20.1529 29.6105C19.9492 29.7315 19.7486 29.8638 19.5525 30.0071C19.3554 30.1501 19.1518 30.3024 18.9584 30.4668C18.7639 30.6309 18.5785 30.8014 18.4034 30.9782C18.2283 31.155 18.066 31.3382 17.8972 31.5236C17.7329 31.7098 17.5775 31.9014 17.4327 32.0982C17.3603 32.1966 17.2903 32.2962 17.2226 32.397C17.1554 32.4976 17.0907 32.6001 17.0215 32.7011C16.8865 32.9048 16.7613 33.1126 16.646 33.3247C16.5884 33.4307 16.5336 33.5378 16.4807 33.6462C16.4283 33.7546 16.3793 33.8639 16.3247 33.9721C16.2195 34.1893 16.124 34.4103 16.0388 34.6348C15.9962 34.7473 15.9559 34.8605 15.9185 34.9748L15.8638 35.1465L15.8062 35.3171C16.2009 35.4775 16.6139 35.5926 17.0409 35.6557C17.4668 35.7185 17.8996 35.7256 18.3422 35.6729C18.7839 35.6203 19.2325 35.5068 19.6818 35.3263C20.1367 35.1476 20.5679 34.8944 20.9958 34.5707C21.2095 34.4086 21.4155 34.2333 21.6138 34.0449C21.6635 33.9979 21.7125 33.9499 21.761 33.9016C21.8076 33.8524 21.8531 33.8024 21.8984 33.7518C21.9891 33.6508 22.0771 33.5464 22.1631 33.4397C22.3355 33.2257 22.4984 33.0009 22.6528 32.7669C22.7294 32.6495 22.8058 32.531 22.8756 32.4088C22.9428 32.2866 23.0079 32.162 23.07 32.0353C23.5801 31.0256 23.8867 29.8865 23.9691 28.7422C23.5477 28.6803 23.1192 28.6761 22.6913 28.7246C22.4782 28.7487 22.2642 28.7865 22.0518 28.8363L22.052 28.8362Z" fill="#FF8A00"/>
<path d="M21.1381 20.9662C20.8097 21.1662 20.4964 21.4056 20.2021 21.6805C19.9073 21.9554 19.6396 22.2659 19.3722 22.6114C19.1101 22.9565 18.8858 23.3181 18.6983 23.6909L18.63 23.8311L18.5587 23.9724C18.5125 24.0672 18.4685 24.1622 18.4268 24.2584C18.3434 24.4503 18.269 24.6444 18.2041 24.8405C18.1369 25.0365 18.088 25.2352 18.0316 25.4342C17.9758 25.6336 17.9295 25.8345 17.8924 26.0366C17.8553 26.2386 17.827 26.4417 17.8082 26.6465L17.7953 26.7995L17.7791 26.9526C17.7697 27.055 17.7623 27.157 17.7577 27.2595C18.4797 27.3487 19.2212 27.274 19.9379 26.9995C20.6401 26.7244 21.3097 26.2488 21.8963 25.5524C22.1777 25.2039 22.4177 24.8186 22.6229 24.406C22.7237 24.1998 22.8216 23.9865 22.8981 23.7678C22.9731 23.5494 23.0386 23.3257 23.0942 23.0978C23.3316 22.1857 23.3533 21.2126 23.2303 20.2709C22.5062 20.3227 21.7959 20.5664 21.1381 20.9662L21.1381 20.9662Z" fill="#FF8A00"/>
<path d="M18.7664 15.6887C18.6758 15.8059 18.5926 15.9283 18.5106 16.0575C18.4264 16.187 18.3477 16.3226 18.2747 16.4636C18.1282 16.7458 18.0117 17.0367 17.9239 17.3322C17.8779 17.4803 17.8474 17.6278 17.81 17.7788C17.7746 17.9293 17.7464 18.0808 17.7247 18.2322C17.6817 18.5354 17.6669 18.8401 17.6792 19.1432C17.6885 19.2945 17.6895 19.4473 17.7041 19.5982C17.7172 19.7494 17.7371 19.8999 17.7638 20.0492C18.2998 19.9988 18.823 19.8269 19.296 19.5216C19.5323 19.369 19.7574 19.1834 19.9631 18.9635C20.162 18.7448 20.3427 18.4927 20.4999 18.207C20.6569 17.9208 20.7833 17.6158 20.8789 17.2979C20.9293 17.1383 20.9613 16.9775 20.9886 16.8144C21.0157 16.6508 21.035 16.4853 21.0471 16.3184C21.0592 16.1515 21.0635 15.9827 21.0613 15.814C21.0581 15.6455 21.0519 15.4753 21.0263 15.3081C20.9805 14.9726 20.9071 14.6398 20.807 14.316C20.2834 14.4401 19.7913 14.6981 19.3614 15.0631C19.1454 15.2455 18.946 15.4551 18.7663 15.6888L18.7664 15.6887Z" fill="#FF8A00"/>
<path d="M16.3907 11.9548C16.3764 12.0844 16.3608 12.2164 16.3523 12.3482C16.3437 12.4801 16.3415 12.6113 16.3449 12.7416C16.352 13.0026 16.3829 13.2615 16.4369 13.5148C16.4849 13.7702 16.5478 14.0224 16.6371 14.2657C17.0808 14.1449 17.496 13.9231 17.8503 13.5989C18.0275 13.4368 18.1894 13.2489 18.3324 13.0357C18.4723 12.8231 18.5867 12.5875 18.6794 12.3262C18.8613 11.8051 18.9426 11.2335 18.883 10.6727C18.8573 10.3913 18.8062 10.1089 18.7316 9.8329C18.6965 9.6937 18.6482 9.55896 18.5944 9.42682C18.5411 9.29406 18.4823 9.16334 18.4181 9.03573C17.9924 9.20988 17.6117 9.49079 17.2989 9.85342C17.1413 10.0352 17.0052 10.2358 16.881 10.4581C16.7557 10.6805 16.6492 10.9211 16.5649 11.1783C16.4809 11.4344 16.4234 11.6944 16.3907 11.9549L16.3907 11.9548Z" fill="#FF8A00"/>
<path d="M14.3683 8.57722C14.4873 9.00871 14.6796 9.4141 14.9396 9.77238C15.6246 9.37423 16.1203 8.66763 16.2174 7.7183C16.2294 7.59974 16.2361 7.47999 16.2339 7.36176C16.2304 7.24449 16.2201 7.12699 16.204 7.01011C16.1721 6.7757 16.1164 6.5428 16.0391 6.31519C15.8925 5.85536 15.6302 5.43859 15.3195 5.06925C15.0006 5.30448 14.7402 5.61866 14.5523 5.98658C14.4586 6.17073 14.3828 6.36843 14.3273 6.57724C14.2704 6.78702 14.2405 7.00262 14.2194 7.23666C14.1825 7.70039 14.2368 8.15376 14.3683 8.57713L14.3683 8.57722Z" fill="#FF8A00"/>
<path d="M11.4806 4.94604C11.5889 5.38035 11.7712 5.79037 12.0224 6.15498C12.7169 5.7739 13.2298 5.07978 13.3502 4.13314C13.3652 4.01491 13.3748 3.89536 13.3755 3.77711C13.3749 3.65979 13.3675 3.54207 13.3542 3.42483C13.3281 3.1897 13.2782 2.9555 13.2065 2.72604C13.0713 2.26273 12.8193 1.83959 12.5178 1.46267C12.1932 1.68995 11.9251 1.99758 11.7282 2.36074C11.6301 2.54252 11.5494 2.73828 11.4887 2.94565C11.4267 3.15396 11.3916 3.36876 11.3647 3.6022C11.3164 4.06488 11.3596 4.51945 11.4806 4.94595L11.4806 4.94604Z" fill="#FF8A00"/>
</svg>
