<svg width="25" height="56" viewBox="0 0 25 56" fill="none" xmlns="http://www.w3.org/2000/svg">
<path d="M9.21155 49.3886C9.37055 49.3449 9.53203 49.3054 9.69506 49.2694C9.85931 49.2326 10.0283 49.1966 10.1979 49.1661C10.5373 49.104 10.8832 49.0566 11.2348 49.0236C11.4105 49.0071 11.5872 48.9945 11.7654 48.9855C11.9444 48.9754 12.1202 48.9735 12.3064 48.9653C12.6746 48.9535 13.0475 48.9555 13.4224 48.973C13.6099 48.9817 13.7957 48.9939 13.9798 49.0095C14.166 49.0228 14.3551 49.0345 14.5399 49.0525C14.9107 49.087 15.2738 49.1351 15.6297 49.1971C15.9932 49.2492 16.3526 49.3091 16.7026 49.3857C16.8788 49.422 17.0489 49.4681 17.2247 49.5065C17.4007 49.5439 17.575 49.5848 17.7476 49.6291C17.9197 49.6734 18.0907 49.7206 18.2589 49.7717L18.5104 49.851L18.7658 49.9238C19.1048 50.0233 19.4365 50.137 19.7615 50.2641C20.0915 50.3808 20.42 50.5005 20.7395 50.6401C21.0563 50.7863 21.3809 50.9128 21.6958 51.0634C21.479 51.6414 21.1967 52.1938 20.8385 52.706C20.6594 52.9621 20.4612 53.2078 20.2429 53.4414C20.0255 53.6735 19.7847 53.901 19.5292 54.0984C19.0166 54.4994 18.4203 54.8405 17.7373 55.105C17.3934 55.2417 17.0388 55.3382 16.6599 55.4197C16.2812 55.5001 15.8817 55.5581 15.4611 55.5919C15.2491 55.6122 15.0443 55.6102 14.8327 55.6101C14.622 55.6081 14.4095 55.6004 14.1951 55.5859C13.7668 55.5564 13.3264 55.5097 12.901 55.4145C12.4714 55.325 12.0379 55.2116 11.604 55.0761C11.1768 54.9332 10.7572 54.7588 10.3366 54.5691C10.128 54.4721 9.91447 54.3759 9.71272 54.2645C9.51106 54.1526 9.31023 54.036 9.11126 53.9148C8.9123 53.7937 8.71469 53.668 8.51948 53.5378C8.42222 53.4723 8.32322 53.4075 8.22869 53.3386C8.13548 53.2684 8.04238 53.1977 7.95005 53.1254C7.58069 52.837 7.22116 52.5326 6.87369 52.2147C6.5393 51.8867 6.21821 51.5443 5.91178 51.1921C6.79337 50.3277 7.93819 49.7366 9.21153 49.3886L9.21155 49.3886Z" fill="#FF8A00"/>
<path d="M7.86727 38.3423C8.15432 38.4218 8.43354 38.5183 8.72368 38.6231C9.01496 38.7276 9.3055 38.8455 9.59365 38.9769C9.88356 39.1075 10.1564 39.2524 10.4319 39.401C10.7104 39.5474 10.9796 39.704 11.2382 39.869C11.746 40.206 12.2587 40.5518 12.7135 40.942L12.8831 41.0892L13.0569 41.2344C13.1716 41.3321 13.2845 41.4316 13.3942 41.5333C13.504 41.635 13.6112 41.7389 13.7158 41.8451C13.8211 41.9508 13.9202 42.0609 14.028 42.1649C14.4514 42.5866 14.8172 43.0548 15.188 43.519C14.4049 44.2214 13.4552 44.7503 12.3635 44.9843C11.8233 45.0978 11.2471 45.1381 10.6392 45.0949C10.0246 45.0558 9.4072 44.9134 8.76046 44.6807C7.46497 44.2172 6.27589 43.3776 5.2684 42.3023C5.01676 42.0335 4.79086 41.744 4.56625 41.4471C4.45508 41.2983 4.34654 41.1468 4.24065 40.9924C4.18858 40.9149 4.13424 40.838 4.08567 40.759L3.94322 40.5185C3.75598 40.1959 3.5805 39.8646 3.41849 39.527L3.29953 39.2724C3.26122 39.1871 3.22807 39.0999 3.19378 39.0131C3.12581 38.8391 3.06127 38.664 3.00013 38.488C3.96907 38.0702 5.04985 37.9322 6.16088 38.03C6.72435 38.0778 7.29675 38.1822 7.86739 38.3422L7.86727 38.3423Z" fill="#FF8A00"/>
<path d="M3.76793 28.4612C3.98156 28.5112 4.19943 28.5737 4.41311 28.6479C4.84194 28.797 5.26459 28.9935 5.67332 29.2355C5.87769 29.3565 6.07899 29.4888 6.27566 29.6321C6.47348 29.7751 6.67775 29.9274 6.8718 30.0918C7.06698 30.2559 7.25295 30.4264 7.42866 30.6032C7.60437 30.78 7.76713 30.9632 7.93648 31.1486C8.10138 31.3348 8.25726 31.5264 8.40254 31.7232C8.47518 31.8216 8.54546 31.9212 8.61337 32.022C8.68076 32.1226 8.7457 32.2251 8.81517 32.3261C8.95063 32.5298 9.07619 32.7376 9.19185 32.9497C9.24969 33.0557 9.30463 33.1628 9.35774 33.2712C9.41033 33.3796 9.45949 33.4889 9.51426 33.5971C9.61987 33.8143 9.71566 34.0353 9.80115 34.2598C9.84384 34.3723 9.88427 34.4855 9.9218 34.5998L9.9767 34.7715L10.0345 34.9421C9.63851 35.1025 9.22411 35.2176 8.79567 35.2807C8.36838 35.3435 7.93416 35.3506 7.49001 35.2979C7.04692 35.2453 6.59676 35.1318 6.14603 34.9513C5.68956 34.7726 5.25694 34.5194 4.82761 34.1957C4.61323 34.0336 4.40654 33.8583 4.20756 33.6699C4.15766 33.6229 4.10847 33.5749 4.0599 33.5266C4.01307 33.4774 3.96747 33.4274 3.92196 33.3768C3.83095 33.2758 3.74266 33.1714 3.65641 33.0647C3.48347 32.8507 3.31995 32.6259 3.16506 32.3919C3.08823 32.2745 3.01157 32.156 2.9415 32.0338C2.87413 31.9116 2.8088 31.787 2.74652 31.6603C2.23468 30.6506 1.92706 29.5115 1.84439 28.3672C2.26723 28.3053 2.69714 28.3011 3.12641 28.3496C3.34026 28.3737 3.55496 28.4115 3.76807 28.4613L3.76793 28.4612Z" fill="#FF8A00"/>
<path d="M4.68319 20.5853C5.01259 20.7853 5.32701 21.0248 5.62227 21.2996C5.91806 21.5745 6.18659 21.885 6.45491 22.2305C6.71791 22.5756 6.943 22.9372 7.1311 23.3101L7.19962 23.4503L7.27119 23.5915C7.31753 23.6864 7.36168 23.7814 7.40347 23.8776C7.48715 24.0695 7.56182 24.2635 7.62697 24.4597C7.69431 24.6557 7.7434 24.8544 7.79997 25.0533C7.85594 25.2527 7.90247 25.4537 7.93966 25.6557C7.97686 25.8577 8.00524 26.0609 8.02419 26.2656L8.03713 26.4187L8.05331 26.5717C8.06278 26.6741 8.07017 26.7761 8.07476 26.8787C7.35043 26.9679 6.60639 26.8931 5.88732 26.6187C5.18285 26.3435 4.51097 25.8679 3.92241 25.1716C3.64009 24.8231 3.39925 24.4377 3.19335 24.0251C3.09228 23.8189 2.99405 23.6056 2.91725 23.387C2.842 23.1686 2.77631 22.9449 2.72051 22.717C2.48231 21.8049 2.46054 20.8317 2.58402 19.8901C3.31051 19.9418 4.02315 20.1855 4.68312 20.5853L4.68319 20.5853Z" fill="#FF8A00"/>
<path d="M7.06522 15.3137C7.15609 15.4309 7.23959 15.5533 7.32189 15.6825C7.40629 15.812 7.48531 15.9476 7.55854 16.0886C7.70551 16.3708 7.8224 16.6617 7.91049 16.9572C7.95662 17.1053 7.98724 17.2528 8.02479 17.4038C8.06026 17.5543 8.08857 17.7058 8.11043 17.8572C8.15353 18.1604 8.16837 18.4651 8.15602 18.7682C8.14667 18.9195 8.14568 19.0723 8.13101 19.2232C8.1179 19.3744 8.09791 19.5249 8.07113 19.6742C7.5334 19.6238 7.00842 19.4519 6.53383 19.1466C6.29678 18.994 6.07092 18.8084 5.86455 18.5885C5.66496 18.3698 5.48363 18.1177 5.32597 17.832C5.16841 17.5458 5.04161 17.2408 4.94561 16.9229C4.89505 16.7633 4.86298 16.6025 4.83564 16.4394C4.80839 16.2758 4.78901 16.1103 4.77688 15.9434C4.76475 15.7765 4.76048 15.6077 4.76267 15.439C4.76589 15.2705 4.7721 15.1003 4.79773 14.9331C4.84376 14.5976 4.91732 14.2648 5.01784 13.941C5.54315 14.0651 6.03685 14.3231 6.46818 14.6881C6.68491 14.8705 6.885 15.0801 7.06527 15.3138L7.06522 15.3137Z" fill="#FF8A00"/>
<path d="M9.4489 11.574C9.46328 11.7036 9.47886 11.8356 9.48746 11.9674C9.49606 12.0992 9.49831 12.2305 9.49481 12.3607C9.48771 12.6217 9.45675 12.8807 9.40255 13.1339C9.35443 13.3894 9.29126 13.6416 9.20165 13.8848C8.75654 13.7641 8.33994 13.5422 7.98442 13.218C7.80666 13.056 7.64421 12.868 7.50074 12.6548C7.36039 12.4422 7.24562 12.2067 7.15262 11.9453C6.97009 11.4243 6.88854 10.8526 6.94832 10.2918C6.97409 10.0104 7.02532 9.72806 7.10021 9.45204C7.13544 9.31284 7.18389 9.17811 7.23781 9.04596C7.2913 8.9132 7.35035 8.78248 7.41478 8.65487C7.8419 8.82902 8.22387 9.10993 8.53764 9.47256C8.69578 9.65436 8.8323 9.85498 8.95695 10.0772C9.08265 10.2996 9.18952 10.5403 9.27411 10.7975C9.35836 11.0535 9.41606 11.3135 9.4489 11.574L9.4489 11.574Z" fill="#FF8A00"/>
<path d="M11.4764 8.19611C11.3571 8.62761 11.1641 9.033 10.9032 9.39128C10.216 8.99313 9.71864 8.28653 9.62121 7.3372C9.60914 7.21864 9.60239 7.09889 9.6046 6.98065C9.60818 6.86338 9.61846 6.74588 9.63464 6.62901C9.66665 6.3946 9.72253 6.1617 9.80009 5.93408C9.94715 5.47425 10.2104 5.05749 10.5221 4.68814C10.842 4.92338 11.1033 5.23755 11.2919 5.60548C11.3858 5.78963 11.4619 5.98732 11.5176 6.19613C11.5747 6.40591 11.6046 6.62151 11.6258 6.85555C11.6628 7.31928 11.6084 7.77265 11.4765 8.19602L11.4764 8.19611Z" fill="#FF8A00"/>
<path d="M14.3741 4.56494C14.2654 4.99925 14.0826 5.40927 13.8306 5.77388C13.1338 5.39279 12.6191 4.69868 12.4983 3.75204C12.4833 3.63381 12.4736 3.51426 12.4729 3.39601C12.4736 3.27869 12.481 3.16097 12.4943 3.04373C12.5205 2.8086 12.5706 2.5744 12.6425 2.34494C12.7782 1.88162 13.031 1.45849 13.3335 1.08157C13.6592 1.30885 13.9282 1.61648 14.1257 1.97964C14.2242 2.16142 14.3052 2.35718 14.366 2.56455C14.4282 2.77286 14.4635 2.98765 14.4904 3.2211C14.5389 3.68378 14.4956 4.13835 14.3742 4.56485L14.3741 4.56494Z" fill="#FF8A00"/>
</svg>
