<svg width="26" height="57" viewBox="0 0 26 57" fill="none" xmlns="http://www.w3.org/2000/svg">
<path d="M9.7135 49.7443C9.8725 49.7006 10.034 49.6611 10.197 49.6252C10.3613 49.5883 10.5302 49.5523 10.6998 49.5218C11.0392 49.4598 11.3852 49.4123 11.7367 49.3793C11.9125 49.3628 12.0891 49.3502 12.2674 49.3412C12.4463 49.3312 12.6222 49.3292 12.8083 49.321C13.1766 49.3093 13.5494 49.3112 13.9244 49.3287C14.1119 49.3374 14.2977 49.3496 14.4818 49.3652C14.6679 49.3786 14.857 49.3902 15.0418 49.4082C15.4127 49.4427 15.7758 49.4909 16.1316 49.5529C16.4951 49.6049 16.8545 49.6648 17.2046 49.7414C17.3807 49.7778 17.5509 49.8238 17.7267 49.8622C17.9026 49.8996 18.0769 49.9405 18.2495 49.9848C18.4216 50.0291 18.5926 50.0764 18.7608 50.1275L19.0124 50.2067L19.2678 50.2795C19.6068 50.379 19.9384 50.4927 20.2634 50.6198C20.5935 50.7365 20.9219 50.8562 21.2415 50.9958C21.5583 51.142 21.8829 51.2685 22.1978 51.4191C21.981 51.9971 21.6987 52.5495 21.3405 53.0617C21.1614 53.3178 20.9631 53.5635 20.7449 53.7971C20.5275 54.0292 20.2866 54.2567 20.0312 54.4541C19.5186 54.8552 18.9223 55.1963 18.2393 55.4607C17.8954 55.5974 17.5408 55.6939 17.1619 55.7754C16.7832 55.8559 16.3837 55.9138 15.9631 55.9476C15.7511 55.968 15.5463 55.9659 15.3347 55.9659C15.1239 55.9638 14.9115 55.9561 14.697 55.9416C14.2687 55.9121 13.8284 55.8654 13.403 55.7702C12.9734 55.6807 12.5399 55.5673 12.106 55.4318C11.6787 55.2889 11.2592 55.1145 10.8386 54.9248C10.63 54.8278 10.4164 54.7316 10.2147 54.6202C10.013 54.5083 9.81218 54.3917 9.61322 54.2706C9.41425 54.1494 9.21665 54.0237 9.02143 53.8935C8.92418 53.828 8.82517 53.7632 8.73064 53.6943C8.63743 53.6241 8.54433 53.5534 8.452 53.4811C8.08265 53.1928 7.72311 52.8883 7.37565 52.5704C7.04125 52.2424 6.72017 51.9 6.41373 51.5478C7.29533 50.6834 8.44014 50.0924 9.71348 49.7443L9.7135 49.7443Z" fill="#FF8A00"/>
<path d="M8.36922 38.6975C8.65627 38.7771 8.93549 38.8735 9.22563 38.9784C9.51691 39.0829 9.80745 39.2007 10.0956 39.3321C10.3855 39.4627 10.6584 39.6076 10.9338 39.7562C11.2124 39.9026 11.4816 40.0592 11.7401 40.2242C12.2479 40.5612 12.7607 40.9071 13.2155 41.2972L13.3851 41.4444L13.5588 41.5896C13.6736 41.6873 13.7864 41.7868 13.8962 41.8885C14.0059 41.9902 14.1131 42.0941 14.2178 42.2003C14.3231 42.306 14.4222 42.4161 14.5299 42.5201C14.9534 42.9419 15.3192 43.41 15.69 43.8742C14.9068 44.5767 13.9571 45.1056 12.8654 45.3395C12.3253 45.453 11.749 45.4934 11.1411 45.4501C10.5266 45.411 9.90915 45.2686 9.26241 45.0359C7.96692 44.5724 6.77784 43.7328 5.77036 42.6575C5.51872 42.3887 5.29282 42.0992 5.0682 41.8023C4.95703 41.6535 4.84849 41.502 4.7426 41.3477C4.69053 41.2701 4.63619 41.1933 4.58762 41.1142L4.44518 40.8738C4.25794 40.5511 4.08245 40.2198 3.92045 39.8822L3.80149 39.6276C3.76318 39.5423 3.73002 39.4551 3.69573 39.3683C3.62777 39.1943 3.56323 39.0193 3.50208 38.8432C4.47103 38.4254 5.5518 38.2874 6.66283 38.3852C7.22631 38.4331 7.79871 38.5374 8.36935 38.6975L8.36922 38.6975Z" fill="#FF8A00"/>
<path d="M4.26988 28.8169C4.48351 28.8669 4.70138 28.9294 4.91507 29.0036C5.34389 29.1527 5.76654 29.3492 6.17527 29.5912C6.37964 29.7122 6.58094 29.8445 6.77762 29.9879C6.97543 30.1309 7.1797 30.2831 7.37375 30.4475C7.56893 30.6116 7.7549 30.7821 7.93061 30.9589C8.10632 31.1357 8.26908 31.3189 8.43843 31.5043C8.60334 31.6905 8.75921 31.8821 8.90449 32.0789C8.97713 32.1773 9.04741 32.2769 9.11532 32.3777C9.18271 32.4784 9.24765 32.5808 9.31713 32.6818C9.45258 32.8855 9.57814 33.0933 9.6938 33.3054C9.75164 33.4114 9.80658 33.5185 9.8597 33.6269C9.91228 33.7353 9.96145 33.8446 10.0162 33.9528C10.1218 34.1701 10.2176 34.391 10.3031 34.6155C10.3458 34.728 10.3862 34.8412 10.4238 34.9555L10.4787 35.1272L10.5364 35.2979C10.1405 35.4582 9.72606 35.5733 9.29762 35.6364C8.87034 35.6992 8.43611 35.7064 7.99197 35.6536C7.54887 35.6011 7.09871 35.4875 6.64798 35.307C6.19151 35.1283 5.75889 34.8751 5.32956 34.5514C5.11518 34.3893 4.9085 34.214 4.70952 34.0256C4.65962 33.9786 4.61043 33.9307 4.56185 33.8823C4.51502 33.8331 4.46942 33.7831 4.42391 33.7326C4.3329 33.6315 4.24462 33.5271 4.15836 33.4204C3.98543 33.2064 3.82191 32.9816 3.66701 32.7476C3.59018 32.6302 3.51352 32.5117 3.44346 32.3895C3.37608 32.2673 3.31075 32.1427 3.24847 32.016C2.73663 31.0063 2.42902 29.8672 2.34634 28.7229C2.76918 28.661 3.1991 28.6568 3.62836 28.7053C3.84221 28.7295 4.05692 28.7672 4.27002 28.817L4.26988 28.8169Z" fill="#FF8A00"/>
<path d="M5.18514 20.9408C5.51455 21.1408 5.82896 21.3802 6.12423 21.6551C6.42002 21.93 6.68855 22.2405 6.95687 22.586C7.21987 22.9311 7.44495 23.2927 7.63306 23.6655L7.70158 23.8057L7.77314 23.947C7.81948 24.0419 7.86364 24.1369 7.90543 24.233C7.9891 24.4249 8.06377 24.619 8.12893 24.8151C8.19626 25.0111 8.24535 25.2098 8.30192 25.4088C8.35789 25.6082 8.40443 25.8091 8.44162 26.0112C8.47881 26.2132 8.50719 26.4163 8.52614 26.6211L8.53908 26.7741L8.55526 26.9272C8.56473 27.0296 8.57213 27.1316 8.57672 27.2342C7.85238 27.3233 7.10835 27.2486 6.38927 26.9741C5.6848 26.699 5.01292 26.2234 4.42437 25.527C4.14204 25.1786 3.9012 24.7932 3.69531 24.3806C3.59423 24.1744 3.49601 23.9611 3.4192 23.7424C3.34395 23.524 3.27826 23.3003 3.22246 23.0724C2.98426 22.1603 2.96249 21.1872 3.08597 20.2455C3.81247 20.2973 4.5251 20.541 5.18507 20.9408L5.18514 20.9408Z" fill="#FF8A00"/>
<path d="M7.56717 15.6694C7.65804 15.7867 7.74154 15.909 7.82385 16.0382C7.90824 16.1677 7.98726 16.3033 8.06049 16.4444C8.20746 16.7265 8.32435 17.0174 8.41244 17.3129C8.45857 17.461 8.48919 17.6086 8.52675 17.7595C8.56221 17.91 8.59052 18.0615 8.61238 18.2129C8.65549 18.5161 8.67032 18.8208 8.65797 19.1239C8.64862 19.2752 8.64763 19.428 8.63296 19.5789C8.61986 19.7301 8.59986 19.8806 8.57308 20.0299C8.03536 19.9795 7.51038 19.8076 7.03578 19.5023C6.79873 19.3497 6.57287 19.1641 6.3665 18.9442C6.16691 18.7255 5.98559 18.4734 5.82793 18.1877C5.67036 17.9016 5.54356 17.5966 5.44757 17.2787C5.39701 17.119 5.36494 16.9583 5.33759 16.7951C5.31035 16.6315 5.29097 16.466 5.27883 16.2991C5.2667 16.1322 5.26243 15.9634 5.26462 15.7947C5.26785 15.6262 5.27406 15.456 5.29968 15.2888C5.34571 14.9533 5.41928 14.6205 5.51979 14.2967C6.04511 14.4208 6.5388 14.6788 6.97013 15.0438C7.18687 15.2262 7.38695 15.4359 7.56723 15.6695L7.56717 15.6694Z" fill="#FF8A00"/>
<path d="M9.95085 11.9292C9.96523 12.0588 9.98081 12.1908 9.98941 12.3226C9.99802 12.4544 10.0003 12.5857 9.99676 12.7159C9.98966 12.9769 9.9587 13.2359 9.9045 13.4892C9.85638 13.7446 9.79321 13.9968 9.70361 14.2401C9.25849 14.1193 8.84189 13.8975 8.48637 13.5733C8.30861 13.4112 8.14617 13.2232 8.00269 13.0101C7.86234 12.7975 7.74758 12.5619 7.65458 12.3005C7.47204 11.7795 7.39049 11.2078 7.45028 10.647C7.47604 10.3656 7.52727 10.0833 7.60216 9.80727C7.6374 9.66806 7.68585 9.53333 7.73976 9.40119C7.79325 9.26843 7.8523 9.13771 7.91673 9.0101C8.34385 9.18425 8.72582 9.46515 9.03959 9.82778C9.19773 10.0096 9.33426 10.2102 9.45891 10.4324C9.5846 10.6548 9.69147 10.8955 9.77607 11.1527C9.86031 11.4087 9.91801 11.6687 9.95085 11.9292L9.95085 11.9292Z" fill="#FF8A00"/>
<path d="M11.9784 8.55183C11.859 8.98332 11.6661 9.38871 11.4052 9.74699C10.718 9.34884 10.2206 8.64224 10.1232 7.69291C10.1111 7.57435 10.1043 7.4546 10.1065 7.33637C10.1101 7.2191 10.1204 7.1016 10.1366 6.98472C10.1686 6.75031 10.2245 6.51741 10.302 6.28979C10.4491 5.82997 10.7123 5.4132 11.024 5.04386C11.344 5.27909 11.6053 5.59327 11.7938 5.96119C11.8878 6.14534 11.9639 6.34304 12.0196 6.55185C12.0767 6.76163 12.1066 6.97723 12.1278 7.21127C12.1648 7.675 12.1103 8.12836 11.9784 8.55174L11.9784 8.55183Z" fill="#FF8A00"/>
<path d="M14.8761 4.92041C14.7674 5.35471 14.5845 5.76474 14.3325 6.12934C13.6357 5.74826 13.1211 5.05415 13.0003 4.10751C12.9853 3.98928 12.9756 3.86973 12.9749 3.75148C12.9755 3.63416 12.9829 3.51644 12.9962 3.3992C13.0224 3.16407 13.0726 2.92987 13.1445 2.70041C13.2801 2.23709 13.533 1.81396 13.8355 1.43704C14.1612 1.66432 14.4301 1.97195 14.6277 2.33511C14.7261 2.51689 14.8071 2.71265 14.868 2.92002C14.9302 3.12833 14.9654 3.34312 14.9924 3.57657C15.0408 4.03925 14.9975 4.49382 14.8761 4.92032L14.8761 4.92041Z" fill="#FF8A00"/>
</svg>
