<svg width="664" height="159" viewBox="0 0 664 159" fill="none" xmlns="http://www.w3.org/2000/svg">
<g clip-path="url(#clip0_2696_31133)">
<mask id="mask0_2696_31133" style="mask-type:alpha" maskUnits="userSpaceOnUse" x="378" y="0" width="320" height="326">
<path d="M469.458 43.8165C497.143 -13.277 578.479 -13.2771 606.164 43.8165L689.804 216.302C714.268 266.752 677.52 325.412 621.451 325.412H454.171C398.103 325.412 361.355 266.752 385.818 216.302L469.458 43.8165Z" fill="#F23FA0"/>
</mask>
<g mask="url(#mask0_2696_31133)">
<path d="M469.458 43.8165C497.143 -13.277 578.479 -13.2771 606.164 43.8165L689.804 216.302C714.268 266.752 677.52 325.412 621.451 325.412H454.171C398.103 325.412 361.355 266.752 385.818 216.302L469.458 43.8165Z" fill="#FA41A5"/>
<g opacity="0.4" filter="url(#filter0_f_2696_31133)">
<path d="M435.838 148.016C453.311 111.976 504.645 111.976 522.118 148.016L574.906 256.896C590.346 288.742 567.153 325.771 531.766 325.771H426.19C390.803 325.771 367.61 288.742 383.05 256.896L435.838 148.016Z" fill="#CC1479"/>
</g>
<path d="M544.342 53.3003C542.841 55.6498 542.126 57.3834 541.326 60.6122C540.485 64.0106 540.253 66.2398 540.354 69.9367" stroke="#1A052F" stroke-width="9.59927" stroke-linecap="round"/>
<path d="M520.791 53.3003C519.29 55.6498 518.575 57.3834 517.776 60.6122C516.934 64.0106 516.702 66.2398 516.803 69.9367" stroke="#1A052F" stroke-width="9.59927" stroke-linecap="round"/>
<path d="M536.984 111.161C536.984 111.161 555.554 119.22 562.306 95.0417" stroke="#1A052F" stroke-width="9.59927" stroke-linecap="round"/>
</g>
<mask id="mask1_2696_31133" style="mask-type:alpha" maskUnits="userSpaceOnUse" x="0" y="17" width="243" height="225">
<path d="M78.1794 241.469C30.9807 241.469 -8.50206 202.685 2.25424 156.728C2.34187 156.354 2.43008 155.98 2.5189 155.606C8.98901 128.384 18.4724 103.65 30.4276 82.8148C42.3828 61.9801 56.5757 45.453 72.1959 34.1774C87.8161 22.9017 104.558 17.0981 121.465 17.0981C138.372 17.0981 155.114 22.9017 170.734 34.1774C186.354 45.4531 200.547 61.9801 212.502 82.8148C224.458 103.65 233.941 128.384 240.411 155.606C240.5 155.98 240.588 156.354 240.676 156.728C251.432 202.685 211.949 241.469 164.751 241.469H78.1794Z" fill="#BD8AFF"/>
</mask>
<g mask="url(#mask1_2696_31133)">
<path d="M78.1794 241.469C30.9807 241.469 -8.50206 202.685 2.25424 156.728C2.34187 156.354 2.43008 155.98 2.5189 155.606C8.98901 128.384 18.4724 103.65 30.4276 82.8148C42.3828 61.9801 56.5757 45.453 72.1959 34.1774C87.8161 22.9017 104.558 17.0981 121.465 17.0981C138.372 17.0981 155.114 22.9017 170.734 34.1774C186.354 45.4531 200.547 61.9801 212.502 82.8148C224.458 103.65 233.941 128.384 240.411 155.606C240.5 155.98 240.588 156.354 240.676 156.728C251.432 202.685 211.949 241.469 164.751 241.469H78.1794Z" fill="#B680F1"/>
<g opacity="0.8" filter="url(#filter1_f_2696_31133)">
<path d="M158.175 318.263C110.977 318.263 71.494 279.479 82.2503 233.522C82.338 233.148 82.4262 232.774 82.515 232.4C88.9851 205.178 98.4685 180.444 110.424 159.609C122.379 138.774 136.572 122.247 152.192 110.972C167.812 99.6959 184.554 93.8923 201.461 93.8923C218.368 93.8923 235.11 99.6959 250.73 110.972C266.35 122.247 280.543 138.774 292.498 159.609C304.454 180.444 313.937 205.178 320.407 232.4C320.496 232.774 320.584 233.148 320.672 233.522C331.428 279.479 291.945 318.263 244.747 318.263H158.175Z" fill="#9D69DF"/>
</g>
<path d="M113.558 69.3693C115.06 71.7189 115.775 73.4525 116.574 76.6813C117.415 80.0797 117.648 82.3089 117.547 86.0058" stroke="#1A052F" stroke-width="9.59927" stroke-linecap="round"/>
<path d="M137.105 69.3698C138.607 71.7194 139.322 73.453 140.121 76.6818C140.962 80.0802 141.195 82.3093 141.094 86.0063" stroke="#1A052F" stroke-width="9.59927" stroke-linecap="round"/>
<path d="M126.818 121.001C126.818 121.001 108.306 129.799 101.574 103.403" stroke="#1A052F" stroke-width="9.59927" stroke-linecap="round"/>
</g>
</g>
<defs>
<filter id="filter0_f_2696_31133" x="266.194" y="8.99486" width="425.567" height="428.767" filterUnits="userSpaceOnUse" color-interpolation-filters="sRGB">
<feFlood flood-opacity="0" result="BackgroundImageFix"/>
<feBlend mode="normal" in="SourceGraphic" in2="BackgroundImageFix" result="shape"/>
<feGaussianBlur stdDeviation="55.9957" result="effect1_foregroundBlur_2696_31133"/>
</filter>
<filter id="filter1_f_2696_31133" x="-31.5247" y="-18.0991" width="465.971" height="448.354" filterUnits="userSpaceOnUse" color-interpolation-filters="sRGB">
<feFlood flood-opacity="0" result="BackgroundImageFix"/>
<feBlend mode="normal" in="SourceGraphic" in2="BackgroundImageFix" result="shape"/>
<feGaussianBlur stdDeviation="55.9957" result="effect1_foregroundBlur_2696_31133"/>
</filter>
<clipPath id="clip0_2696_31133">
<rect width="662.708" height="157.951" fill="white" transform="translate(0.648438 0.923828)"/>
</clipPath>
</defs>
</svg>
