<svg width="25" height="57" viewBox="0 0 25 57" fill="none" xmlns="http://www.w3.org/2000/svg">
<path d="M16.1293 50.0707C15.9709 50.027 15.8099 49.9876 15.6474 49.9516C15.4837 49.9147 15.3153 49.8787 15.1463 49.8482C14.808 49.7862 14.4632 49.7387 14.1128 49.7057C13.9377 49.6892 13.7616 49.6767 13.5839 49.6676C13.4056 49.6576 13.2303 49.6556 13.0448 49.6474C12.6778 49.6357 12.3061 49.6377 11.9324 49.6551C11.7456 49.6638 11.5604 49.676 11.3769 49.6916C11.1914 49.705 11.0029 49.7167 10.8187 49.7346C10.4491 49.7691 10.0872 49.8173 9.73254 49.8793C9.37025 49.9313 9.01202 49.9912 8.66316 50.0678C8.48758 50.1042 8.31799 50.1502 8.14278 50.1887C7.96739 50.226 7.79368 50.2669 7.62164 50.3112C7.45013 50.3555 7.27968 50.4028 7.11206 50.4539L6.86133 50.5331L6.60682 50.606C6.26893 50.7054 5.93838 50.8191 5.61447 50.9463C5.2855 51.063 4.95814 51.1826 4.63964 51.3222C4.32389 51.4684 4.00041 51.5949 3.68651 51.7456C3.9026 52.3235 4.18399 52.8759 4.54099 53.3881C4.71948 53.6442 4.9171 53.8899 5.13458 54.1235C5.35128 54.3556 5.59132 54.5831 5.84595 54.7805C6.35683 55.1816 6.95115 55.5227 7.63188 55.7871C7.97462 55.9238 8.32804 56.0203 8.70568 56.1018C9.08312 56.1823 9.48133 56.2402 9.90051 56.274C10.1118 56.2944 10.3159 56.2923 10.5268 56.2923C10.7369 56.2902 10.9486 56.2825 11.1623 56.268C11.5892 56.2385 12.0281 56.1918 12.4521 56.0966C12.8803 56.0071 13.3123 55.8937 13.7448 55.7583C14.1706 55.6153 14.5888 55.4409 15.008 55.2512C15.2159 55.1542 15.4287 55.058 15.6298 54.9466C15.8308 54.8347 16.031 54.7181 16.2293 54.597C16.4276 54.4759 16.6245 54.3501 16.8191 54.22C16.916 54.1544 17.0147 54.0896 17.1089 54.0208C17.2018 53.9505 17.2946 53.8798 17.3866 53.8076C17.7548 53.5192 18.1131 53.2147 18.4594 52.8968C18.7927 52.5688 19.1127 52.2264 19.4181 51.8742C18.5395 51.0098 17.3984 50.4188 16.1293 50.0707Z" fill="#FF8A00"/>
<path d="M17.4695 39.024C17.1834 39.1035 16.9051 39.1999 16.6159 39.3048C16.3256 39.4093 16.036 39.5271 15.7488 39.6585C15.4599 39.7892 15.1879 39.934 14.9134 40.0826C14.6358 40.229 14.3675 40.3857 14.1098 40.5506C13.6036 40.8876 13.0926 41.2335 12.6393 41.6236L12.4702 41.7708L12.2971 41.916C12.1827 42.0137 12.0703 42.1133 11.9609 42.2149C11.8515 42.3166 11.7446 42.4205 11.6403 42.5267C11.5354 42.6325 11.4366 42.7425 11.3292 42.8465C10.9072 43.2683 10.5426 43.7364 10.173 44.2006C10.9536 44.9031 11.9001 45.432 12.9882 45.666C13.5265 45.7794 14.1009 45.8198 14.7068 45.7765C15.3193 45.7374 15.9346 45.595 16.5792 45.3623C17.8704 44.8988 19.0556 44.0592 20.0597 42.9839C20.3105 42.7152 20.5356 42.4256 20.7595 42.1287C20.8703 41.9799 20.9785 41.8284 21.084 41.6741C21.1359 41.5965 21.1901 41.5197 21.2385 41.4406L21.3805 41.2002C21.5671 40.8775 21.742 40.5462 21.9035 40.2087L22.022 39.954C22.0602 39.8687 22.0932 39.7815 22.1274 39.6948C22.1952 39.5207 22.2595 39.3457 22.3204 39.1696C21.3547 38.7518 20.2775 38.6138 19.1702 38.7116C18.6086 38.7595 18.0381 38.8638 17.4693 39.0239L17.4695 39.024Z" fill="#FF8A00"/>
<path d="M21.5539 29.1434C21.341 29.1933 21.1238 29.2558 20.9109 29.33C20.4835 29.4791 20.0622 29.6756 19.6548 29.9176C19.4512 30.0386 19.2505 30.1709 19.0545 30.3143C18.8573 30.4573 18.6538 30.6095 18.4603 30.7739C18.2658 30.938 18.0805 31.1085 17.9053 31.2853C17.7302 31.4621 17.568 31.6453 17.3992 31.8307C17.2348 32.0169 17.0795 32.2085 16.9347 32.4053C16.8623 32.5037 16.7922 32.6033 16.7246 32.7041C16.6574 32.8048 16.5927 32.9072 16.5234 33.0083C16.3884 33.2119 16.2633 33.4198 16.148 33.6318C16.0904 33.7378 16.0356 33.8449 15.9827 33.9534C15.9303 34.0617 15.8812 34.171 15.8267 34.2792C15.7214 34.4965 15.6259 34.7174 15.5407 34.9419C15.4982 35.0544 15.4579 35.1676 15.4205 35.2819L15.3658 35.4536L15.3082 35.6243C15.7028 35.7846 16.1159 35.8997 16.5429 35.9628C16.9687 36.0256 17.4015 36.0328 17.8442 35.98C18.2858 35.9275 18.7345 35.8139 19.1837 35.6334C19.6387 35.4547 20.0698 35.2015 20.4977 34.8778C20.7114 34.7157 20.9174 34.5405 21.1157 34.352C21.1655 34.305 21.2145 34.2571 21.2629 34.2087C21.3096 34.1595 21.355 34.1095 21.4004 34.059C21.4911 33.9579 21.5791 33.8535 21.6651 33.7468C21.8374 33.5328 22.0004 33.308 22.1548 33.074C22.2313 32.9566 22.3078 32.8381 22.3776 32.716C22.4447 32.5937 22.5099 32.4692 22.5719 32.3424C23.0821 31.3327 23.3887 30.1936 23.4711 29.0493C23.0496 28.9874 22.6211 28.9832 22.1933 29.0318C21.9802 29.0559 21.7662 29.0936 21.5538 29.1434L21.5539 29.1434Z" fill="#FF8A00"/>
<path d="M20.64 21.2733C20.3117 21.4733 19.9983 21.7128 19.704 21.9876C19.4092 22.2625 19.1416 22.573 18.8742 22.9185C18.612 23.2636 18.3877 23.6252 18.2002 23.998L18.1319 24.1383L18.0606 24.2795C18.0144 24.3744 17.9704 24.4694 17.9288 24.5656C17.8454 24.7574 17.7709 24.9515 17.706 25.1477C17.6389 25.3436 17.59 25.5424 17.5336 25.7413C17.4778 25.9407 17.4314 26.1417 17.3944 26.3437C17.3573 26.5457 17.329 26.7489 17.3101 26.9536L17.2972 27.1066L17.2811 27.2597C17.2716 27.3621 17.2643 27.4641 17.2597 27.5667C17.9816 27.6559 18.7232 27.5811 19.4399 27.3066C20.142 27.0315 20.8117 26.5559 21.3983 25.8596C21.6796 25.5111 21.9197 25.1257 22.1249 24.7131C22.2256 24.5069 22.3235 24.2936 22.4001 24.075C22.4751 23.8566 22.5406 23.6328 22.5962 23.4049C22.8336 22.4929 22.8553 21.5197 22.7322 20.5781C22.0081 20.6298 21.2979 20.8735 20.6401 21.2733L20.64 21.2733Z" fill="#FF8A00"/>
<path d="M18.2683 15.9959C18.1778 16.1131 18.0945 16.2354 18.0125 16.3646C17.9284 16.4942 17.8496 16.6297 17.7767 16.7708C17.6302 17.0529 17.5137 17.3438 17.4259 17.6393C17.3799 17.7874 17.3494 17.935 17.312 18.0859C17.2766 18.2364 17.2484 18.3879 17.2266 18.5393C17.1836 18.8425 17.1689 19.1472 17.1812 19.4504C17.1905 19.6017 17.1915 19.7544 17.2061 19.9053C17.2192 20.0565 17.2391 20.207 17.2658 20.3563C17.8017 20.3059 18.3249 20.134 18.798 19.8287C19.0342 19.6761 19.2593 19.4905 19.465 19.2706C19.6639 19.0519 19.8447 18.7998 20.0018 18.5141C20.1589 18.228 20.2852 17.923 20.3809 17.6051C20.4313 17.4454 20.4633 17.2847 20.4905 17.1216C20.5177 16.9579 20.537 16.7924 20.5491 16.6255C20.5612 16.4586 20.5654 16.2898 20.5632 16.1211C20.56 15.9526 20.5538 15.7824 20.5283 15.6152C20.4824 15.2797 20.4091 14.9469 20.3089 14.6232C19.7853 14.7473 19.2933 15.0053 18.8634 15.3702C18.6474 15.5526 18.448 15.7623 18.2683 15.9959L18.2683 15.9959Z" fill="#FF8A00"/>
<path d="M15.8927 12.2619C15.8783 12.3916 15.8628 12.5235 15.8542 12.6554C15.8456 12.7872 15.8434 12.9184 15.8469 13.0487C15.854 13.3097 15.8848 13.5687 15.9389 13.8219C15.9868 14.0773 16.0498 14.3296 16.1391 14.5728C16.5827 14.4521 16.9979 14.2302 17.3523 13.906C17.5294 13.7439 17.6913 13.556 17.8343 13.3428C17.9742 13.1302 18.0886 12.8947 18.1813 12.6333C18.3632 12.1123 18.4445 11.5406 18.3849 10.9798C18.3592 10.6984 18.3082 10.4161 18.2335 10.14C18.1984 10.0008 18.1501 9.86609 18.0964 9.73395C18.0431 9.60119 17.9842 9.47047 17.92 9.34286C17.4943 9.51701 17.1136 9.79792 16.8009 10.1605C16.6433 10.3424 16.5072 10.543 16.383 10.7652C16.2577 10.9876 16.1512 11.2283 16.0669 11.4855C15.9829 11.7415 15.9254 12.0015 15.8927 12.262L15.8927 12.2619Z" fill="#FF8A00"/>
<path d="M13.8703 8.88435C13.9892 9.31584 14.1816 9.72123 14.4416 10.0795C15.1265 9.68136 15.6222 8.97476 15.7193 8.02543C15.7314 7.90687 15.7381 7.78712 15.7359 7.66889C15.7323 7.55162 15.7221 7.43412 15.7059 7.31724C15.674 7.08283 15.6183 6.84993 15.541 6.62231C15.3945 6.16249 15.1321 5.74572 14.8215 5.37638C14.5026 5.61161 14.2421 5.92579 14.0542 6.29371C13.9606 6.47786 13.8847 6.67556 13.8292 6.88437C13.7723 7.09415 13.7425 7.30975 13.7214 7.54379C13.6845 8.00752 13.7388 8.46089 13.8702 8.88426L13.8703 8.88435Z" fill="#FF8A00"/>
<path d="M10.9826 5.25317C11.0909 5.68748 11.2732 6.0975 11.5243 6.46211C12.2188 6.08102 12.7318 5.38691 12.8522 4.44027C12.8671 4.32204 12.8768 4.20249 12.8775 4.08424C12.8768 3.96692 12.8695 3.8492 12.8562 3.73196C12.8301 3.49683 12.7801 3.26263 12.7084 3.03317C12.5732 2.56985 12.3212 2.14672 12.0197 1.7698C11.6951 1.99708 11.427 2.30471 11.2301 2.66787C11.132 2.84965 11.0513 3.04541 10.9907 3.25278C10.9287 3.46109 10.8935 3.67589 10.8667 3.90933C10.8184 4.37201 10.8615 4.82658 10.9825 5.25308L10.9826 5.25317Z" fill="#FF8A00"/>
</svg>
