<svg width="15" height="16" viewBox="0 0 15 16" fill="none" xmlns="http://www.w3.org/2000/svg">
<g clip-path="url(#clip0_2769_15342)">
<path d="M12.5008 7.36126C12.352 6.29031 11.8552 5.298 11.0869 4.53718C10.3186 3.77637 9.3215 3.28926 8.24914 3.15089C7.17679 3.01252 6.08868 3.23057 5.15244 3.77145C4.2162 4.31232 3.48376 5.14602 3.06796 6.14412M2.76367 3.70983V6.14412H5.19796" stroke="#1A052F" stroke-width="0.912859" stroke-linecap="round" stroke-linejoin="round"/>
<path d="M2.76367 8.57861C2.9125 9.64957 3.40933 10.6419 4.17761 11.4027C4.94589 12.1635 5.943 12.6506 7.01536 12.789C8.08772 12.9274 9.17582 12.7093 10.1121 12.1684C11.0483 11.6276 11.7807 10.7939 12.1965 9.79576M12.5008 12.23V9.79576H10.0665" stroke="#1A052F" stroke-width="0.912859" stroke-linecap="round" stroke-linejoin="round"/>
</g>
<defs>
<clipPath id="clip0_2769_15342">
<rect width="14.6057" height="14.6057" fill="white" transform="translate(0.330078 0.667236)"/>
</clipPath>
</defs>
</svg>
