<svg width="15" height="15" viewBox="0 0 15 15" fill="none" xmlns="http://www.w3.org/2000/svg">
<g clip-path="url(#clip0_2733_14841)">
<path d="M12.5008 6.87286C12.352 5.80191 11.8552 4.80959 11.0869 4.04878C10.3186 3.28796 9.3215 2.80085 8.24914 2.66249C7.17679 2.52412 6.08868 2.74217 5.15244 3.28304C4.2162 3.82392 3.48376 4.65762 3.06796 5.65572M2.76367 3.22143V5.65572H5.19796" stroke="#1A052F" stroke-width="0.912859" stroke-linecap="round" stroke-linejoin="round"/>
<path d="M2.76367 8.09015C2.9125 9.1611 3.40933 10.1534 4.17761 10.9142C4.94589 11.675 5.943 12.1622 7.01536 12.3005C8.08772 12.4389 9.17582 12.2208 10.1121 11.68C11.0483 11.1391 11.7807 10.3054 12.1965 9.30729M12.5008 11.7416V9.30729H10.0665" stroke="#1A052F" stroke-width="0.912859" stroke-linecap="round" stroke-linejoin="round"/>
</g>
<defs>
<clipPath id="clip0_2733_14841">
<rect width="14.6057" height="14.6057" fill="white" transform="translate(0.330078 0.178711)"/>
</clipPath>
</defs>
</svg>
