<svg width="111" height="240" viewBox="0 0 111 240" fill="none" xmlns="http://www.w3.org/2000/svg">
<rect width="111" height="240" rx="11" fill="url(#paint0_linear_906_24240)"/>
<path d="M9.55213 64.8864H11.5922V62.5371H12.9709C14.7608 62.5371 15.9171 61.4374 15.9171 59.7212V59.7101C15.9171 57.994 14.7608 56.8721 12.9709 56.8721H9.55213V64.8864ZM12.4817 58.4327C13.3433 58.4327 13.8547 58.877 13.8547 59.7101V59.7212C13.8547 60.5543 13.3433 61.0042 12.4817 61.0042H11.5922V58.4327H12.4817Z" fill="white"/>
<path d="M16.9508 64.8864H18.9242V56.8721H16.9508V64.8864Z" fill="white"/>
<path d="M21.9536 64.9697C22.7429 64.9697 23.3433 64.6253 23.688 64.0311H23.7269V64.8864H25.6947V60.7598C25.6947 59.5324 24.6219 58.7104 22.9931 58.7104C21.3087 58.7104 20.3026 59.5157 20.2081 60.6932L20.2025 60.7654H21.9758L21.9869 60.7098C22.0536 60.3988 22.3649 60.1544 22.893 60.1544C23.4434 60.1544 23.7269 60.4266 23.7269 60.8653V61.1652L22.3483 61.2541C20.7862 61.3596 19.9079 61.9983 19.9079 63.1369V63.1424C19.9079 64.1977 20.7362 64.9697 21.9536 64.9697ZM21.8424 63.0147V63.0091C21.8424 62.6481 22.1148 62.4204 22.6651 62.3871L23.7269 62.3149V62.7203C23.7269 63.2313 23.2766 63.609 22.6429 63.609C22.1593 63.609 21.8424 63.3924 21.8424 63.0147Z" fill="white"/>
<path d="M29.7636 65.0141C31.5091 65.0141 32.5708 63.9589 32.6098 62.5537V62.5148H30.8031L30.792 62.5704C30.7142 63.148 30.364 63.5201 29.7858 63.5201C29.0854 63.5201 28.6852 62.9314 28.6852 61.865V61.8595C28.6852 60.8098 29.0965 60.2044 29.7803 60.2044C30.3584 60.2044 30.7142 60.5932 30.792 61.1541L30.7976 61.2097H32.6098L32.6042 61.1708C32.5764 59.7323 31.4535 58.7104 29.7469 58.7104C27.8625 58.7104 26.684 59.9045 26.684 61.8539V61.8595C26.684 63.82 27.8569 65.0141 29.7636 65.0141Z" fill="white"/>
<path d="M36.4563 65.0141C38.3852 65.0141 39.1468 63.8811 39.3302 63.0425L39.3469 62.9758H37.5681L37.5625 63.0036C37.4736 63.2535 37.1289 63.6145 36.4952 63.6145C35.7781 63.6145 35.3334 63.1313 35.3112 62.3149H39.3803V61.7373C39.3803 59.9045 38.2185 58.7104 36.3896 58.7104C34.5496 58.7104 33.3822 59.9156 33.3822 61.8595V61.865C33.3822 63.82 34.544 65.0141 36.4563 65.0141ZM36.4341 60.11C37.0122 60.11 37.4235 60.4766 37.5236 61.1541H35.339C35.439 60.4877 35.8559 60.11 36.4341 60.11Z" fill="white"/>
<path d="M45.2667 64.8864H47.3068V62.1316L50.0696 56.8721H47.9016L46.3062 60.2044H46.2673L44.6719 56.8721H42.5039L45.2667 62.1316V64.8864Z" fill="white"/>
<path d="M52.5375 65.0141C54.4442 65.0141 55.6338 63.8644 55.6338 61.865V61.8539C55.6338 59.8823 54.422 58.7104 52.5375 58.7104C50.6586 58.7104 49.4412 59.8934 49.4412 61.8539V61.865C49.4412 63.8589 50.6197 65.0141 52.5375 65.0141ZM52.5431 63.5201C51.8593 63.5201 51.4424 62.9314 51.4424 61.865V61.8539C51.4424 60.8098 51.8704 60.2044 52.5375 60.2044C53.2046 60.2044 53.6382 60.8098 53.6382 61.8539V61.865C53.6382 62.9258 53.2157 63.5201 52.5431 63.5201Z" fill="white"/>
<path d="M58.6799 65.0141C59.5971 65.0141 60.2141 64.5809 60.5199 63.82H60.5588V64.8864H62.5266V58.8382H60.5588V62.2705C60.5588 62.9425 60.1641 63.4146 59.5415 63.4146C58.8911 63.4146 58.5687 63.0036 58.5687 62.3093V58.8382H56.5953V62.7314C56.5953 64.1644 57.3513 65.0141 58.6799 65.0141Z" fill="white"/>
<path d="M63.7104 64.8864H65.6838V61.6762C65.6838 60.8153 66.1341 60.3599 66.9624 60.3599C67.1959 60.3599 67.4238 60.4044 67.5905 60.471V58.7882C67.4405 58.7382 67.2681 58.7104 67.0791 58.7104C66.3676 58.7104 65.8895 59.1436 65.7228 59.9101H65.6838V58.8382H63.7104V64.8864Z" fill="white"/>
<path d="M9.10742 78.5356H11.2476L11.7479 76.7751H14.3661L14.8664 78.5356H17.0066L14.305 70.5214H11.809L9.10742 78.5356ZM13.0376 72.2653H13.0765L13.9437 75.3088H12.1704L13.0376 72.2653Z" fill="white"/>
<path d="M17.8736 80.4795H19.847V77.4971H19.8859C20.1861 78.2246 20.8531 78.6634 21.7259 78.6634C23.2379 78.6634 24.1218 77.5026 24.1218 75.5143V75.5088C24.1218 73.5094 23.2323 72.3597 21.7037 72.3597C20.842 72.3597 20.1972 72.8096 19.8915 73.5649H19.847V72.4874H17.8736V80.4795ZM20.981 77.0639C20.2917 77.0639 19.8359 76.4751 19.8359 75.5199V75.5143C19.8359 74.5479 20.2973 73.9648 20.981 73.9648C21.6759 73.9648 22.1206 74.5424 22.1206 75.5088V75.5143C22.1206 76.4696 21.6759 77.0639 20.981 77.0639Z" fill="white"/>
<path d="M25.1277 80.4795H27.1011V77.4971H27.14C27.4402 78.2246 28.1073 78.6634 28.98 78.6634C30.492 78.6634 31.3759 77.5026 31.3759 75.5143V75.5088C31.3759 73.5094 30.4865 72.3597 28.9578 72.3597C28.0962 72.3597 27.4513 72.8096 27.1456 73.5649H27.1011V72.4874H25.1277V80.4795ZM28.2351 77.0639C27.5458 77.0639 27.09 76.4751 27.09 75.5199V75.5143C27.09 74.5479 27.5514 73.9648 28.2351 73.9648C28.93 73.9648 29.3747 74.5424 29.3747 75.5088V75.5143C29.3747 76.4696 28.93 77.0639 28.2351 77.0639Z" fill="white"/>
<path d="M38.0461 78.68C40.1696 78.68 41.4259 77.6637 41.4259 76.0642V76.0586C41.4259 74.7757 40.6366 74.087 38.9356 73.7593L38.1128 73.6038C37.2512 73.4427 36.8732 73.215 36.8732 72.7818V72.7762C36.8732 72.3153 37.2957 71.9765 38.0461 71.9765C38.7799 71.9765 39.2969 72.3042 39.358 72.8318L39.3636 72.8929H41.2592L41.2536 72.7762C41.1814 71.3211 40.0418 70.377 38.0295 70.377C36.1895 70.377 34.8498 71.3711 34.8498 72.9151V72.9206C34.8498 74.1481 35.6892 74.9312 37.279 75.2255L38.1017 75.381C39.0412 75.5643 39.3969 75.7754 39.3969 76.2308V76.2363C39.3969 76.7362 38.8966 77.0805 38.085 77.0805C37.3012 77.0805 36.7009 76.7417 36.6008 76.2252L36.5897 76.1641H34.6941L34.6997 76.2641C34.7886 77.797 36.0505 78.68 38.0461 78.68Z" fill="white"/>
<path d="M45.3614 78.6634C47.1069 78.6634 48.1687 77.6081 48.2076 76.203V76.1641H46.4009L46.3898 76.2197C46.312 76.7973 45.9618 77.1694 45.3837 77.1694C44.6832 77.1694 44.283 76.5807 44.283 75.5143V75.5088C44.283 74.4591 44.6943 73.8537 45.3781 73.8537C45.9562 73.8537 46.312 74.2425 46.3898 74.8034L46.3954 74.859H48.2076L48.202 74.8201C48.1742 73.3816 47.0513 72.3597 45.3447 72.3597C43.4603 72.3597 42.2818 73.5538 42.2818 75.5032V75.5088C42.2818 77.4693 43.4547 78.6634 45.3614 78.6634Z" fill="white"/>
<path d="M49.1635 78.5356H51.1369V75.3255C51.1369 74.4646 51.5872 74.0092 52.4154 74.0092C52.6489 74.0092 52.8768 74.0536 53.0436 74.1203V72.4375C52.8935 72.3875 52.7212 72.3597 52.5322 72.3597C51.8206 72.3597 51.3426 72.7929 51.1758 73.5593H51.1369V72.4874H49.1635V78.5356Z" fill="white"/>
<path d="M56.6066 78.6634C58.5356 78.6634 59.2971 77.5304 59.4806 76.6917L59.4972 76.6251H57.7184L57.7128 76.6529C57.6239 76.9028 57.2792 77.2638 56.6455 77.2638C55.9284 77.2638 55.4837 76.7806 55.4615 75.9642H59.5306V75.3866C59.5306 73.5538 58.3688 72.3597 56.5399 72.3597C54.6999 72.3597 53.5325 73.5649 53.5325 75.5088V75.5143C53.5325 77.4693 54.6944 78.6634 56.6066 78.6634ZM56.5844 73.7593C57.1625 73.7593 57.5739 74.1258 57.6739 74.8034H55.4893C55.5893 74.137 56.0063 73.7593 56.5844 73.7593Z" fill="white"/>
<path d="M63.416 78.6634C65.345 78.6634 66.1065 77.5304 66.29 76.6917L66.3067 76.6251H64.5278L64.5223 76.6529C64.4333 76.9028 64.0887 77.2638 63.4549 77.2638C62.7379 77.2638 62.2931 76.7806 62.2709 75.9642H66.34V75.3866C66.34 73.5538 65.1782 72.3597 63.3493 72.3597C61.5093 72.3597 60.342 73.5649 60.342 75.5088V75.5143C60.342 77.4693 61.5038 78.6634 63.416 78.6634ZM63.3938 73.7593C63.9719 73.7593 64.3833 74.1258 64.4833 74.8034H62.2987C62.3988 74.137 62.8157 73.7593 63.3938 73.7593Z" fill="white"/>
<path d="M67.3348 78.5356H69.3082V75.1033C69.3082 74.4313 69.6974 73.9648 70.3255 73.9648C70.9703 73.9648 71.2983 74.3702 71.2983 75.0645V78.5356H73.2662V74.6424C73.2662 73.2094 72.5157 72.3597 71.1871 72.3597C70.2699 72.3597 69.6473 72.7929 69.3472 73.5538H69.3082V72.4874H67.3348V78.5356Z" fill="white"/>
<path d="M77.0849 78.6634C78.747 78.6634 79.881 77.8692 79.881 76.6195V76.614C79.881 75.7087 79.3251 75.2089 78.041 74.9534L76.9737 74.7423C76.4012 74.6257 76.2177 74.4702 76.2177 74.2092V74.2036C76.2177 73.887 76.529 73.6871 77.0126 73.6871C77.5574 73.6871 77.8632 73.9814 77.9076 74.3369L77.9132 74.3813H79.7143L79.7087 74.3369C79.692 73.2539 78.7637 72.3597 77.0126 72.3597C75.3561 72.3597 74.3221 73.1095 74.3221 74.3147V74.3202C74.3221 75.2422 74.9392 75.8587 76.1232 76.0864L77.1905 76.2974C77.7297 76.4085 77.9243 76.5585 77.9243 76.8306V76.8362C77.9243 77.1472 77.6074 77.336 77.0849 77.336C76.5068 77.336 76.1955 77.0972 76.101 76.6862L76.0899 76.6418H74.1776L74.1832 76.6917C74.3166 77.8692 75.2838 78.6634 77.0849 78.6634Z" fill="white"/>
<path d="M80.8425 78.5356H82.8159V75.1089C82.8159 74.4424 83.205 73.9648 83.8276 73.9648C84.478 73.9648 84.8227 74.398 84.8227 75.1144V78.5356H86.7961V74.6923C86.7961 73.2372 86.0178 72.3597 84.6948 72.3597C83.7831 72.3597 83.155 72.7874 82.8548 73.576H82.8159V70.5214H80.8425V78.5356Z" fill="white"/>
<path d="M90.8761 78.6634C92.7828 78.6634 93.9724 77.5137 93.9724 75.5143V75.5032C93.9724 73.5316 92.7606 72.3597 90.8761 72.3597C88.9972 72.3597 87.7798 73.5427 87.7798 75.5032V75.5143C87.7798 77.5082 88.9583 78.6634 90.8761 78.6634ZM90.8816 77.1694C90.1979 77.1694 89.781 76.5807 89.781 75.5143V75.5032C89.781 74.4591 90.209 73.8537 90.8761 73.8537C91.5432 73.8537 91.9767 74.4591 91.9767 75.5032V75.5143C91.9767 76.5751 91.5543 77.1694 90.8816 77.1694Z" fill="white"/>
<path d="M97.591 78.6634C98.0024 78.6634 98.297 78.6301 98.5138 78.5912V77.1916C98.4026 77.2083 98.3025 77.2194 98.1469 77.2194C97.6633 77.2194 97.4298 77.025 97.4298 76.5029V73.9315H98.5138V72.4874H97.4298V71.0934H95.4564V72.4874H94.6337V73.9315H95.4564V76.7695C95.4564 78.1358 96.1235 78.6634 97.591 78.6634Z" fill="white"/>
<path d="M9.55213 92.1849H11.5922V88.9581H14.7886V92.1849H16.8232V84.1706H14.7886V87.3197H11.5922V84.1706H9.55213V92.1849Z" fill="white"/>
<path d="M21.031 92.3127C22.96 92.3127 23.7215 91.1797 23.905 90.341L23.9217 90.2744H22.1428L22.1372 90.3022C22.0483 90.5521 21.7037 90.9131 21.0699 90.9131C20.3528 90.9131 19.9081 90.4299 19.8859 89.6135H23.955V89.0359C23.955 87.2031 22.7932 86.009 20.9643 86.009C19.1243 86.009 17.957 87.2142 17.957 89.1581V89.1636C17.957 91.1186 19.1188 92.3127 21.031 92.3127ZM21.0088 87.4086C21.5869 87.4086 21.9983 87.7751 22.0983 88.4527H19.9137C20.0137 87.7862 20.4307 87.4086 21.0088 87.4086Z" fill="white"/>
<path d="M24.9498 92.1849H26.9232V88.9748C26.9232 88.1139 27.3735 87.6585 28.2018 87.6585C28.4353 87.6585 28.6632 87.7029 28.8299 87.7696V86.0867C28.6798 86.0368 28.5075 86.009 28.3185 86.009C27.607 86.009 27.1289 86.4422 26.9621 87.2086H26.9232V86.1367H24.9498V92.1849Z" fill="white"/>
<path d="M32.393 92.3127C34.3219 92.3127 35.0835 91.1797 35.2669 90.341L35.2836 90.2744H33.5047L33.4992 90.3022C33.4102 90.5521 33.0656 90.9131 32.4319 90.9131C31.7148 90.9131 31.2701 90.4299 31.2478 89.6135H35.3169V89.0359C35.3169 87.2031 34.1551 86.009 32.3263 86.009C30.4863 86.009 29.3189 87.2142 29.3189 89.1581V89.1636C29.3189 91.1186 30.4807 92.3127 32.393 92.3127ZM32.3707 87.4086C32.9489 87.4086 33.3602 87.7751 33.4603 88.4527H31.2756C31.3757 87.7862 31.7926 87.4086 32.3707 87.4086Z" fill="white"/>
<defs>
<linearGradient id="paint0_linear_906_24240" x1="55.5" y1="0" x2="55.5" y2="240" gradientUnits="userSpaceOnUse">
<stop stop-color="#1AD5FE"/>
<stop offset="1" stop-color="#1E63EF"/>
</linearGradient>
</defs>
</svg>
