<svg width="79" height="14" viewBox="0 0 79 14" fill="none" xmlns="http://www.w3.org/2000/svg">
<path opacity="0.35" fill-rule="evenodd" clip-rule="evenodd" d="M71.9979 1C73.2138 1 73.6629 1.10608 74.1097 1.345C74.5116 1.55998 74.8271 1.87545 75.0421 2.27743C75.281 2.72416 75.3871 3.17326 75.3871 4.38924V9.61076C75.3871 10.8267 75.281 11.2758 75.0421 11.7226C74.8271 12.1245 74.5116 12.44 74.1097 12.655C73.6629 12.8939 73.2138 13 71.9979 13H54.3892C53.1733 13 52.7242 12.8939 52.2774 12.655C51.8755 12.44 51.56 12.1245 51.345 11.7226C51.1061 11.2758 51 10.8267 51 9.61076V4.38924C51 3.17326 51.1061 2.72416 51.345 2.27743C51.56 1.87545 51.8755 1.55998 52.2774 1.345C52.7242 1.10608 53.1733 1 54.3892 1H71.9979Z" stroke="black"/>
<path opacity="0.4" d="M77.1289 4.67725V9.32241C78.0634 8.92899 78.6711 8.01379 78.6711 6.99983C78.6711 5.98587 78.0634 5.07066 77.1289 4.67725Z" fill="black"/>
<path d="M54.7271 2.7417H71.6605C72.3507 2.7417 72.601 2.81356 72.8533 2.94851C73.1056 3.08346 73.3037 3.28149 73.4386 3.53382C73.5735 3.78615 73.6454 4.03643 73.6454 4.72664V9.27288C73.6454 9.96309 73.5735 10.2134 73.4386 10.4657C73.3037 10.718 73.1056 10.9161 72.8533 11.051C72.601 11.186 72.3507 11.2578 71.6605 11.2578H54.7271C54.0369 11.2578 53.7866 11.186 53.5343 11.051C53.282 10.9161 53.0839 10.718 52.949 10.4657C52.8141 10.2134 52.7422 9.96309 52.7422 9.27288V4.72664C52.7422 4.03643 52.8141 3.78615 52.949 3.53382C53.0839 3.28149 53.282 3.08346 53.5343 2.94851C53.7866 2.81356 54.0369 2.7417 54.7271 2.7417Z" fill="black"/>
<path d="M34.5005 3.49216C36.967 3.49226 39.3393 4.42402 41.1269 6.09485C41.2615 6.22384 41.4766 6.22222 41.6092 6.0912L42.896 4.81448C42.9631 4.74803 43.0005 4.65802 43 4.56436C42.9994 4.47071 42.9609 4.38113 42.893 4.31546C38.2011 -0.105154 30.7991 -0.105154 26.1072 4.31546C26.0392 4.38109 26.0006 4.47063 26 4.56429C25.9994 4.65794 26.0368 4.74798 26.1038 4.81448L27.391 6.0912C27.5234 6.22241 27.7388 6.22404 27.8733 6.09485C29.6612 4.42391 32.0337 3.49215 34.5005 3.49216ZM34.5005 7.64589C35.8557 7.6458 37.1625 8.14103 38.1671 9.03533C38.3029 9.16225 38.517 9.15949 38.6494 9.02912L39.9347 7.7524C40.0024 7.68543 40.0399 7.59458 40.039 7.50018C40.038 7.40578 39.9986 7.3157 39.9295 7.2501C36.8705 4.45256 32.1331 4.45256 29.074 7.2501C29.0049 7.3157 28.9655 7.40582 28.9646 7.50026C28.9637 7.59469 29.0014 7.68553 29.0692 7.7524L30.3541 9.02912C30.4865 9.15949 30.7006 9.16225 30.8364 9.03533C31.8403 8.14162 33.1462 7.64644 34.5005 7.64589ZM36.9705 10.6929C37.0392 10.6266 37.0771 10.5353 37.0751 10.4406C37.0731 10.3459 37.0315 10.2563 36.9601 10.1928C35.5402 9.01211 33.4607 9.01211 32.0408 10.1928C31.9693 10.2562 31.9277 10.3459 31.9256 10.4405C31.9236 10.5352 31.9614 10.6265 32.0301 10.6929L34.2537 12.8987C34.3189 12.9635 34.4078 13 34.5005 13C34.5932 13 34.682 12.9635 34.7472 12.8987L36.9705 10.6929Z" fill="black"/>
<path d="M1.11765 8.5H2.23529C2.85255 8.5 3.35294 9.00368 3.35294 9.625V11.875C3.35294 12.4963 2.85255 13 2.23529 13H1.11765C0.500387 13 0 12.4963 0 11.875V9.625C0 9.00368 0.500387 8.5 1.11765 8.5ZM6.33332 6.25H7.45097C8.06823 6.25 8.56862 6.75368 8.56862 7.375V11.875C8.56862 12.4963 8.06823 13 7.45097 13H6.33332C5.71606 13 5.21567 12.4963 5.21567 11.875V7.375C5.21567 6.75368 5.71606 6.25 6.33332 6.25ZM11.549 3.625H12.6667C13.2839 3.625 13.7843 4.12868 13.7843 4.75V11.875C13.7843 12.4963 13.2839 13 12.6667 13H11.549C10.9318 13 10.4314 12.4963 10.4314 11.875V4.75C10.4314 4.12868 10.9318 3.625 11.549 3.625ZM16.7647 1H17.8824C18.4996 1 19 1.50368 19 2.125V11.875C19 12.4963 18.4996 13 17.8824 13H16.7647C16.1474 13 15.6471 12.4963 15.6471 11.875V2.125C15.6471 1.50368 16.1474 1 16.7647 1Z" fill="black"/>
</svg>
